<?xml version="1.0" encoding="utf-8"?>
<!-- Generator: Adobe Illustrator 16.0.0, SVG Export Plug-In . SVG Version: 6.00 Build 0)  -->
<!DOCTYPE svg PUBLIC "-//W3C//DTD SVG 1.1//EN" "http://www.w3.org/Graphics/SVG/1.1/DTD/svg11.dtd">
<svg version="1.1" id="Layer_1" xmlns="http://www.w3.org/2000/svg" xmlns:xlink="http://www.w3.org/1999/xlink" x="0px" y="0px"
	 width="1000px" height="600px" viewBox="0 0 1000 600" enable-background="new 0 0 1000 600" xml:space="preserve">
<path fill-rule="evenodd" clip-rule="evenodd" d="M692.434,267.084c-11.784,0.778-13.695-3.065-11.654-21.398
	c1.956,6.552-3.188,17.869,8.989,13.954c1.03-8.067,1.995-15.617,2.929-22.934c2.831-2.587,11.109,2.133,8.495-6.817
	c-0.053-0.185,0.786-0.724,1.275-0.96c9.027-4.378,18.062-8.736,28.457-13.754c0.12-0.754,0.589-3.713,1.127-7.102
	c13.542,1.237,27.095,2.289,40.582,3.874c2.549,0.3,4.895,2.655,7.256,4.182c9.464,6.121,18.397,13.359,28.499,18.119
	c8.941,4.211,8.286,12.765,12.004,19.266c3.472,6.066,6.154,12.584,9.145,18.921c1.001,2.122,2.689,4.296,2.697,6.45
	c0.162,40.199,0.121,80.4,0.121,121.058c-10.635,0-21.355,0-32.046,0c1.217-5.003,2.409-9.908,3.702-15.218
	c-11.959-0.668-14.439,8.713-20.019,16.162c-0.357-2.214-0.552-3.425-0.44-2.735c-13.828,0.654-27.393,1.649-40.97,1.853
	c-20.813,0.315-41.638,0.084-62.814,0.084c0-42.848,0-85.628,0-127.251c2.783,1.033,6.327,3.326,7.301,2.518
	C689.483,273.353,690.724,269.933,692.434,267.084z M709.788,295.307c-0.494,2.197-0.989,4.396-1.483,6.592
	c0.796,0.729,1.59,1.456,2.388,2.185c6.335-4.673,12.67-9.343,19.005-14.015c11.99-0.65,17.846,5.215,14.005,15.506
	c-3.344-1.646-6.589-3.246-9.833-4.844c-5.882,10.241-11.702,11.743-26.946,6.437c-1.568,12.744-1.728,24.858,7.942,34.98
	c1.438,1.503,2.747,3.739,2.923,5.743c0.999,11.382,7.901,19.368,15.725,26.351c8.155,7.282,17.795,13.129,29.236,11.883
	c17.945-1.958,31.08-13.626,43.769-24.969c3.83-3.423,6.265-10.316,6.343-15.661c0.223-15.502-0.096-31.149-2.075-46.5
	c-1.761-13.654-9.644-24.821-20.048-33.939c-4.039-3.539-8.59-6.606-12.112-10.59c-6.489-7.337-18.13-11.208-24.438-8.338
	c-4.197,1.911-9.192,3.438-13.677,3.102c-13.817-1.036-25.7,7.37-27.937,21.304C711.261,278.73,710.692,287.044,709.788,295.307z"/>
<path fill-rule="evenodd" clip-rule="evenodd" d="M208.695,376.738c-0.369,7.398-0.737,14.799-1.149,23.092
	c-2.609,0.196-5.195,0.392-7.354,0.555c-3.982-4.393,2.875-13.048-7.81-14.36c-1.781,11.982-8.097,17.821-20.636,13.177
	c-0.002-50.52-0.002-101.038-0.002-151.556c0.561,0.014,1.121,0.029,1.682,0.042c-0.25,3.117-0.501,6.233-0.919,11.432
	c10.202-9.89,20.118-17.746,27.79-27.387c9.375-11.779,21.978-15.54,35.373-18.797c1.885-0.458,3.603-2.674,5.311-2.575
	c3.485,0.203,6.911,1.428,12.694,2.776c10.885-10.587,21.868,0.314,32.71,5.882c20.916,10.739,27.443,30.427,29.751,52.171
	c0.088,0.828-0.124,1.804,0.241,2.474c10.647,19.551,4.124,40.827,6.243,61.225c1.526,14.691-3.002,27.74-9.552,40.516
	c-4.045,7.887-7.335,16.163-11.014,24.377c-6.53,0-13.36,0-20.99,0c1.648-9.396,3.168-18.053,4.687-26.707
	c-10.01,11.618-22.063,17.944-37.154,19.272c-15.684,1.382-28.478-3.24-37.894-16.607
	C210.032,376.073,209.363,376.406,208.695,376.738z M209.902,357.711c1.798,1.16,2.427,1.342,2.667,1.753
	c11.169,19.1,24.864,26.167,52.936,12.347c1.615-0.796,3.759-0.482,5.423-1.217c4.004-1.763,8.745-2.988,11.628-5.951
	c9.365-9.621,11.079-22.628,13.932-35.055c3.138-13.666,3.141-26.83-4.599-39.307c-2.128-3.432-3.464-7.575-4.268-11.574
	c-3.435-17.107-18.092-27.589-35.215-25.309c-4.224,0.562-9.043,0.662-12.906-0.814c-12.829-4.901-24.797-0.375-29.646,12.615
	c-4.448,11.918-8.322,24.056-12.229,36.168c-1.099,3.407-2.341,7.175-1.925,10.584c0.922,7.558,0.52,17.273,5.004,21.857
	c4.863,4.973,4.625,10.437,4.709,14.603c0.135,6.654,0.188,11.982,6.688,17.159C211.333,362.828,210.793,360.895,209.902,357.711z"
	/>
<path fill-rule="evenodd" clip-rule="evenodd" d="M489.218,278.521c0-21.38-0.003-42.762,0.029-64.144
	c0.002-0.484,0.431-0.967,1.295-2.789c0,63.427,0,125.51,0,188.636c-8.484,0-17.21,1.22-25.29-0.538
	c-3.761-0.817-8.712-7.316-8.862-11.397c-0.384-10.345,0.691-20.986,2.895-31.137c4.723-21.763,10.687-43.163,1.437-65.3
	c-4.083-9.775-8.865-12.695-19.127-10.182c-3.507,0.857-7.401,0.135-12.536,0.135c6.309-7.298,20.099-8.13,30.268-2.288
	c-10.305-15.124-13.328-34.606-35.751-34.462c1.173-3.586,2.008-6.145,2.844-8.701c-0.675-0.334-1.349-0.668-2.024-1.002
	c-2.314,3.631-4.627,7.262-6.939,10.889c-25.341-1.243-36.22,3.55-43.688,29.686c4.438-0.44,9.271-1.638,13.94-1.173
	c4.583,0.457,10.865-1.447,13.73,6.954c-4.786-0.973-8.434-1.596-12.021-2.466c-8.734-2.122-15.684,2.066-18.544,10.365
	c-7.285,21.137-6.761,42.265-2.14,63.896c2.231,10.447,2.035,21.437,2.671,32.195c0.427,7.22-2.997,12.124-10.569,14.694
	c0.081-1.616,0.148-2.942,0.144-2.861c-6.619,1.051-13.4,2.13-21.338,3.391c0-23.336-0.045-44.937,0.019-66.539
	c0.034-11.381-0.314-22.811,0.62-34.127c0.536-6.492,3.818-12.709,4.954-19.212c4.247-24.292,12.699-46.26,32.956-61.931
	c4.575-3.54,9.799-6.248,14.338-9.827c9.187-7.244,19.819-1.703,29.57-3.738c2.127-0.443,4.453,0.158,6.639-0.117
	c13.686-1.715,21.634,6.719,29.112,16.167c5.127,6.478,9.83,13.447,15.789,19.07c8.105,7.651,10.345,17.081,11.463,27.399
	c0.399,3.68,1.84,7.247,2.805,10.866C488.342,278.797,488.781,278.66,489.218,278.521z"/>
<path fill-rule="evenodd" clip-rule="evenodd" d="M520.377,286.184c2.684-2.866,5.365-5.735,8.048-8.602
	c0.554,0.146,1.104,0.293,1.658,0.44c-2.095,6.464-4.19,12.93-6.782,20.931c3.157-2.243,5.02-3.568,7.03-4.998
	c0,17.885-1.027,35.831,0.398,53.581c0.814,10.157,5.091,20.051,15.159,26.148c4.189,2.537,7.057,7.261,9.693,12.734
	c-4.811-2.3-9.623-4.601-15.838-7.569c0.312,4.672,0.636,9.522,0.969,14.536c-1.03-2.002-2.016-3.917-3.606-7.004
	c-0.865,2.237-1.717,3.369-1.652,4.447c0.442,7.533-2.62,10.496-10.366,9.392c-5.131-0.729-10.451-0.138-16.096-0.138
	c-0.311-2.523-0.733-4.372-0.739-6.221c-0.146-43.355-0.196-86.712-0.405-130.067c-0.044-9.174,1.241-17.077,9.11-23.671
	c8.808-7.379,15.574-17.223,24.486-24.442c14.619-11.842,32.073-11.164,49.255-7.309c16.175,3.629,28.606,13.223,39.662,25.621
	c8.539,9.577,19.158,17.301,30.402,27.216c0,44.341,0,91.158,0,137.92c-17.233,2.598-21.772-0.4-26.495-8.239
	c-5.625-9.337-4.272-16.896,1.361-25.288c-0.682-0.233-1.361-0.465-2.042-0.695c-2.621,3.539-5.24,7.079-7.859,10.615
	c-0.415-0.198-0.831-0.397-1.244-0.597c1.908-4.194,3.185-8.857,5.865-12.481c4.748-6.424,2.708-13.795,3.931-20.659
	c1.494-8.396,1.229-17.15,3.163-25.416c3.438-14.706,0.11-29.339,0.881-43.964c0.263-5-0.326-8.527-6.011-10.05
	c-1.832-0.492-2.985-3.511-3.196-6.468c1.862,2.111,3.726,4.223,5.588,6.333c-2.438-18.481-11.017-24.987-28.535-25.201
	c-15.648-0.19-31.293-1.384-46.915-2.487c-7.861-0.555-14.146,4.558-14.706,12.695c-0.065,0.937-0.519,2.121-1.206,2.697
	c-5.972,4.999-4.965,15.822-16.078,16.984c-12.001,1.254-12.175,2.752-8.127,14.513c0.239,0.697-0.834,1.846-1.296,2.784
	C518.687,284.866,519.532,285.526,520.377,286.184z M660.658,307.992c-1.02-0.505-2.039-1.007-3.06-1.511
	c-3.497,3.665-10.585,3.894-8.839,12.499c1.099,5.416-1.085,11.498-1.796,17.281c0.463-0.005,0.929-0.008,1.392-0.012
	C652.456,326.831,656.558,317.412,660.658,307.992z M516.574,316.867c0.844,1.64,1.587,3.08,2.33,4.522
	c0.926-0.464,1.852-0.928,2.775-1.391c-3.107-6.437-6.218-12.874-9.326-19.311c-1.317,0.479-2.635,0.958-3.952,1.436
	c1.502,6.838,3.003,13.677,4.506,20.513c0.868-0.103,1.737-0.208,2.604-0.311C515.849,320.593,516.187,318.862,516.574,316.867z"/>
<path fill-rule="evenodd" clip-rule="evenodd" d="M982.118,333.684c-0.404-2.053-1.052-4.092-1.18-6.161
	c-1.288-20.922-2.181-41.872-3.832-62.763c-1.002-12.683-13.06-20.854-25.911-18.11c-11.116,2.374-22.076,5.506-33.221,7.716
	c-3.268,0.647-7.472,0.248-10.306-1.345c-6.812-3.827-10.997-1.05-14.56,4.34c-4.179,6.328-8.272,12.394-16.701,13.888
	c-1.458,0.258-3.233,4.284-3.194,6.541c0.294,16.813,1.099,33.618,1.518,50.432c0.093,3.733-0.711,7.487-2.012,11.69
	c-3.498-12.314,0.305-28.774-19.433-31.844c-0.403,2.192-1.014,5.518-1.625,8.842c0.328,0.086,0.656,0.173,0.986,0.261
	c0.312-0.939,0.625-1.874,0.938-2.812c5.266,27.28,7.675,31.074,19.593,30.744c5.702,17.796,13.076,35.41,5.829,54.761
	c-9.204,0-18.551,0-28.932,0c0-17.587-0.001-34.712,0-51.84c0.002-23.063-1.251-46.22,0.459-69.156
	c1.112-14.896,4.057-30.772,10.863-43.754c5.055-9.635,17.633-15.324,26.861-22.771c20.057,0.973,40.128,1.747,60.161,3.097
	c3.655,0.246,8.102,1.939,10.552,4.515c9.836,10.347,20.396,20.436,27.965,32.352c4.743,7.47,4.617,18.026,6.707,27.191
	c0.555,2.432,0.805,5.064,1.943,7.207c2.166,4.072,1.141,6.68-2.637,8.878c-5.546,3.229-7.131,7.538-5.024,14.031
	c1.02,3.139-0.805,7.181-1.258,10.825c-0.556,4.453-1.021,8.919-1.524,13.378C984.137,333.771,983.127,333.728,982.118,333.684z"/>
<path fill-rule="evenodd" clip-rule="evenodd" d="M71.532,289.378c-5.134-1.115-9.396-2.037-13.621-2.955
	c-1.539,1.675-3.062,4.529-5.282,5.259c-1.169,0.385-3.558-2.939-5.362-4.56c-6.882,4.817-11.7,10.964-11.081,20.07
	c1.023,15.056-1.304,30.713,7.68,44.366c6.21,9.439,32.459,19.69,46.985,13.839c3.347-1.346,6.639-2.833,10.013-4.104
	c12.172-4.582,19.143-13.014,19.051-26.321c-0.076-11.082-0.366-22.176-1.041-33.234c-0.197-3.225,1.14-8.606-5.636-7.918
	c-0.461,0.047-1.312-3.736-2.115-6.138c-2.561,1.843-4.711,4.546-6.916,4.591c-1.634,0.034-3.339-3.388-5.204-5.487
	c-1.458,0.434-3.51,1.206-5.631,1.621c-1.833,0.359-3.746,0.312-5.569,0.439c2.77-7.833,6.255-9.509,27.871-12.686
	c-5.803-9.877-11.259-19.166-16.717-28.453c10.478,13.179,24.429,23.908,22.333,44.31c-1.139,11.079,1.745,22.604,3.083,33.894
	c1.36,11.481,3.051,22.924,4.522,33.836c0.164-0.262,0.929-1.488,1.695-2.716c0.661-0.053,1.321-0.107,1.982-0.163
	c0.2,4.188,0.399,8.374,0.585,12.259c2.343-6.32,4.791-12.921,7.238-19.518c0.766,0.145,1.531,0.287,2.296,0.431
	c0.201,3.546,0.401,7.094,0.602,10.642c0.44,0.1,0.88,0.199,1.32,0.301c0.495-1.273,0.99-2.546,1.668-4.295
	c0.691,1.491,1.26,2.717,2.328,5.02c0.394-3.534,0.659-5.901,0.922-8.27c0.905-0.021,1.811-0.041,2.716-0.062
	c0.756,15.29,1.512,30.579,2.326,47.03c-6.523,0-11.715,0-16.907,0c-28.361-0.003-56.722-0.125-85.08,0.099
	c-5.474,0.042-8.756-1.03-9.642-7.106c-2.424-16.626-4.73-33.294-8.014-49.759c-3.831-19.208-0.98-38.149,0.583-57.206
	c1.219-14.856,11.82-24.974,18.811-36.963c-3.778,8.461-7.558,16.922-11.656,26.098c4.224,0.745,5.64,6.112,11.725,2.713
	C59.33,275.526,69.165,282.667,71.532,289.378z"/>
<path fill-rule="evenodd" clip-rule="evenodd" d="M969.974,373.495c1.737-3.376,3.423-6.782,5.224-10.126
	c3.407-6.334,6.882-12.629,9.299-17.053c5.731-4.721,10.261-8.447,14.788-12.158c-1.673,7.97-3.343,15.923-5.012,23.878
	c0.625,0.117,1.253,0.238,1.881,0.357c0.399-1.592,0.8-3.182,1.2-4.771c0.222,0.078,0.445,0.157,0.669,0.234
	c0,11.301,0,22.603,0,33.904c0.422-0.003,0.846-0.003,1.268-0.004c0-17.853,0-35.707,0-53.561c0.448-3.807,0.898-7.61,1.347-11.415
	c0.141,0.011,0.283,0.023,0.425,0.035c0,25.243,0,50.487,0,76.813c-7.748,0-15.303,0.891-22.422-0.483
	c-2.502-0.482-5.162-6.381-5.567-10.049c-0.626-5.649,0.629-11.506,1.119-17.682c-1.45,0.625-2.924,1.257-4.396,1.89
	L969.974,373.495z"/>
<path fill-rule="evenodd" clip-rule="evenodd" d="M969.795,373.307c-3.87,7.364-6.648,15.702-12.028,21.717
	c-3.11,3.475-10.355,4.077-15.839,4.426c-10.512,0.671-21.097,0.346-31.647,0.187c-2.339-0.037-5.632-0.316-6.838-1.813
	c-7.571-9.393-14.679-19.159-21.131-29.203c7.242,6.643,13.922,14.094,21.921,19.647c5.304,3.684,12.344,5.668,18.869,6.64
	c20.001,2.979,33.894-8.448,46.877-21.405C969.974,373.495,969.795,373.307,969.795,373.307z"/>
<path fill-rule="evenodd" clip-rule="evenodd" d="M80.654,231.226c4.198,2.941,6.318,4.427,8.438,5.913
	c-0.126,0.418-0.251,0.837-0.377,1.255c-7.151-1.591-14.303-3.183-22.122-4.924c0.832-5.504,1.359-11.994,2.869-18.245
	c2.075-8.583,9.566-4.851,14.405-4.567c2.857,0.167,7.393,3.429,4.776,9.423c-1.477,3.382-0.267,7.939-0.267,12.531
	C86.834,232.334,84.963,231.999,80.654,231.226z"/>
<path fill-rule="evenodd" clip-rule="evenodd" d="M594.855,356.928c-12.077,2.295-24.057,3.787-35.698-3.691
	c8.497-6.694,35.889-6.928,48.017-0.258c-2.708,1.397-4.581,2.364-6.454,3.33c-0.313-0.966-0.606-2.768-0.951-2.776
	c-10.832-0.313-21.668-0.477-32.506-0.548c-0.571-0.003-1.15,1.004-1.728,1.542c0.029,0.8,0.058,1.6,0.085,2.401
	C575.365,356.928,585.111,356.928,594.855,356.928z"/>
<path fill-rule="evenodd" clip-rule="evenodd" d="M409.632,343.67c11.513-3.533,17.986-1.879,23.005,6.135
	c-1.128,1.049-2.263,3.033-3.489,3.092c-7.012,0.337-14.049,0.137-21.072,0.311c-1.596,0.04-3.173,0.837-4.758,1.285
	c0.308,0.946,0.616,1.894,0.924,2.84c-2.845-1.949-5.69-3.895-8.534-5.844c-0.023-1.121-0.045-2.241-0.068-3.36
	c4.745-1.542,9.489-3.084,14.227-4.622c-2.099,1.157-4.188,2.31-6.279,3.463c0.207,0.676,0.412,1.35,0.618,2.026
	c7.108-0.321,14.216-0.642,21.325-0.961c0.038-1.018,0.075-2.033,0.113-3.049C420.306,344.546,414.97,344.109,409.632,343.67z"/>
<path fill-rule="evenodd" clip-rule="evenodd" d="M633.398,295.669c-7.001-12.436-9.409-13.409-24.105-10.577
	c-7.859,1.516-8.1,1.372-8.813-3.823c5.441-0.831,10.958-1.079,16.101-2.593C625.318,276.106,634.27,284.085,633.398,295.669z"/>
<path fill-rule="evenodd" clip-rule="evenodd" d="M321.992,401.092c-4.759-1.427-9.86-1.431-11.247-3.703
	c-2.718-4.452,0.833-7.552,5.02-10.143c2.523-1.562,3.859-5.041,6.228-8.357C321.992,386.061,321.992,392.443,321.992,401.092z"/>
<path fill-rule="evenodd" clip-rule="evenodd" d="M536.732,291.94c0-3.708,0-6.153,0-8.474c10.213-7.522,16.591-5.293,34.213-2.483
	c-3.926,0.813-8.05,2.814-11.735,2.193c-7.897-1.33-14.739-1.705-18.968,6.705C539.846,290.669,538.462,290.962,536.732,291.94z"/>
<path fill-rule="evenodd" clip-rule="evenodd" d="M945.752,358.291c-12.669,0.205-25.354,2.617-38-2.992c12.592,0,25.185,0,37.777,0
	C945.603,356.296,945.678,357.293,945.752,358.291z"/>
<path fill-rule="evenodd" clip-rule="evenodd" d="M438.411,293.598c-1.782-1.056-3.564-2.114-5.346-3.17
	c-0.09-0.736-0.18-1.473-0.271-2.211c4.458-0.331,9.536-2.12,13.198-0.569c3.439,1.457,5.381,6.444,6.545,10.752
	c-3.39-1.633-6.779-3.266-10.17-4.898C441.049,293.532,439.73,293.564,438.411,293.598z"/>
<path fill-rule="evenodd" clip-rule="evenodd" d="M430.864,327.558c-10.395,0-20.79,0-31.184,0
	c-0.008-0.951-0.016-1.903-0.024-2.854c10.33,0,20.66,0,30.99,0C430.718,325.654,430.792,326.606,430.864,327.558z"/>
<path fill-rule="evenodd" clip-rule="evenodd" d="M99.243,337.167c-12.856,0-25.806,0-40.511,0
	C66.172,332.131,93.194,333.212,99.243,337.167z"/>
<path fill-rule="evenodd" clip-rule="evenodd" d="M573.896,391.339c16.682,5.227,29.589-4.16,45.13-12.427
	C606.743,391.956,589.991,396.281,573.896,391.339z"/>
<path fill-rule="evenodd" clip-rule="evenodd" d="M5.014,321.284c-0.686,13.175-1.37,26.352-1.982,38.113c0-11.801,0-25.037,0-38.27
	C3.693,321.18,4.353,321.231,5.014,321.284z"/>
<path fill-rule="evenodd" clip-rule="evenodd" d="M941.841,336.022c-9.589,0-19.178,0-28.765,0c-0.018-0.814-0.033-1.629-0.05-2.442
	c9.621,0,19.24,0,28.86,0C941.872,334.394,941.855,335.208,941.841,336.022z"/>
<path fill-rule="evenodd" clip-rule="evenodd" d="M965.195,301.119c-6.58,0-13.16,0-19.74,0
	C952.784,292.332,958.85,298.85,965.195,301.119z"/>
<path fill-rule="evenodd" clip-rule="evenodd" d="M889.845,301.942c6.76-1.052,13.52-2.105,20.278-3.159
	c0.12,0.872,0.241,1.742,0.359,2.614c-6.762,1.221-13.521,2.438-20.282,3.658C890.081,304.02,889.964,302.981,889.845,301.942z"/>
<path fill-rule="evenodd" clip-rule="evenodd" d="M955.326,351.459c-1.835,1.475-3.671,2.95-5.506,4.426
	c0.328-0.733,0.656-1.465,0.985-2.196c-3.487-2.226-6.974-4.447-10.459-6.672c0.015-0.437,0.03-0.873,0.045-1.311
	c4.927,0.964,9.854,1.927,14.779,2.89C955.223,349.549,955.273,350.504,955.326,351.459z"/>
<path fill-rule="evenodd" clip-rule="evenodd" d="M438.411,293.598c1.319-0.033,2.638-0.065,3.957-0.096
	c0.427,2.618,0.853,5.234,1.28,7.855c-2.296-0.039-4.591-0.076-6.888-0.114C437.311,298.693,437.861,296.145,438.411,293.598z"/>
<path fill-rule="evenodd" clip-rule="evenodd" d="M790.119,281.631c-6.368,0.635-12.732,1.268-19.102,1.903
	c-0.075,0.44-0.152,0.88-0.229,1.32c7.74,2.771,15.482,5.539,23.225,8.308c-0.016,0.882-0.035,1.764-0.051,2.645
	c-2.615,1.577-5.232,3.154-8.641,5.207c0.24-2.527,0.375-3.957,0.643-6.773c-4.83,3.501-9.457,8.149-12.387-0.462
	c-4.61,1.915-8.674,3.602-13.014,5.404c-0.009-3.103-4.106-7.974,2.683-11.926c1.577-0.917,1.414-4.824,2.459-8.976
	c7.146,0.57,15.888,1.268,24.631,1.967C790.264,280.708,790.192,281.171,790.119,281.631z"/>
<path fill-rule="evenodd" clip-rule="evenodd" d="M740.719,358.829c13.116-11.676,28.486-13.918,40.992-7.224
	C767.37,354.132,754.046,356.479,740.719,358.829z"/>
<path fill-rule="evenodd" clip-rule="evenodd" d="M729.849,290.35c-5.472,2.151-10.9,4.433-16.46,6.33
	c-0.983,0.336-2.514-0.932-3.791-1.458c7.547-4.451,15.091-8.903,22.64-13.355c0.482,0.648,0.969,1.297,1.452,1.944
	C732.41,285.99,731.13,288.169,729.849,290.35z"/>
<path fill-rule="evenodd" clip-rule="evenodd" d="M765.541,329.798c-7.854,2.284-14.694,4.274-21.866,6.361
	C745.749,329.98,754.725,327.326,765.541,329.798z"/>
<path fill-rule="evenodd" clip-rule="evenodd" d="M258.862,348.964c-11.496,0-23.042,0-34.895,0
	C227.647,340.521,249.299,341.176,258.862,348.964z"/>
<path fill-rule="evenodd" clip-rule="evenodd" d="M253.208,298.631c4.714-9.189,24.312-8.116,33.199,0
	C276.073,298.631,264.874,298.631,253.208,298.631z"/>
<path fill-rule="evenodd" clip-rule="evenodd" d="M208.025,304.453c3.794-9.032,18.05-9.338,25.412,0
	C224.696,304.453,216.363,304.453,208.025,304.453z"/>
<path fill-rule="evenodd" clip-rule="evenodd" d="M282.685,308.185c-9.09-1.149-16.288-2.06-24.691-3.122
	c0.624-1.532,0.868-4.216,2.094-4.783C265.581,297.735,277.729,301.427,282.685,308.185z"/>
<path fill-rule="evenodd" clip-rule="evenodd" d="M232.231,295.818c-10.823,0-20.015,0-28.88,0c1.139-3.834,2.996-5.819,9.169-5.935
	C219.148,289.763,226.769,287.711,232.231,295.818z"/>
<path fill-rule="evenodd" clip-rule="evenodd" d="M250.71,329.356c-11.635,13.299-14.276,13.12-20.656-0.651
	c4.135,1.65,7.553,3.998,11.046,4.117C244.26,332.93,247.503,330.606,250.71,329.356z"/>
</svg>
