<?xml version="1.0" encoding="utf-8"?>
<!-- Generator: Adobe Illustrator 16.0.0, SVG Export Plug-In . SVG Version: 6.00 Build 0)  -->
<!DOCTYPE svg PUBLIC "-//W3C//DTD SVG 1.1//EN" "http://www.w3.org/Graphics/SVG/1.1/DTD/svg11.dtd">
<svg version="1.1" id="Layer_1" xmlns="http://www.w3.org/2000/svg" xmlns:xlink="http://www.w3.org/1999/xlink" x="0px" y="0px"
	 width="1400px" height="1400px" viewBox="0 0 1400 1400" enable-background="new 0 0 1400 1400" xml:space="preserve">
<path stroke="#FFFFFF" stroke-width="4" stroke-miterlimit="10" d="M700.67,598.673c0.004-15.417,0.438-30.807-0.287-46.271
	c-2.788-1.43-5.403-1.882-8.149-1.739c-2.718,0.144-5.432,0.426-8.153,0.483c-5.438,0.114-5.439,0.069-9.381,5.079
	c3.098,5.959,2.385,12.645,2.414,19.241c0.04,8.954,0.011,17.91,0.011,27.042c-0.611,0.533-1.303,0.245-1.574-0.614
	c-0.286-0.909-0.412-1.917-0.379-2.873c0.273-7.994-0.398-15.991,0.52-24c0.366-3.194-0.089-6.785-1.246-9.781
	c-1.634-4.231-3.035-8.372-2.646-12.821c-3.991-1.547-6.507-1.624-16.961-0.605c-0.985,1.521-1.985,3.072-2.997,4.636
	c-0.933-0.295-1.636-0.302-1.974-0.657c-2.336-2.456-5.371-3.166-8.524-3.29c-3.9-0.153-7.812-0.003-11.719,0.007
	c-2.357,0.008-4.117,0.892-5.139,3.152c-0.389,0.859-1.089,1.601-1.737,2.311c-0.677,0.74-2.035,0.678-2.59-0.117
	c-0.554-0.792-1.066-1.637-1.447-2.524c-0.896-2.085-2.568-2.84-4.676-2.87c-1.168-0.017-2.343,0.04-3.508,0.133
	c-2.555,0.204-5.034,0.343-7.201-1.54c-0.666-0.579-1.795-0.668-2.734-0.874c-0.758-0.164-1.702,0.088-2.307-0.273
	c-3.862-2.309-7.927-1.227-11.969-0.941c-4.086,0.289-8.18,0.53-12.274,0.589c-1.933,0.029-3.87-0.434-5.809-0.647
	c-3.869-0.423-7.738-0.864-11.614-1.227c-2.329-0.217-4.669-0.328-7.008-0.43c-0.958-0.041-1.99-0.146-2.871,0.14
	c-6.312,2.046-12.745,1.248-19.158,0.926c-0.775-0.039-1.539-0.277-2.314-0.354c-6.046-0.603-6.046-0.596-11.335-5.453
	c-0.149-6.745-0.396-13.756-0.421-20.77c-0.015-4.091,0.373-8.184,0.487-12.278c0.086-3.101,0.255-6.197,0.195-9.315
	c-0.055-2.858,0.446-5.739-0.085-8.652c-0.203-1.116,0.075-2.32,0.144-3.485c0.091-1.558,0.572-3.206,0.221-4.654
	c-1.165-4.815-0.346-9.669-0.437-14.484c-0.041-2.15-1.636-3.899-0.833-6.235c0.866-2.517,1.116-5.247,1.704-8.235
	c-1.922-5.106-1.922-5.106,0.038-11.492c-1.952-1.364-4.13-1.965-6.54-1.837c-11.917,0.631-23.807-0.411-35.712-0.61
	c-4.294-0.072-8.543-0.065-12.849,0.283c-5.225,0.421-10.528-0.082-15.796-0.26c-2.536-0.086-5.065-0.379-7.599-0.518
	c-2.189-0.121-4.21-0.664-6.169-2.024c-0.5-2.313-0.16-4.63,0.146-6.926c0.696-5.212,1.528-10.368,0.447-15.684
	c-0.494-2.425-0.151-5.056,0.031-7.579c0.324-4.476,0.825-8.938,1.226-13.408c0.07-0.774,0.038-1.561,0.014-2.342
	c-0.309-10.132-0.588-20.265-0.969-30.395c-0.087-2.328-0.689-4.634-0.794-6.963c-0.326-7.215-0.611-14.434-0.736-21.653
	c-0.049-2.911,0.483-5.826,0.533-8.744c0.137-8.188,0.092-16.379,0.261-24.565c0.076-3.674,0.542-7.337,0.719-11.011
	c0.044-0.921-0.088-2.032-0.576-2.764c-1.95-2.92-0.809-6.077-0.847-9.117c-0.022-1.734,1.209-2.99,2.905-3.215
	c6.341-0.846,12.566-3.057,19.107-1.728c0.569,0.115,1.166,0.15,1.747,0.134c2.404-0.063,3.929-2.19,3.05-4.508
	c-0.617-1.629-1.575-3.133-2.419-4.671c-1.307-2.38-1.905-4.702,0.113-7.049c1.495-1.74,1.621-3.897,1.694-6.077
	c0.152-4.484,0.565-8.969,0.505-13.449c-0.039-2.891-0.65-5.79-1.165-8.656c-0.213-1.184-1.816-1.816-2.838-1.223
	c-1.332,0.774-2.575,1.701-3.96,2.633c-2.993-0.926-5.84-1.977-8.914-3.853c2.452-1.977,4.939-2.563,7.206-3.452
	c0.91-0.356,2.223,0.271,3.341,0.502c2.537,0.523,3.525-0.005,4.54-2.382c1.271-2.978,1.544-6.143,0.974-9.213
	c-0.939-5.044-0.743-10.114-0.99-15.179c-0.228-4.674-0.747-9.332-0.927-14.005c-0.112-2.91,0.152-5.835,0.272-8.752
	c0.066-1.621-0.03-3.134-1.788-3.847c-0.25,0.062-0.518,0.044-0.615,0.164c-0.821,1.02-1.404,2.473-2.458,3.008
	c-1.54,0.781-2.959-0.51-4.254-1.349c-2.148-1.39-4.338-2.56-6.931-3c-1.001-0.171-1.878-1.072-2.72-1.583
	c0.381-1.681,1.493-1.635,2.408-1.642c2.777-0.017,5.329-0.508,7.847-1.901c1.8-0.995,4.049-1.177,6.272-1.768
	c2.725-4.64,1.281-9.771,1.847-15.058c-2.778-0.182-5.24-0.342-7.899-0.515c-0.517-0.838-1.192-1.581-1.468-2.449
	c-0.615-1.942-1.9-2.852-3.842-3.052c-0.58-0.06-1.171-0.167-1.714-0.371c-3.117-1.166-4.192-4.248-2.479-7.089
	c0.802-1.332,1.866-2.552,2.423-3.976c0.555-1.419,0.625-3.03,0.967-4.885c3.39-1.429,4.385-4.843,5.354-8.157
	c2.528-0.116,2.964,2.059,4.274,3.049c1.68,1.272,3.67,0.669,3.906-1.473c0.256-2.312,0.159-4.666,0.162-7.001
	c0.001-0.574-0.163-1.165-0.336-1.721c-1.479-4.738-1.347-9.23,2.285-13.304c-1.066-2.069-2.191-3.936-1.515-6.521
	c0.762-2.915-0.699-4.142-3.943-3.947c-3.075,0.185-6.131-0.147-9.238,0.713c-3.296,0.913-6.657-2.164-6.649-5.642
	c0.002-0.875,0.48-1.927,1.079-2.59c1.817-2.018,4.105-2.963,6.853-2.199c1.114,0.309,2.195,0.746,3.393,1.159
	c1.243-0.614,2.469-1.194,3.67-1.819c1.847-0.961,3.083-2.352,3.17-4.56c0.122-3.087,1.694-6.018,0.873-9.239
	c-0.218-0.854,0.061-2.008,0.494-2.821c2.068-3.887,1.73-7.996,1.006-12.028c-0.873-4.859-1.188-9.658-0.434-14.558
	c0.285-1.849,0.046-3.78,0.046-6.083c2.904,0.9,3.215,3.149,3.777,5.044c0.535,1.803,0.694,3.716,1.001,5.477
	c1.759,0.152,1.983-0.871,2.116-1.797c0.199-1.383,0.456-2.659,1.597-3.645c1.493-1.288,3.594-0.955,4.414,0.808
	c0.244,0.524,0.478,1.097,0.523,1.663c0.181,2.208,1.399,3.485,3.373,4.342c0.511,0.223,0.704,1.185,1.235,2.158
	c-2.205,0.547-4.243,0.614-5.734,1.551c-1.364,0.858-2.138,2.658-3.336,4.26c-1.158,0.358-2.604,0.807-4.312,1.336
	c0,1.699,0.104,3.227-0.033,4.735c-0.115,1.27-0.51,2.514-0.893,4.281c1.291-0.277,1.997-0.404,2.69-0.583
	c1.112-0.288,2.241-0.938,3.317-0.855c3.252,0.252,6.453,1.485,9.749,0.014c0.573-0.256,1.563,0.111,2.238,0.443
	c4.252,2.1,8.285,0.201,12.513-0.246c-0.335-3.648-3.673-3.443-5.731-5.355c-1.364-5.175,0.023-10.431,1.551-15.662
	c0.758-2.601,1.849-5.123,2.376-7.764c0.227-1.136-0.597-2.48-1.038-4.068c2.344-0.64,4.54-1.93,7.092-0.33
	c1.402,0.88,2.975,0.668,4.553,0.385c2.287-0.411,4.602-0.677,6.72-0.979c2.704,2.091,2.632,4.55,1.896,7.106
	c-0.322,1.115-1.012,2.121-1.349,3.233c-0.662,2.185-0.347,4.267,1.099,6.087c0.971,1.221,2.128,2.309,3.002,3.59
	c1.562,2.29,1.423,4.336-0.692,6.253c-1.645,1.491-3.038,3.067-3.636,5.182c-0.169,0.595,0.108,1.69,0.556,1.985
	c0.477,0.312,1.439,0.067,2.112-0.162c0.513-0.174,0.903-0.704,1.67-1.344c0.621,0.659,1.153,1.403,1.848,1.93
	c2.391,1.809,4.882,2.851,8.116,2.304c2.834-0.479,5.811-0.126,8.724-0.119c0.583,0.001,1.171,0.175,1.748,0.138
	c6.021-0.399,12.041-0.823,18.06-1.244c1.169-0.083,2.337-0.267,3.505-0.257c11.698,0.104,23.396,0.246,35.095,0.365
	c11.121,0.113,22.243,0.223,33.364,0.317c8.007,0.067,16.015,0.101,24.023,0.173c0.969,0.01,1.946,0.132,2.906,0.283
	c1.77,0.277,2.704,1.456,3.071,3.113c0.166,0.757,0.292,1.554,0.25,2.322c-0.51,9.559,0.667,19.05,1.047,28.573
	c0.194,4.845-0.212,9.711-0.107,14.562c0.062,2.899,0.598,5.788,0.9,8.683c0.162,1.546,0.625,3.163,0.346,4.631
	c-0.563,2.966,0.083,5.377,2.211,7.465c0.255,0.25,0.318,0.697,0.52,1.172c-0.708,1.656-1.708,3.339-2.123,5.154
	c-0.384,1.677-0.161,3.497-0.173,5.254c-0.047,7.028-0.086,14.057-0.114,21.084c-0.004,0.976,0.074,1.951,0.112,2.926
	c0.094,2.399,1.297,4.024,3.469,4.978c0.179,0.08,0.36,0.156,0.529,0.252c1.627,0.917,4.057,0.71,4.667,3.053
	c0.51,1.958-1.107,3.22-1.873,4.754c-0.703,1.406,0.057,2.617,0.397,3.931c0.59,2.268-0.027,3.329-2.135,4.03
	c-0.734,0.244-1.54,0.27-2.288,0.484c-0.545,0.156-1.045,0.461-1.926,0.863c1.295,3.415,2.101,7.002,4.301,9.929
	c2.168,2.882,2.621,5.842,2.05,9.357c-0.75,4.614-1.034,9.308-1.382,13.977c-0.115,1.534,0.002,3.145,0.354,4.641
	c0.75,3.18,3.571,5.448,6.876,5.208c1.35-0.098,2.618-1.329,4.204-2.198c1.218,0.879,2.602,1.876,3.881,2.798
	c-0.215,2.343-2.227,1.515-3.2,2.329c-0.876,0.733-1.962,1.217-3.079,1.884c-1.312-0.469-2.55-1.072-3.856-1.325
	c-0.884-0.172-1.948-0.06-2.782,0.288c-1.582,0.66-1.962,2.841-0.728,3.901c1.029,0.882,2.361,1.438,3.287,2.4
	c0.703,0.732,0.976,1.876,1.575,3.114c-2.353,0.435-4.297,0.573-6.076,1.187c-1.637,0.563-3.07,1.692-4.642,2.475
	c-1.766,0.88-2.6,2.282-2.658,4.205c-0.069,2.343-0.211,4.686-0.182,7.028c0.046,3.692,0.268,7.383,0.288,11.076
	c0.006,1.133-0.523,2.261-0.587,3.404c-0.062,1.127-0.027,2.327,0.295,3.394c0.442,1.462,1.854,2.359,3.22,1.792
	c4.044-1.684,8.078-0.851,12.132-0.33c0.961,0.125,2.039,0.168,2.834,0.635c5.503,3.241,11.436,2.981,17.482,2.531
	c2.899-0.216,5.864,0.037,8.759,0.396c1.236,0.154,2.517,0.939,3.531,1.746c3.96,3.157,5.152,7.456,5.1,12.376
	c-0.064,6.224,0.156,12.453,0.257,18.679c0.017,0.976,0.145,1.962,0.056,2.929c-0.733,7.987-0.138,15.968,0.066,23.951
	c0.028,1.166,0.031,2.38,0.351,3.484c1.363,4.732,1.797,9.574,1.794,14.462c0,1.722-0.074,3.505-0.509,5.158
	c-1.149,4.374-1.236,4.352,2.265,7.536c-0.635,0.871-1.362,1.727-1.927,2.677c-0.686,1.156-0.111,2.434,1.186,2.706
	c3.412,0.717,6.643,0.691,8.985-2.484c1.267-1.716,2.51-3.449,3.8-5.147c0.44-0.581,0.99-1.077,1.56-1.686
	c1.984,1.158,2.347,2.847,2.231,4.616c-0.115,1.745-1.377,2.803-2.903,3.361c-2.068,0.755-3.67,1.714-4.834,3.849
	c-2.068,3.792-2.114,6.974,1.257,9.792c2.978,0,5.875,0.047,8.771-0.017c1.894-0.042,2.744-0.955,2.811-3.007
	c0.143-4.484,0.212-8.971,0.303-13.457c0.054-2.684,0.093-5.367,0.683-8.036c0,6.424-0.019,12.85,0.012,19.276
	c0.009,1.752,0.05,3.521,0.291,5.252c0.173,1.244,1.086,2.109,2.386,2.212c1.357,0.109,2.732-0.003,4.097,0.022
	c5.068,0.095,10.137,0.207,14.942,0.307c2.345,1.855,2.75,4.206,2.807,6.535c0.181,7.606,0.362,15.219,0.251,22.824
	c-0.101,7.023-0.464,14.041,0.117,21.055c0.107,1.318,0.365,2.713,0.939,3.88c0.939,1.908,2.355,2.697,4.336,1.795
	c4.35-1.981,7.926,0.733,11.8,1.485c1.793,0.35,2.955,2.022,3.521,3.69c1.183,3.483,2.683,6.862,2.599,10.726
	c-0.134,6.242,0.004,12.494,0.125,18.739c0.079,4.091,0.06,8.19,1.136,12.214c0.336,1.253,0.054,2.672,0.054,3.81
	c-2.652,2.56-5.613,3.099-8.85,2.965c-3.707-0.154-7.422-0.229-11.131-0.199c-1.492,0.013-2.979,0.405-4.678,0.654
	c0,3.666,0.064,6.945-0.022,10.222c-0.052,1.938-0.323,3.873-0.527,5.804c-0.082,0.772-0.375,1.539-0.365,2.307
	c0.105,8.94,0.198,17.882,0.412,26.82c0.066,2.789,1.449,4.314,4.179,4.851c6.155,1.208,12.357,1.208,18.192,0.886
	c1.725-1.794,0.839-3.371,0.726-4.852c-0.178-2.29-1.14-4.553,0.218-6.852c0.31-0.522-0.136-1.472-0.191-2.228
	c-0.072-0.934-0.429-2.023-0.084-2.78c1.19-2.608,1.257-5.369,1.079-8.059c-0.505-7.762,0.746-15.519-0.078-23.273
	c-0.017-0.148,0.193-0.322,0.301-0.487c0.993-0.411,1.585,0.277,1.609,0.996c0.171,5.024,1.615,9.98,0.507,15.091
	c-0.531,2.451-0.464,5.048-0.52,7.583c-0.136,6.032-0.247,12.067-0.241,18.103c0.002,2.303,0.349,4.604,0.501,6.431
	c2.027,1.995,4.156,1.937,5.981,1.745c6.729-0.704,13.616,0.896,20.469-1.23c0.419-1.859,0.818-3.633,1.218-5.407
	c0.111,0.03,0.221,0.06,0.332,0.089c0,2.689,0,5.379,0,8.453c-3.46-1.173-6.701-0.754-9.956-0.479
	c-1.727,0.148-3.497,0.068-5.222-0.125c-4.305-0.481-8.541,0.129-13.032,0.154c-0.305,1.447-0.722,2.534-0.733,3.625
	c-0.085,7.027-0.041,14.056-0.12,21.083c-0.043,3.705-0.266,7.407-0.375,11.112c-0.041,1.365-0.008,2.731,0.029,4.095
	c0.179,6.829,0.442,13.657,0.546,20.488c0.229,15.034,0.568,30.073,0.464,45.106c-0.039,5.638,0.824,11.254,0.065,16.932
	c-0.459,3.444-0.271,7.034,0.068,10.513c0.746,7.606-0.441,15.187-0.024,22.778c0.099,1.767,0.088,3.526,1.463,5.166
	c3.236,1.077,6.78,0.568,10.248,0.797c3.104,0.206,6.219,0.252,9.326,0.43c2.205,0.126,3.274-0.391,3.793-2.721
	c0.678-3.032,1.342-6.14,1.399-9.226c0.223-12.11,0.212-24.223,0.274-36.335c0.008-1.365,0.041-2.746-0.132-4.094
	c-0.141-1.115-0.567-2.193-0.831-3.156c0.425-0.454,0.722-1.005,0.941-0.977c9.767,1.261,19.715,0.401,29.537,2.118
	c0.893,2.805,0.472,5.283,0.243,7.759c-0.62,0.379-1.088,0.704-1.588,0.966c-3.237,1.689-3.231,1.684-2.413,4.792
	c0.247,0.933,0.605,1.871,0.641,2.818c0.115,3.212,0.927,6.158,3.247,8.72c-2.376,4.865-2.176,9.844-1.187,14.901
	c0.212,1.088-0.05,2.273-0.136,3.411c-0.058,0.764-0.464,1.612-0.245,2.268c1.603,4.823,0.364,9.667,0.253,14.499
	c-0.019,0.778-0.091,1.559-0.068,2.333c0.241,8.784,0.559,17.564,0.726,26.35c0.113,5.996,0.022,5.997-2.567,11.566
	c2.428,2.581,2.646,5.924,2.586,9.514c-0.197,11.901-0.26,23.808-0.134,35.71c0.048,4.632,0.731,9.256,1.153,14.229
	c5.411,0.168,10.438,0.326,15.467,0.482c1.755,0.055,3.521-0.004,5.262,0.192c1.845,0.207,2.578,1.311,2.432,3.294
	c-0.772,10.526-0.923,21.049-0.028,31.582c0.212,2.496-0.077,5.037-0.192,7.555c-0.223,4.854-0.49,9.705,0.82,14.347
	c2.018,1.121,4,0.856,5.924,0.846c4.101-0.022,8.201-0.213,12.301-0.191c5.85,0.032,11.697,0.221,17.55,0.294
	c6.42,0.078,12.839,0.102,19.259,0.15c0.196,0.002,0.392,0.01,0.588,0.015c8.763,0.222,17.528,0.446,26.291,0.659
	c2.335,0.059,4.671,0.126,7.006,0.109c10.14-0.066,20.279-0.229,30.417-0.224c4.088,0.003,8.18,0.294,12.26,0.575
	c0.896,0.064,1.76,0.639,2.759,1.027c-0.161,3.285-0.396,6.386-0.445,9.487c-0.051,3.123,0.134,6.248,0.113,9.371
	c-0.051,8.377-0.158,16.755-0.238,25.132c-0.009,0.78,0.028,1.562,0.047,2.345c0.124,5.254,0.583,6.37,5.928,6.276
	c0.777-0.015,1.566,0.056,2.333,0.19c2.567,0.453,4.236,1.909,4.732,4.523c0.21,1.108,0.293,2.241,0.458,3.553
	c3.991,0.167,4.738-3.112,6.181-5.252c1.442,0.13,1.197,1.102,1.266,1.796c1.214,12.459,1.513,24.94,1.014,37.447
	c-0.101,2.515,0.128,5.044,0.191,7.141c1.568,1.803,3.219,1.555,4.727,1.403c4.886-0.485,9.746-0.282,14.624,0.111
	c1.345,0.108,2.72-0.139,4.081-0.176c2.144-0.058,4.348-0.408,6.423-0.045c5.438,0.951,10.9,0.807,16.366,0.841
	c3.297,0.021,6.546,0.382,9.585,0.621c0.302,0.838,0.635,1.286,0.523,1.534c-1.151,2.561-1.273,5.027-0.535,7.842
	c1.743,6.636,2.018,13.462,1.892,20.323c-0.134,7.211,0.06,14.43,0.037,21.644c-0.05,17.764,0.132,35.533-0.293,53.288
	c-0.379,15.818,0.066,31.625,0.245,47.428c0.105,9.167-0.334,18.317-0.173,27.479c0.161,8.98-0.022,17.966-0.082,26.951
	c-0.013,1.924-0.139,3.849-0.204,5.559c-3.952,2.131-7.838,1.714-11.673,1.698c-3.668-0.016-7.337-0.104-10.999,0.037
	c-1.916,0.073-3.812,0.569-5.629,0.861c-1.446,2.649-1.15,5.165-1.101,7.684c0.18,8.971,0.276,17.942,0.419,26.914
	c0.024,1.547,0.11,3.095,0.168,4.641c0.148,4.094,0.338,8.188,0.412,12.283c0.017,0.923-0.377,1.853-0.613,2.932
	c-0.944,0-1.696,0.017-2.446-0.003c-4.285-0.111-8.512-0.083-12.808,0.676c-3.993,0.703-8.178,0.388-12.278,0.406
	c-8.003,0.037-16.006,0.071-24.009-0.042c-6.435-0.091-12.868-0.448-19.303-0.594c-3.501-0.078-7.006,0.066-10.508,0.062
	c-8.381-0.011-16.761-0.051-25.143-0.076c-2.339-0.009-4.679-0.007-7.016-0.018c-6.046-0.028-12.095-0.014-18.139-0.124
	c-2.04-0.038-2.932-1.105-2.697-2.984c0.854-6.792,0.562-13.622,0.655-20.435c0.107-8.004-0.006-16.013-0.063-24.018
	c-0.013-1.733-0.186-3.469-0.301-5.465c-1.449-0.414-2.701-1.03-3.979-1.081c-2.528-0.104-5.069,0.168-7.605,0.167
	c-5.071-0.006-10.144-0.021-15.211-0.178c-2.052-0.064-2.806-0.903-2.979-2.881c-0.134-1.553-0.119-3.122-0.101-4.683
	c0.097-7.212,0.078-14.428,0.364-21.631c0.289-7.28-0.764-14.362-2.398-21.607c-3.412-1.491-7.001-2.087-10.725-2.093
	c-2.538-0.004-5.075-0.031-7.611-0.054c-0.78-0.007-1.574,0.062-2.339-0.059c-2.438-0.381-4.252-2.542-7.157-1.97
	c-2.214,0.436-4.628-0.241-6.954-0.273c-3.471-0.047-6.547-0.804-8.768-3.774c-0.421-0.562-1.305-0.775-2.294-1.328
	c0.169-2.858,0.398-5.745,0.497-8.637c0.119-3.509,0.204-7.023,0.171-10.533c-0.056-5.647,0.647-11.289-0.323-16.948
	c-0.353-2.052,0.309-4.266,0.427-6.409c0.394-7.176-1.711-9.57-8.892-9.928c-1.732-0.086-3.496,0.213-5.231,0.45
	c-5.068,0.693-5.404,0.63-10.286-2.633c-1.228-1.97,0.936-4.775-1.708-6.55c-2.757,2.636-0.863,6.839-3.197,9.678
	c-4.593,0.761-9.178,1.602-13.896,1.103c-1.155-0.121-2.353-0.098-3.503,0.062c-7.764,1.065-15.572,0.868-23.371,0.818
	c-7.564-0.048-8.27-0.308-10.816-7.959c-1.352-4.059-2.438-8.284-0.648-12.604c0.282-0.678,0.468-1.717,0.148-2.271
	c-1.691-2.933-0.746-6.103-1.08-9.149c-0.26-2.371-0.39-4.645,0.9-6.819c0.373-0.629,0.429-1.5,0.464-2.267
	c0.414-8.764,0.793-17.53,1.183-26.297c-1.275-4.742,0.459-9.708-1.069-14.433c0.763-4.197-0.975-8.518,0.665-12.7
	c0.332-0.845,0.141-1.921,0.093-2.886c-0.216-4.272-0.704-8.548-0.663-12.816c0.134-13.433,0.482-26.865,0.694-40.298
	c0.039-2.533-0.262-5.071-0.221-7.604c0.029-1.863,1.144-2.785,3.068-2.739c1.164,0.027,2.328,0.226,3.486,0.393
	c4.531,0.657,8.961-0.168,13.379-0.962c1.916-0.344,3.095-1.573,3.258-3.61c0.03-0.388,0.101-0.777,0.09-1.165
	c-0.185-8.59-0.346-17.178-0.585-25.765c-0.109-3.897-0.427-7.79-0.538-11.687c-0.041-1.35,0.029-2.78,0.436-4.051
	c1.514-4.744,2.221-4.984,6.561-4.985c4.285-0.001,8.571-0.537,12.859-0.566c4.281-0.029,8.563,0.328,12.849,0.422
	c6.443,0.141,12.887,0.221,19.332,0.274c1.355,0.013,2.74-0.079,4.067-0.345c1.229-0.245,2.029-1.156,2.189-2.441
	c0.122-0.965,0.102-1.949,0.143-2.924c0.486-11.317,0.34-22.639,0.048-33.957c-0.031-1.163-0.033-2.37-0.356-3.467
	c-0.565-1.929-0.561-3.74-0.184-5.739c0.743-3.955-1.236-6.357-5.279-6.688c-2.33-0.191-4.686-0.135-7.028-0.135
	c-6.043-0.001-12.089,0.034-18.13,0.045c-4.886,0.008-9.769,0.068-14.65-0.021c-4.673-0.087-9.342,0.07-14.009-0.824
	c-2.428-0.466-5.131-0.286-7.558,0.264c-3,0.68-5.831,0.087-8.712-0.226c-2.085-0.226-2.712-2.195-1.325-3.889
	c0.575-0.703,1.342-1.251,2.011-1.86c-1.339-2.182-3.643-0.191-5.167-2.045c-0.592-1.892-0.466-4.248-0.173-6.544
	c0.745-5.835,0.919-11.67,0.641-17.544c-0.194-4.094-0.176-8.176,2.107-11.917c1.041-1.707,1.08-3.689,0.182-5.637
	c-0.566-1.228-0.896-2.565-1.358-3.938c-1.062-0.732-2.178-1.503-3.446-2.38c-0.885-5.105-1.847-10.233,0.537-15.258
	c1.478,0.115,1.188,1.001,1.152,1.735c-0.15,3.116-0.386,6.228-0.431,9.344c-0.025,1.671,0.945,2.848,2.313,2.903
	c6.421,0.257,12.854,0.923,19.258-0.199c0.344-0.062,0.637-0.425,1.259-0.864c0.13-3.042,0.239-6.317,0.412-9.59
	c0.286-5.456,0.635-10.91,0.919-16.366c0.336-6.443,0.323-12.867-1.106-19.296c-2.736-1.979-5.935-1.844-8.998-1.953
	c-5.854-0.205-11.718-0.251-17.576-0.245c-7.805,0.009-15.612,0.062-23.415,0.226c-6.441,0.137-12.88,0.44-19.317,0.739
	c-0.91,0.042-1.805,0.483-3.104,0.854c1.562,4.213,0.527,8.138-0.196,12.121c-0.375,2.071-0.329,4.261-0.186,6.378
	c0.332,4.878,0.707,9.74-0.16,14.604c-0.137,0.762-0.124,1.562-0.083,2.338c0.163,3.085,0.365,6.166,0.581,9.732
	c0.742,0.253,1.771,0.883,2.819,0.912c4.489,0.123,8.983,0.132,13.475,0.067c4.783-0.067,4.781-0.125,7.717-4.429
	c0.48,1.02,0.814,1.844,1.245,2.613c0.465,0.83,1.023,1.605,1.825,2.846c-1.381,0.3-2.473,0.822-3.501,0.719
	c-6.628-0.672-13.234-0.917-19.854,0.101c-1.531,0.236-3.178,0.374-4.673,0.072c-6.204-1.253-12.457-0.753-18.695-0.803
	c-0.712-0.006-1.423-0.111-2.118-0.882c1.331-0.05,2.661-0.127,3.994-0.139c3.125-0.026,6.253-0.073,9.378-0.016
	c4.557,0.085,5.861-1.739,5.277-6.894c-0.241-2.123-0.391-4.157-0.317-6.284c0.134-3.901,0.122-7.812,0.031-11.715
	c-0.083-3.469-1.295-6.991,0.653-10.326c-0.33-3.095-0.538-6.207-1.049-9.271c-0.245-1.457-1.602-2.209-3.049-2.354
	c-1.745-0.175-3.511-0.127-5.262-0.25c-1.501-0.105-2.994-0.312-5.227-0.555c0.942-0.832,1.264-1.363,1.661-1.425
	c2.889-0.457,5.799-0.771,8.689-1.217c3.357-0.518,4.431-1.548,4.516-4.969c0.101-4.097-0.132-8.202-0.198-12.303
	c-0.159-9.948-0.311-19.898-0.451-29.847c-0.029-1.951,0.132-3.913-0.019-5.853c-0.177-2.287-1.582-3.519-3.94-3.378
	c-6.401,0.381-12.795,0.884-19.438,1.357c-1.497-1.218-1.026-2.773-0.449-4.558c3.175,2.319,3.177,2.366,5.903,2.295
	c4.685-0.121,9.377-0.189,14.051-0.504c3.385-0.229,4.423-1.517,4.436-4.884c0.037-10.928,0.066-21.855,0.056-32.785
	c-0.002-3.312-0.103-6.627-0.218-9.938c-0.105-2.998-1.682-4.774-4.648-4.959c-1.731-0.108-3.534,0.003-5.225,0.378
	c-2.778,0.615-5.412,0.407-8.352-0.729c2.01-1.315,4.102-0.572,5.981-0.94c1.898-0.375,3.924-0.885,5.765-0.573
	C696.379,601.529,698.334,600.818,700.67,598.673z M591.681,381.771c-0.617,0.717-1.312,1.388-1.804,2.183
	c-0.143,0.231,0.286,0.817,0.455,1.243c0.285-0.218,0.744-0.388,0.818-0.661c0.245-0.905,0.352-1.847,0.511-2.775
	c-0.894-5.179-1.947-10.255-6.004-14.139c-0.708-0.679-1.275-2.303-0.952-3.104c0.715-1.767,2.292-0.628,3.547-0.396
	c0.381,0.07,0.767,0.173,1.149,0.164c1.138-0.023,1.79-0.703,1.997-1.75c0.111-0.556,0.181-1.246-0.047-1.723
	c-1.179-2.455-0.833-4.825-0.159-7.356c0.313-1.173,0.106-2.969-0.627-3.845c-2.174-2.598-1.815-4.917-0.072-7.429
	c0.436-0.628,0.743-1.378,0.964-2.114c0.646-2.149-0.232-3.822-2.411-4.576c-3.653-1.265-7.216-1.517-10.423,1.072
	c-0.112,0.456-0.302,0.834-0.276,1.196c0.082,1.141,0.527,2.332,0.311,3.396c-0.311,1.519-1.839,1.72-3.137,2.224
	c-2.571,1-3.281,4.34-1.617,6.798c0.484,0.714,2.11,0.667,2.536-0.156c0.436-0.847,0.794-1.76,1.012-2.687
	c0.357-1.522,1.297-2.366,2.762-2.647c1.164-0.222,2.216,0.646,2.67,2.563c0.717,3.025,1.468,6.009,3.444,8.299
	c-0.773,2.342-2.193,3.158-4.163,2.433c-1.63-0.601-3.12-1.577-4.679-2.371c-1.383-0.703-2.716-1.586-4.18-2.026
	c-2.66-0.8-4.742,0.837-4.627,3.593c0.079,1.908,0.471,3.801,0.694,5.485c1.95,1.323,3.62,1.025,5.309,0.353
	c0.891-0.354,1.771-0.816,2.7-0.97c0.432-0.072,1.167,0.359,1.399,0.77c0.228,0.403,0.2,1.232-0.08,1.59
	c-1.531,1.958-3.881,3.134-4.749,5.783c-1.106,3.383-3.869,5.176-7.153,6.383c-1.806-1.571-3.607-2.105-5.99-1.871
	c-3.044,0.3-6.267,0.115-9.248-0.576c-3.908-0.905-7.208,0.609-10.676,1.667c-0.174,0.053-0.175,0.666-0.35,1.417
	c1.151,0.077,2.236,0.18,3.324,0.217c4.447,0.154,8.96,0.013,12.627,3.247c0.419,0.37,1.058,0.484,1.588,0.73
	c3.065,1.418,5.926,1.9,8.368-1.268c0.696-0.905,1.886-1.397,3.084-0.387c-0.201,1.017-0.406,2.044-0.699,3.522
	C576.794,383.522,584.356,384.661,591.681,381.771z M619.268,337.656c0.314-0.249,0.814-0.442,0.871-0.725
	c0.724-3.641,1.168-7.3,0.636-11.023c-0.194-1.347-0.373-2.717-0.341-4.073c0.2-8.578,0.513-17.152,0.68-25.73
	c0.111-5.661,0.165-11.329,0.023-16.989c-0.219-8.778-0.953-17.555-0.849-26.325c0.077-6.638-0.212-13.256-0.241-19.884
	c-0.071-16.993-0.181-33.989-0.193-50.983c-0.01-15.036,0.016-30.074,0.176-45.11c0.073-7-0.939-13.979-0.228-20.987
	c0.153-1.514-0.989-2.531-2.668-2.341c-6.438,0.731-12.866,0.385-19.3,0.07c-3.516-0.171-5.385,2.447-4.151,5.758
	c0.338,0.905,0.892,1.733,1.367,2.583c1.044,1.865,1.362,3.648-0.417,5.307c-0.951,0.886-1.081,1.896-0.654,3.187
	c0.273,0.827,0.086,1.874-0.107,2.777c-0.729,3.42-0.035,6.531,1.789,9.46c0.59,0.947,1.072,1.963,1.649,3.03
	c-1.205,1.346-2.286,2.45-3.237,3.657c-0.718,0.912,0.045,2.634,1.219,2.754c0.951,0.098,1.934-0.132,2.886-0.043
	c1.081,0.101,2.144,0.395,3.187,0.598c0.266,3.244,0.647,6.133,0.69,9.028c0.027,1.871,0.44,3.411,1.687,4.815
	c0.597,0.672,0.91,1.595,1.371,2.442c-1.885,1.763-3.519,3.292-5.23,4.893c-0.556-0.776-0.887-1.25-1.232-1.71
	c-0.232-0.31-0.435-0.781-0.741-0.872c-0.894-0.263-1.863-0.599-2.744-0.48c-1.127,0.154-1.397,1.21-1.383,2.253
	c0.093,7.019,0.37,14.04,0.242,21.054c-0.154,8.584,0.767,17.152,0.194,25.735c-0.052,0.775-0.002,1.565,0.079,2.34
	c0.28,2.627,1.216,3.604,3.718,3.469c2.529-0.136,5.061-0.444,7.559-0.87c1.06-0.18,2.038-0.851,3.096-1.318
	c-0.078-1.644-0.204-2.994-0.186-4.341c0.015-1.019,0.342-1.922,1.737-1.864c1.472,1.708,2.978,3.45,4.481,5.195
	c2.358,2.741,2.505,4.748,0.407,7.918c-0.746,1.127-1.842,2.021-2.599,3.14c-0.719,1.062-1.205,2.281-1.816,3.477
	c-3.215-1.448-1.553-4.844-3.481-6.906c-0.753,0.083-1.717,0.375-2.617,0.241c-1.132-0.17-2.205-0.713-3.317-1.049
	c-0.934-0.282-1.879-0.543-2.835-0.726c-2.604-0.498-3.773,0.364-3.831,2.925c-0.121,5.259-0.22,10.521-0.237,15.78
	c-0.044,14.06-0.108,28.12-0.031,42.178c0.047,8.394,0.545,16.788,0.448,25.177c-0.048,4.246,0.656,8.526-0.507,12.796
	c-0.527,1.937-0.712,4.261,1.216,6.351c5.477-0.805,10.882-2.331,15.887-4.046c2.345,1.733,4.338,3.207,6.874,5.081
	C618.694,335.194,617.333,337.141,619.268,337.656z M648.311,497.061c-3.247-0.259-6.142-0.506-9.041-0.712
	c-1.164-0.083-2.39-0.314-3.495-0.066c-3.292,0.743-6.561,0.7-9.892,0.372c-2.141-0.211-3.298,0.841-3.541,3.013
	c-0.215,1.934-0.201,3.897-0.234,5.848c-0.099,6.053,0.255,12.15-0.372,18.146c-0.676,6.462-0.028,12.848-0.009,19.265
	c0.007,2.193,1.091,3.254,3.104,3.586c0.957,0.156,1.944,0.171,2.918,0.178c7.225,0.049,14.45,0.083,21.675,0.117
	c1.164,0.005,2.336-0.1,3.491,0c3.683,0.315,7.355,0.76,11.039,1.053c5.409,0.432,10.824,0.764,16.255,0.798
	c6.588,0.044,13.185,0.502,19.806-0.52c1.543-1.719,1.755-3.753,1.539-5.986c-0.26-2.714-0.373-5.447-0.438-8.174
	c-0.122-5.256,0.121-10.505-0.211-15.776c-0.255-4.056,0.295-8.176,0.641-12.255c0.26-3.034-0.191-5.788-2.328-8.452
	c-4.955-0.188-9.966-0.827-15.058-0.636c-4.082,0.155-8.179-0.104-12.269-0.181c-4.686-0.087-9.372-0.269-14.055-0.229
	c-2.703,0.022-4.289,1.205-4.676,3.544c-0.731,4.412-1.462,8.849-1.728,13.303c-0.242,4.079,0.18,8.192,0.206,12.292
	c0.012,2.133-0.164,4.272-0.351,6.401c-0.034,0.379-0.538,0.72-1.467,1.878c0.193-3.097,0.728-5.258,0.382-7.27
	c-1.143-6.642-0.829-13.193,0.172-19.814C650.871,503.513,650.68,500.135,648.311,497.061z M676.405,430.831
	c1.276-0.258,1.732,0.456,1.855,1.215c0.221,1.338,0.166,2.721,0.348,4.067c0.388,2.841,1.56,3.907,4.471,4.542
	c5.23,1.143,10.508,0.016,15.759,0.401c2.033,0.148,3.117-1.215,3.276-3.341c0.072-0.97-0.021-1.952-0.015-2.927
	c0.039-4.879,0.063-9.758,0.161-14.636c0.014-0.654-0.126-1.686,1.106-1.624c0.232,0.315,0.598,0.593,0.65,0.919
	c0.196,1.147,0.377,2.311,0.396,3.471c0.062,3.708,0.041,7.417,0.065,11.125c0.006,1.167-0.065,2.353,0.107,3.498
	c0.294,1.923,1.684,3.121,3.604,3.224c0.771,0.042,1.576,0.022,2.324-0.15c4.465-1.033,8.897-0.778,13.362,0.058
	c1.234,0.23,2.582-0.132,4.117-0.24c-0.126-2.434-0.059-4.539-0.427-6.564c-0.136-0.746-1.303-1.302-2.22-2.152
	c2.337-2.577,2.551-5.689,2.71-8.819c0.208-4.076,0.47-8.152,0.633-12.23c0.232-5.859,0.099-11.702-0.852-17.513
	c-0.42-2.588-2.044-4.114-4.799-3.941c-3.674,0.232-7.38,0.098-11.066-0.013c-7.234-0.219-7.824,0.294-7.496,7.268
	c0.189,4.076,0.523,8.146,0.655,12.221c0.047,1.465-0.104,3.053-1.735,3.771c-0.342-0.25-0.616-0.352-0.624-0.471
	c-0.386-5.231-1.232-10.492-0.941-15.688c0.195-3.508,0.171-6.997,0.171-10.486c0-5.532-1.016-6.857-6.188-8.372
	c-1.668-0.489-3.435-0.762-5.171-0.855c-1.74-0.093-3.502,0.147-5.251,0.268c-1.897,0.132-3.795,0.296-5.798,0.456
	c-0.111,1.069-0.198,1.827-0.266,2.586c-0.053,0.583-0.136,1.169-0.115,1.75c0.07,1.895,1.22,2.974,3.027,2.604
	c1.704-0.35,3.312-1.185,5.102-0.297c1.221,0.604,2.472,1.234,3.782,1.55c1.409,0.341,2.905,0.329,4.868,0.521
	c-3.09,1.93-6.035,2.087-8.906,2.16c-5.818,0.146-11.617,0.794-17.464,0.359c-4.273-0.318-8.584-0.185-12.878-0.174
	c-1.502,0.003-3.188-0.266-4.13,1.418c0,4.502-0.046,8.967,0.012,13.431c0.072,5.443-0.638,10.878-0.056,16.328
	c0.187,1.739,0.42,3.574,0.074,5.249c-0.771,3.739,0.336,7.376,0.236,11.073c-0.069,2.532,1.095,3.678,3.521,3.738
	c5.264,0.129,10.534,0.086,15.8-0.003c1.117-0.02,2.223-0.545,3.093-0.773C677.339,436.201,675.388,433.256,676.405,430.831z
	 M536.776,124.821c1.381,1.333,2.299,2.002,2.928,2.88c0.789,1.1,1.249,2.433,2.014,3.555c1.447,2.122,3.623,2.513,5.517,0.887
	c1.296-1.114,2.344-2.52,3.459-3.747c-0.788-1.188-1.397-2.107-2.008-3.03c1.274-0.87,2.334-1.592,3.826-2.61
	c-1.304-0.994-2.089-1.861-3.065-2.27c-1.241-0.519-2.635-0.675-3.965-0.976c-1.832-0.414-3.219-1.285-3.765-3.242
	c-0.195-0.701-0.708-1.312-1.229-2.234c-1.604,0-3.149,0.03-4.692-0.005c-4.861-0.11-9.725-0.216-14.585-0.373
	c-9.556-0.307-19.11-0.649-28.667-0.963c-0.974-0.031-1.956-0.022-2.924,0.066c-1.682,0.156-2.541,0.965-2.695,2.521
	c-0.077,0.772-0.035,1.558-0.02,2.336c0.15,7.207,0.422,14.413,0.441,21.619c0.065,25.38,0.042,50.759,0.065,76.139
	c0.002,1.951-0.026,3.919,0.221,5.845c0.135,1.051,0.822,2.032,1.339,3.23c1.595-0.447,2.898-0.762,4.167-1.181
	c2.558-0.842,3.899-2.519,3.401-5.319c-0.287-1.616,0.075-3.046,0.846-4.489c1.543-2.887,1.576-5.976,0.875-9.103
	c-0.171-0.762-0.392-1.513-0.612-2.262c-0.556-1.882-0.132-3.426,1.426-4.695c1.206-0.982,2.456-1.971,3.41-3.176
	c0.52-0.655,0.814-1.873,0.583-2.648c-0.326-1.088-1.491-0.978-2.485-0.679c-0.872,0.262-1.696,1.123-2.672,0.245
	c0.151-2.112,0.362-4.21,0.434-6.314c0.069-2.032,1.142-3.098,2.913-3.938c1.908-0.905,3.842-1.953,5.404-3.344
	c2.621-2.333,1.978-4.956-1.288-6.109c-2.567-0.905-5.175-1.692-7.724-2.641c-0.421-0.156-0.888-0.878-0.871-1.321
	c0.015-0.439,0.538-1.076,0.979-1.231c0.704-0.25,1.532-0.286,2.29-0.216c1.739,0.164,2.995-0.519,4.027-1.871
	c0.708-0.927,1.563-1.74,2.326-2.626c1.689-1.965,1.913-3.737,0.462-5.78c-0.651-0.917-1.743-1.511-2.582-2.307
	c-0.248-0.234-0.315-0.657-0.465-0.994c0.478-0.769,0.95-1.53,1.399-2.253c-0.75-0.68-1.302-1.179-1.885-1.709
	c1.693-2.278,3.306-4.435,4.904-6.602c1.613-2.185,3.552-3.594,6.469-2.957c3.188,0.695,5.776-0.347,7.762-2.883
	c2.015-2.573,4.545-3.538,7.756-2.741c0.527,0.131,1.144-0.1,1.712-0.163C534.48,131.31,535.219,128.38,536.776,124.821z
	 M702.514,483.415c-0.177-2.186-0.315-3.128-0.321-4.07c-0.022-4.095,0-8.193-0.006-12.288c-0.009-6.045-0.011-12.093-0.05-18.138
	c-0.033-4.746-0.349-4.924-5.18-6.053c-5.895-1.374-11.573,0.829-17.384,0.809c-1.328-0.004-1.768,1.406-1.712,2.656
	c0.112,2.527,0.404,5.05,0.452,7.579c0.12,6.235,0.368,12.48,0.146,18.707c-0.229,6.402,1.206,12.856-0.628,19.221
	c-0.395,1.367,0.726,2.756,2.292,2.795c6.232,0.153,12.466,0.21,18.7,0.177c2.053-0.013,3.015-1.429,3.447-3.364
	c0.225-1.011-0.416-2.438,1.316-3.014c0.419,2.054,0.831,4.067,1.227,6.001c2.707,0.592,5.116,0.65,7.092-0.805
	c2.706-1.992,5.722-2.309,8.87-2.315c0.33-0.001,0.662,0.316,0.993,0.486c0.211,0.899,0.421,1.796,0.616,2.637
	c4.861,0.075,5.034-0.054,5.398-4.091c0.124-1.36,0.221-2.724,0.26-4.087c0.029-0.967,0.184-2.034-0.154-2.881
	c-0.402-1.005-1.27-1.825-1.966-2.763c2.543-3.312,2.354-7.03,2.328-10.72c-0.049-7.015-0.121-14.03-0.113-21.044
	c0.002-1.905,0.93-4.192-1.275-5.267c-2.087-1.016-4.487-1.304-6.776-0.241c-0.703,0.326-1.41,0.702-2.005,1.189
	c-1.869,1.531-4.058,2.188-6.532,2.634c-0.461-1.067-0.904-2.091-1.335-3.082c-4.645-0.749-5.524-0.182-5.786,3.831
	c-0.103,1.554-0.03,3.12-0.037,4.679c-0.033,7.998-0.03,15.996-0.123,23.992C704.244,478.459,704.634,480.465,702.514,483.415z
	 M704.173,497.94c-0.299,4.588-0.857,8.849-0.796,13.101c0.152,10.324,0.696,20.642,0.872,30.965
	c0.074,4.47,3.144,6.429,6.692,6.485c3.315,0.052,6.635,0.031,9.947-0.075c1.354-0.043,2.718-0.312,4.043-0.623
	c1.589-0.37,2.473-1.416,2.151-2.963c-0.692-3.339-0.31-6.561,0.286-9.86c0.299-1.668-0.08-3.484-0.301-5.213
	c-0.651-5.093,0.024-10.098,0.902-15.092c0.05-0.288,0.518-0.506,1.095-1.034c0.331,0.741,0.845,1.36,0.847,1.979
	c0.008,4.486-0.159,8.972-0.128,13.458c0.031,4.669,0.21,9.338,0.358,14.007c0.017,0.575,0.202,1.152,0.365,1.714
	c0.772,2.692,1.708,3.507,4.517,3.661c2.921,0.159,5.852,0.257,8.775,0.252c2.141-0.003,4.306-0.061,6.405-0.419
	c0.714-0.123,1.873-1.336,1.783-1.88c-0.644-3.903,0.299-7.781,0.084-11.594c-0.284-5.042,0.587-10.104-0.47-15.141
	c-0.344-1.639-0.107-3.592,0.46-5.19c1.448-4.079,0.379-8.144,0.121-12.153c-0.241-3.783-1.922-4.975-5.842-5.072
	c-4.485-0.111-8.978-0.001-13.465,0.098c-0.705,0.017-1.403,0.48-2.248,0.791c-0.232,3.688,1.199,7.517-1.455,10.812
	c-1.831-0.387-2.093-1.722-1.582-3.076c1.06-2.8,0.527-5.306-0.7-7.709C722.756,497.28,709.134,497.115,704.173,497.94z
	 M505.837,287.966c-0.911,0.22-1.657,0.375-2.389,0.579c-3.557,0.996-5.078,0.439-6.587-2.702c-0.668-1.395-0.884-3.009-1.561-4.399
	c-0.579-1.188-1.343-2.414-2.341-3.243c-2.223-1.845-4.899-0.709-4.938,2.174c-0.083,6.239-0.325,12.524,0.283,18.714
	c0.838,8.554,1.588,17.083,1.68,25.687c0.112,10.524-0.125,21.058,0.657,31.57c0.101,1.349-0.215,2.721-0.229,4.084
	c-0.072,6.439-0.23,12.881-0.112,19.316c0.076,4.168,1.112,5.047,5.346,5.125c4.66,0.088,9.322,0.02,13.521,0.02
	c1.699-1.128,0.945-3.589,3.148-3.633c3.18,3.751,3.18,3.731,8.287,3.503c1.949-0.088,3.911,0.025,5.856-0.105
	c3.939-0.266,8.447-4.188,9.55-8.251c0.085-0.314-0.196-0.729-0.373-1.32c-0.564-0.242-1.241-0.669-1.973-0.815
	c-1.908-0.377-3.831-0.797-5.761-0.886c-2.054-0.095-3.852-0.505-5.232-2.127c-0.251-0.294-0.55-0.559-0.864-0.787
	c-1.37-0.997-2.902-1.075-4.473-0.663c-1.594,0.417-1.859,1.719-2.169,3.127c-0.191,0.866-0.768,1.874-1.482,2.332
	c-0.687,0.441-1.86,0.514-2.655,0.251c-0.464-0.153-0.864-1.287-0.845-1.967c0.051-1.746,0.664-3.517,0.483-5.219
	c-0.291-2.744-0.398-5.378,0.319-8.096c0.248-0.938-0.349-2.219-0.85-3.196c-0.421-0.821-1.261-1.429-1.822-2.031
	c0.219-1.915,0.413-3.587,0.62-5.383c-1.599-0.691-2.94-1.27-4.322-1.868c1.814-2.903,2.338-5.599,0.482-8.547
	c-0.778-0.132-1.523-0.29-2.278-0.379c-0.96-0.114-1.94-0.105-2.887-0.277c-0.883-0.161-1.736-1.562-1.312-2.286
	c1.745-2.978,3.143-6.179,7.396-6.641c4.017-0.438,4.57-1.354,4.796-5.2c0.022-0.39,0.014-0.782,0.018-1.171
	c0.094-8.393,0.235-16.784,0.231-25.176c0-1.293-0.443-2.708-1.074-3.85C508.872,292.221,507.458,290.378,505.837,287.966z
	 M624.141,383.085c3.447,0.749,6.437,1.453,9.451,2.022c0.933,0.176,1.933,0.002,2.9-0.043c1.751-0.084,3.5-0.283,5.251-0.273
	c5.69,0.033,5.443-1.266,6.202-5.053c0.067-0.339-0.151-0.736-0.242-1.133c-1.492-1.177-2.997-2.366-4.496-3.549
	c-1.7,0.719-3.269,1.381-5.023,2.121c-1.582-1.29-3.061-2.496-4.307-3.514c-0.209-2.341-0.444-4.266-0.525-6.198
	c-0.038-0.899,0.221-1.81,0.329-2.579c2.409-0.635,4.463-1.177,6.617-1.744c1.729,0.645,3.517,1.312,5.208,1.944
	c4.633-2.801,3.163-7.979,5.017-11.866c1.752,2.699,3.26,5.165,4.913,7.527c2.053,2.932,3.297,3.331,6.301,1.413
	c2.266-1.449,4.569-2.002,7.167-2.019c1.708-0.01,3.552,0.273,5.021-1.263c0.431-1.59,0.735-3.327,1.375-4.932
	c0.901-2.258,1.196-4.593,0.775-6.892c-0.923-5.044-0.695-10.06-0.136-15.095c0.181-1.635-0.017-3.18-1.445-4.187
	c-0.498-0.352-1.295-0.278-2.472-0.494c0.571,2.417,1.033,4.267,1.438,6.13c0.27,1.235-0.131,2.294-1.029,3.178
	c-1.442,1.418-3.112,2.396-5.179,2.363c-1.943-0.031-3.904-0.083-5.82-0.366c-2.76-0.407-5.422-0.221-8.071,0.618
	c-1.081,0.342-2.206,0.545-3.083,0.756c-2.343-1.195-3.866-3.046-6.435-3.321c-6.977-0.75-11.36-0.682-20.698,0.902
	c-1.185,4.069-1.165,4.632-0.122,7.871c0.407,1.266,1.061,2.646,0.882,3.869c-0.362,2.464,0.065,4.589,1.267,6.722
	c1.33,2.359,1.699,4.769-0.32,7.058c-0.36,0.407-0.439,1.061-0.482,1.168c0.644,3.663,1.227,6.901,1.781,10.145
	C626.936,378.958,626.928,378.96,624.141,383.085z M984.22,1147.027c0.594-0.064,1.148-0.14,1.706-0.188
	c2.483-0.208,3.278-0.791,3.475-2.893c0.123-1.345-0.004-2.716-0.044-4.076c-0.084-2.92-0.37-5.848-0.249-8.76
	c0.499-12.058-0.713-24.116,0.058-36.173c0.027-0.386,0.017-0.778-0.015-1.167c-0.166-2.188-1.083-3.109-3.338-3.201
	c-5.637-0.231-11.274-0.421-16.916-0.627c-0.193-0.01-0.39-0.034-0.583-0.026c-1.397,0.068-2.567,1.164-2.673,2.603
	c-0.056,0.77,0.089,1.552,0.091,2.326c0.011,9.739,0.013,19.477,0.008,29.216c-0.002,4.092,0.161,8.194-0.086,12.271
	c-0.262,4.318,0.525,8.481,1.232,12.675c0.06,0.36,0.352,0.682,0.537,1.022c1.208,0.936,2.417,1.872,3.462,2.683
	c0.065,0.682,0.193,1.082,0.119,1.441c-0.115,0.567-0.42,1.093-0.55,1.658c-0.872,3.763,0.917,6.117,4.695,6.184
	c3.077,0.054,5.665-1.293,8.079-2.995c1.744-1.229,2.123-2.321,1.327-4.558C983.687,1151.997,983.041,1149.632,984.22,1147.027z
	 M623.009,439.935c2.631,1.402,5.109,1.084,7.626,0.613c3.467-0.65,6.942-0.842,10.462-0.258c1.315,0.22,2.726,0.184,4.05-0.021
	c3.655-0.567,5.105-2.113,5.217-5.842c0.115-3.894,0.021-7.797-0.113-11.692c-0.072-2.129-0.074-4.358-0.72-6.343
	c-0.889-2.737-1.016-5.309-0.119-8c0.244-0.733,0.532-1.544,0.448-2.278c-0.576-5.025-1.218-10.044-1.902-15.055
	c-0.216-1.583-1.37-2.309-2.867-2.419c-1.161-0.085-2.333,0.001-3.5-0.004c-2.91-0.017-5.821-0.016-8.729-0.075
	c-1.752-0.035-3.503-0.258-5.254-0.24c-3.983,0.041-5.497,1.442-5.104,5.299c0.591,5.813-0.892,11.673,0.565,17.46
	c0.222,0.878-0.275,1.914-0.29,2.88c-0.136,8.168-0.241,16.338-0.329,24.508C622.444,438.827,622.714,439.191,623.009,439.935z
	 M622.326,443.414c-0.263,1.013-0.445,1.389-0.444,1.764c0.027,12.688,0.062,25.378,0.125,38.067
	c0.014,2.926,0.036,5.859,0.231,8.776c0.124,1.846,1.219,2.794,2.998,3.018c0.578,0.071,1.173,0.123,1.751,0.076
	c5.827-0.469,11.651-0.957,17.476-1.447c0.387-0.033,0.774-0.115,1.152-0.212c2.327-0.6,3.309-1.694,3.56-4.034
	c0.083-0.774,0.056-1.56,0.062-2.341c0.097-10.545,0.223-21.09,0.264-31.635c0.012-2.926-0.14-5.86-0.383-8.778
	c-0.192-2.308-1.048-3.104-3.334-3.303c-2.524-0.219-5.057-0.397-7.589-0.418c-4.276-0.037-8.555,0.046-12.833,0.122
	C624.42,443.084,623.481,443.277,622.326,443.414z M902.168,1061.084c1.434-0.737,2.371-1.473,3.424-1.714
	c4.024-0.924,5.929-3.264,5.786-7.463c-0.106-3.104,0.31-6.229,0.184-9.331c-0.085-2.125-1.403-3.055-3.513-3.083
	c-2.333-0.029-4.665-0.055-6.996-0.063c-0.973-0.006-2.046-0.209-2.889,0.134c-0.774,0.316-1.931,1.34-1.844,1.883
	c0.925,5.853-0.241,11.646-0.266,17.463c0,0.384,0.115,0.77,0.181,1.156c0.293,1.659-0.095,3.133-1.357,4.263
	c-1.851,1.652-2.571,3.79-3.141,6.129c-0.299,1.232-1.057,2.748-2.07,3.34c-3.085,1.807-3.455,4.554-3.165,7.576
	c0.217,2.274,0.731,4.518,1.156,7.026c3.019,0.241,5.718,0.606,8.423,0.643c7.026,0.095,14.055,0.062,21.083,0.04
	c1.949-0.006,3.9-0.102,5.848-0.222c4.279-0.261,8.555-0.552,12.83-0.879c0.267-0.021,0.501-0.449,0.755-0.692
	c-0.525-1.001-1.051-2.003-1.653-3.146c0.781-0.816,1.492-1.468,2.092-2.209c1.405-1.731,1.684-3.49,0.191-4.655
	c-2.674-2.089-4.858-5.066-8.759-5.261c-1.535-0.077-3.027-0.801-4.568-0.985c-1.922-0.231-3.898-0.427-5.814-0.242
	c-2.998,0.287-4.57,2.045-4.83,4.944c-0.175,1.93,0.137,4.026-0.529,5.762c-0.785,2.049,1.218,3.576,0.719,5.49
	c-0.847,0-1.755,0.209-1.896-0.032c-1.368-2.324-2.66-4.553-1.469-7.582c0.748-1.904,0.637-4.218,0.575-6.338
	c-0.029-1.066-0.61-2.264-1.284-3.14C907.152,1067.01,904.774,1064.244,902.168,1061.084z M617.334,465.451
	c0.631-0.961,1.139-1.77,1.681-2.555c0.848-1.23,1.067-2.655,0.447-3.905c-2.051-4.15-2.433-8.491-1.561-13.218
	c-2.86-1.618-5.391-3.459-8.692-3.464c-3.893-0.006-7.786,0.034-11.677,0.138c-1.738,0.048-2.806,1.226-2.923,3.037
	c-0.052,0.775,0.026,1.56,0.037,2.341c0.08,6.415,0.246,12.829,0.211,19.241c-0.032,5.833-1.349,11.655-0.084,17.501
	c0.12,0.551,0.019,1.171-0.075,1.745c-1.194,7.422,0.914,7.728,7.131,7.532c0.392-0.012,0.783-0.072,1.169-0.049
	c3.224,0.175,5.7-0.898,7.028-4.044c0.096-0.228,0.67-0.253,1.25-0.454c0.884,1.156,1.713,2.472,2.775,3.561
	c1.007,1.03,3.221,1.081,4.382,0.239c1.135-0.823,1.06-2.038,0.636-3.178c-0.713-1.917-0.424-3.686,0.006-5.678
	C620.406,478.069,620.707,471.869,617.334,465.451z M597.678,399.064c-0.793,1.998-2,3.733-2.106,5.533
	c-0.373,6.421-0.395,12.866-0.504,19.302c-0.073,4.281-0.096,8.564-0.083,12.847c0.003,1.085,0.228,2.17,0.336,3.119
	c3.11,0,5.831-0.026,8.55,0.007c2.516,0.031,4.585-0.708,5.937-3.004c0.378-0.641,1.001-1.138,1.741-1.954
	c1.056,0.651,1.974,1.325,2.981,1.811c1.767,0.853,3.206,0.119,3.362-1.783c0.331-4.048,0.537-8.042,1.686-12.047
	c1.029-3.584,0.526-7.41-2.688-10.222c-1.406-1.23-1.707-2.834-1.868-4.704c-0.346-4.016-0.354-7.767,2.704-10.936
	c0.519-0.537,0.353-1.732,0.481-2.491c-2.481-0.983-4.612-1.842-6.757-2.663c-0.538-0.206-1.167-0.497-1.676-0.389
	c-3.476,0.736-6.509-0.307-9.521-1.946c-1.745-0.951-3.638-0.016-4.17,1.836C595.244,394.3,595.172,397.111,597.678,399.064z
	 M594.578,497.302c-0.139,1.374-0.305,2.138-0.278,2.895c0.11,3.119,0.694,6.282,0.349,9.341c-1.011,8.96,0.017,17.928-0.475,26.878
	c-0.127,2.335-0.241,4.677-0.236,7.015c0.005,2.271,1.198,3.643,3.43,3.965c0.944,0.137,1.969,0.126,2.892-0.09
	c4.015-0.946,8.014-0.444,12.04-0.146c1.51,0.11,3.101-0.132,4.582-0.508c2.221-0.565,2.885-1.498,2.653-3.836
	c-0.518-5.246-0.303-10.464,0.124-15.699c0.091-1.119-0.1-2.41-0.603-3.398c-1.746-3.425-1.527-6.702,0.031-10.119
	c0.544-1.19,0.721-2.659,0.673-3.988c-0.117-3.299-0.426-6.593-0.725-9.882c-0.172-1.903-1.754-3.444-3.537-3.127
	c-2.479,0.44-4.919,1.163-7.323,1.931c-1.432,0.459-2.042,1.731-2.182,3.192c-0.222,2.326-0.294,4.677-0.677,6.977
	c-0.412,2.484,0.251,4.173,2.697,5.088c2.049,0.768,3.072,2.228,2.791,4.569c-2.586,1.004-5.069,1.966-7.445,2.887
	c-4.148-4.244-4.283-4.891-1.797-9.685c0.643-1.239,1.449-2.5,0.826-3.848c-1.074-2.326-0.405-4.575-0.134-6.883
	c0.367-3.116-0.844-4.637-3.874-4.116C597.251,496.908,596.114,497.065,594.578,497.302z M897.367,986.108
	c0.115,3.911,0.29,7.377,0.286,10.843c0,1.93-0.173,3.884-0.507,5.783c-0.399,2.286-1.247,4.485-0.124,6.83
	c1.181,2.461-1.543,4.319-1.201,6.685c0.111,0.77,0.245,1.536,0.408,2.294c0.245,1.142,0.49,2.285,0.802,3.41
	c0.55,1.99,0.362,3.823-0.837,5.562c-0.538,0.779-0.895,1.682-1.246,2.358c0.568,2.483,1.567,4.649,3.96,4.791
	c2.599,0.154,4.817,0.823,7.158,1.903c2.878,1.328,5.265-0.552,5.473-3.831c0.037-0.582,0.019-1.167,0.021-1.751
	c0.024-13.229,0.054-26.459,0.063-39.688c0.002-0.969-0.033-1.95-0.186-2.904c-0.277-1.763-1.267-2.907-3.06-3.003
	C904.927,985.205,901.424,984.741,897.367,986.108z M940.808,1196.403c3.67,1.156,7.183,0.622,10.622,0.531
	c3.756-0.1,5.143-1.428,5.59-5.282c0.202-1.73,0.688-2.954,2.203-3.788c2.334-1.29,2.857-3.384,2.922-5.918
	c0.113-4.376-0.434-8.501-2.753-12.334c-1.42-2.343-2.236-4.937-2.172-7.748c0.006-0.267-0.476-0.542-0.717-0.799
	c-1.696-0.702-3.153,1.683-4.739,0.531c0-2.509,0.054-4.828-0.015-7.144c-0.06-1.998-0.945-3.299-1.933-3.017
	c-1.442,0.413-1.446,1.696-1.548,2.831c-0.446,5.034-0.813,10.076-1.304,15.105c-0.066,0.678-0.512,1.559-1.06,1.9
	c-0.962,0.6-1.825-0.087-2.526-0.809c-0.882-0.914-1.233-1.974-0.747-3.203c0.667-1.693,0.951-3.424,0.076-5.095
	c-1.325-2.529-1.333-5.24-1.358-7.978c-0.012-1.271-0.202-2.54-0.312-3.811C940.033,1154.377,940.132,1191.38,940.808,1196.403z
	 M488.192,273.515c3.297,0.386,5.976,0.688,8.649,1.017c1.908,0.234,3.192,1.232,3.904,3.064c0.487,1.255,1.143,2.454,1.813,3.627
	c0.137,0.242,0.806,0.462,0.988,0.339c0.418-0.284,1.005-0.83,0.957-1.195c-0.176-1.339-0.671-2.635-0.88-3.973
	c-0.266-1.714-0.681-3.493-0.466-5.17c0.283-2.197,0.269-4.184-0.641-6.26c-0.425-0.969-0.479-2.397-0.09-3.375
	c1.364-3.441-0.12-6.079-2.071-8.621c-0.826-1.077-1.782-2.081-2.8-2.979c-1.916-1.69-2.373-3.752-2.481-6.253
	c-0.11-2.537,0.203-4.602,2.188-6.295c0.396-0.338,0.539-0.976,0.677-1.242c-1.048-2.327-1.924-4.459-2.96-6.51
	c-0.755-1.497-2.614-2.144-4.584-1.778c-1.554,0.287-2.333,1.331-2.513,2.826c-0.164,1.353-0.332,2.715-0.329,4.075
	c0.014,11.865,0.895,23.725,0.196,35.597C487.694,271.334,488.006,272.282,488.192,273.515z M679.247,335.236
	c-1.201,3.48-0.575,6.132-0.012,8.783c0.483,2.279,0.617,4.465,0.269,6.875c-0.447,3.099-1.03,6.532,1.215,9.625
	c2.713-0.199,5.355-1.326,8.011-0.264c0.148,0.059,0.425-0.007,0.552-0.118c2.22-1.932,4.244-0.822,6.44,0.174
	c0.91,0.411,2.569,0.395,3.268-0.181c2.287-1.881,4.154-4.38,3.61-7.485c-0.735-4.203-0.88-8.359-0.604-12.59
	c0.218-3.361-0.954-4.499-4.558-4.387c-3.098,0.096-6.193,0.411-9.274,0.756C685.275,336.746,682.403,337.259,679.247,335.236z
	 M589.695,142.248c0-2.528,0.064-4.805-0.037-7.074c-0.034-0.734-0.351-1.561-0.794-2.152c-1.862-2.484-3.543-5.187-6.844-6.104
	c-0.625-0.173-1.149-0.715-2.03-1.288c0.955-0.524,1.411-0.859,1.922-1.034c0.734-0.252,1.536-0.314,2.262-0.586
	c5.512-2.062,6.595-4.497,4.499-10.757c-6.621-0.385-13.384-0.722-20.138,0.452c-0.209,0.037-0.329,0.589-0.489,0.9
	c2.546,2.181,2.629,2.165,3.17,5.051c0.343,1.828,1.095,3.289,2.572,4.42c0.74,0.568,1.386,1.259,1.939,1.77
	c-0.147,3.385-1.538,5.521-4.371,6.679c-1.312,0.537-2.408,1.273-2.726,2.797c-0.679,3.243,0.823,5.835,3.974,6.739
	c4.957,1.419,10.016,1.491,15.096,0.991C588.417,142.98,589.093,142.5,589.695,142.248z M971.472,1195.771
	c5.998,0.336,10.83,0.634,15.666,0.857c1.57,0.072,2.646-1.255,2.172-2.693c-1.034-3.144-1.947-6.363-5.226-8.116
	c-1.883-1.005-2.598-2.627-2.53-4.857c0.07-2.315-0.338-4.65-0.598-6.97c-0.232-2.067-1.337-3.693-3.006-4.821
	c-2.229-1.505-4.576-2.836-6.772-4.183c-4.188,3.055-4.762,3.882-5.3,7.437c-0.639,4.233-0.49,8.476-0.396,13.024
	c1.16,0.13,2.085,0.239,3.01,0.334c1.16,0.119,2.357,0.083,3.475,0.372c3.476,0.895,4.467,3.81,2.287,6.591
	C973.66,1193.497,972.957,1194.163,971.472,1195.771z M922.311,1064.278c0.565-3.739,1.325-7.288,3.903-10.452
	c2.555,2.098,3.109,4.697,3.492,7.368c0.163,1.143-0.041,2.435,0.438,3.402c0.326,0.662,1.527,1.125,2.378,1.197
	c0.458,0.038,1.428-0.921,1.44-1.447c0.074-3.101,0.015-6.216-0.154-9.315c-0.15-2.714-0.523-5.416-0.756-8.124
	c-0.102-1.166-0.013-2.35-0.163-3.503c-0.321-2.485-1.719-3.841-4.266-3.916c-3.505-0.106-7.012-0.097-10.517-0.006
	c-2.93,0.075-4.866,1.916-4.688,4.838c0.371,5.978,1.026,11.939,1.585,18.171C917.234,1063.236,919.455,1064.393,922.311,1064.278z
	 M1012.097,1122.716c-1.319,3.931-4.515,6.415-6.767,9.479c-0.326,0.441-0.934,0.921-1.426,0.937
	c-0.891,0.026-1.939-0.064-2.634-0.531c-0.453-0.306-0.696-1.456-0.509-2.066c0.394-1.289,1.179-2.45,1.721-3.699
	c0.96-2.212,1.378-4.442-0.074-6.929c-1.164,0.148-2.343,0.113-3.39,0.466c-2.967,0.995-3.783,2.132-3.757,5.151
	c0.015,1.354,0.229,2.722,0.491,4.057c0.871,4.43,0.004,8.517-2.236,12.379c-0.366,0.636-0.6,1.349-1.088,2.465
	c1.147,0.066,1.917,0.294,2.56,0.104c1.11-0.33,2.109-1.028,3.217-1.387c3.424-1.114,6.815-1.963,9.678,1.36
	c0.828,0.963,2.094,1.062,3.23,0.47c1.203-0.627,1.316-1.836,1.305-3.042c-0.025-2.723-0.041-5.445-0.089-8.17
	C1012.264,1130.077,1012.175,1126.396,1012.097,1122.716z M543.179,356.353c-0.909,0.447-1.125,0.494-1.251,0.625
	c-2.899,2.983-2.733,4.536,0.701,5.986c1.426,0.602,3.239,0.668,4.331,1.609c4.37,3.769,9.057,2.308,13.722,1.158
	c1.268-0.312,2.527-1.041,3.53-1.886c0.627-0.529,1.164-1.705,1.022-2.457c-0.141-0.76-1.086-1.812-1.82-1.943
	c-3.805-0.682-7.655-1.515-11.487-1.5C548.809,357.956,545.808,358.271,543.179,356.353z M917.704,968.297
	c-2.387,3.081-2.174,6.193-1.756,9.295c0.208,1.535,1.387,2.416,2.839,2.544c4.072,0.361,8.154,0.586,12.235,0.826
	c0.358,0.023,0.733-0.216,1.099-0.341c0.676-0.235,0.984-1.472,0.451-1.984c-0.55-0.532-1.115-1.105-1.78-1.45
	c-1.774-0.92-3.666-1.176-5.683-0.964c-0.564,0.06-1.519-0.548-1.762-1.087c-0.47-1.05,0.286-1.872,1.222-2.304
	c0.876-0.403,1.929-0.466,2.742-0.95c0.555-0.327,1.247-1.227,1.13-1.679c-0.146-0.568-1.022-1.276-1.641-1.34
	C923.901,968.571,920.982,968.48,917.704,968.297z M916.29,959.277c0.581,0.32,0.915,0.664,1.255,0.668
	c4.086,0.051,8.176,0.147,12.26,0.019c1.725-0.055,2.66-1.456,3.306-2.964c0.566-1.331-0.206-2.218-2.094-2.392
	c-0.381-0.033-0.763-0.046-1.257-0.075c-1.177-1.354-1.358-3.787-3.608-4.181c-3.06-0.535-6.54-1.458-8.952,0.848
	C914.961,953.339,915.631,956.562,916.29,959.277z M589.697,166.963c-0.718-4.984-0.72-4.97-4.708-5.586
	c-1.085-0.167-2.427-0.079-2.438-2.104c2.062-0.222,4.16-0.392,6.235-0.713c0.457-0.071,1.2-0.71,1.167-1.021
	c-0.071-0.668-0.451-1.756-0.895-1.86c-4.146-0.968-8.313-1.304-12.872,0.21c1.084,2.384,1.806,4.477,0.028,6.633
	c-0.783,0.95,0.004,2.173,1.022,2.988C580.993,168.518,585.092,168.201,589.697,166.963z M1011.835,1042.782
	c-2.151,0.273-1.125,2.908-3.184,3.485c-2.415-0.049-4.964,0.514-6.484,3.159c1.77,2.995,5.143,1.574,7.366,2.93
	c2.722,4.62,2.19,8.933-0.861,13.148c0.509,1.101,0.925,2.192,1.498,3.191c1.018,1.776,1.398,3.68,1.061,5.649
	c-0.688,4.021-1.522,8.02-2.256,12.034c-0.06,0.333,0.189,0.725,0.297,1.091c0.334,0.182,0.67,0.509,1.006,0.512
	c0.535,0.007,1.073-0.202,1.953-0.397c0.104-14.481,0.216-28.907,0.286-43.335
	C1012.519,1043.764,1012.071,1043.272,1011.835,1042.782z M894.062,991.52c-0.185-1.713-0.282-3.444-0.645-5.119
	c-0.062-0.289-1.492-0.698-1.869-0.438c-1.727,1.179-2.209,3.041-2.336,5.06c-0.371,5.794-0.891,11.582-1.142,17.38
	c-0.064,1.468,0.62,2.978,1.051,4.441c0.065,0.224,0.748,0.511,0.947,0.403c0.456-0.246,0.811-0.7,1.158-1.109
	c0.095-0.112,0.085-0.407,0.011-0.561c-1.29-2.63-0.525-5.016,0.142-7.747C892.362,999.803,895.5,996.102,894.062,991.52z
	 M956.824,1019.827c0.251-3.319,0.554-6.733,0.748-10.152c0.051-0.942-0.109-1.936-0.373-2.847
	c-0.664-2.294-3.233-2.982-5.069-1.429c-1.081,0.914-1.792,2.001-1.732,3.482c0.103,2.502,0.065,5.019,0.325,7.503
	C951.042,1019.472,952.61,1020.349,956.824,1019.827z M947.177,1052.83c1.71,1.802,3.157,3.363,4.665,4.86
	c0.197,0.196,0.945,0.209,1.062,0.044c0.303-0.429,0.696-1.164,0.519-1.498c-1.415-2.709-3.589-5.015-3.661-8.387
	c-0.063-2.935-2.163-4.404-4.671-5.39c-1.725-0.679-3.159,0.061-3.518,1.84c-0.561,2.794,0.115,5.421,1.125,7.988
	c0.13,0.327,0.509,0.556,0.904,0.969C944.641,1053.133,945.771,1052.998,947.177,1052.83z M526.293,162.048
	c1.282-0.088,2.264-0.078,3.215-0.237c2.524-0.422,3.999-1.998,4.481-4.671c0.27-1.493-0.728-2.805-2.232-2.702
	c-2.708,0.183-5.415,0.434-8.106,0.787c-1.445,0.19-2.522,1.033-2.748,2.594c-0.218,1.506,0.78,3.212,2.269,3.673
	C524.268,161.831,525.446,161.904,526.293,162.048z M944.179,1110.278c-0.678-2.139-1.146-3.622-1.617-5.104
	c-0.445-1.405-0.895-2.811-1.342-4.216c-0.81,0.792-0.939,1.481-0.947,2.175c-0.102,7.61-0.169,15.22-0.28,22.828
	c-0.074,5.068-0.245,10.136-0.284,15.203c-0.009,1.235-0.233,2.749,1.619,3.44c0.229-0.68,0.562-1.192,0.552-1.697
	c-0.166-7.987-0.344-15.978-0.597-23.963C941.181,1115.739,941.314,1112.667,944.179,1110.278z M527.987,356.963
	c-3.357-0.56-6.42-0.544-9.467-0.201c-1.102,0.124-2.269,0.556-3.193,1.171c-2.224,1.479-2.253,3.848-0.259,6.122
	c0.208,0,0.429,0.063,0.589-0.009c3.083-1.41,5.804-3.622,9.592-3.358C526.591,360.78,528.066,359.542,527.987,356.963z
	 M549.585,154.075c-3.683,0-6.766-0.062-9.842,0.049c-0.636,0.023-1.401,0.574-1.816,1.107c-0.24,0.307-0.085,1.22,0.22,1.593
	c0.719,0.878,1.652,2.28,2.463,2.257c3.287-0.098,5.827,1.938,8.811,2.577c0.306,0.065,0.695-0.261,1.367-0.538
	c-0.488-0.979-1.192-1.896-1.383-2.907C549.201,157.124,549.478,155.943,549.585,154.075z M955.577,1023.467
	c-2.26,1.706-4.106,3.065-5.915,4.473c-2.43,1.886-3.052,4.253-2.02,7.048c1.827,0.297,1.79-1.514,2.759-1.943
	c1.212-0.536,2.508-0.908,3.798-1.231c1.834-0.454,3.173-1.446,3.713-3.272C958.567,1026.337,957.407,1024.889,955.577,1023.467z
	 M653.061,382.321c2.414,1.781,3.777,3.472,5.933,2.94c3.754-0.924,7.451-2.087,11.144-3.232c0.339-0.106,0.497-0.797,0.954-1.592
	c-5.011-0.736-9.628-0.046-14.228,0.154C655.853,380.636,654.874,381.467,653.061,382.321z M919.915,941.432
	c3.76-1.109,7.846,1.224,10.727-2.423c-1.966-1.165-3.907-1.079-5.827-1.174c-2.102-0.104-4.197-0.31-6.303-0.472
	c-1.696,3.189-2.073,5.34-1.123,7.572c0.169,0.399,0.932,0.785,1.391,0.753c0.449-0.033,1.16-0.557,1.226-0.952
	C920.151,943.823,919.979,942.859,919.915,941.432z M961.697,1032.434c0.344-0.105,0.952-0.165,0.975-0.317
	c0.939-6.019,0.706-17.125-0.518-20.857c-1.646,2.915-1.261,5.915-1.42,8.64C960.494,1024.065,959.602,1028.4,961.697,1032.434z
	 M704.55,382.384c0.043,0.356,0.052,0.951,0.191,1.511c0.451,1.802,2.163,2.971,3.939,2.74c1.689-0.218,2.801-1.896,2.571-3.963
	c-0.063-0.571-0.208-1.156-0.433-1.683c-0.643-1.5-2.198-2.408-3.737-2.254C705.625,378.88,704.599,380.27,704.55,382.384z
	 M551.068,114.633c0.038,2.935,1.596,3.62,3.444,3.801c2.206,0.215,4.251-0.477,6.081-1.671c0.377-0.246,0.687-1.032,0.581-1.461
	c-0.107-0.432-0.734-0.978-1.192-1.039C557.094,113.872,554.205,113.836,551.068,114.633z M512.094,165.911
	c1.354,0.208,2.24,0.465,3.124,0.461c4.035-0.02,8.071-0.098,12.106-0.213c0.233-0.006,0.451-0.515,0.942-1.114
	c-1.367-0.392-2.591-1.027-3.821-1.04c-3.631-0.04-7.267,0.135-10.896,0.327C513.181,164.35,512.85,165.062,512.094,165.911z
	 M842.635,1082.696c0.785,1.035,0.951,1.433,1.248,1.62c2.051,1.276,4.97,0.642,6.564,3.176c0.299,0.476,2.162,0.132,3.246-0.097
	c0.96-0.205,1.226-1.803,0.472-2.393C850.932,1082.482,847.334,1081.747,842.635,1082.696z M972.659,1043.538
	c0.801,2.606,2.445,3.206,4.176,3.225c1.853,0.022,3.874,0.159,5.333-1.42c0.221-0.236,0.366-0.772,0.249-1.04
	c-0.206-0.474-0.587-1.138-0.993-1.215C978.634,1042.56,975.832,1042.419,972.659,1043.538z M940.884,1088.745
	c2.261-0.484,4.362,0.523,6.334-1.002c0.044-2.321-1.226-3.665-2.987-4.647c-1.727-0.965-3.643-0.046-3.863,1.97
	C940.256,1086.115,940.651,1087.223,940.884,1088.745z M687.521,323.509c-3.779-1.684-5.106-1.708-5.998-0.07
	c-0.856,1.569-1.293,3.248-0.572,4.965c0.242,0.577,0.909,0.975,1.456,1.53C684.275,327.589,685.894,325.554,687.521,323.509z
	 M448.934,131.643c0.625,0.056,0.829,0.129,0.998,0.081c2.249-0.64,4.216-4.272,3.536-6.503c-0.272-0.89-1.851-1.435-2.36-0.711
	c-1.089,1.547-2.164,3.149-2.908,4.873C447.945,129.971,448.701,130.993,448.934,131.643z M652.173,203.735
	c0.872-0.126,1.123-0.083,1.227-0.187c2.427-2.435,2.076-5.195,0.856-8.013c-0.122-0.284-0.716-0.636-0.929-0.55
	c-0.483,0.191-1.152,0.577-1.239,0.99C651.563,198.46,651.559,200.96,652.173,203.735z M954.448,937.242
	c2.271,2.182,3.592,3.699,5.495,4.422c1.463-1.555,1.115-3.102,0.87-4.575c-0.174-1.05-0.991-1.792-2.03-1.571
	C957.578,935.773,956.453,936.419,954.448,937.242z M836.686,1040.198c1.88,3.197,3.1,3.853,5.473,2.865
	c0.544-0.228,1.115-1.161,1.095-1.751c-0.021-0.588-0.657-1.471-1.218-1.666C840.395,1039.081,838.666,1038.921,836.686,1040.198z
	 M593.926,162.193c2.457-0.195,3.224-1.865,4.07-3.277c0.301-0.5,0.175-1.574-0.186-2.087c-0.681-0.977-1.824-1.555-2.992-0.897
	c-0.561,0.316-1.12,1.148-1.156,1.777C593.58,159.169,593.815,160.65,593.926,162.193z M929.426,930.848
	c-2.857-0.198-4.379-0.344-5.903-0.4c-1.29-0.046-2.448,0.805-2.025,1.396c0.406,0.565,1.075,1.224,1.691,1.296
	c1.303,0.153,2.675,0.087,3.965-0.17C927.726,932.855,928.169,932.063,929.426,930.848z M1011.529,1112.154
	c1.171-4.405,1.167-4.625-0.142-7.821C1009.979,1108.501,1009.982,1108.837,1011.529,1112.154z M996.202,1050.886
	c0.628-0.995,1.37-1.83,1.691-2.806c0.188-0.569-0.097-1.573-0.538-1.993c-0.435-0.414-1.554-0.674-1.984-0.397
	c-0.678,0.433-1.259,1.318-1.444,2.113c-0.144,0.622,0.266,1.465,0.641,2.078C994.811,1050.277,995.439,1050.438,996.202,1050.886z
	 M998.969,941.654c-0.097-2.113-1.181-3.602-2.802-4.713c-0.262-0.179-1.294,0.164-1.403,0.468
	C993.834,939.997,995.384,941.612,998.969,941.654z M944.483,954.637c1.991,0.153,3.479-0.651,3.734-1.722
	c0.268-1.13-1.097-2.48-2.519-2.492c-1.434-0.015-2.891,1.22-2.555,2.385C943.367,953.587,944.15,954.205,944.483,954.637z
	 M772.008,797.648c-2.139-1.182-3.404-1.15-4.373,0.098c-0.986,1.273-1.285,2.671,0.135,4.359
	C769.187,800.616,770.355,799.387,772.008,797.648z M546.788,456.808c-3.692,1.905-4.164,2.574-3.77,4.956
	c0.076,0.461,0.699,1.227,0.966,1.186c0.622-0.098,1.529-0.479,1.698-0.963C546.158,460.615,546.323,459.134,546.788,456.808z
	 M559.251,154.711c-0.047-1.72-1.06-2.696-2.292-2.615c-1.104,0.071-1.765,0.726-1.932,1.804c-0.176,1.139,0.873,2.172,2.268,1.961
	C558.065,155.745,558.744,155.026,559.251,154.711z M553.724,138.022c-0.114-1.708-1.276-2.73-2.8-2.544
	c-0.593,0.073-1.438,0.704-1.589,1.243c-0.375,1.331,1.31,2.696,3.007,2.402C552.917,139.021,553.387,138.304,553.724,138.022z
	 M843.02,1077.015c-0.776-1.223-1.131-2.128-1.773-2.708c-1.047-0.946-2.244-0.532-3.135,0.311
	c-0.476,0.452-0.607,1.267-0.896,1.914c0.851,0.357,1.679,0.911,2.561,1.012C840.642,1077.642,841.559,1077.278,843.02,1077.015z
	 M960.378,958.434c-0.381,0.349-1.261,0.822-1.603,1.551c-0.381,0.815,0.876,1.742,2.4,1.875c0.859,0.075,1.521-0.256,1.677-1.179
	C963.061,959.444,962.177,958.474,960.378,958.434z M824.032,948.541c-0.247,0.389-0.778,0.84-0.752,1.255
	c0.126,2.134,1.409,3.747,2.782,3.678c0.169-0.009,0.368-0.105,0.485-0.227c0.917-0.957,0.356-2.946-1.296-4.42
	C825.016,948.617,824.558,948.654,824.032,948.541z M819.295,1064.003c-0.115-0.385-0.23-0.771-0.348-1.156
	c-0.891,0.044-1.828-0.076-2.658,0.17c-1.086,0.322-2.148,0.892-2.091,2.327c0.034,0.876,1.289,0.966,2.841,0.131
	C817.828,1065.051,818.545,1064.498,819.295,1064.003z M673.855,292.352c-1.117,5.426-1.117,5.426,1.567,6.464
	C676.088,296.786,675.167,295.211,673.855,292.352z M520.65,352.502c0.18-1.784-0.945-3.154-2.265-3.023
	c-0.42,0.042-1.027,0.612-1.126,1.038c-0.364,1.553,0.529,2.939,1.853,2.85C519.714,353.327,520.28,352.723,520.65,352.502z
	 M672.122,287.643c1.411-0.151,2.268-1.422,1.918-2.724c-0.145-0.542-0.986-1.241-1.534-1.262c-1.159-0.046-1.953,1.283-1.544,2.541
	C671.162,286.813,671.817,287.282,672.122,287.643z M977.15,1056.785c0.88-0.831,1.6-1.215,1.83-1.795
	c0.371-0.935-0.627-2.225-1.455-1.942c-0.591,0.203-1.273,0.902-1.395,1.489C976.025,1055.059,976.636,1055.727,977.15,1056.785z
	 M549.873,165.095c-2.18-0.768-3.509-1.129-5.087,0.412C546.383,166.771,547.668,166.695,549.873,165.095z M960.541,991.671
	c0.643-0.325,1.214-0.473,1.582-0.831c0.775-0.748,0.946-1.691,0.302-2.616c-0.194-0.278-0.66-0.574-0.956-0.533
	c-1.255,0.176-1.371,1.23-1.394,2.199C960.063,990.417,960.344,990.951,960.541,991.671z M943.058,1027.611
	c-0.13,0.47-0.387,0.991-0.389,1.516c0,0.719,0.191,1.438,0.294,2.134c1.696,0.008,2.32-0.878,2.192-2.155
	C945.057,1028.11,944.431,1027.353,943.058,1027.611z M806.248,1031.262c-0.134,0.518-0.399,1.039-0.372,1.552
	c0.062,1.266,0.255,2.528,0.527,4.933C807.903,1034.887,807.705,1033.126,806.248,1031.262z M566.051,483.435
	c-0.642-0.635-1.05-1.212-1.606-1.487c-0.176-0.086-0.975,0.578-1.097,1.01c-0.234,0.829,0.229,1.559,1.12,1.586
	C564.873,484.557,565.296,483.989,566.051,483.435z M974.958,1066.031c-0.523,0.747-1.142,1.436-1.055,1.542
	c0.435,0.532,1.016,1.007,1.645,1.275c0.158,0.066,1.038-0.885,0.958-1.036C976.192,1067.218,975.628,1066.757,974.958,1066.031z
	 M831.456,879.914c-0.546-0.466-0.894-0.987-1.341-1.097c-0.8-0.198-1.615,0.095-1.595,1.071c0.017,0.895,0.743,1.354,1.582,1.156
	C830.552,880.938,830.9,880.399,831.456,879.914z M689.07,310.589c-0.759-0.516-1.47-1.13-1.568-1.043
	c-0.529,0.462-1.006,1.057-1.264,1.701c-0.068,0.168,0.922,1.044,1.062,0.962C687.896,311.868,688.352,311.288,689.07,310.589z
	 M961.742,1056.607c-0.292-0.683-0.531-1.317-0.566-1.305c-0.659,0.206-1.294,0.491-1.933,0.758c0.2,0.438,0.472,1.27,0.591,1.249
	C960.487,1057.19,961.104,1056.865,961.742,1056.607z M571.798,154.454c-0.66,0.858-1.163,1.319-1.364,1.887
	c-0.066,0.187,0.684,0.951,0.996,0.915c0.412-0.048,0.951-0.572,1.076-0.998C572.61,155.905,572.195,155.399,571.798,154.454z
	 M967.43,1056.298c0.449-0.632,0.815-0.977,0.933-1.39c0.056-0.194-0.418-0.772-0.574-0.744c-0.429,0.076-0.816,0.383-1.22,0.599
	C966.801,1055.175,967.031,1055.588,967.43,1056.298z M441.08,79.312c-0.4-0.332-0.706-0.74-0.875-0.691
	c-0.292,0.087-0.623,0.426-0.702,0.724c-0.062,0.229,0.233,0.555,0.37,0.837C440.26,79.903,440.649,79.624,441.08,79.312z
	 M953.49,1045.454c0.268,0.205,0.527,0.426,0.815,0.597c0.031,0.02,0.363-0.294,0.336-0.393c-0.088-0.316-0.28-0.602-0.433-0.9
	C953.971,1044.989,953.729,1045.22,953.49,1045.454z M937.536,1049.169c0.218-0.262,0.591-0.513,0.611-0.79
	c0.023-0.296-0.288-0.617-0.455-0.928c-0.299,0.352-0.639,0.685-0.863,1.08C936.794,1048.593,937.284,1048.951,937.536,1049.169z
	 M826.893,671.46c0.258,0.199,0.507,0.412,0.787,0.574c0.03,0.019,0.353-0.282,0.325-0.374c-0.086-0.302-0.27-0.577-0.418-0.862
	C827.354,671.018,827.123,671.239,826.893,671.46z M557.906,160.606c-0.335-0.099-0.668-0.229-1.01-0.273
	c-0.071-0.01-0.298,0.391-0.258,0.439c0.209,0.251,0.482,0.449,0.732,0.666C557.55,161.162,557.729,160.886,557.906,160.606z
	 M555.166,143.189c-0.297,0.164-0.786,0.278-0.845,0.504c-0.074,0.278,0.208,0.652,0.337,0.983c0.407-0.226,0.814-0.451,1.222-0.677
	C555.643,143.73,555.405,143.459,555.166,143.189z M508.255,190.376c-0.119-0.335-0.158-0.753-0.389-0.968
	c-0.112-0.106-0.579,0.167-0.885,0.269c0.172,0.454,0.344,0.906,0.515,1.361C507.75,190.817,508.001,190.597,508.255,190.376z
	 M952.662,994.544c-0.408-0.355-0.783-0.682-1.158-1.011c-0.154,0.314-0.457,0.651-0.416,0.939c0.041,0.3,0.368,0.675,0.659,0.784
	C951.903,995.314,952.243,994.885,952.662,994.544z M1012.045,979.929c-0.274-0.207-0.538-0.429-0.83-0.601
	c-0.033-0.019-0.359,0.292-0.33,0.377c0.105,0.311,0.299,0.59,0.462,0.881C1011.577,980.368,1011.812,980.149,1012.045,979.929z
	 M781.925,879.749c-0.099-0.304-0.161-0.617-0.312-0.881c-0.047-0.082-0.478-0.066-0.492-0.023c-0.085,0.291-0.105,0.6-0.146,0.904
	C781.29,879.749,781.604,879.749,781.925,879.749z M988.114,1088.479c0.05-0.172,0.097-0.345,0.145-0.518
	c-0.315-0.081-0.631-0.163-0.946-0.245c-0.045,0.172-0.142,0.486-0.125,0.492C987.488,1088.323,987.803,1088.398,988.114,1088.479z
	 M830.191,967.829c0.325-0.146,0.767-0.208,0.941-0.459c0.143-0.203-0.026-0.631-0.062-0.958c-0.326,0.144-0.767,0.205-0.942,0.457
	C829.985,967.073,830.156,967.5,830.191,967.829z M809.591,963.746c-0.107,0.305-0.239,0.605-0.299,0.92
	c-0.011,0.056,0.346,0.275,0.392,0.239c0.241-0.188,0.435-0.435,0.645-0.661C810.083,964.078,809.838,963.911,809.591,963.746z
	 M520.3,539.824c-0.187-0.335-0.275-0.49-0.36-0.645c-0.385,0.319-0.779,0.63-1.138,0.977c-0.032,0.029,0.159,0.29,0.247,0.441
	C519.468,540.338,519.888,540.079,520.3,539.824z M547.513,380.732c0.256-0.144,0.522-0.27,0.75-0.447
	c0.036-0.027-0.1-0.415-0.177-0.422c-0.299-0.03-0.606,0.027-0.909,0.051C547.287,380.186,547.399,380.458,547.513,380.732z
	 M841.1,1066.361c0.21,0.213,0.416,0.425,0.626,0.638c0.095-0.123,0.297-0.328,0.272-0.359c-0.182-0.231-0.404-0.429-0.616-0.638
	C841.287,1066.124,841.19,1066.246,841.1,1066.361z M997.807,1055.516c-0.049-0.139-0.065-0.349-0.162-0.396
	c-0.091-0.046-0.267,0.078-0.406,0.128c0.052,0.141,0.068,0.35,0.163,0.396C997.494,1055.688,997.669,1055.565,997.807,1055.516z
	 M806.119,1043.796c0.127,0.06,0.255,0.119,0.381,0.179c0.06-0.125,0.191-0.279,0.156-0.373c-0.03-0.094-0.258-0.199-0.35-0.166
	C806.214,1043.47,806.179,1043.669,806.119,1043.796z M967.654,1076.008c-0.143,0.056-0.285,0.11-0.427,0.166
	c0.136,0.251,0.26,0.513,0.424,0.743c0.019,0.027,0.267-0.107,0.408-0.166C967.926,1076.504,967.79,1076.255,967.654,1076.008z
	 M508.441,212.721c0.134-0.048,0.336-0.064,0.381-0.158c0.043-0.09-0.076-0.258-0.125-0.392c-0.133,0.048-0.337,0.065-0.38,0.157
	C508.277,212.422,508.394,212.587,508.441,212.721z M954.979,931.603c-0.067-0.153-0.13-0.436-0.204-0.438
	c-0.303-0.013-0.609,0.062-0.912,0.104c0.065,0.154,0.125,0.44,0.197,0.442C954.366,931.72,954.673,931.648,954.979,931.603z
	 M826.637,884.094c-0.13-0.062-0.282-0.193-0.381-0.16c-0.093,0.029-0.13,0.234-0.189,0.363c0.128,0.062,0.282,0.194,0.379,0.16
	C826.54,884.424,826.575,884.222,826.637,884.094z M830.175,887.582c-0.146-0.067-0.319-0.22-0.431-0.183
	c-0.107,0.036-0.146,0.269-0.215,0.415c0.146,0.068,0.322,0.221,0.432,0.183C830.067,887.958,830.106,887.728,830.175,887.582z
	 M806.797,1047.763l0.312,0.221l0.007-0.432L806.797,1047.763z M542.703,486.892c-0.142-0.076-0.284-0.154-0.426-0.231
	c-0.065,0.143-0.217,0.32-0.176,0.416c0.049,0.113,0.263,0.159,0.404,0.234C542.57,487.171,542.637,487.032,542.703,486.892z
	 M689.577,297.932l-0.285-0.361l-0.165,0.392L689.577,297.932z M435.006,427.038l0.074-0.451l-0.421,0.124L435.006,427.038z
	 M618.818,408.129l-0.248-0.348l-0.193,0.39L618.818,408.129z M814.651,689.641l0.366-0.263l-0.407-0.203L814.651,689.641z
	 M936.443,931.021c0.133,0.071,0.262,0.141,0.394,0.21c0.062-0.13,0.204-0.294,0.167-0.379c-0.049-0.106-0.243-0.145-0.375-0.212
	C936.567,930.769,936.506,930.895,936.443,931.021z M777.806,986.554l-0.227,0.379l0.356,0.058L777.806,986.554z M777.777,1008.851
	l-0.215,0.365l0.332,0.06L777.777,1008.851z"/>
<path d="M383.171,109.391c-1.657-0.615-3.292-1.26-4.464-3.116c0.257-1.482,0.839-3.194,0.779-4.884
	c-0.083-2.284,0.166-4.202,2.068-5.75c1.295-1.054,1.599-2.688,1.561-4.274c-0.076-3.129,0.969-5.279,4.328-5.933
	c0.58-0.113,1.406-1.014,1.42-1.569c0.029-1.226-1.179-1.554-2.113-1.454c-1.709,0.183-3.415,0.554-5.067,1.038
	c-0.899,0.264-1.682,0.921-2.856,1.595c-0.699-1.021-1.727-1.859-1.836-2.806c-0.308-2.689-0.523-5.451-0.236-8.128
	c0.232-2.149,0.636-4.201,0.034-6.351c-0.521-1.857-0.142-3.637,1.64-4.587c2.907-1.55,3.467-3.913,3.011-6.898
	c-0.412-2.693-0.439-5.453-0.964-8.118c-1.082-5.487,1.161-10.02,4.106-14.199c2.224-3.154,5.626-2.832,8.411,0.022
	c3.337,3.418,4.906,7.634,5.067,12.167c0.108,3.015,0.626,5.751,2.019,8.44c-0.742,1.23-1.424,2.362-2.164,3.589
	c0.551,1.114,1.052,2.156,1.581,3.186c0.835,1.625,1.149,3.335,0.706,5.111c-0.581,2.328-0.514,4.615-0.015,6.958
	c0.748,3.503,0.595,7.004-0.613,10.402c-0.811,2.282-0.772,4.536-0.396,6.916c0.545,3.461,0.808,6.969,1.134,10.463
	c0.493,5.274,1.785,6.87,6.883,7.947c1.501,0.318,3.091,0.208,4.637,0.329c0.768,0.061,1.588,0.065,2.273,0.357
	c0.425,0.18,0.749,0.818,0.906,1.318c0.074,0.237-0.279,0.807-0.561,0.921c-0.891,0.357-1.849,0.545-2.765,0.847
	c-2.076,0.686-2.661,2.007-1.153,3.346c2.488,2.208,3.129,4.767,2.658,7.896c-0.082,0.539,0.641,1.2,1.264,2.27
	c2.329-2.75,4.225-5.088,5.277-8.099c0.356-1.019,1.177-2.059,2.07-2.67c2.211-1.514,4.563-0.73,4.924,1.827
	c0.735,5.208,1.419,10.462,1.52,15.709c0.12,6.23-0.388,12.475-0.646,18.712c-0.064,1.559,0.002,3.172-0.399,4.65
	c-0.277,1.024-1.102,2.041-1.951,2.737c-1.428,1.173-3.099,0.939-3.986-0.686c-1.173-2.15-2.656-3.846-4.903-4.802
	c-0.484-0.207-1.097-0.109-1.568-0.146c-1.345,1.368-0.398,2.666-0.17,3.947c0.58,3.257,0.047,3.911-3.103,3.794
	c-0.967-0.036-1.947-0.173-2.898-0.06c-0.464,0.058-0.872,0.582-1.349,0.925c1.022,1.693,2.671,1.832,4.135,1.882
	c2.917,0.102,5.842-0.107,8.764-0.152c1.349-0.02,2.74-0.153,4.043,0.11c3.512,0.708,3.924,1.447,3.957,5.124
	c0.033,3.502-0.087,7.056,0.47,10.488c0.794,4.877,0.682,9.667,0.233,14.547c-0.338,3.683-0.195,7.419-0.11,11.129
	c0.1,4.312-0.037,8.555-1.167,12.781c-0.477,1.783-0.08,3.8-0.08,5.877c-0.836,0.317-1.53,0.796-2.232,0.812
	c-4.489,0.096-8.979,0.084-13.47,0.121c-2.547,0.021-3.941-1.432-4.668-3.675c-0.237-0.732-0.334-1.528-0.383-2.302
	c-0.844-13.441-1.44-26.892-1.143-40.363c0.042-1.905,0.592-3.822,1.075-5.69c1.061-4.099,0.024-5.912-4.042-6.684
	c-0.94-0.179-1.913-0.181-3.064-0.281c-0.279-2.043-0.493-3.939-0.805-5.819c-0.385-2.327-0.777-4.61-3.22-5.914
	c-1.146-0.613-1.213-1.892-0.833-3.125c0.304-0.986,0.374-2.135-0.718-2.492c-0.814-0.265-1.948-0.099-2.755,0.273
	c-1.812,0.832-3.131,2.269-4.1,4.044c-0.456,0.835-1.022,1.66-1.72,2.286c-0.306,0.274-1.101,0.145-1.611-0.009
	c-0.267-0.08-0.492-0.59-0.568-0.942c-0.077-0.358-0.047-0.806,0.106-1.134c1.117-2.376,0.782-4.528-0.826-6.57
	c-1.269-1.61-1.601-3.516-1.57-5.523c0.028-1.835,0.452-3.543,1.864-4.767c4.793-4.15,4.854-9.396,3.612-14.98
	c-0.04-0.18,0.03-0.387,0.078-0.865c0.794-1.04,1.805-2.228,2.658-3.52c0.831-1.254,0.422-2.76-0.915-3.513
	c-0.843-0.475-1.942-0.586-2.65-1.186c-0.999-0.845-1.74-1.993-2.591-3.012c0.335-0.142,0.685-0.259,0.999-0.437
	c0.138-0.077,0.206-0.279,0.305-0.424c-0.249,0-0.625-0.102-0.723,0.02C383.387,108.671,383.307,109.054,383.171,109.391z
	 M415.158,137.043c-0.227-0.467-0.373-0.764-0.516-1.061c-0.421,0.252-0.877,0.464-1.231,0.79c-0.069,0.063,0.322,0.83,0.394,0.813
	C414.269,137.477,414.703,137.24,415.158,137.043z"/>
<path d="M1073.672,1304.63c9.445-0.794,18.668,0.731,28.301,1.048c0.319,3.727,0.834,7.32,0.89,10.923
	c0.146,9.565,0.107,19.136,0.109,28.703c0,1.166-0.13,2.341-0.305,3.495c-0.235,1.547-1.229,2.502-2.757,2.556
	c-7.2,0.249-14.403,0.563-21.604,0.561c-3.868-0.002-4.474-0.948-4.652-5.1c-0.143-3.314-0.345-6.626-0.447-9.94
	c-0.247-8.198-0.474-16.397-0.661-24.596C1072.493,1309.955,1072.324,1307.593,1073.672,1304.63z M1076.904,1307.626
	c-0.076-0.271-0.128-0.558-0.251-0.807c-0.029-0.057-0.433-0.028-0.464,0.041c-0.107,0.269-0.13,0.568-0.186,0.856
	C1076.303,1307.688,1076.602,1307.658,1076.904,1307.626z"/>
<path d="M441.612,198.18c-6.212-5.298-9.403-11.072-9.604-17.609c0.761,0.147,1.581,0.081,2.093,0.446
	c1.478,1.058,3.044,1.385,4.84,1.662c2.019,0.31,3.964,1.468,5.78,2.534c0.71,0.418,1.225,1.542,1.391,2.426
	c0.285,1.517,0.29,3.1,0.297,4.655c0.017,2.933,0.002,5.853,1.214,8.621c0.57,1.298,0.748,2.711-0.022,3.943
	c-0.477,0.765-1.293,1.704-2.051,1.797c-0.73,0.089-1.837-0.63-2.317-1.318c-0.642-0.916-0.962-2.118-1.194-3.243
	C441.766,200.774,441.735,199.403,441.612,198.18z"/>
<path d="M432.866,245.842c-0.289-3.695,1.226-6.003,4.452-7.446c3.042-1.361,5.872-0.568,8.282,1.101
	c2.107,1.46,2.284,3.901,1.174,6.667c-3.238,0.433-6.467,2.218-9.871-0.147c-0.518-0.359-1.483-0.068-2.242-0.091
	C434.125,245.912,433.587,245.877,432.866,245.842z"/>
<path d="M442.873,44.079c-0.584-1.731-1.167-3.461-1.875-5.556c-0.918,0.212-1.874,0.228-2.606,0.642
	c-1.813,1.026-3.524,2.234-5.721,3.657c-0.181-1.153-0.44-1.845-0.366-2.5c0.477-4.155,2.619-7.662,4.642-11.171
	c1.125-1.955,3.71-1.956,4.748,0.057c1.042,2.018,1.869,4.271,2.182,6.507c0.37,2.637,0.086,5.366,0.086,8.057
	C443.599,43.874,443.236,43.978,442.873,44.079z M439.56,31.473c-0.255,0.128-0.444,0.223-0.633,0.317
	c0.132,0.055,0.3,0.187,0.388,0.146C439.419,31.887,439.454,31.689,439.56,31.473z"/>
<path d="M596.301,594.995c0.147-7.521,0.26-14.08,0.42-20.637c0.027-1.152,0.094-2.357,0.465-3.426
	c0.201-0.574,1.042-1.191,1.673-1.291c1.124-0.177,1.785,0.696,1.899,1.731c0.106,0.944,0.151,1.987-0.145,2.866
	c-1.504,4.481-1.883,9.016-1.347,13.716C599.55,590.421,599.057,592.868,596.301,594.995z"/>
<path d="M437.993,114.019c-2.181-1.143-4.244-2.154-6.233-3.297c-1.032-0.592-0.979-2.334,0.046-2.951
	c0.812-0.488,1.686-0.933,2.591-1.196c2.348-0.685,4.264-0.252,5.185,1.275c0.471,0.779,0.757,1.789,0.767,2.7
	C440.363,111.922,439.892,113.195,437.993,114.019z"/>
<path d="M669.795,141.652c-2.878-0.969-4.691-1.575-6.501-2.193c-1.662-0.566-2.425-1.903-2.692-3.488
	c-0.114-0.677,0.006-1.679,0.44-2.081c0.419-0.392,1.508-0.487,2.079-0.226C666.19,135.073,668.557,137.179,669.795,141.652z"/>
<path d="M392.64,160.793c-3.684,1.416-6.886,2.733-10.16,3.833c-0.707,0.238-1.676-0.303-3.207-0.632
	c2.678-3.11,5.312-4.87,8.699-5.271C389.642,158.524,391.498,158.373,392.64,160.793z"/>
<path d="M650.528,594.457c-1.533-4.687-2.324-9.134-1.123-14.267c0.886,0.515,1.597,0.745,2.021,1.229
	c0.337,0.383,0.411,1.069,0.45,1.631c0.213,3.079,0.415,6.159,0.54,9.24C652.457,593.27,652.207,594.224,650.528,594.457z"/>
<path d="M674.877,176.403c-0.158,1.41-0.211,2.38-0.409,3.321c-0.062,0.3-0.538,0.756-0.772,0.726
	c-0.505-0.063-1.247-0.273-1.411-0.639c-1.123-2.489-1.907-5.1-1.589-7.864c0.073-0.637,0.657-1.532,1.213-1.73
	c1.136-0.406,1.793,0.562,2.04,1.502C674.385,173.389,674.631,175.109,674.877,176.403z"/>
<path d="M613.298,595.299c2.372-0.547,4.741-1.092,7.165-1.65c1.975,2.166,2.053,4.15,0.355,6.325
	C617.254,596.957,617.254,596.957,613.298,595.299z"/>
<path d="M620.993,589.343c-1.417-1.205-2.167-1.55-2.164-1.888c0.033-3.227,0.163-6.456,0.374-9.676
	c0.019-0.281,0.8-0.605,1.274-0.714c0.169-0.039,0.681,0.495,0.681,0.765C621.148,581.247,621.074,584.665,620.993,589.343z"/>
<path d="M593.082,588.43c1.49,4.204,1.49,7.179,0.002,11.319C591.928,596.342,591.927,592.715,593.082,588.43z"/>
<path d="M675.312,748.999c0-6.202,0-12.404,0-18.898C676.657,734.742,676.767,738.713,675.312,748.999z"/>
<path d="M808.251,558.011c0,6.169,0,12.339,0,18.502c-0.148,0.035-0.333,0.112-0.356,0.078c-0.104-0.152-0.229-0.337-0.23-0.51
	c-0.011-6.009-0.008-12.018-0.008-18.025C807.855,558.04,808.054,558.026,808.251,558.011z"/>
<path d="M726.537,740.881c2.066,2.922,2.066,2.922,0.474,6.9c-1.049,0.142-1.242-0.635-1.302-1.357
	c-0.095-1.13-0.122-2.274-0.042-3.401C725.702,742.508,726.059,742.016,726.537,740.881z"/>
<path d="M752.938,736.883c-1.65-4.837-1.65-4.837,0-10.089C752.938,730.502,752.938,733.691,752.938,736.883z"/>
<path d="M740.561,764.397c-2.178,1.228-3.67,0.91-6.043,0.31C736.794,763.368,738.298,763.536,740.561,764.397z"/>
<path d="M807.771,596.84c-0.223-1.961-0.443-3.922-0.738-6.534C808.282,592.747,808.282,592.747,807.771,596.84z"/>
<path d="M715.783,749.942c-1.23,0-2.458,0-4.117,0C713.42,748.53,713.42,748.53,715.783,749.942z"/>
<path d="M792.514,604.998c0.216-2.257,1.203-2.767,2.378-2.855c0.457-0.035,0.951,0.451,1.43,0.7
	c-0.233,0.421-0.369,1.051-0.724,1.221C794.794,604.447,793.882,604.605,792.514,604.998z"/>
<path d="M447.041,215.793c-0.769-1.28-1.2-1.703-1.268-2.178c-0.127-0.872,0.832-1.609,1.44-1.143
	c0.381,0.29,0.684,0.934,0.678,1.414C447.883,214.392,447.466,214.892,447.041,215.793z"/>
<path d="M464.386,48.269c1.674-1.464,2.854-2.496,4.399-3.847C467.93,47.775,467.93,47.775,464.386,48.269z"/>
<path d="M652.139,599.336c-0.774,0.494-1.31,0.833-1.842,1.17c-0.214-0.477-0.652-0.991-0.579-1.42
	c0.072-0.417,0.638-0.975,1.045-1.03C651.066,598.018,651.465,598.678,652.139,599.336z"/>
<path d="M631.123,556.591c-0.989,0.594-1.496,1.066-2.067,1.166c-0.273,0.047-0.67-0.609-1.013-0.947
	c0.394-0.333,0.747-0.848,1.193-0.946C629.617,555.779,630.103,556.171,631.123,556.591z"/>
<path d="M675.58,711.837c0.843,1.324,1.258,1.755,1.393,2.26c0.107,0.397-0.135,0.888-0.222,1.337
	c-0.39-0.326-0.947-0.581-1.126-0.996C675.427,713.979,675.58,713.371,675.58,711.837z"/>
<path d="M727.306,752.463c0.346,0.357,0.813,0.702,0.765,0.814c-0.2,0.451-0.562,0.83-0.866,1.236
	c-0.34-0.331-0.68-0.664-1.018-0.996C726.554,753.171,726.922,752.823,727.306,752.463z"/>
<path d="M807.701,585.783c-0.182-0.666-0.41-1.324-0.505-2.001c-0.022-0.157,0.408-0.377,0.631-0.569
	c0.108,0.139,0.303,0.273,0.309,0.416c0.033,0.693,0.015,1.39,0.015,2.084C808.002,585.736,807.852,585.761,807.701,585.783z"/>
<path d="M807.905,530.236c0-0.827,0-1.655,0-2.481c0.084,0,0.167,0,0.251,0c0,0.826,0,1.654,0,2.481
	C808.072,530.236,807.989,530.236,807.905,530.236z"/>
<path d="M746.555,764.531c-0.211,0.226-0.39,0.579-0.639,0.639c-0.28,0.067-0.625-0.13-0.939-0.213
	c0.22-0.23,0.407-0.586,0.674-0.658C745.909,764.229,746.249,764.44,746.555,764.531z"/>
<path d="M676.751,628.546c-0.057-0.454-0.155-0.907-0.152-1.36c0.002-0.269,0.168-0.537,0.375-1.145c0,1.062,0,1.773,0,2.485
	C676.9,628.533,676.826,628.54,676.751,628.546z"/>
<path d="M808.237,603.654c-0.252,0.198-0.501,0.396-0.753,0.592c-0.195-0.396-0.391-0.792-0.587-1.19
	c0.31-0.099,0.69-0.355,0.909-0.256C808.033,602.905,808.099,603.354,808.237,603.654z"/>
<path d="M684.993,567.957c-0.34,0.416-0.513,0.827-0.804,0.941c-0.593,0.233-1.083-0.797-0.732-1.695
	c0.098-0.25,0.521-0.373,0.795-0.554C684.51,567.104,684.768,567.557,684.993,567.957z"/>
<path d="M415.217,105.383c0.149,0.256,0.296,0.513,0.444,0.77c-0.154,0.072-0.419,0.233-0.441,0.204
	c-0.181-0.23-0.315-0.496-0.463-0.75C414.909,105.532,415.063,105.457,415.217,105.383z"/>
<path d="M601.566,557.518c-0.239,0.143-0.478,0.286-0.718,0.428c-0.067-0.146-0.221-0.396-0.189-0.425
	c0.212-0.175,0.464-0.302,0.702-0.444C601.428,557.222,601.497,557.371,601.566,557.518z"/>
<path d="M808.177,519.528c-0.034,0.47-0.069,0.94-0.104,1.41c-0.058-0.004-0.115-0.008-0.174-0.014
	c0.04-0.47,0.077-0.94,0.116-1.408C808.068,519.52,808.123,519.524,808.177,519.528z"/>
<path d="M688.373,575.777c0.213,0.218,0.583,0.424,0.599,0.655c0.021,0.282-0.256,0.586-0.405,0.881
	c-0.305-0.289-0.609-0.576-0.914-0.863C687.891,576.229,688.128,576.007,688.373,575.777z"/>
<path d="M593.887,581.73c-0.173,0.235-0.346,0.469-0.519,0.703c-0.171-0.271-0.464-0.539-0.476-0.815
	c-0.008-0.226,0.327-0.462,0.509-0.694C593.563,581.193,593.725,581.462,593.887,581.73z"/>
<path d="M447.032,154.688c0.176,0,0.349,0,0.522,0c-0.036,0.287-0.046,0.581-0.131,0.854c-0.016,0.052-0.324,0.013-0.497,0.016
	C446.961,155.27,446.996,154.98,447.032,154.688z"/>
<path d="M698.467,621.268c0.134,0.064,0.346,0.102,0.379,0.199c0.033,0.104-0.105,0.264-0.167,0.399
	c-0.134-0.064-0.35-0.102-0.38-0.199C698.266,621.562,698.403,621.403,698.467,621.268z"/>
<path d="M784.754,604.597c-0.315,0.103-0.627,0.238-0.95,0.282c-0.093,0.014-0.223-0.241-0.336-0.372
	c0.317-0.101,0.626-0.238,0.95-0.284C784.513,604.211,784.641,604.464,784.754,604.597z"/>
<path d="M441.076,92.942c-0.102,0.118-0.203,0.236-0.307,0.355c-0.132-0.227-0.265-0.454-0.398-0.681
	c0.159-0.039,0.353-0.15,0.467-0.096C440.958,92.578,441.002,92.795,441.076,92.942z"/>
<polygon points="421.577,106.962 421.862,106.644 421.997,107.033 "/>
<polygon points="381.202,116.184 380.833,116.204 380.97,115.886 "/>
<path d="M676,759.312c-0.19,0.248-0.284,0.37-0.379,0.492c-0.093-0.124-0.187-0.247-0.279-0.371
	C675.522,759.4,675.704,759.367,676,759.312z"/>
<polygon points="650.757,567.67 650.756,568.036 650.453,567.882 "/>
<path d="M753.138,773.684c-0.08-0.11-0.223-0.221-0.223-0.33c0-0.107,0.146-0.214,0.227-0.323c0.083,0.109,0.231,0.219,0.231,0.327
	C753.373,773.467,753.222,773.575,753.138,773.684z"/>
<path d="M439.412,565.961c0.143-0.049,0.323-0.176,0.464-0.143c0.121,0.031,0.199,0.246,0.293,0.378
	c-0.253,0.086-0.505,0.173-0.758,0.258C439.412,566.293,439.412,566.131,439.412,565.961z"/>
<polygon points="728.266,724.896 727.989,725.189 727.887,724.833 "/>
<path d="M614.215,196.533c-3.332,2.81-3.507,2.978-2.613,5.656c0.537,1.607,1.48,3.092,2.333,4.579
	c1.296,2.256,0.997,3.303-1.461,4.534c-0.689,0.346-1.402,0.664-2.136,0.892c-0.326,0.103-0.73-0.047-1.099-0.083
	c-1.262-6.124-1.248-12.918,0.15-17.239C610.788,195.351,612.179,195.831,614.215,196.533z"/>
<path d="M610.676,265.577c-1.169,1.489-1.968,2.504-2.89,3.679c-0.925-2.358-1.762-4.28-2.421-6.26
	c-0.312-0.938-0.175-1.936,1.439-2.42C607.958,262.068,609.199,263.672,610.676,265.577z"/>
<path d="M605.647,248.747c-0.504-0.31-1.13-0.489-1.372-0.896c-0.373-0.633-0.554-1.407-0.689-2.146
	c-0.197-1.067-0.768-2.243,0.398-3.121c0.925-0.697,2.731,0.518,3.242,2.397c0.225,0.825,0.021,1.838-0.237,2.689
	C606.863,248.095,606.173,248.349,605.647,248.747z"/>
<path d="M614.354,170.172c2.234,1.347,2.234,1.347,1.095,5.443C613.974,173.502,613.974,173.502,614.354,170.172z"/>
<path d="M612.018,275.355c-0.771,0.739-1.211,1.524-1.755,1.604c-0.888,0.129-1.386-0.726-1.156-1.513
	c0.182-0.627,0.836-1.116,1.281-1.666C610.849,274.226,611.31,274.671,612.018,275.355z"/>
<path d="M607.816,175.958c-0.553-0.698-0.867-1.092-1.18-1.487c0.544-0.381,1.051-0.894,1.657-1.077
	c0.22-0.067,1.035,0.851,0.967,0.968C608.949,174.908,608.422,175.33,607.816,175.958z"/>
<path d="M612.562,317.111c0.238,0.148,0.488,0.282,0.702,0.461c0.028,0.023-0.132,0.272-0.204,0.416
	c-0.238-0.146-0.488-0.279-0.701-0.457C612.329,317.506,612.488,317.258,612.562,317.111z"/>
<path d="M677.177,502.781c1.079,4.179,1.08,4.179,0.448,6.8C676.083,507.87,676.091,507.868,677.177,502.781z"/>
<path d="M652.446,540.961c-0.425,0.258-0.686,0.416-0.946,0.575c-0.166-0.303-0.452-0.603-0.46-0.91
	c-0.006-0.253,0.315-0.515,0.491-0.773C651.83,540.214,652.128,540.576,652.446,540.961z"/>
<path d="M677.946,391.786c0.849,4.125,0.582,7.513,0.232,10.88c-0.149,1.43-2.135,2.062-3.156,1.126
	c-1.886-1.728-2.679-5.507-1.317-7.401C674.772,394.908,676.182,393.673,677.946,391.786z"/>
<path d="M677.078,408.225c0.383,0.586,0.975,1.127,1.117,1.768c0.605,2.735,0.808,6.354-1.291,15.947
	c-1.387-0.572-1.419-1.898-1.182-2.915C676.838,418.246,676.289,413.426,677.078,408.225z"/>
<polygon points="721.829,408.642 721.551,408.373 721.889,408.277 "/>
<path d="M510.93,131.669c-0.277,0.114-0.553,0.226-0.83,0.337c-0.063-0.271-0.155-0.542-0.167-0.815
	c-0.002-0.062,0.355-0.233,0.411-0.188C510.568,131.19,510.74,131.44,510.93,131.669z"/>
<path d="M509.201,116.617c-0.204,0.193-0.408,0.383-0.612,0.574c-0.103-0.138-0.319-0.36-0.289-0.4
	c0.166-0.221,0.391-0.399,0.595-0.593C508.997,116.336,509.098,116.477,509.201,116.617z"/>
<path d="M719.613,468.7c0.145,1.668-0.787,2.732-2.087,2.862c-1.14,0.113-1.858-0.485-2.042-1.585
	c-0.27-1.611,0.789-3.333,1.908-2.968C718.338,467.316,719.076,468.267,719.613,468.7z"/>
<path d="M719.47,451.512c-0.054,0.159-0.066,0.407-0.171,0.455c-0.132,0.062-0.34-0.039-0.516-0.069
	c0.087-0.24,0.176-0.481,0.262-0.721C719.186,451.289,719.327,451.399,719.47,451.512z"/>
<path d="M503.358,378.384c-1.684,0.077-3.235-0.967-3.457-2.329c-0.261-1.597,1.309-3.414,2.999-3.472
	c1.266-0.043,2.213,1.345,2.319,3.394C505.289,377.333,504.517,378.332,503.358,378.384z"/>
<path d="M918.38,1086.012c-0.61-0.852-1.262-1.68-1.797-2.574c-0.111-0.184,0.128-0.775,0.358-0.909
	c0.245-0.14,0.865-0.081,0.991,0.109c0.577,0.869,1.038,1.818,1.541,2.739C919.109,1085.587,918.744,1085.8,918.38,1086.012z"/>
<path d="M901.682,1080.768c-0.208,0.238-0.416,0.475-0.624,0.712c-0.285-0.337-0.569-0.677-0.854-1.015
	c0.276-0.146,0.594-0.454,0.813-0.396C901.282,1080.136,901.465,1080.52,901.682,1080.768z"/>
<polygon points="894.256,1070.374 894.583,1070.665 894.186,1070.804 "/>
<path d="M603.999,487.069c-0.354-0.85-0.482-1.023-0.491-1.202c-0.09-1.947-0.243-4.338,1.875-4.968
	c2.453-0.729,4.168,1.021,5.559,3.405C608.745,485.868,606.698,487.024,603.999,487.069z"/>
<path d="M604.385,527.104c0.387,1.225,1.25,2.524,1.073,3.662c-0.603,3.906,1.343,8.162-1.812,12.155
	c-0.437-0.747-0.991-1.28-1.041-1.858c-0.132-1.536-0.146-3.098-0.026-4.637c0.236-3.034,0.594-6.058,0.9-9.085
	C603.782,527.263,604.083,527.184,604.385,527.104z"/>
<path d="M610.535,543.478c-1.289-2.556-1.457-4.148,0.273-5.961C611.946,539.46,611.946,540.997,610.535,543.478z"/>
<polygon points="596.302,537.054 596.732,537.028 596.552,537.4 "/>
<path d="M585.176,339.94c-0.24,0.145-0.47,0.308-0.725,0.41c-0.044,0.017-0.304-0.271-0.275-0.348
	c0.095-0.256,0.277-0.479,0.426-0.714C584.794,339.505,584.985,339.722,585.176,339.94z"/>
<path d="M900.353,1012.286c0.688-0.643,1.129-1.18,1.691-1.492c0.134-0.074,1.045,0.761,0.981,0.915
	c-0.256,0.601-0.711,1.154-1.214,1.582C901.717,1013.369,901.058,1012.781,900.353,1012.286z"/>
<polygon points="946.783,1183.566 946.75,1183.194 947.078,1183.359 "/>
<path d="M575.724,135.438c0.313,0.353,0.953,0.804,1.161,1.405c0.127,0.365-0.345,1.01-0.668,1.436
	c-0.207,0.272-0.616,0.44-0.967,0.542c-1.029,0.296-1.958,0.072-2.297-1.014c-0.334-1.072,0.304-1.793,1.283-2.172
	C574.573,135.503,574.974,135.53,575.724,135.438z"/>
<path d="M924.396,1050.085c0.236-2.753-0.194-4.733,2.246-5.504c0.216-0.068,0.797,0.321,0.854,0.578
	C927.948,1047.14,926.801,1048.335,924.396,1050.085z"/>
</svg>
