<?xml version="1.0" encoding="utf-8"?>
<!-- Generator: Adobe Illustrator 16.0.0, SVG Export Plug-In . SVG Version: 6.00 Build 0)  -->
<!DOCTYPE svg PUBLIC "-//W3C//DTD SVG 1.1//EN" "http://www.w3.org/Graphics/SVG/1.1/DTD/svg11.dtd">
<svg version="1.1" id="Layer_1" xmlns="http://www.w3.org/2000/svg" xmlns:xlink="http://www.w3.org/1999/xlink" x="0px" y="0px"
	 width="1400px" height="1400px" viewBox="0 0 1400 1400" enable-background="new 0 0 1400 1400" xml:space="preserve">
<path fill-rule="evenodd" clip-rule="evenodd" d="M761.271,1220.17c0-1.04,0.073-1.727-0.011-2.393
	c-0.519-4.069-1.128-8.126-1.604-12.2c-0.578-4.956-1.104-9.918-1.564-14.886c-0.59-6.389-1.066-12.787-1.642-19.177
	c-0.542-6.04-1.046-12.087-1.75-18.11c-1.184-10.097-2.581-20.171-3.763-30.268c-0.889-7.612-1.648-15.239-2.34-22.871
	c-0.434-4.795-0.866-9.61-0.892-14.419c-0.065-12.495-0.062-24.995,0.212-37.488c0.209-9.454,1.222-18.853,2.727-28.21
	c1.219-7.576,2.443-15.126,4.336-22.577c2.249-8.856,5.64-17.278,9.061-25.711c2.972-7.324,7.536-13.741,11.38-20.568
	c0.756-1.344,1.959-1.869,3.466-2.183c3.479-0.727,6.963-1.518,10.353-2.576c4.133-1.29,8.279-1.942,12.623-1.856
	c3.917,0.078,7.844-0.241,11.761-0.482c0.779-0.047,1.533-0.527,2.453-0.864c-0.449-0.746-0.632-1.281-0.996-1.621
	c-6.949-6.452-11.413-14.49-15.278-23.032c-3.914-8.646-6.94-17.572-9.543-26.656c-1.766-6.165-3.222-12.42-4.807-18.637
	c-0.434-1.696-0.836-3.4-1.337-5.449c-2.21,0.473-4.087,0.867-5.96,1.277c-1.744,0.381-3.486,0.768-5.225,1.172
	c-12.01,2.809-24.119,4.832-36.489,5.256c-5.512,0.189-11.011,0.955-16.503,1.575c-2.889,0.326-5.7,0.115-8.491-0.603
	c-6.047-1.554-12.138-3.027-17.724-5.906c-3.157-1.628-6.287-3.392-9.156-5.472c-4.501-3.265-6.539-7.956-6.392-13.47
	c0.119-4.451,0.502-8.896,0.821-13.341c0.435-6.051,1.121-12.09,1.333-18.146c0.248-7.095,2.187-13.696,4.853-20.178
	c3.58-8.709,8.572-16.417,15.571-22.794c3.958-3.606,7.789-7.354,11.681-11.03c7.488-7.071,16.105-12.372,25.617-16.246
	c4.602-1.874,9.223-3.696,13.861-5.553c-0.293-1.545-1.816-1.464-2.859-1.995c-8.593-4.385-17.084-8.907-24.158-15.649
	c-5.882-5.604-10.679-11.997-14.107-19.354c-2.184-4.685-4.26-9.432-6.089-14.262c-2.076-5.482-5.521-9.981-9.53-14.072
	c-3.515-3.589-7.681-6.404-12.061-8.846c-9.542-5.317-18.266-11.841-26.946-18.396c-9.487-7.164-13.514-17.204-14.179-28.806
	c-0.082-1.423-0.129-2.848-0.248-4.268c-0.028-0.331-0.285-0.643-0.568-1.242c-2.033-0.545-4.281-1.071-6.464-1.79
	c-0.547-0.181-1.189-0.96-1.236-1.511c-0.043-0.518,0.52-1.395,1.025-1.6c2.323-0.939,4.713-1.711,6.506-4.295
	c-0.156-3.178-0.202-6.742-0.527-10.281c-1.078-11.732-2.298-23.452-3.375-35.184c-0.423-4.619-0.792-9.255-0.876-13.889
	c-0.478-26.24-0.904-52.481-1.26-78.723c-0.163-12.025-2.112-23.803-4.633-35.503c-1.013-4.705-2.331-9.345-3.557-14.002
	c-2.137-8.119-6.626-14.993-11.752-21.451c-3.211-4.044-6.753-7.833-10.27-11.622c-1.32-1.422-2.937-2.59-4.511-3.747
	c-1.161-0.854-2.365-1.59-2.867-3.051c-0.583-1.699-2.019-2.495-3.564-2.984c-13.431-4.254-26.569-9.477-40.504-12.058
	c-6.485-1.201-12.949-2.543-19.39-3.967c-11.067-2.447-22.304-2.776-33.555-2.643c-2.592,0.031-5.207,1.06-7.741,1.849
	c-1.59,0.496-3.123,1.004-4.638,0.116c-4.94-2.895-10.584-3.07-15.976-4.094c-15.343-2.915-30.839-3.241-46.412-2.532
	c-8.555,0.39-17.143,0.425-25.704,0.19c-10.165-0.279-20.315-1.043-30.476-1.547c-2.312-0.115-4.64-0.11-6.954-0.01
	c-2.898,0.125-5.691-0.236-8.423-1.214c-3.971-1.422-5.807-3.818-5.822-7.997c-0.021-5.896,2.525-10.483,7.888-12.918
	c3.701-1.681,7.722-2.739,11.683-3.753c10.388-2.66,20.874-1.878,31.398-0.8c7.447,0.763,14.941,1.146,22.425,1.426
	c3.003,0.113,6.041-0.447,9.047-0.822c1.04-0.13,2.063-0.562,3.043-0.978c1.71-0.727,2.248-1.54,1.85-3.334
	c-0.615-2.78-1.291-5.565-2.209-8.256c-2.538-7.438-4.905-14.909-6.686-22.578c-3.489-15.026-1.555-29.383,4.766-43.307
	c2.287-5.038,4.438-10.136,6.659-15.204c1.921-4.383,1.558-8.728-0.341-12.98c-2.2-4.929-5.18-9.379-8.908-13.278
	c-6.324-6.612-13.315-12.375-21.4-16.776c-3.598-1.959-6.968-4.336-10.545-6.337c-2.327-1.301-4.775-2.452-7.286-3.335
	c-3.577-1.258-6.759-3.15-9.973-5.107c-5.679-3.458-10.74-7.65-15.58-12.161c-5.72-5.333-10.062-11.566-12.547-19.015
	c-2.324-6.968-2.651-14.024-0.421-21.061c2.556-8.064,8.476-12.6,16.385-14.629c3.752-0.963,7.441-0.102,10.828,1.844
	c7.802,4.483,14.679,10.075,20.586,16.882c5.552,6.398,9.803,13.568,13.077,21.351c0.272,0.648,0.685,1.239,1.06,1.838
	c0.083,0.133,0.28,0.194,0.756,0.502c0.894-0.43,2.067-0.814,3.036-1.493c4.671-3.276,9.319-6.588,13.917-9.967
	c12.447-9.147,26.159-16.032,40.161-22.365c10.241-4.632,20.612-8.977,30.909-13.486c7.061-3.091,14.484-5.079,21.9-7.017
	c12.093-3.162,24.344-5.565,36.756-7.171c25.339-3.276,50.71-5.574,76.326-4.706c8.74,0.296,17.469,0.691,26.195,1.198
	c1.953,0.114,3.887,0.521,5.833,0.769c8.318,1.059,16.67,1.9,24.949,3.209c14.803,2.341,29.661,4.402,44.247,7.981
	c9.358,2.296,18.802,4.249,28.133,6.644c8.122,2.085,16.125,4.628,24.21,6.867c7.064,1.957,13.793,4.857,20.697,7.214
	c9.719,3.318,18.437,8.561,27.669,12.791c9.574,4.386,18.959,9.154,28.079,14.43c5.405,3.127,10.837,6.215,16.144,9.501
	c1.969,1.219,3.808,1.698,6.06,1.139c1.72-0.428,3.518-0.572,5.29-0.768c7.54-0.833,14.03,1.673,19.891,6.241
	c6.392,4.981,11.686,10.999,16.541,17.425c2.272,3.006,4.201,6.245,5.122,9.935c0.427,1.703,0.582,3.507,0.592,5.266
	c0.005,0.748-0.677,1.5-1.021,2.197c-2.278-0.438-2.568-2.267-3.077-3.654c-1.556-4.24-3.809-8.03-6.483-11.646
	c-4.066-5.496-8.79-10.265-14.351-14.261c-3.357-2.414-6.774-4.609-10.854-5.55c-1.897-0.438-3.807-0.788-5.938,0.637
	c1.316,1.046,2.404,1.897,3.479,2.766c5.406,4.376,10.893,8.657,16.185,13.167c3.778,3.22,5.763,7.598,7.199,12.304
	c2.363,7.74-1.623,15.59-8.705,19.239c-4.506,2.323-9.014,3.237-13.93,1.703c-1.185-0.37-2.447-0.483-3.668-0.743
	c-6.861-1.462-11.685-5.544-15.459-11.361c-5.562-8.576-6.685-17.941-5.521-27.75c0.265-2.238,1.301-4.426,2.221-6.532
	c0.703-1.61,1.783-3.056,2.804-4.754c-1.029-0.824-1.898-1.724-2.94-2.322c-9.585-5.51-19.159-11.042-28.829-16.402
	c-3.579-1.984-7.433-3.469-11.109-5.284c-5.596-2.763-11.118-5.674-16.732-8.397c-2.07-1.004-4.308-1.668-6.48-2.458
	c-1.509-0.548-3.124-0.874-4.54-1.596c-7.053-3.597-14.67-5.558-22.189-7.805c-3.93-1.175-7.854-2.391-11.824-3.415
	c-7.598-1.959-15.222-3.814-22.845-5.674c-6.063-1.479-12.113-3.039-18.222-4.311c-6.287-1.31-12.628-2.358-18.958-3.442
	c-8.791-1.506-17.566-3.129-26.396-4.36c-15.738-2.193-31.522-4.076-47.432-4.38c-16.958-0.324-33.915-0.41-50.805,1.67
	c-9.741,1.2-19.535,1.98-29.262,3.273c-23.289,3.094-45.874,8.802-67.478,18.253c-15.217,6.657-30.314,13.531-44.821,21.639
	c-2.488,1.39-4.909,2.923-7.249,4.552c-8.636,6.011-17.225,12.088-25.827,18.148c-0.436,0.307-0.792,0.737-1.244,1.013
	c-2.565,1.557-5.348,0.539-5.514-2.511c-0.347-6.383-3.716-11.489-6.484-16.818c-2.735-5.266-6.832-9.571-11.253-13.503
	c-3.059-2.72-6.201-5.356-9.414-7.892c-1.242-0.98-2.721-1.737-4.198-2.33c-4.533-1.821-8.943-1.947-13.294,0.824
	c-4.435,2.824-7.507,6.363-8.357,11.775c-1.101,7.004,0.253,13.477,3.435,19.681c4.118,8.031,10.644,13.763,17.914,18.791
	c5.004,3.462,10.353,6.268,15.804,8.977c7.984,3.968,15.914,8.13,23.488,12.822c11.113,6.884,19.947,16.157,26.097,27.779
	c3.23,6.104,4.017,12.562,1.415,19.121c-1.776,4.476-3.563,8.977-5.774,13.245c-7.669,14.809-9.412,30.171-4.669,46.172
	c1.773,5.981,3.815,11.885,5.838,17.788c1.338,3.903,2.448,7.828,2.631,11.98c0.196,4.471-0.809,6.152-5.073,7.61
	c-4.096,1.401-8.4,1.87-12.681,1.698c-6.77-0.272-13.527-0.888-20.288-1.376c-8.54-0.618-17.083-1.829-25.644-0.815
	c-4.768,0.564-9.52,1.539-14.164,2.765c-2.349,0.62-4.578,2.017-6.603,3.433c-1.241,0.868-2.155,2.344-2.916,3.715
	c-0.76,1.369-0.032,3.045,1.442,3.468c1.525,0.438,3.131,0.732,4.715,0.804c7.667,0.342,15.339,0.586,23.009,0.871
	c1.249,0.046,2.507,0.037,3.744,0.192c14.6,1.831,29.25,0.99,43.878,0.742c13.058-0.221,26.063-0.041,38.962,2.233
	c2.633,0.465,5.259,0.977,7.877,1.52c6.315,1.308,12.661,1.562,19.091,1.002c3.725-0.325,7.504-0.384,11.236-0.173
	c9.268,0.523,18.517,1.274,27.611,3.338c8.876,2.015,17.87,3.574,26.653,5.926c14.309,3.831,28.446,8.271,41.995,14.376
	c1.132,0.51,2.35,0.828,3.516,1.266c3.511,1.319,4.314,2.912,3.319,6.561c-0.139,0.507-0.332,0.998-0.536,1.606
	c0.848,1.987,2.5,3.405,3.801,5.07c5.607,7.177,11.408,14.253,14.594,22.938c1.779,4.849,3.521,9.763,4.646,14.79
	c1.984,8.868,3.53,17.835,5.153,26.78c0.412,2.27,0.521,4.609,0.601,6.921c0.34,9.986,0.746,19.973,0.888,29.962
	c0.205,14.462,0.255,28.926,0.271,43.389c0.014,13.053,0.839,26.037,2.556,38.98c0.821,6.187,1.217,12.43,1.823,18.646
	c0.24,2.467,0.245,4.96,2.806,6.557c1.102,0.687,1.152,2.198,0.682,3.446c-0.991,2.631-0.829,5.205-0.085,7.872
	c0.267,0.956,0.165,2.201-0.223,3.124c-2.679,6.376-1.434,12.622,0.527,18.821c1.833,5.797,5.347,10.502,10.19,14.099
	c9.027,6.703,18.123,13.327,27.881,18.951c7.714,4.446,14.389,9.946,18.78,17.841c1.296,2.331,2.418,4.766,3.507,7.202
	c2.328,5.21,4.189,10.672,6.949,15.637c5.556,9.995,13.146,18.193,23.261,23.836c2.024,1.13,4.043,2.276,6.002,3.514
	c5.054,3.195,10.714,4.829,16.381,6.447c1.922,0.55,3.84,0.521,5.816,0.078c5.748-1.284,11.491-2.625,17.29-3.631
	c10.369-1.8,20.724-3.907,31.178-4.922c21.315-2.069,42.69-3.54,64.047-5.169c6.583-0.502,13.195-0.594,19.777-1.1
	c12.677-0.972,24.415-5.104,35.511-11.127c3.459-1.878,6.441-4.438,8.932-7.565c1.077-1.353,1.548-2.66,1.367-4.4
	c-1.779-17.059-2.003-34.195-2.493-51.318c-0.072-2.494-0.003-5.004,0.207-7.49c0.2-2.375-0.169-4.542-1.071-6.765
	c-4.234-10.429-9.119-20.533-14.312-30.521c-3.036-5.839-5.647-11.967-7.774-18.196c-3.504-10.256-9.742-18.479-17.164-26.145
	c-3.468-3.582-6.981-4.968-11.796-4.016c-4.02,0.794-8.133,1.096-12.194,1.687c-11.139,1.62-22.327,2.565-33.577,3.024
	c-8.562,0.349-17.111,0.926-25.682,0.37c-5.16-0.335-10.285-0.659-15.491-0.177c-3.493,0.323-7.145-0.225-10.63-0.888
	c-6.138-1.168-12.113-2.942-17.923-5.354c-3.772-1.567-7.794-2.542-11.721-3.731c-7.683-2.326-15.466-4.386-22.444-8.559
	c-1.07-0.641-2.133-1.3-3.227-1.901c-6.226-3.425-10.945-13.038-7.67-21.398c0.619-1.583,0.507-1.627-0.281-3.957
	c-0.294-0.157-0.574-0.41-0.884-0.453c-1.009-0.14-2.243,0.125-2.998-0.368c-1.309-0.853-1.354-2.458-1.102-3.899
	c0.613-3.511,1.206-7.031,2.027-10.496c0.463-1.952,0.613-3.851,0.414-5.824c-0.876-8.7-1.898-17.389-2.531-26.106
	c-0.567-7.829-0.772-15.686-0.986-23.535c-0.126-4.638,0.006-9.284,0.086-13.925c0.119-6.96,0.306-13.919,0.44-20.88
	c0.041-2.12,0.007-4.242,0.007-6.333c-4.032-2.193-8.248-1.997-12.25-2.598c-4.841-0.728-18.746,0.236-22.378,1.186
	c-1.029,1.605-0.642,3.422-0.548,5.16c0.594,11.05,1.309,22.094,1.839,33.147c0.222,4.63,0.339,9.291,0.064,13.911
	c-0.477,8.01-1.169,16.014-2.033,23.991c-0.362,3.35-1.219,6.679-2.182,9.918c-0.546,1.838-1.613,3.58-2.714,5.18
	c-1.549,2.251-3.608,2.162-5.106-0.236c-1.32-2.111-2.517-4.331-3.486-6.621c-3.571-8.437-5.646-17.259-6.768-26.35
	c-1.422-11.524-2.748-23.068-2.659-34.681c0.071-9.262,0.157-18.572,2.293-27.69c0.239-1.02,0.176-2.11,0.259-3.256
	c-4.956-5.074-8.304-11.154-11.038-17.571c-3.753-8.809-5.2-18.166-5.844-27.626c-0.521-7.654-0.868-15.349,0.849-22.938
	c0.314-1.386,0.637-2.787,1.136-4.113c1.357-3.607,2.242-4.237,5.912-4.1c4.271,0.16,8.021,1.693,10.98,4.813
	c4.739,4.995,8.326,10.71,10.085,17.418c1.355,5.165,2.496,10.386,3.748,15.646c1.042,0.416,1.49-0.483,1.987-1.167
	c3.879-5.334,7.533-10.819,11.908-15.8c3.8-4.325,7.808-8.322,12.767-11.291c3.821-2.288,7.65-4.563,11.874-7.082
	c0.073-0.839,0.406-2.071,0.24-3.232c-0.885-6.235-0.416-12.489-0.136-18.708c0.407-9.016,2.572-17.625,7.269-25.488
	c2.137-3.576,4.694-6.803,8.02-9.25c6.975-5.13,14.585-6.356,22.745-3.017c4.723,1.933,8.421,5.3,12.173,8.611
	c5.91,5.215,11.007,11.173,16.042,17.204c2.742,3.285,5.711,6.379,8.537,9.596c1.328,1.513,2.926,2.001,4.809,1.432
	c9.896-2.998,20.291-4.082,29.95-8.016c9.119-3.713,18.521-3.377,27.929-1.3c7.904,1.746,15.34,4.839,22.256,8.966
	c5.916,3.529,10.566,8.461,13.583,14.768c1.325,2.771,2.079,5.666,2.01,8.785c-0.147,6.627-3.059,11.64-8.681,15.056
	c-4.818,2.926-10.098,4.339-15.716,4.798c-12.114,0.99-23.365-2.173-34.233-7.026c-4.875-2.177-9.601-4.716-14.287-7.286
	c-9.154-5.021-16.954-11.84-24.38-19.068c-1.891-1.841-3.643-2.573-6.148-1.906c-3.964,1.055-7.961,1.985-11.94,2.98
	c-7.608,1.905-15.217,3.811-22.819,5.731c-2.742,0.693-5.471,1.433-8.488,2.225c0.201,1.343,0.28,2.351,0.511,3.323
	c1.394,5.896,3.225,11.723,4.129,17.692c0.93,6.134,1.81,12.365,0.657,18.643c-0.496,2.699-1.324,5.052-3.223,7.173
	c-2.362,2.639-4.335,5.629-7.924,7.487c-3.979-2.38-7.442-5.395-9.8-9.457c-2.299-3.96-4.258-8.117-6.836-13.095
	c-0.587,6.255,0.457,11.477,0.46,16.711c0.005,5.355,0.212,10.71,0.222,16.065c0.009,5.334-0.399,10.673,0.051,16.146
	c0.91,0.359,1.689,0.809,2.527,0.976c7.068,1.411,10.869,6.37,12.208,12.78c2.844,13.618,6.707,27.037,8.339,40.902
	c1.319,11.213,1.756,22.417-0.461,33.581c-1.22,6.152-2.99,12.188-5.778,17.771c-2.055,4.114-5.03,7.769-7.604,11.623
	c-0.585,0.876-1.205,1.729-1.822,2.612c0.664,3.486,3.158,5.699,5.231,8.043c7.403,8.373,16.054,15.213,26.142,20.107
	c2.389,1.159,4.914,2.174,7.487,2.787c6.944,1.655,13.933,3.139,20.937,4.522c3.14,0.62,6.364,0.789,9.537,1.248
	c5.883,0.85,11.335-0.781,16.685-2.876c4.982-1.951,9.9-4.063,14.85-6.1c6.501-2.674,13.367-3.816,20.281-4.65
	c3.54-0.427,7.119-0.556,10.685-0.736c9.417-0.476,18.032,2.153,25.827,7.266c2.875,1.887,5.539,2.592,8.981,2.08
	c5.816-0.866,11.71-1.286,17.588-1.625c3.183-0.183,6.405,0.085,9.597,0.335c4.271,0.335,7.238,2.772,9.341,6.35
	c3.119,5.304,4.837,11.119,5.837,17.129c1.614,9.7,2.397,19.469,2.14,29.319c-0.148,5.709,0.008,11.428-0.161,17.137
	c-0.132,4.454-0.543,8.901-0.85,13.35c-0.176,2.55,0.361,4.921,1.357,7.284c4.191,9.948,6.519,20.355,7.367,31.102
	c0.295,3.734,0.463,7.479,0.745,11.216c0.342,4.509-0.556,8.885-1.358,13.27c-0.651,3.566-2.249,6.798-4.178,9.793
	c-1.339,2.081-1.819,4.182-1.724,6.566c0.101,2.496,0.234,5.01,0.059,7.497c-0.264,3.726-0.458,7.507-1.294,11.123
	c-0.71,3.076-1.974,6.23-6.021,6.54c-0.506,0.039-1.149,0.239-1.457,0.599c-2.134,2.486-5.084,2.31-7.892,2.435
	c-12.66,0.563-25.325,1.026-37.985,1.592c-6.949,0.311-13.891,0.773-20.839,1.128c-1.6,0.081-3.209,0.034-4.812-0.021
	c-1.427-0.05-2.848-0.229-4.274-0.288c-3.251-0.133-6.342,1.425-9.439,1.377c-3.041-0.046-5.966-0.263-8.973,0.509
	c-2.222,0.569-4.577,0.628-6.876,0.893c-4.07,0.468-8.184,0.701-12.207,1.427c-6.882,1.241-13.845,1.405-20.777,1.739
	c-11.234,0.54-22.485,0.341-33.702-0.71c-0.355-0.034-0.717-0.044-1.064-0.117c-10.902-2.275-20.753,1.536-30.559,5.388
	c-3.314,1.301-6.468,3.016-9.679,4.572c-6.649,3.227-12.499,7.591-17.826,12.676c-4.26,4.064-8.527,8.122-12.743,12.231
	c-4.521,4.407-7.85,9.574-10.58,15.309c-4.956,10.408-6.952,21.305-6.771,32.721c0.025,1.598-0.101,3.221-0.372,4.796
	c-0.791,4.603-0.854,9.229-0.807,13.879c0.056,5.466,2.33,9.533,7.044,12.346c4.473,2.669,9.213,4.7,14.134,6.333
	c1.862,0.616,3.758,1.168,5.678,1.557c3.849,0.78,7.661,1.211,11.669,0.598c4.926-0.754,9.952-0.992,14.944-1.144
	c14.559-0.437,28.666-3.555,42.749-6.882c0.52-0.123,1.037-0.274,1.538-0.46c2.008-0.738,2.616-1.438,2.516-3.56
	c-0.242-5.211,0.517-10.312,1.373-15.422c0.837-5.003,2.821-9.575,5.138-14.008c2.797-5.354,7.222-8.051,13.362-8.34
	c7.556-0.354,14.538,1.512,21.13,4.897c3.311,1.7,6.32,3.986,9.455,6.024c0.887,0.576,1.735,1.211,2.689,1.881
	c1.403-0.566,2.757-1.002,4.008-1.637c4.842-2.457,10.053-3.692,15.354-4.479c2.249-0.334,4.713-0.423,6.884,0.135
	c6.553,1.686,13.133,3.296,19.365,6.1c7.144,3.214,12.63,8.114,15.921,15.178c2.481,5.323,4.819,10.768,6.57,16.362
	c2.182,6.966,3.864,14.103,5.426,21.241c0.795,3.634,1.08,7.423,1.2,11.154c0.252,7.847,0.408,15.688-0.484,23.536
	c-1.155,10.149-3.507,20.018-6.312,29.801c-1.623,5.655-3.17,11.34-5.035,16.916c-2.432,7.268-4.989,14.501-7.771,21.642
	c-4.276,10.967-8.783,21.844-13.203,32.755c-2.611,6.447-5.311,12.859-7.851,19.335c-3.189,8.137-6.479,16.244-9.327,24.501
	c-4.886,14.163-9.502,28.419-14.145,42.665c-1.27,3.894-2.266,7.878-3.323,11.836c-2.393,8.961-4.828,17.913-7.099,26.905
	c-3.274,12.969-6.525,25.944-9.562,38.969c-1.255,5.375-1.879,10.896-2.88,16.333c-1.703,9.276-2.802,18.699-6.337,27.549
	c-0.854,2.139-1.964,4.173-2.913,6.273c-0.49,1.088-0.882,2.221-1.313,3.323c0.685,0.494,1.068,0.908,1.542,1.091
	c7.657,2.946,15.34,5.826,22.983,8.807c3.157,1.229,6.24,2.653,9.35,4.002c10.149,4.405,20.344,8.709,30.423,13.269
	c6.012,2.718,11.806,5.916,17.763,8.759c5.473,2.613,11.04,5.029,16.558,7.553c1.782,0.815,3.591,1.597,5.294,2.562
	c3.568,2.021,7.088,4.134,10.606,6.245c4.305,2.583,8.266,5.551,11.535,9.449c1.467,1.749,3.457,3.062,5.222,4.557
	c2.041,1.729,4.282,3.266,6.102,5.199c3.323,3.532,2.999,7.076-0.603,10.199c-3.289,2.85-6.913,5.062-11.271,5.828
	c-4.386,0.771-8.756,1.767-13.18,2.186c-9.964,0.943-19.744,2.875-29.538,4.837c-7.507,1.502-15.032,2.818-22.448,4.825
	c-5.479,1.482-11.229,1.969-16.86,2.887c-5.096,0.83-10.201,1.616-15.291,2.486c-1.04,0.177-2.019,0.687-3.05,0.953
	c-3.788,0.983-7.518,2.153-11.568,1.439c-3.454-0.611-6.763,0.346-9.8,1.984c-1.815,0.981-3.638,1.236-5.653,1.152
	c-2.128-0.088-4.304-0.093-6.394,0.256c-3.61,0.602-7.108,0.248-10.595-0.622c-5.189-1.297-10.373-2.613-15.546-3.971
	c-3.522-0.925-6.651-2.545-9.071-5.367c-0.574-0.669-1.275-1.229-1.918-1.837c-1.667,0-3.271-0.08-4.861,0.014
	c-5.695,0.336-11.385,0.951-17.084,1.057c-12.327,0.225-24.593,1.126-36.825,2.633c-6.729,0.829-13.496,1.387-20.201,2.369
	c-13.942,2.042-27.843,4.365-41.784,6.415c-6.883,1.012-13.817,1.682-20.729,2.494c-6.911,0.812-13.812,1.714-20.736,2.387
	c-9.883,0.96-18.615-2.315-26.738-7.638c-1.357-0.889-1.99-2.233-1.606-3.675c0.588-2.213,1.299-4.46,2.388-6.46
	c2.814-5.164,5.924-10.166,8.801-15.298c3.232-5.769,5.785-11.838,7.694-18.178c0.461-1.53,1.131-3,1.734-4.486
	c2.95-7.266,6.02-14.471,7.748-22.184c1.636-7.304,3.848-14.482,5.372-21.807c1.635-7.854,2.747-15.818,4.12-23.729
	c0.518-2.986,1.158-5.951,1.684-8.937c0.244-1.385,0.35-2.795,0.517-4.186c-1.745-1.782-3.389-3.402-4.966-5.084
	c-4.209-4.485-6.252-9.924-6.698-15.962c-0.667-9.016,1.792-17.319,6.164-25.102c3.144-5.598,7.839-9.661,13.308-12.893
	c1.521-0.897,3.042-1.797,4.211-2.486c3.349-14.168,6.656-27.854,9.805-41.574c2.792-12.169,5.391-24.381,8.113-36.566
	c0.738-3.308,1.677-6.568,2.409-9.876c3.972-17.935,7.67-35.933,11.944-53.793c2.522-10.546,5.284-21.037,9.262-31.223
	c3.671-9.396,8.88-17.812,14.001-26.373c4.566-7.636,10.989-13.555,17.155-19.725c2.252-2.254,4.889-4.16,7.502-6.008
	c4.515-3.195,9.14-6.234,13.737-9.312c2.841-1.901,5.933-3.228,9.24-4.14c4.806-1.322,9.565-2.812,14.35-4.216
	c2.046-0.6,3.861-1.52,5.834-3.774c-1.469,0.111-2.124,0.107-2.761,0.217c-8.633,1.493-17.038,3.896-25.412,6.408
	c-4.783,1.435-9.538,2.965-14.294,4.489c-15.975,5.122-31.999,10.095-47.889,15.467c-7.255,2.451-14.237,5.709-21.35,8.584
	c-2.979,1.205-5.977,2.36-8.966,3.539c-3.8,1.499-7.599,3-11.84,4.675c-2.031-1.005-4.386-2.171-7.135-3.53
	c0.166,1.07,0.183,1.927,0.438,2.706c1.439,4.407,2.855,8.825,4.429,13.185c4.938,13.678,7.678,27.797,9.082,42.249
	c0.815,8.393,0.957,16.725,0.162,25.116c-0.344,3.633-1.839,6.874-2.806,10.288c-0.31,1.094-1.401,2.048-2.314,2.867
	c-1.059,0.95-2.01,1.88-2.829,3.108c-1.629,2.44-4.501,3.358-7.035,4.552c-0.792,0.373-2.164-0.017-3.077-0.458
	c-2.236-1.084-4.455-2.26-6.51-3.65c-7.374-4.988-13.157-11.562-17.526-19.211c-4.509-7.894-8.414-16.133-12.625-24.197
	c-1.235-2.366-2.567-4.687-3.948-6.972c-1.249-2.065-3.208-2.905-5.513-2.316c-3.258,0.832-6.707,1.431-9.616,2.984
	c-4.017,2.146-8.236,3.333-12.584,4.25c-2.962,0.626-5.977,1.023-8.984,1.391c-1.225,0.15-2.526,0.127-3.732-0.116
	c-6.158-1.242-12.127-3.046-17.314-6.757c-2.464-1.762-4.928-3.563-7.165-5.597c-5.427-4.935-7.588-11.149-6.378-18.379
	c0.732-4.378,3.108-7.956,6.41-10.862c7.243-6.377,15.802-9.527,25.365-10.15c4.838-0.316,9.623,0.039,14.393,0.889
	c3.334,0.595,6.687,1.109,10.05,1.503c1.749,0.204,3.576,0.352,5.258-0.673c1.3-1.638,1.325-3.554,1.144-5.551
	c-0.341-3.784-1.306-7.405-3.122-10.721c-3.255-5.941-6.545-11.868-10.043-17.668c-2.868-4.755-5.629-9.519-7.201-14.891
	c-0.856-2.927-1.622-5.859-1.43-8.94c0.343-5.517,3.038-9.369,8.178-11.506c3.744-1.555,7.627-1.852,11.569-1.216
	c2.639,0.426,5.246,1.072,7.848,1.7c4.779,1.153,8.957,3.412,12.608,6.74c3.162,2.884,6.441,5.646,9.743,8.369
	c7.987,6.591,13.852,14.846,18.777,23.83c1.973,3.599,3.758,7.298,5.65,10.941c0.904,1.74,1.776,3.507,2.806,5.175
	c2.404,3.896,4.604,4.835,8.991,3.542c3.415-1.007,6.777-2.235,10.08-3.572c6.779-2.743,13.435-5.8,20.266-8.398
	c6.33-2.408,12.796-4.467,19.246-6.544c17.66-5.688,35.318-11.383,53.03-16.91c6.64-2.073,13.412-3.725,20.146-5.488
	c1.184-0.311,2.471-0.241,3.713-0.314c1.776-0.104,3.569-0.058,5.328-0.29c3.166-0.42,5.485,1.634,4.424,5.305
	c-0.659,2.281-1.849,4.268-3.883,5.604c-1.34,0.883-2.661,1.89-4.14,2.449c-3.994,1.514-7.974,3.336-12.13,4.086
	c-6.688,1.207-12.51,4.053-18.066,7.702c-3.426,2.25-6.83,4.534-10.23,6.824c-0.738,0.497-1.482,1.018-2.112,1.642
	c-5.45,5.399-11.247,10.51-16.19,16.343c-3.888,4.586-6.772,10.034-9.999,15.166c-6.327,10.067-10.165,21.197-13.366,32.534
	c-2.664,9.432-5.079,18.941-7.267,28.494c-3.701,16.168-7.062,32.413-10.701,48.596c-4.341,19.31-8.822,38.589-13.248,57.88
	c-1.037,4.519-2.117,9.028-3.131,13.553c-0.225,1-0.258,2.042-0.402,3.259c1.899,0.624,3.347-0.151,4.816-0.589
	c9.239-2.753,18.513-5.339,28.121-6.52c9.568-1.176,18.412,0.823,26.628,5.812c5.36,3.254,9.205,7.809,11.738,13.51
	c2.253,5.071,4.231,10.224,4.958,15.781c0.522,3.988,2.297,7.448,4.587,10.713c6.651,9.474,15.237,16.444,26.135,20.489
	c4.849,1.8,9.674,3.663,14.538,5.422C758.969,1220.01,760.025,1219.989,761.271,1220.17z M842.312,837.941
	c0.971,1.976,2.495,2.038,3.786,2.509c9.321,3.401,17.833,8.143,25.025,15.079c3.892,3.754,7.205,7.951,9.359,12.925
	c3.1,7.155,4.283,14.739,4.081,22.472c-0.299,11.523-2.848,22.647-7.194,33.291c-3.056,7.486-7.212,14.345-13.472,19.704
	c-3.861,3.307-8.228,5.776-13.187,6.8c-6.525,1.347-13.192,1.332-19.599-0.463c-4.601-1.289-9.031-1.704-13.663-0.713
	c-1.213,0.26-2.483,0.251-3.727,0.364c-7.064,0.644-14.204,0.407-21.173,2.201c-4.303,1.105-8.478,1.949-12.195,4.896
	c-3.521,2.79-5.801,6.27-7.781,10.012c-5.44,10.279-9.386,21.197-12.71,32.303c-3.073,10.265-4.354,20.909-5.61,31.53
	c-1.281,10.826-1.562,21.697-1.588,32.582c-0.017,7.134-0.241,14.276,0.03,21.398c0.449,11.764,1.378,23.503,2.947,35.18
	c0.948,7.065,1.898,14.129,2.87,21.189c0.753,5.469,1.739,10.913,2.271,16.401c1.15,11.883,2.015,23.793,3.114,35.681
	c0.754,8.168,1.696,16.318,2.583,24.474c0.19,1.758,0.317,3.555,1.396,5.004c6.028,2.854,37.145,14.345,40.593,14.999
	c3.682-2.925,4.119-3.692,5.85-7.992c2.892-7.18,3.965-14.775,5.339-22.304c1.311-7.186,2.255-14.45,3.883-21.56
	c3.183-13.897,6.668-27.727,10.144-41.554c2.736-10.89,5.532-21.767,8.508-32.592c4.066-14.789,9.061-29.29,14.224-43.722
	c4.083-11.406,8.11-22.823,12.997-33.943c4.588-10.438,8.291-21.26,12.493-31.868c2.43-6.133,5.176-12.139,7.605-18.271
	c5.459-13.782,9.449-28.045,13.213-42.351c2.492-9.472,4.752-19.069,4.668-28.969c-0.064-7.66,0.737-15.394-0.851-22.962
	c-1.5-7.145-3.217-14.266-5.295-21.261c-1.465-4.936-3.479-9.741-5.634-14.426c-2.985-6.491-7.541-11.595-14.21-14.643
	c-6.215-2.836-12.791-4.462-19.368-6.109c-1.019-0.255-2.146-0.324-3.19-0.198C853.162,833.721,847.563,834.729,842.312,837.941z
	 M623.099,1223.225c-0.591,2.855-1.189,5.432-1.653,8.031c-2.345,13.16-4.182,26.423-7.608,39.363
	c-1.867,7.053-3.375,14.207-6.215,21.004c-2.677,6.408-4.811,13.04-7.316,19.521c-2.444,6.323-5.003,12.605-8.492,18.452
	c-2.01,3.366-4.073,6.7-6.05,10.085c-0.795,1.362-1.738,2.726-1.417,4.409c0.244,0.344,0.396,0.697,0.664,0.902
	c0.563,0.434,1.156,0.849,1.788,1.167c5.301,2.669,10.749,4.855,16.84,4.555c4.091-0.201,8.183-0.45,12.261-0.812
	c3.369-0.298,6.713-0.871,10.081-1.186c9.953-0.927,19.835-2.35,29.677-4.079c2.812-0.493,5.622-1.025,8.454-1.365
	c14.698-1.766,29.238-4.67,44.022-5.855c11.733-0.94,23.414-2.518,35.215-2.591c4.995-0.031,9.988-0.308,14.98-0.515
	c2.476-0.103,4.93-0.386,7.065-1.112c0.238-0.466,0.379-0.616,0.379-0.767c-0.001-0.529,0.026-1.076-0.095-1.585
	c-1.404-5.954-1.854-11.949-1.241-18.061c0.819-8.165,1.606-16.339,2.079-24.528c0.357-6.224,0.472-12.487,0.208-18.713
	c-0.325-7.649-1.057-15.288-1.804-22.914c-0.625-6.376-1.526-12.726-2.282-18.906c-2.468-1.876-5.148-2.376-7.667-3.158
	c-7.012-2.176-13.648-5.202-20.284-8.297c-10.639-4.961-17.903-13.351-23.901-23.024c-1.667-2.69-2.775-5.669-3.166-8.982
	c-0.826-7.017-3.529-13.411-7.522-19.242c-0.601-0.879-1.23-1.776-2.007-2.491c-7.792-7.178-17.096-10.421-27.527-9.234
	c-10.831,1.23-21.333,4.22-31.689,7.634c-2.572,0.848-4.124,2.353-4.626,5.241c-1.098,6.319-2.562,12.573-3.827,18.863
	c-1.86,9.262-3.701,18.527-5.48,27.804c-0.225,1.172-0.03,2.426-0.03,3.609c2.255,1.342,4.563,1.067,6.879,0.95
	c3.203-0.163,6.421-0.396,9.616-0.243c2.914,0.141,5.642-0.307,8.418-1.107c3.758-1.084,7.579-1.978,11.41-2.776
	c1.89-0.395,3.436,0.886,3.912,2.821c0.411,1.673-0.262,3.309-1.942,3.938c-1.119,0.42-2.589,0.849-3.589,0.463
	c-3.176-1.226-6.062-0.25-8.809,0.935c-2.22,0.959-4.391,1.206-6.733,1.245C637.165,1222.78,630.26,1223.026,623.099,1223.225z
	 M948.688,1317.195c-0.365-2.678-2.422-3.69-3.976-5.071c-3.596-3.193-7.234-6.337-10.871-9.484
	c-0.944-0.816-1.929-1.586-2.922-2.343c-6.278-4.784-13.262-8.415-20.312-11.83c-12.514-6.058-25.131-11.909-37.817-17.599
	c-13.494-6.05-26.893-12.348-40.887-17.223c-1.175-0.409-2.301-0.957-3.459-1.418c-4.639-1.851-9.268-3.726-13.924-5.531
	c-6.303-2.444-12.626-4.838-18.943-7.245c-7.995-3.046-15.99-6.093-23.998-9.102c-0.771-0.29-1.642-0.316-2.438-0.46
	c-1.208,2.225,0.047,4.087,0.182,5.976c0.735,10.312,1.542,20.619,2.441,30.918c1.124,12.861,0.194,25.656-0.978,38.456
	c-0.487,5.319-0.958,10.663-0.981,15.997c-0.016,3.87,0.639,7.767,3.005,11.054c2.677,0,5.154,0.034,7.63-0.015
	c1.318-0.024,2.481,0.226,3.35,1.289c0.662,0.812,1.559,1.591,1.121,2.79c-0.401,1.104-1.311,1.56-2.485,1.701
	c-1.101,0.133-2.45-0.502-3.614,1.035c1.69,0.739,3.064,1.55,4.55,1.953c5.502,1.497,11.031,2.904,16.575,4.239
	c1.368,0.329,2.84,0.398,4.253,0.342c4.986-0.197,9.971-0.463,14.857-1.633c1.551-0.371,3.129-0.664,4.713-0.851
	c3.534-0.416,7.177-0.345,10.599-1.188c7.8-1.922,15.693-3.257,23.596-4.598c2.631-0.446,5.217-1.151,7.837-1.662
	c3.319-0.646,6.662-1.168,9.98-1.821c4.548-0.896,9.077-1.886,13.623-2.791c2.795-0.558,5.638-0.902,8.405-1.567
	c8.521-2.048,17.114-3.471,25.875-4.047c5.504-0.364,11.01-0.943,16.352-2.568C943.565,1321.823,946.23,1319.642,948.688,1317.195z
	 M535.669,961.541c-10.612-0.136-17.016,1.505-23.612,5.863c-2.195,1.451-4.276,3.289-5.899,5.351
	c-3.907,4.964-3.863,10.987,0.295,15.735c5.654,6.455,12.554,11.094,21.172,12.729c7.486,1.42,14.485-0.54,21.408-3.097
	c4.68-1.728,9.36-3.469,14.107-5c4.202-1.355,7.781-0.11,10.421,3.413c1.383,1.846,2.712,3.784,3.708,5.854
	c2.244,4.66,4.211,9.452,6.388,14.146c3.916,8.445,8.246,16.645,14.725,23.486c3.206,3.385,6.732,6.371,10.833,8.646
	c1.481,0.822,3.142,1.467,4.57,0.56c2.229-1.418,4.779-2.876,6.13-4.995c1.768-2.772,3.068-5.909,3.585-9.406
	c1.35-9.124,0.655-18.193-0.319-27.229c-1.439-13.336-4.448-26.354-9.071-38.98c-1.84-5.024-3.464-10.127-5.202-15.189
	c-1.332-3.879-2.646-7.764-4.05-11.615c-0.644-1.765-0.87-3.473,0.051-5.162c0.69-1.268,0.358-2.406-0.222-3.559
	c-4.121-8.181-8.972-15.867-15.786-22.096c-4.21-3.851-8.625-7.479-13.005-11.142c-5.557-4.646-12.2-6.519-19.239-7.198
	c-1.569-0.151-3.228-0.011-4.773,0.329c-5.757,1.266-8.217,4.842-7.023,10.564c0.578,2.767,1.496,5.554,2.785,8.062
	c2.442,4.755,5.242,9.328,7.933,13.953c3.324,5.717,6.554,11.481,8.774,17.735c1.636,4.611,2.299,9.354,1.405,14.223
	c-0.699,3.802-3.555,6.405-7.381,6.462c-2.483,0.037-4.982-0.256-7.458-0.545C545.079,962.759,539.249,961.99,535.669,961.541z
	 M795.662,861.342c-1.601,0.862-2.871,1.5-4.095,2.217c-1.854,1.086-2.874,2.572-2.37,4.868c0.419,1.911,0.645,3.864,1.026,5.786
	c1.634,8.226,4.339,16.151,6.825,24.135c3.027,9.721,6.881,19.087,11.979,27.928c3.442,5.969,8.265,10.676,13.481,15.035
	c1.141,0.954,2.52,1.334,4.012,0.906c8.663-2.486,16.078-6.668,20.736-14.819c4.114-7.197,6.69-14.988,8.42-22.988
	c1.274-5.895,1.731-12.005,0.937-18.081c-1.634-12.501-5.278-24.334-11.721-35.249c-3.474-5.886-3.737-6.057-10.292-6.906
	c-2.767-0.358-5.278,0.019-7.74,1.313c-2.518,1.325-5.104,2.521-7.683,3.729c-4.677,2.189-9.378,4.33-14.057,6.52
	c-2.661,1.246-5.025,2.647-4.878,6.239c0.058,1.391-1.439,1.83-2.798,0.971C796.864,862.576,796.402,862.018,795.662,861.342z
	 M805.927,306.172c1.083,1.165,1.623,1.847,2.263,2.419c9.201,8.238,19.238,15.255,30.443,20.507
	c6.623,3.103,13.419,5.737,20.644,7.151c7.628,1.492,15.213,1.574,22.771-0.363c2.605-0.668,5.04-1.692,7.205-3.367
	c4.594-3.553,5.831-7.717,3.88-13.196c-1.866-5.241-5.413-9.141-9.765-12.403c-8.348-6.255-18.03-9.203-28.103-10.945
	c-7.125-1.232-14.18-0.747-20.984,2.102c-4.278,1.791-8.826,2.703-13.342,3.747C816.123,302.939,811.197,303.806,805.927,306.172z
	 M724.995,398.337c0.142-1.305,0.32-2.513,0.399-3.729c0.637-9.965,0.397-19.934-0.034-29.897
	c-0.463-10.67-1.515-21.334-0.188-32.018c0.098-0.783-0.229-1.618-0.376-2.545c-0.843,0.129-1.397,0.096-1.845,0.299
	c-10.684,4.842-18.769,12.759-25.713,21.964c-2.994,3.97-5.715,8.146-8.638,12.172c-1.536,2.116-2.265,4.331-1.979,6.986
	c0.895,8.313,1.667,16.639,2.521,24.957c0.03,0.286,0.415,0.535,0.89,1.111c5.601-0.225,11.451-0.73,17.29-0.619
	C713.142,397.13,718.947,397.86,724.995,398.337z M729.204,319.484c0.351-0.016,0.701-0.033,1.051-0.05
	c0.1-0.675,0.277-1.35,0.285-2.026c0.085-7.323,4.274-12.217,9.701-16.348c1.358-1.033,2.814-0.751,3.712,0.589
	c0.49,0.732,0.821,1.571,1.228,2.359c1.537,2.992,3.075,5.981,4.737,9.212c3.794-0.818,7.427-1.578,11.048-2.388
	c3.65-0.816,7.304-1.625,10.929-2.542c3.793-0.959,7.606-1.891,11.316-3.12c3.427-1.134,7.236-1.246,10.578-3.548
	c-0.72-0.93-1.214-1.643-1.782-2.29c-4.229-4.812-8.395-9.681-12.734-14.391c-2.771-3.006-5.662-5.934-8.759-8.596
	c-2.954-2.542-6.006-5.018-9.635-6.663c-6.991-3.167-13.579-2.562-19.471,2.333c-2.286,1.898-4.236,4.339-5.896,6.829
	c-4.352,6.533-6.105,14.026-6.748,21.691c-0.461,5.483-0.114,11.037-0.071,16.559C728.699,317.894,729.025,318.688,729.204,319.484z
	 M836.669,944.496c0.525,0.4,0.764,0.736,1.032,0.763c1.951,0.188,3.908,0.422,5.865,0.438c6.474,0.058,12.221-1.85,17.254-6.093
	c3.903-3.29,6.993-7.232,9.233-11.669c6.786-13.434,10.416-27.67,9.531-42.833c-0.424-7.274-2.541-14.116-6.965-19.941
	c-5.501-7.241-12.725-12.438-20.984-16.196c-0.636-0.287-1.335-0.501-1.914,0.617c0.28,0.625,0.587,1.448,1.001,2.212
	c5.24,9.658,8.613,19.92,10.163,30.805c0.911,6.41,0.959,12.781-0.094,19.176c-1.369,8.328-3.94,16.265-7.308,23.994
	c-2.712,6.223-6.646,11.352-12.195,15.257C839.737,942.118,838.249,943.305,836.669,944.496z M735.154,514.015
	c0.82-0.292,1.056-0.301,1.144-0.419c1.055-1.419,2.052-2.884,3.136-4.281c6-7.737,8.092-16.982,9.697-26.276
	c2.063-11.944,0.279-23.838-1.897-35.583c-1.947-10.5-4.476-20.896-6.867-31.309c-0.431-1.872-1.167-3.804-2.257-5.362
	c-1.742-2.49-4.073-4.316-7.644-3.822c-0.191,1.271-0.467,2.304-0.482,3.34c-0.091,6.058-0.128,12.117-0.168,18.176
	c-0.056,8.377-0.256,16.758-0.106,25.132c0.232,13.198,1.865,26.293,3.333,39.396c0.168,1.495,0.856,2.622,1.81,3.756
	c0.629,0.75,1.264,1.989,1.085,2.837c-0.771,3.636,0.825,7.478-1.11,11.032C734.425,511.367,734.99,512.626,735.154,514.015z
	 M906.767,557.709c2.142,2.562,4.142,4.982,6.172,7.377c5.225,6.169,9.323,12.955,11.95,20.655
	c2.126,6.229,4.688,12.293,7.738,18.148c2.793,5.364,5.427,10.81,8.136,16.216c0.784,1.566,1.593,3.121,2.626,5.146
	c1.3-2.593,1.233-4.858,1.277-7.084c0.035-1.777-0.14-3.558-0.084-5.333c0.303-9.791,0.401-19.57-0.827-29.32
	c-0.915-7.266-2.248-14.324-5.679-20.985c-2.436-4.73-5.83-6.805-10.961-6.942c-6.259-0.167-12.438,0.571-18.63,1.23
	C908.02,556.867,907.592,557.269,906.767,557.709z M878.75,178.253c0.116,3.628,0.733,7.145,1.898,10.516
	c4.328,12.542,11.522,16.629,22.782,17.65c3.259,0.296,6.368-0.816,9.066-2.663c4.68-3.203,6.001-7.767,3.909-13.059
	c-1.262-3.189-3.197-5.928-5.671-8.313c-6.565-6.331-14.08-11.428-21.584-16.519c-3.798-2.577-5.851-1.948-8.192,2.058
	c-0.618,1.056-1.073,2.275-1.298,3.475C879.24,173.662,879.041,175.965,878.75,178.253z M786.184,742.785
	c-0.01,0.35-0.019,0.698-0.027,1.049c2.116,0.134,4.23,0.321,6.348,0.39c16.822,0.54,33.462-1.527,50.106-3.522
	c5.475-0.657,10.937-1.588,16.43-1.863c14.423-0.729,28.861-1.116,43.289-1.734c8.544-0.365,17.077-1.081,25.624-1.31
	c4.712-0.126,9.156-1.112,13.587-2.517c1.851-0.586,3.06-1.595,3.647-3.51c1.488-4.854,1.821-9.759,0.947-14.75
	c-0.025-0.138-0.25-0.241-0.598-0.559c-0.926,0.628-1.9,1.312-2.897,1.959c-2.534,1.645-5,3.411-7.632,4.884
	c-9.136,5.112-19.107,7.781-29.313,9.656c-3.323,0.611-6.702,1.023-10.074,1.255c-6.753,0.461-13.521,0.67-20.276,1.101
	c-10.677,0.682-21.339,1.638-32.023,2.157c-17.848,0.867-35.505,3.193-53.07,6.338C788.88,742.054,787.538,742.455,786.184,742.785z
	 M682.339,487.547c1.601-2.057,1.793-4.409,2.109-6.632c0.705-4.94,1.301-9.9,1.77-14.868c0.755-8.009,0.688-16.039,0.276-24.065
	c-0.266-5.164-0.598-10.324-0.897-15.486c-0.393-6.763-0.773-13.525-1.188-20.286c-0.032-0.508-0.297-1.002-0.5-1.652
	c-3.088-1.131-6.218-2.277-9.374-3.433c-0.399,0.582-0.819,0.97-0.956,1.441c-0.295,1.019-0.541,2.071-0.637,3.125
	c-0.343,3.729-0.697,7.46-0.901,11.198c-0.977,17.911,0.743,35.643,3.877,53.246c0.776,4.362,2.216,8.615,3.5,12.873
	C679.913,484.649,680.615,486.303,682.339,487.547z M671.461,389.337c0.739-2.017,1.322-3.679,1.956-5.321
	c1.661-4.304,2.972-8.799,5.133-12.838c1.822-3.407,2.282-6.722,1.446-10.249c-1.518-6.397-3.422-12.704-4.888-19.112
	c-1.274-5.57-4.867-9.395-8.957-12.899c-1.767-1.515-3.838-2.511-6.518-1.87c-0.496,1.342-1.226,2.62-1.416,3.973
	c-0.521,3.693-1.133,7.419-1.133,11.132c0,9.103,1.135,18.121,3.378,26.943c1.45,5.706,3.955,11.049,6.87,16.163
	C668.179,386.745,668.94,388.445,671.461,389.337z M831.492,836.757c-0.715-0.955-0.942-1.469-1.335-1.753
	c-5.253-3.792-11.057-6.503-17.285-8.164c-2.535-0.678-5.271-0.689-7.925-0.807c-5.192-0.229-8.656,2.275-11.088,6.817
	c-3.881,7.251-5.419,14.98-5.428,23.098c-0.002,0.807-0.205,1.821,1.199,2.401c0.739-0.365,1.722-0.729,2.573-1.29
	c4.605-3.03,9.185-6.101,13.763-9.172c6.824-4.582,13.714-8.973,22.268-9.588C829.202,838.231,830.117,837.433,831.492,836.757z
	 M731.873,335.658c0,0.64-0.135,1.362,0.021,2.016c1.745,7.32,4.296,14.363,7.943,20.938c1.276,2.298,3.173,4.28,4.951,6.257
	c1.015,1.128,2.339,1.139,3.38,0.338c3.91-3.006,6.179-6.824,5.731-11.925c-0.156-1.773-0.52-3.539-0.548-5.312
	c-0.132-8.513-2.762-16.473-5.319-24.448c-0.299-0.929-0.991-1.732-1.552-2.678c-3.266,1.252-6.23,2.389-9.17,3.516
	C739.821,332.193,738.422,333.625,731.873,335.658z M619.759,1213.306c0.381-1.707,0.629-2.719,0.831-3.738
	c1.832-9.244,3.643-18.491,5.487-27.733c0.835-4.187,1.766-8.356,2.574-12.549c0.18-0.932,0.697-2.069-0.535-2.779
	c-4.015,1.709-6.774,3.805-9.081,7.091c-5.52,7.866-8.128,16.568-7.224,26.195C612.317,1205.166,614.649,1209.572,619.759,1213.306z
	 M830.278,556.861c1.713,0.673,2.172,1.016,2.622,1.005c7.838-0.191,15.71-0.056,23.507-0.742
	c10.467-0.919,20.876-2.477,31.306-3.792c0.234-0.029,0.422-0.428,1.092-1.154c-0.475-0.233-0.945-0.481-1.429-0.7
	c-4.931-2.23-10.058-3.751-15.513-3.483c-5.695,0.279-11.395,0.652-17.062,1.276C846.572,550.178,839.073,553.535,830.278,556.861z
	 M950.629,697.441c3.32-10.089,2.028-31.64-2.171-41.141C947.934,665.898,949.206,692.223,950.629,697.441z M681.394,378.167
	c-0.519,0.767-0.983,1.23-1.183,1.788c-1.14,3.182-2.291,6.364-3.3,9.589c-1.436,4.586-0.858,5.645,3.688,6.944
	c0.767,0.219,1.651,0.031,2.455,0.031C683.457,393.06,682.5,382.224,681.394,378.167z M735.398,527.469
	c0.171,4.335,0.971,6.412,3.701,8.512c2.23,1.717,4.658,3.184,7.039,4.697c0.497,0.316,1.172,0.353,2.349,0.68
	c-1.354-2.551-3.19-3.674-4.684-5.118c-1.398-1.351-2.742-2.758-4.109-4.142C738.268,530.653,737.408,528.646,735.398,527.469z
	 M740.871,308.649c-4.438,3.991-5.021,5.252-4.351,9.613c2.755-1.124,5.688-1.538,7.963-3.707
	C743.634,312.242,742.665,310.405,740.871,308.649z"/>
</svg>
