<?xml version="1.0" encoding="utf-8"?>
<!-- Generator: Adobe Illustrator 16.0.0, SVG Export Plug-In . SVG Version: 6.00 Build 0)  -->
<!DOCTYPE svg PUBLIC "-//W3C//DTD SVG 1.1//EN" "http://www.w3.org/Graphics/SVG/1.1/DTD/svg11.dtd">
<svg version="1.1" id="Layer_1" xmlns="http://www.w3.org/2000/svg" xmlns:xlink="http://www.w3.org/1999/xlink" x="0px" y="0px"
	 width="1400px" height="1400px" viewBox="0 0 1400 1400" enable-background="new 0 0 1400 1400" xml:space="preserve">
<path fill-rule="evenodd" clip-rule="evenodd" d="M676.958,890.126c4.209,5.273,9.574,8.358,14.601,11.832
	c4.639,3.204,9.307,6.405,14.208,9.177c7.309,4.135,12.956,10.144,18.914,15.83c4.263,4.067,8.55,8.109,12.768,12.225
	c3.273,3.193,6.42,6.518,9.685,9.721c6.821,6.688,13.731,13.282,20.516,20.005c9.296,9.209,18.536,18.472,27.743,27.768
	c6.432,6.491,12.789,13.057,19.137,19.629c4.904,5.078,9.837,10.131,14.584,15.352c5.364,5.903,10.536,11.981,15.791,17.982
	c1.032,1.178,2.1,2.324,3.093,3.532c3.816,4.645,7.809,9.163,11.374,13.994c8.314,11.258,16.316,22.748,24.654,33.988
	c4.431,5.974,7.947,12.519,12.159,18.599c4.636,6.69,8.188,13.947,11.718,21.177c2.841,5.815,5.429,11.804,7.499,18.023
	c2.636,7.916,4.615,15.963,5.884,24.152c1.278,8.249,2.318,16.547,1.604,24.987c-0.686,8.084-0.738,16.219-1.314,24.315
	c-0.26,3.633-0.979,7.251-1.736,10.824c-1.158,5.479-2.573,10.904-3.801,16.369c-1.322,5.895-3.566,11.457-5.677,17.096
	c-3.269,8.731-7.509,16.974-11.827,25.181c-1.822,3.461-4.108,6.694-6.348,9.919c-7.199,10.354-15.57,19.652-25.11,27.926
	c-4.15,3.602-7.965,7.588-12.032,11.288c-1.227,1.117-2.694,2.073-4.21,2.752c-8.121,3.639-16.232,7.311-24.46,10.698
	c-11.284,4.646-22.777,8.948-34.918,10.459c-7.221,0.899-14.692,0.672-21.97,0.027c-13.371-1.184-26.383-4.132-38.7-9.782
	c-10.503-4.818-20.519-10.478-30.116-16.87c-2.246-1.496-3.965-3.765-6.034-5.556c-2.054-1.778-4.021-3.878-6.42-4.995
	c-4.804-2.238-9.136-0.715-12.955,2.759c-3.479,3.164-7.122,6.145-10.605,9.302c-5.998,5.441-13.176,8.992-20.268,12.633
	c-13.209,6.781-27.04,12.086-41.32,16.095c-14.384,4.037-29.139,4.882-44.034,4.548c-13.63-0.309-26.892-2.727-39.789-6.799
	c-11.124-3.512-21.826-8.219-31.328-15.208c-4.935-3.631-10.137-6.993-14.602-11.14c-4.563-4.24-8.488-9.196-12.478-14.015
	c-3.42-4.131-6.81-8.335-9.737-12.816c-7.927-12.142-13.535-25.427-18.124-39.114c-4.386-13.085-6.601-26.667-8.218-40.339
	c-2.228-18.825,2.166-36.351,10.124-53.311c8.139-17.344,17.56-33.965,27.57-50.252c14.523-23.632,31.032-45.787,50.676-65.458
	c7.302-7.312,14.83-14.416,22.544-21.291c9.662-8.611,19.81-16.68,29.4-25.366c9.604-8.699,18.993-17.663,28.081-26.899
	c7.339-7.46,14.439-15.218,21.017-23.349c8.699-10.757,16.884-21.933,25.105-33.065c7.472-10.118,14.822-20.332,21.984-30.671
	c5.075-7.324,9.747-14.927,14.605-22.402C676.139,891.171,676.466,890.783,676.958,890.126z M560.915,1090.846
	c-4.25,2.688-8.481,5.01-12.291,7.889c-2.971,2.245-7.079,2.973-8.986,6.635c-0.058,0.109-0.171,0.241-0.281,0.268
	c-3.471,0.796-5.729,2.763-7.513,5.99c-0.995,1.799-3.728,2.652-5.703,3.891c-2.542,1.594-5.312,2.898-7.615,4.78
	c-2.592,2.116-4.815,4.696-7.124,7.146c-2.393,2.539-4.347,5.658-7.13,7.616c-2.778,1.955-4.552,4.578-6.729,6.95
	c-3.916,4.264-5.15,10.192-9.02,14.494c-0.39,0.433-0.455,1.212-0.549,1.849c-0.463,3.114-3.505,5.356-2.978,8.811
	c0.027,0.177-0.336,0.388-0.456,0.613c-0.597,1.12-1.337,2.198-1.724,3.39c-0.973,2.99-3.088,5.687-2.442,9.112
	c0.021,0.111-0.105,0.241-0.123,0.368c-0.499,3.566-1.089,7.122-1.445,10.701c-0.208,2.082-0.04,4.202-0.041,6.307
	c0.079,1.084-0.552,2.109-0.761,3.216c-0.213,1.128-0.036,2.335,0.01,3.507c0.23,5.854-0.195,11.787,2.149,17.385
	c1.103,2.631,1.993,5.361,3.261,7.904c1.09,2.188,2.458,4.27,3.93,6.225c1.996,2.65,5.368,4.165,6.169,7.882
	c0.167,0.773,1.781,1.233,2.771,1.866c0.121,3.119,0.417,3.615,3.135,4.424c1.246,0.372,2.55,0.664,3.842,0.738
	c2.703,0.152,5.564,0.612,6.915-2.817c0.221-0.559,1.2-0.983,1.904-1.156c2.096-0.512,2.849-1.885,3.312-3.883
	c0.493-2.124,1.505-4.128,2.274-6.191c0.215-0.575,0.388-1.168,0.56-1.758c0.9-3.091,1.479-6.324,2.794-9.226
	c0.977-2.153,1.363-4.218,1.186-6.444c-0.236-2.964,0.079-5.694,2.104-8.087c0.533-0.629,0.622-1.653,0.853-2.515
	c0.231-0.857,0.152-1.899,0.618-2.58c1.9-2.778,1.48-6.573,4.113-9.055c0.53-0.5,0.733-1.849,0.474-2.591
	c-1.074-3.074,0.727-5.291,2.067-7.603c1.899-3.276,1.904-7.386,4.616-10.286c0.07-0.073-0.002-0.264,0.038-0.382
	c0.495-1.457,0.888-2.958,1.523-4.349c1.292-2.831,2.73-5.597,4.083-8.399c1.381-2.86,2.696-5.753,4.111-8.598
	c1.224-2.462,2.6-4.848,3.814-7.312c3.272-6.638,6.482-13.306,9.742-19.948c0.807-1.646,2.265-3.187,2.442-4.879
	c0.318-3.037,2.287-4.429,4.309-6.096c1.019-0.839,2.446-2.479,2.201-3.326c-0.997-3.453,2.009-5.454,2.467-8.293
	c4.305-3.567,2.646-6.791-0.323-10.262c-1.995-2.332-3.915-4.08-7.256-3.492C563.17,1091.456,562.014,1091.006,560.915,1090.846z
	 M705.463,1249.476c-3.116,2.134-4.488,4.741-4.1,8.45c0.367,3.504,0.142,7.062,0.398,10.579c0.304,4.171,0.394,8.437,1.406,12.452
	c1.064,4.225,1.613,8.416,1.982,12.73c0.49,5.731,3.188,10.891,5.203,16.203c0.394,1.039,1.552,1.766,2.078,2.781
	c3.16,6.086,6.193,12.216,12.434,15.939c2.198,1.311,3.979,3.127,6.511,4.126c8.268,3.267,16.027,3.289,23.366-2.28
	c1.02-0.773,2.521-1.02,3.34-1.925c4.37-4.838,3.341-12.099-1.887-16.266c-4.559-3.636-9.002-7.438-12.738-11.974
	c-4.565-5.539-9.315-10.933-13.664-16.635c-1.931-2.53-3.352-5.558-4.457-8.562c-0.548-1.491-1.198-2.709-2.457-3.258
	c-2.021-0.882-3.005-2.356-3.575-4.333c-0.177-0.614-0.429-1.343-0.891-1.72c-3.948-3.221-5.378-8.169-8.259-12.128
	C708.873,1251.896,707.837,1250.32,705.463,1249.476z"/>
<path fill-rule="evenodd" clip-rule="evenodd" d="M802.024,626.01c0.566,4.765,1.09,9.152,1.608,13.539
	c0.171,1.433,0.449,2.864,0.465,4.299c0.023,1.964,0.491,3.406,2.371,4.551c2.154,1.312,2.268,4.713,0.391,6.459
	c-1.034,0.962-2.295,1.787-3.597,2.334c-2.254,0.95-4.564,2.038-6.946,2.349c-5.088,0.668-9.396,3.171-13.939,5.168
	c-10.436,4.586-20.938,9.019-31.336,13.687c-8.003,3.593-15.99,7.25-23.798,11.244c-6.995,3.58-13.554,8.036-20.629,11.43
	c-10.149,4.87-20.592,9.131-30.914,13.644c-1.531,0.669-3.084,1.286-5.295,2.205c1.183,0.678,1.737,1.131,2.372,1.337
	c11.962,3.9,23.905,7.86,35.91,11.619c10.745,3.362,21.531,6.602,32.356,9.696c11.74,3.357,23.063,7.83,34.395,12.307
	c8.408,3.323,16.988,6.237,25.281,9.817c7.563,3.264,14.915,7.048,22.222,10.867c3.228,1.689,6.112,4.034,9.545,6.347
	c0.778-1.094,1.543-2.17,2.683-3.769c-1.677,0-2.703,0.109-3.69-0.044c-0.542-0.083-1.312-0.523-1.439-0.959
	c-0.141-0.478,0.195-1.273,0.579-1.694c5.068-5.56,14.343-5.235,19.074,0.562c6.143,7.521,7.71,15.607,3.107,24.455
	c-2.49,4.789-6.269,6.11-11.124,3.836c-1.115-0.521-2.235-1.465-2.859-2.51c-1.405-2.348-2.738-4.798-3.647-7.366
	c-0.745-2.103-1.956-3.013-4.023-2.972c-1.431,0.028-2.901,0.021-4.281,0.343c-15.573,3.62-31.189,7.072-46.676,11.035
	c-13.186,3.373-26.197,7.426-39.325,11.031c-6.182,1.698-12.491,2.93-18.686,4.587c-15.212,4.07-29.903,9.664-44.556,15.376
	c-2.201,0.856-3.012,2.312-3.17,4.441c-0.446,6.031-0.706,12.101,0.696,18.009c2.084,8.783,4.447,17.502,6.872,26.196
	c0.675,2.419,1.146,4.656-0.75,6.568c-0.631,0.639-1.938,1.095-2.768,0.904c-0.783-0.182-1.721-1.22-1.946-2.056
	c-1.765-6.566-3.222-13.219-5.074-19.759c-2.233-7.891-3.37-15.896-3.285-24.075c0.051-4.89-2.027-8.283-6.21-10.923
	c-3.509-2.215-7.225-3.621-11.111-4.812c-4.88-1.496-9.705-3.183-14.617-4.56c-3.895-1.091-7.846-2.124-11.842-2.674
	c-6.519-0.897-12.851-2.476-19.215-4.078c-11.809-2.973-23.854-5.083-35.53-8.483c-12.974-3.78-26.089-6.909-39.217-10.002
	c-4.818-1.137-9.824-1.522-14.763-2.085c-2.991-0.34-6.029-0.254-9.027-0.552c-2.074-0.207-3.462,0.396-4.583,2.209
	c-2.059,3.327-4.989,5.729-8.681,7.08c-5.459,1.996-10.561,1.742-14.807-2.76c-1.515-1.607-3.079-3.219-4.289-5.048
	c-1.394-2.111-1.087-3.107,0.865-4.712c2.127-1.75,4.673-2.417,7.342-2.29c0.842,0.04,1.971,0.778,2.385,1.521
	c0.657,1.183-0.343,1.851-1.422,2.279c-0.708,0.279-1.367,0.681-2.197,1.102c1.23,3.22,3.446,5.382,6.589,5.595
	c3.245,0.221,6.592-0.434,8.57-4.136c-1.138-1.39-2.043-2.865-1.827-5.046c0.243-2.449-2.65-4.06-4.973-3.157
	c-0.607,0.237-1.144,0.733-1.761,0.844c-0.569,0.104-1.517,0.048-1.736-0.295c-0.353-0.555-0.516-1.509-0.282-2.107
	c1.307-3.368,6.041-5.116,9.278-3.441c1.153,0.597,2.303,1.328,3.208,2.241c1.959,1.976,3.931,2.065,6.398,0.911
	c9.128-4.273,18.285-8.489,27.504-12.562c10.064-4.447,20.22-8.689,30.32-13.059c15.512-6.708,31.052-13.35,46.499-20.202
	c13.172-5.844,26.233-11.939,39.335-17.939c0.803-0.368,1.541-0.874,2.811-1.604c-1.154-0.458-1.792-0.775-2.467-0.966
	c-11.625-3.308-22.795-7.785-33.897-12.552c-7.2-3.093-14.833-5.188-22.294-7.664c-7.962-2.641-15.947-5.211-23.928-7.796
	c-0.733-0.238-1.686-0.735-2.228-0.473c-2.408,1.161-4.265-0.191-6.313-0.985c-2.797-1.084-5.649-2.034-8.5-2.971
	c-1.747-0.574-2.404-1.863-2.664-3.527c-0.521-3.334-0.915-6.698-1.636-9.989c-1.583-7.223-2.186-14.489-1.6-21.864
	c0.143-1.807,0.021-3.635,0.021-5.739c-1.239,0.19-2.174,0.156-2.956,0.484c-5.572,2.352-11.471,2.367-17.354,2.576
	c-9.888,0.353-19.637-0.727-29.271-2.866c-2.13-0.473-4.366-0.969-5.282-3.537c-0.26-0.728-1.26-1.229-1.982-1.749
	c-1.169-0.842-2.362-1.658-3.595-2.404c-4.037-2.441-4.988-6.225-3.5-10.23c1.997-5.376,4.347-10.687,7.157-15.684
	c4.623-8.217,9.756-16.121,13.952-24.614c5.312-10.749,4.681-21.236,0.132-31.837c-3.095-7.216-6.387-14.349-9.587-21.52
	c-0.213-0.478-0.374-0.982-0.593-1.457c-1.924-4.172-0.931-7.564,1.927-11.164c4.137-5.212,7.83-10.812,11.341-16.476
	c3.567-5.755,5.281-12.229,6.13-18.938c1.136-8.985,2.193-17.995,0.768-27.018c-0.907-5.739-1.167-11.427-0.587-17.197
	c0.154-1.537-0.109-3.143-0.371-4.686c-0.475-2.79-0.343-3.463,2.217-4.494c4.979-2.005,9.975-4.001,15.072-5.669
	c9.398-3.075,19.196-4.109,28.966-5.22c1.82-0.207,3.632-0.768,5.438-0.728c2.306,0.052,4.605,0.523,6.899,0.864
	c0.774,0.114,1.515,0.441,2.287,0.573c2.199,0.376,3.995,1.045,2.606,4.38c3.212-1.112,5.094-2.83,7.011-4.565
	c2.842-2.573,4.377-2.575,7.328-0.449c1.684-0.821,3.212-2.116,4.798-2.188c1.671-0.077,3.666,0.643,5.056,1.651
	c10.247,7.439,21.618,12.832,32.855,18.489c2.391,1.203,4.006,1.166,6.251-0.698c7.404-6.149,15.678-10.903,24.961-13.704
	c0.946-0.286,2.092-0.461,3.009-0.204c9.071,2.545,18.188,4.97,27.14,7.891c5.962,1.945,11.683,4.637,17.509,7.002
	c0.849,0.344,1.681,0.73,2.518,1.098c1.739,0.763,3.028,0.43,4.585-0.893c4.987-4.236,10.133-8.295,15.359-12.232
	c6.039-4.549,12.996-7.268,20.148-9.519c0.49-0.154,1.254-0.454,1.493-0.24c2.16,1.929,5.057,0.928,7.376,1.92
	c5.498,2.35,11.369,2.969,17.147,4.029c6.53,1.198,12.421,4.067,18.336,6.903c6.154,2.951,4.51,3.87,10.182-1.595
	c4.871-4.692,10.478-8.298,16.626-11.04c3.256-1.452,6.452-1.429,9.818,0.297c2.63,1.348,5.666,1.9,8.517,2.822
	c4.604,1.49,9.204,2.991,13.806,4.492c2.115,0.69,4.206,1.469,6.346,2.071c5.32,1.498,10.468,3.348,14.974,6.666
	c0.526,0.388,1.104,0.709,1.656,1.062c2.572,1.643,4.932,1.703,7.502-0.31c2.327-1.819,5.027-3.056,7.356-5.038
	c1.937-1.646,5.096-1.592,7.679-0.089c0.658,0.384,1.253,0.882,1.796,1.269c1.444-0.697,2.665-1.469,3.998-1.896
	c3.743-1.203,5.738-0.349,8.138,2.707c2.341,2.98,3.626,6.248,4.174,9.994c0.604,4.12,1.702,8.165,2.496,12.26
	c0.247,1.273,0.247,2.601,0.292,3.906c0.091,2.618-0.031,5.255,0.228,7.855c0.815,8.247,0.973,16.438-0.772,24.617
	c-0.991,4.64,0.238,8.808,3.486,12.367c2.273,2.494,4.595,4.971,6.614,7.667c3.779,5.045,4.55,10.764,2.952,16.778
	c-2.412,9.085-4.713,18.208-7.479,27.187c-2.539,8.241-5.645,16.308-8.465,24.464c-0.814,2.353-1.491,4.753-2.254,7.124
	c-0.93,2.895-1.788,5.761,0.01,8.678c0.315,0.512,0.346,1.278,0.311,1.916c-0.451,8.132,2.443,15.708,3.776,23.546
	c0.97,5.702,1.019,11.554-1.914,16.825c-2.03,3.65-5.555,5.74-9.646,5.758c-4.277,0.019-8.577-0.718-12.838-1.327
	c-9.331-1.336-18.574-3.143-28.087-3.164c-6.532-0.015-13.059-1.021-19.592-1.5c-3.264-0.238-6.548-0.185-9.808-0.453
	c-3.76-0.31-7.594-0.458-11.234-1.337c-6.868-1.657-13.628-3.759-20.413-5.739C806.541,627.694,804.513,626.881,802.024,626.01z
	 M791.369,601.523c0.179-1.517,0.418-2.409,0.359-3.281c-0.152-2.275,1.142-3.662,2.779-4.856c1.507-1.099,2.854-0.987,4.122,0.508
	c1.689,1.992,1.889,4.12,1.26,6.603c-0.876,3.459-0.129,4.467,3.326,5.158c0.897,0.18,1.819,0.243,2.722,0.397
	c4.905,0.837,9.811,1.668,14.71,2.537c4.769,0.843,9.502,2.189,14.302,2.485c6.714,0.416,13.262,1.427,19.77,3.032
	c5.212,1.284,10.44,2.67,15.746,3.351c7.141,0.917,14.359,1.212,21.547,1.753c2.709,0.205,5.421,0.411,8.137,0.509
	c1.363,0.05,2.737-0.14,4.225-0.229c-0.224-1.268-0.347-2.042-0.497-2.81c-1.169-6.02-4.206-11.23-7.041-16.551
	c-4.627-8.688-5.653-17.7-1.443-26.825c1.803-3.909,4.047-7.638,6.35-11.286c6.149-9.739,10.23-20.313,13.283-31.361
	c1.289-4.667,1.169-9.104-1.281-13.283c-1.58-2.696-3.345-5.315-5.295-7.753c-6.36-7.948-10.446-16.677-9.137-27.108
	c0.42-3.336,1.326-6.748,2.728-9.795c3.668-7.978,2.828-16.113,1.5-24.308c-0.439-2.707-1.167-5.38-1.949-8.013
	c-0.932-3.136-1.256-3.187-4.436-3.027c-3.793,0.19-7.222,1.451-10.249,3.593c-2.937,2.077-6.518,3.471-8.193,7.036
	c-3.704,1.201-5.54,4.619-8.301,6.939c-2.003,1.684-4.002,1.698-6.097,0.102c-2.603-1.984-5.262-3.967-7.524-6.309
	c-5.825-6.028-11.429-12.271-17.158-18.394c-2.77-2.961-5.452-6.095-9.348-7.631c-1.258-0.496-2.916-0.944-4.088-0.539
	c-6.465,2.234-11.283,6.731-15.752,11.59c0.392,0.583,0.493,0.854,0.688,1.001c1.17,0.885,2.554,1.797,1.798,3.487
	c-0.813,1.817-2.47,2.163-4.334,1.722c-1.115-0.264-2.248-0.458-3.51-0.712c-3.211,3.989-5.871,8.178-7.221,13.033
	c-1.364,4.903-5.126,6.383-9.111,3.254c-2.675-2.1-5.276-4.308-7.794-6.595c-8.54-7.755-17.069-15.523-25.509-23.386
	c-2.185-2.034-4.434-2.601-7.158-1.548c-0.733,0.283-1.479,0.539-2.192,0.866c-7.705,3.54-14.422,8.52-20.559,14.307
	c-0.702,0.664-1.472,1.731-1.456,2.596c0.052,2.588-1.699,3.293-3.555,4.046c-0.946,0.385-2.175,0.536-2.781,1.226
	c-4.047,4.615-8.463,9.003-10.718,14.895c-0.797,2.079-2.247,3.261-4.322,3.523c-2.224,0.282-3.586-1.202-4.79-2.853
	c-0.995-1.364-1.938-2.814-3.153-3.961c-9.344-8.812-18.807-17.499-28.1-26.365c-2.823-2.693-5.706-2.768-8.957-1.324
	c-5.304,2.355-10.169,5.43-14.662,9.092c-0.659,0.537-1.193,1.222-2.23,2.304c3.828,1.683,7.215,3.172,10.585,4.654
	c-0.613,2.269-2.087,3.041-3.941,2.67c-2.546-0.51-5.217-0.969-7.488-2.128c-2.804-1.432-4.768-1.045-7.007,1.003
	c-2.504,2.292-5.264,4.331-8.053,6.281c-2.56,1.789-3.512,1.631-5.975-0.3c-1.339-1.05-2.672-2.109-3.986-3.191
	c-6.768-5.575-13.519-11.17-20.304-16.727c-1-0.819-2.052-1.736-3.239-2.131c-2.192-0.73-3.455-2.073-4.295-4.194
	c-0.84-2.122-2.377-2.643-4.403-1.758c-0.95,0.414-1.812,1.055-2.662,1.665c-8.729,6.268-15.894,14.018-21.759,22.999
	c-1.926,2.95-2.774,3.219-6.199,2.299c-1.386-0.372-2.809-0.656-4.233-0.827c-9.689-1.161-18.478-4.701-26.636-9.955
	c-0.7-0.451-1.52-0.717-2.796-1.305c-0.117,2.825-0.361,5.155-0.283,7.473c0.258,7.594,0.826,15.18,0.92,22.773
	c0.157,12.704-2.507,24.74-9.515,35.548c-2.921,4.506-5.807,9.059-9.084,13.3c-2.519,3.258-3.212,6.452-1.615,10.202
	c1.027,2.41,1.901,4.891,3.027,7.251c3.606,7.56,7.722,14.899,9.635,23.168c1.6,6.918,2.075,13.834-1.153,20.39
	c-3.817,7.751-7.959,15.342-11.973,22.996c-3.278,6.253-6.932,12.34-9.753,18.792c-2.355,5.382-1.296,7.282,3.767,10.298
	c1.347,0.803,2.685,1.661,4.125,2.258c2.219,0.92,4.493,1.486,6.667-0.293c0.471-0.385,1.241-0.748,1.784-0.645
	c2.664,0.502,4.899-0.757,7.16-1.688c6.654-2.739,13.328-5.453,19.83-8.524c4.212-1.99,8.745-3.624,11.79-7.563
	c0.475-0.614,1.636-1.056,2.438-0.997c2.543,0.188,4.082-1.418,5.864-2.743c1.219-0.906,2.582-2.02,3.988-2.201
	c6.916-0.89,12.567-5.022,18.999-7.149c4.065-1.344,7.816-3.63,11.718-5.475c3.786-1.788,7.787-3.218,11.335-5.391
	c9.804-6.002,19.321-12.479,29.159-18.423c4.654-2.812,9.256-6.034,14.882-6.805c3.882-0.53,7.165-2.828,11.109-3.456
	c2.155-0.344,3.652-0.144,5.46,0.683c3.085,1.409,6.163,3.04,9.423,3.823c11.707,2.812,23.455,5.476,35.254,7.868
	c7.986,1.619,15.724,3.965,23.378,6.666c5.429,1.915,10.735,4.293,16.289,5.704c6.826,1.734,14.027,1.63,20.802,3.977
	c5.42,1.878,10.994,3.307,16.495,4.95C783.93,599.254,787.501,600.35,791.369,601.523z M824.536,782.154
	c-1.124-0.87-1.668-1.429-2.322-1.779c-7.261-3.904-14.311-8.31-21.864-11.534c-13.242-5.653-26.86-10.417-40.199-15.854
	c-13.389-5.46-27.532-8.428-41.186-12.997c-9.314-3.116-18.697-6.028-28.034-9.078c-8.212-2.683-16.442-5.32-24.586-8.196
	c-4.258-1.503-8.021-0.995-12.04,0.956c-10.366,5.034-20.842,9.843-31.344,14.589c-12.768,5.771-25.582,11.443-38.423,17.048
	c-19.203,8.383-38.988,15.405-57.797,24.712c-4.637,2.295-9.325,4.486-13.99,6.727c0.789,0.783,1.507,0.933,2.23,0.975
	c2.487,0.145,4.989,0.119,7.459,0.393c12.422,1.381,24.32,5.206,36.435,7.997c7.646,1.763,15.086,4.405,22.706,6.303
	c6.47,1.611,13.101,2.567,19.596,4.095c8.535,2.006,16.966,4.403,25.732,5.389c3.733,0.42,7.396,1.603,11.043,2.614
	c5.297,1.468,10.569,3.036,15.815,4.679c2.741,0.858,5.703,1.514,8.039,3.056c4.616,3.046,9.34,3.158,14.235,1.511
	c7.81-2.629,15.497-5.623,23.318-8.216c8.576-2.845,17.182-5.632,25.888-8.04c12.104-3.347,24.33-6.256,36.473-9.468
	c11.515-3.044,22.951-6.383,34.493-9.313c7.993-2.03,16.107-3.577,24.159-5.367C821.59,783.083,822.772,782.668,824.536,782.154z
	 M797.766,649.561c0.442-8.411-1.444-17.108-2.482-25.937c-0.847-0.254-1.457-0.438-2.066-0.621
	c-10.792-3.203-21.621-6.282-32.363-9.644c-10.747-3.364-21.387-7.072-32.111-10.514c-11.736-3.767-23.864-5.922-35.878-8.563
	c-8.817-1.938-17.549-4.263-26.366-6.2c-2.962-0.65-5.902-2.174-9.314-1.169c-0.071,1.244-0.257,2.407-0.174,3.551
	c0.16,2.214,0.475,4.416,0.722,6.623c0.143,1.29,0.331,2.579,0.404,3.874c0.153,2.735-0.086,5.536,0.415,8.201
	c2.934,15.606,4.749,31.354,6.014,47.159c0.804,10.047,1.091,20.138,1.461,30.215c0.255,6.935,0.23,13.879,0.394,20.819
	c0.032,1.354,0.354,2.702,0.545,4.083c0.889-0.101,1.302-0.063,1.647-0.199c13.895-5.481,27.715-11.116,40.83-18.35
	c9.058-4.996,18.035-10.193,27.375-14.611c13.374-6.325,27.063-11.978,40.575-18.01c4.422-1.974,8.741-4.181,13.047-6.395
	C792.702,652.709,794.835,651.299,797.766,649.561z M649.779,589.144c-1.085,0.503-1.671,0.741-2.225,1.038
	c-5.313,2.841-10.598,5.737-15.938,8.53c-8.823,4.616-17.709,9.114-26.517,13.761c-10.308,5.437-20.551,10.995-30.841,16.469
	c-2.081,1.106-4.259,2.032-6.354,3.113c-4.879,2.513-9.713,5.115-14.618,7.578c-1.312,0.659-1.528,1.64-1.551,2.873
	c-0.064,3.407-0.02,6.822-0.244,10.219c-0.411,6.232,0.853,12.222,2.015,18.289c1.072,5.602,5.141,8.232,9.56,9.992
	c7.65,3.045,15.616,5.299,23.435,7.927c10.678,3.589,21.555,6.701,31.959,10.961c12.631,5.171,25.399,9.813,38.521,13.514
	c0.833,0.234,1.725,0.262,2.738,0.407c0.105-0.903,0.267-1.543,0.241-2.174c-0.127-3.01-0.42-6.017-0.442-9.024
	c-0.072-9.435,0.168-18.877-0.135-28.302c-0.226-7.061-0.977-14.115-1.726-21.146c-1.055-9.893-2.309-19.766-3.509-29.644
	c-1.294-10.657-2.622-21.311-3.942-31.964C650.13,590.928,649.988,590.306,649.779,589.144z M841.656,775.225
	c-1.053,1.666-1.982,3.052-2.813,4.493c-0.309,0.533-0.641,1.25-0.532,1.801c0.869,4.491,1.931,8.977,4.858,12.623
	c2.228,2.775,4.556,2.216,5.76-1.131C851.097,786.984,847.588,778.335,841.656,775.225z M521.463,435.527
	c0.698-1.058,0.917-1.929-0.323-2.495c-0.22-0.101-0.825,0.158-0.944,0.401C519.562,434.739,520.493,435.097,521.463,435.527z
	 M594.959,425.408c0.183-0.149,0.365-0.298,0.546-0.446c-0.38-0.481-0.748-0.976-1.168-1.418c-0.028-0.03-0.468,0.335-0.717,0.517
	C594.066,424.51,594.513,424.958,594.959,425.408z"/>
<path fill-rule="evenodd" clip-rule="evenodd" d="M908.024,257.988c0.831-1.003,1.489-2.012,2.353-2.797
	c1.971-1.794,4.003-3.315,7.042-2.381c0.87,0.267,2.475-0.248,3.073-0.964c4.908-5.87,6.047-18.601,2.343-25.392
	c-1.673-3.067-3.894-5.488-7.599-6.297c-1.344-0.293-3.295-0.783-2.99-2.964c0.209-1.485,1.9-2.321,4.203-1.918
	c4.858,0.852,8.627,3.384,11.45,7.497c5.077,7.397,4.106,15.152,1.52,22.98c-1.148,3.477-2.679,6.813-5.083,9.684
	c-1.983,2.369-4.321,3.829-7.502,3.304c-1.409-0.232-2.455,0.04-3.561,1.015c-1.162,1.023-2.647,1.667-3.949,2.541
	c-2.272,1.524-4.512,1.019-6.677-0.138c-4.705-2.513-7.069-6.579-7.123-11.823c-0.05-4.708,0.352-9.346,2.062-13.892
	c1.082-2.881,1.144-6.141,1.726-9.218c0.535-2.818,1.176-5.616,1.735-8.431c0.511-2.56,1.227-5.115,1.358-7.698
	c0.072-1.428-0.513-3.205-1.424-4.311c-3.326-4.033-6.904-7.859-10.417-11.737c-0.431-0.476-0.987-0.985-1.578-1.147
	c-7.045-1.936-9.402-7.8-11.46-13.801c-0.641-1.869-1.361-3.3-3.273-4.067c-0.795-0.319-1.764-0.939-2.055-1.663
	c-2.348-5.822-4.361-11.597-3.69-18.196c1.482-14.6,2.817-29.238,3.462-43.894c0.384-8.733-0.424-17.547-1.132-26.29
	c-0.518-6.385-1.716-12.717-2.676-19.062c-0.285-1.885-0.793-3.736-1.671-5.638c-1.66,4.53-4.042,8.775-4.044,13.647
	c-0.002,2.828-1.145,4.8-2.82,7c-5.881,7.721-11.402,15.763-13.76,25.365c-2.09,8.517-3.881,17.116-5.502,25.736
	c-1.123,5.981-0.591,12.022,0.497,18.001c0.279,1.54,0.646,3.115,0.573,4.655c-0.104,2.14-1.954,3.46-4.125,3.29
	c-1.992-0.156-2.884-1.087-2.824-3.42c0.378-14.88-3.103-29.133-6.969-43.323c-0.514-1.884-0.995-3.699-3.599-4.051
	c-0.928-0.126-1.911-1.693-2.418-2.808c-3.35-7.389-6.572-14.836-9.851-22.257c-0.413-0.933-0.915-1.826-1.755-3.491
	c-0.45,1.697-0.83,2.611-0.923,3.553c-1.332,13.695-2.572,27.4-3.949,41.09c-0.944,9.382-1.781,18.79-3.193,28.106
	c-1.293,8.524-3.161,16.971-5.046,25.391c-0.802,3.578-2.318,6.982-5.415,9.36c-2.756,2.118-5.318,2.098-7.672-0.42
	c-1.689-1.808-3.209-3.812-4.552-5.893c-0.489-0.755-0.348-1.988-0.315-2.997c0.286-9.061,0.287-18.103-1.653-27.023
	c-0.39-1.789-0.885-3.569-1.514-5.287c-0.768-2.098-1.826-3.935-3.904-5.208c-3.131-1.92-4.055-4.922-3.396-8.519
	c1.762-9.621,1.497-19.306,0.88-29.008c-0.368-5.79-1.262-11.46-3.257-16.927c-1.092-2.991-0.608-6.014,0.115-8.925
	c1.768-7.122,3.891-14.157,5.602-21.292c0.91-3.8,1.295-7.728,1.838-11.609c0.099-0.704-0.188-1.461-0.337-2.466
	c-4.084,1.135-6.859,3.75-9.391,6.488c-7.594,8.223-13.442,17.744-19.489,27.092c-1.091,1.686-1.452,3.904-1.894,5.932
	c-0.387,1.764-1.017,3.02-2.72,3.993c-6.699,3.833-13.255,7.916-19.941,11.775c-1.737,1.003-2.472,2.174-2.122,4.125
	c0.277,1.547,0.572,3.108,0.636,4.673c0.144,3.601-3.265,5.854-6.388,4.079c-1.645-0.936-2.922-2.519-4.623-4.043
	c-0.397,2.375-0.979,4.632-1.124,6.917c-0.811,12.816-1.507,25.639-2.275,38.458c-0.086,1.433-0.274,2.878-0.597,4.275
	c-0.573,2.479-0.937,4.851,0.562,7.209c0.429,0.675,0.626,2.024,0.239,2.603c-2.122,3.176-1.606,6.845-2.083,10.288
	c-0.635,4.594-1.614,9.125-3.897,13.082c-1.444,2.502-3.929,4.489-6.205,6.399c-1.889,1.585-4.169,2.7-6.251,4.061
	c-2.148,1.406-3.29,3.494-3.158,5.989c0.14,2.7,0.698,5.376,1.052,7.907c1.271,0.386,2.005,0.711,2.769,0.821
	c2.367,0.339,3.276,1.827,3.513,4.04c0.559,5.204-0.536,10.197-2.042,15.089c-0.835,2.715-3.837,3.925-6.421,2.55
	c-2.388-1.27-4.75-1.864-7.446-2.026c-2.246-0.134-4.1-1.539-5.092-3.813c-3.219-7.376-3.188-14.628,1.468-21.324
	c2.981-4.287,6.503-8.209,9.948-12.151c0.991-1.135,2.442-2.17,3.872-2.567c6.432-1.782,9.174-6.716,10.648-12.486
	c0.967-3.784,1.15-7.768,1.681-11.663c0.019-0.129-0.026-0.273,0.014-0.392c0.734-2.213-2.478-3.67-0.982-6.241
	c1.005-1.727,1.392-3.923,1.645-5.959c1.093-8.837,2.133-17.682,3.005-26.542c1.104-11.216,2.064-22.447,3.002-33.679
	c0.25-3,0.176-6.027,0.275-9.041c0.08-2.423,0.994-3.33,3.319-3.354c2.163-0.024,2.876,0.672,3.168,3.066
	c0.341,2.839,0.694,5.676,1.123,9.184c7.994-4.377,15.469-8.51,22.989-12.561c1.851-0.997,2.956-2.311,3.538-4.391
	c1.803-6.455,5.936-11.646,9.765-16.945c3.913-5.414,7.95-10.759,12.267-15.852c2.255-2.659,5.137-4.826,7.916-6.983
	c1.187-0.921,2.786-1.489,4.284-1.798c3.688-0.761,6.067,1.042,5.831,4.789c-0.263,4.156-0.829,8.349-1.82,12.39
	c-1.622,6.608-3.681,13.111-5.587,19.65c-1.256,4.314-1.052,8.37,0.866,12.595c1.321,2.906,1.898,6.272,2.214,9.491
	c0.974,9.935,0.698,19.898,0.12,29.853c-0.092,1.57-0.065,3.147-0.178,4.716c-0.183,2.576,0.494,4.524,3.06,5.76
	c2.229,1.074,3.354,3.257,4.108,5.546c2.355,7.145,3.42,14.516,3.666,22.012c0.107,3.268-0.164,6.57,0.206,9.802
	c0.377,3.265,2.135,5.96,4.898,8.562c1.791-2.931,2.756-5.634,3.313-8.398c2.176-10.786,4.482-21.559,6.181-32.423
	c1.436-9.183,2.183-18.477,3.08-27.738c1.319-13.573,2.512-27.158,3.725-40.74c0.127-1.423,0.268-2.915-0.018-4.287
	c-0.368-1.759,0.2-2.803,1.721-3.45c1.684-0.717,3.721-0.286,4.592,1.112c0.614,0.983,0.968,2.14,1.355,3.248
	c2.63,7.525,5.234,15.058,7.87,22.58c0.071,0.207,0.377,0.333,0.799,0.685c0.447-0.175,1.007-0.456,1.6-0.617
	c3.39-0.926,4.88-0.152,5.731,3.327c1.867,7.632,3.598,15.297,5.396,22.945c0.288,1.222,0.634,2.43,0.952,3.644
	c0.266,0.002,0.53,0.004,0.795,0.006c0.64-2.432,1.316-4.854,1.912-7.296c2.589-10.639,6.206-20.783,12.541-29.916
	c3.49-5.033,6.016-10.635,7.354-16.792c1.109-5.102,3.059-10.021,4.645-15.018c0.157-0.498,0.376-0.979,0.588-1.46
	c1.402-3.204,2.551-4.092,4.764-3.695c2.158,0.388,2.687,1.187,3.207,4.618c1.571,10.356,3.357,20.684,4.695,31.07
	c1.761,13.686,2.066,27.406,0.542,41.182c-1.037,9.373-1.715,18.807-2.017,28.23c-0.136,4.223-0.211,8.713,2.012,12.66
	c0.474,0.839,1.23,1.868,2.055,2.096c2.922,0.807,3.714,3.013,4.235,5.548c0.798,3.871,1.784,7.688,4.581,10.685
	c0.851,0.912,1.843,1.994,2.959,2.292c2.062,0.553,3.408,1.813,4.729,3.307c1.561,1.765,3.076,3.611,4.862,5.126
	c3.947,3.35,6.893,7.507,9.86,11.657c1.305,1.83,1.31,3.719,0.45,5.88c-1.342,3.374-2.875,6.826-3.32,10.372
	c-0.919,7.32-3.132,14.315-4.63,21.482C901.09,250.529,902.888,255.14,908.024,257.988z M683.934,219.19
	c-4.948-2.31-4.948-2.31-7.669-9.635c-0.421,0.374-0.872,0.647-1.15,1.042c-2.702,3.831-2.751,8.02-1.794,12.422
	c1.189,5.471,2.481,4.938,7.083,5.474c1.49,0.173,2.537-0.635,2.737-2.199C683.45,223.869,683.687,221.433,683.934,219.19z"/>
<path fill-rule="evenodd" clip-rule="evenodd" d="M515.11,172.82c-0.954-5.399-1.903-10.799-2.861-16.198
	c-0.489-2.756-0.304-3.184,1.794-3.998c2.514-0.976,2.966-0.79,4.449,1.529c2.251,3.517,4.313,7.193,6.902,10.445
	c1.999,2.511,4.419,4.794,8.222,4.617c1.799-0.084,2.536,1.569,3.024,3.155c0.517,1.673,1.101,3.324,2.292,4.847
	c0.267-4.551,0.74-9.1,0.757-13.652c0.035-9.19,0.641-18.319,2.167-27.382c0.15-0.896,0.384-1.804,0.749-2.631
	c0.889-2.016,2.677-2.847,4.708-3.076c2.065-0.232,3.224,1.312,3.8,2.866c1.59,4.292,2.89,8.692,4.318,13.044
	c4.207,12.815,8.396,25.635,12.666,38.428c0.465,1.39,1.422,2.615,2.151,3.915c0.287-0.03,0.573-0.061,0.86-0.091
	c0.565-1.69,1.287-3.345,1.667-5.075c2.476-11.264,5.197-22.487,7.196-33.836c1.497-8.497,2.12-17.154,2.977-25.756
	c1.339-13.432,2.566-26.875,3.794-40.317c0.25-2.738,0.255-5.499,0.444-8.243c0.17-2.469,1.296-3.628,3.56-3.834
	c1.963-0.179,2.699,0.695,3.378,3.455c1.562,6.347,3.098,12.707,4.875,18.996c1.827,6.462,5.72,11.473,11.628,14.736
	c1.643,0.907,3.567,1.306,5.299,1.915c1.442-2.02,0.565-3.51-0.017-4.868c-2.939-6.851-4.921-14.139-9.234-20.37
	c-1.303-1.883-1.15-3.74-0.354-5.918c1.534-4.188,3.718-7.922,7.268-10.529c3.272-2.403,5.073-5.612,6.338-9.222
	c0.625-1.784,1.353-2.943,3.412-3.211c2.069-0.269,3.158,0.76,4.184,2.24c0.592,0.855,1.202,1.786,2.025,2.373
	c1.665,1.187,2.318,2.892,2.523,4.708c0.78,6.899,1.462,13.81,2.105,20.724c1.335,14.354,2.048,28.776,4.778,42.974
	c0.345,1.797,0.723,3.549,2.437,4.747c0.637,0.445,1.028,1.495,1.184,2.334c1.456,7.855,2.897,15.714,4.205,23.596
	c0.471,2.837,0.501,5.744,0.857,8.604c0.367,2.951,0.885,5.882,1.338,8.822c0.28,0.004,0.56,0.008,0.841,0.013
	c0.268-1.23,0.542-2.458,0.804-3.69c0.709-3.331,1.426-6.66,2.117-9.994c0.527-2.545,2.576-3.162,4.664-3.566
	c1.934-0.375,2.401,1.36,2.947,2.599c0.786,1.779,1.608,3.39,3.864,3.214c0.985-0.076,2.067-0.312,2.888-0.823
	c1.674-1.042,3.403-1.258,5.279-0.977c1.555,0.234,3.187,0.224,4.651,0.718c1.82,0.614,3.731,1.353,5.196,2.54
	c2.862,2.319,3.055,5.351,0.451,9.531c-3,4.818-6.909,8.444-13.077,8.945c-5.122,0.417-8.559-2.255-9.043-7.371
	c-0.182-1.904-0.708-3.805-1.334-5.619c-0.235-0.682-1.196-1.112-2.279-2.048c-0.602,3.388-0.932,6.244-1.657,8.997
	c-0.521,1.984-1.263,4.051-2.448,5.689c-2.086,2.886-4.851,2.985-7.356,0.495c-2.423-2.409-3.804-5.651-3.72-8.842
	c0.324-12.322-2.095-24.223-4.848-36.092c-0.432-1.862-1.643-3.529-2.257-5.365c-3.116-9.303-3.552-19.043-4.461-28.692
	c-1.12-11.879-2.009-23.781-3.141-35.66c-0.238-2.503-0.291-5.239-2.59-7.454c-0.467,0.711-0.952,1.171-1.102,1.723
	c-0.805,2.974-2.569,4.852-5.395,6.291c-3.137,1.597-4.887,4.705-5.722,8.12c-0.257,1.05-0.014,2.344,0.353,3.404
	c1.322,3.832,2.696,7.651,4.246,11.395c0.997,2.406,2.421,4.632,3.494,7.01c0.85,1.883,1.797,3.826,2.095,5.832
	c0.513,3.462-1.648,6.396-5.125,6.632c-2.52,0.172-5.27-0.224-7.635-1.116c-7.846-2.957-12.787-8.878-15.727-16.583
	c-0.872-2.281-1.653-4.594-3.171-6.843c-0.264,1.087-0.676,2.16-0.768,3.261c-0.599,7.176-1.249,14.352-1.654,21.539
	c-1.202,21.377-3.4,42.604-9.018,63.348c-0.856,3.162-1.488,6.394-2.524,9.493c-0.609,1.824-1.579,3.64-2.793,5.128
	c-2.624,3.216-7.021,2.806-9.244-0.729c-0.62-0.987-1.06-2.116-1.421-3.232c-4.958-15.335-9.884-30.681-14.828-46.021
	c-0.355-1.102-0.781-2.181-1.462-4.076c-0.621,1.41-1.145,2.098-1.214,2.829c-1.357,14.383-1.826,28.796-1.138,43.228
	c0.09,1.889,0.01,3.465-1.682,4.402c-1.83,1.013-3.735,0.529-5.052-0.902c-1.484-1.612-2.68-3.514-3.845-5.387
	c-0.685-1.101-1.05-2.398-1.586-3.595c-1.032-2.305-2.342-4.162-4.82-5.397c-2.631-1.312-4.86-3.429-7.845-5.62
	c0.448,2.746,0.795,4.873,1.142,6.999c0.635,3.893-0.108,6.219-2.327,7.273c-1.986,0.943-5.47-0.356-7.365-3.249
	c-1.634-2.497-3.136-5.2-4.062-8.021c-3.556-10.829-6.857-21.742-10.249-32.625c-0.852-2.73-1.685-5.466-3.239-8.194
	c-0.214,1.213-0.556,2.42-0.623,3.642c-1.125,20.317-1.681,40.638,0.544,60.92c0.265,2.413,1.21,4.756,1.877,7.119
	c0.674,2.386,1.586,4.722,2.059,7.146c1.774,9.087,5.244,17.546,9.162,25.871c1.56,3.315,2.734,6.811,4.245,10.151
	c2.187,4.833,4.52,9.6,6.927,14.684c3.365-3.272,6.667-1.998,10.003-0.53c1.677,0.738,3.364,1.522,5.126,1.98
	c4.827,1.255,7.939,4.345,9.853,8.791c1.485,3.449,1.342,4.281-1.985,5.921c-2.099,1.035-3.167,2.551-3.955,4.578
	c-0.792,2.041-0.928,3.947-0.203,6.099c1.493,4.428,0.71,6.227-2.795,9.255c-1.551,1.34-2.839,3.068-3.963,4.803
	c-2.717,4.192-6.613,6.091-11.394,5.421c-3.798-0.532-8.091-0.319-10.964-3.551c-3.637-4.088-5.607-8.746-3.896-14.394
	c0.604-1.992,0.949-4.073,1.277-6.135c0.905-5.69,1.693-11.398,4.875-16.423c0.377-0.596,0.562-1.53,0.407-2.208
	c-0.579-2.52-1.124-5.083-2.066-7.479c-3.544-9.015-7.24-17.97-10.879-26.947c-0.295-0.729-0.669-1.434-0.88-2.186
	c-1.687-6.02-3.203-12.091-6.368-17.587c-0.565-0.982-0.901-2.216-0.957-3.353c-0.546-11.249-1.361-22.5-1.406-33.753
	c-0.053-13.239,0.501-26.483,0.965-39.718c0.146-4.181,0.902-8.339,1.278-12.518c0.163-1.821,1.398-2.652,2.814-2.746
	c1.13-0.075,2.613,0.419,3.4,1.204c0.852,0.849,1.195,2.292,1.559,3.535c3.563,12.206,7.008,24.446,10.662,36.625
	c1.239,4.134,2.95,8.129,4.508,12.163c0.31,0.804,0.907,1.497,1.372,2.24C514.616,173.051,514.863,172.936,515.11,172.82z
	 M519.994,263.67c-1.551,2.467-2.33,4.714-3.903,5.938c-1.701,1.322-2.735,2.684-3.16,4.687c-1.088,5.122-2.326,10.218-3.223,15.373
	c-0.296,1.709-0.009,3.648,0.492,5.34c1.126,3.803,4.285,4.838,7.844,5.486c5.388,0.982,6.89,0.307,9.164-4.686
	c0.585-1.286,1.296-2.6,2.257-3.609c1.032-1.085,1.533-2.071,0.883-3.475c-1.019-2.199-0.713-4.355,0.289-6.448
	c1.354-2.828,2.615-5.715,4.208-8.405c1.041-1.757,1.176-3.295-0.278-4.584c-1.325-1.175-2.915-2.111-4.512-2.9
	c-1.388-0.687-2.929-1.104-4.439-1.489C523.524,264.365,521.397,263.972,519.994,263.67z M677.964,172.787
	c-2.555-3.637-2.939-3.753-6.97-2.361c-0.826,3.082-1.617,6.033-2.403,8.968C673.292,180.678,675.581,179.074,677.964,172.787z"/>
<path fill-rule="evenodd" clip-rule="evenodd" d="M785.84,345.146c-2.855-1.191-2.713-3.295-2.068-5.41
	c0.493-1.619,1.027-3.329,1.989-4.682c3.105-4.365,6.03-8.929,10.439-12.169c3.026-2.224,4.286-5.126,4.02-8.847
	c-0.272-3.805-0.377-7.687-2.459-10.998c-0.993-1.579-2.483-3.293-4.136-3.914c-3.765-1.415-7.723-2.814-11.684-3.097
	c-7.809-0.558-15.65-1.21-23.521,0.071c-3.566,0.58-6.993-1.024-9.852-3.223c-2.224-1.711-2.758-4.913-1.229-7.513
	c1.174-1.998,2.673-3.9,4.37-5.476c2.971-2.757,6.11-5.356,9.354-7.791c4.2-3.153,8.56-6.033,14.158-6.105
	c2.743-0.036,5.095,0.621,7.252,2.384c4.104,3.355,8.551,6.067,14.039,6.46c0.391,0.028,0.786,0.146,1.17,0.111
	c6.644-0.592,13.293-1.122,19.924-1.838c3.642-0.394,7.223-1.283,10.737,0.685c2.325,1.302,4.498,2.676,5.822,5.088
	c2.436,4.44,6.283,6.981,11.16,7.903c6.022,1.137,9.863,5.117,11.995,10.295c4.629,11.241,5.516,22.846,1.282,34.5
	c-0.706,1.95-1.589,3.938-2.835,5.57c-4.123,5.407-8.445,10.663-12.703,15.967c-0.82,1.022-1.708,1.988-2.533,3.007
	c-1.68,2.075-2.37,4.472-1.461,6.989c1.949,5.387,1.755,10.748,0.525,16.24c-0.566,2.537-1.543,4.698-3.434,6.454
	c-6.359,5.905-14.073,9.117-22.475,10.362c-2.931,0.434-6.465-0.279-9.144-1.623c-7.577-3.801-15.272-7.57-21.13-14.034
	c-4.532-5-6.764-10.652-4.519-17.311c1.547-4.583,3.543-9.015,5.315-13.524C784.735,348.349,785.182,346.987,785.84,345.146z
	 M804.702,386.794c3.475,3.502,7.789,4.441,12.258,3.438c3.523-0.791,6.91-2.418,10.183-4.028c3.077-1.514,4.847-4.204,5.671-7.62
	c1.104-4.57,1.18-9.015-0.32-13.527c-1.59-4.78-0.642-8.904,3.24-12.451c2.889-2.64,5.562-5.579,7.964-8.668
	c3.205-4.12,6.617-8.16,8.437-13.188c3.892-10.752,2.985-21.474-0.86-31.925c-1.436-3.904-4.436-6.968-8.963-8.096
	c-5.894-1.467-10.887-4.291-14.062-9.859c-1.854-3.252-4.889-4.55-8.731-3.785c-1.654,0.33-3.383,0.298-5.081,0.41
	c-4.172,0.276-8.394,0.227-12.506,0.874c-8.944,1.411-16.881-0.296-23.681-6.49c-1.679-1.528-3.604-1.959-5.828-1.149
	c-7.381,2.69-12.901,7.955-18.039,13.524c-2.746,2.977-0.861,6.495,3.234,6.944c0.646,0.071,1.308-0.016,1.963-0.007
	c7.195,0.093,14.405-0.031,21.584,0.373c4.15,0.233,8.333,1.015,12.357,2.087c7.064,1.88,11.647,6.462,12.787,13.846
	c1.054,6.833,1.001,13.404-5.745,17.879c-3.554,2.357-5.957,5.879-8.157,9.448c-1.051,1.704-1.612,3.709-2.386,5.556
	c1.924,0.908,3.353,1.582,4.861,2.294c-0.961,1.387-1.597,2.302-2.496,3.602c5.45,0.383,7.939,4.008,9.517,8.042
	c2.283,5.838,4.162,11.857,5.831,17.905c1.255,4.543,1.146,9.109-2.27,12.977C805.138,385.569,805.017,386.118,804.702,386.794z"/>
<path fill-rule="evenodd" clip-rule="evenodd" d="M660.095,339.365c-0.432,8.512-2.35,16.55-7.431,23.639
	c-3.582,4.999-7.018,10.101-10.498,15.171c-2.373,3.458-2.175,4.309,0.647,7.489c1.988,2.24,3.727,4.711,5.476,7.15
	c1.48,2.064,1.781,4.408,0.708,6.714c-1.82,3.911-3.789,7.752-5.724,11.609c-0.229,0.457-0.581,0.907-0.987,1.213
	c-4.907,3.704-10.28,6.619-16.545,6.332c-4.789-0.22-9.588-1.216-14.279-2.311c-4.707-1.099-7.875-4.472-10.407-8.446
	c-4.827-7.578-4.831-15.683-2.037-23.806c1.733-5.038,1.629-10.16,2.041-15.292c0.422-5.259,1.423-10.366,3.948-15.104
	c2.061-3.865,4.973-6.833,9.027-8.389c3.779-1.451,5.046-4.128,5.091-7.905c0.077-6.555-2.134-12.472-5.69-17.69
	c-2.995-4.396-6.851-8.227-10.474-12.171c-3.941-4.29-5.805-9.351-5.596-15.053c0.062-1.668,1.086-3.55,2.203-4.89
	c6.475-7.767,18.795-8.915,26.496-2.45c1.418,1.191,2.5,2.99,3.262,4.718c2.479,5.625,4.159,11.684,7.227,16.946
	c3.779,6.479,7.921,13.04,15.86,15.542c2.19,0.69,3.899,2.264,4.76,4.442C658.759,330.843,660.446,334.864,660.095,339.365z
	 M624.782,413.389c5.422,0.628,9.625-0.667,12.705-4.162c2.034-2.308,3.297-5.312,4.804-8.06c1.009-1.838,0.8-3.696,0.018-5.662
	c-1.3-3.269-3.551-5.772-5.967-8.183c-2.887-2.881-3.219-3.573-1.094-7.127c3.289-5.498,6.502-11.131,10.52-16.081
	c5.474-6.745,8.021-14.366,8.501-22.752c0.407-7.118-1.711-13.081-8.854-16.436c-2.271-1.067-4.228-3.027-5.99-4.898
	c-2.407-2.559-4.753-5.256-6.634-8.207c-1.6-2.508-2.534-5.448-3.71-8.218c-1.686-3.968-3.111-8.062-5.029-11.912
	c-3.664-7.36-11.575-8.803-18.715-4.029c-1.618,1.081-3.043,2.681-2.924,4.857c0.246,4.439,1.572,8.545,4.862,11.682
	c4.083,3.891,8.052,7.863,11.121,12.63c4.668,7.25,7.378,14.991,6.087,23.795c-0.365,2.495-1.305,4.503-3.466,5.841
	c-1.221,0.755-2.429,1.584-3.748,2.117c-4.188,1.693-6.998,4.777-8.238,8.953c-1.144,3.853-1.763,7.889-2.292,11.887
	c-0.201,1.517,0.5,3.151,0.811,4.858c0.877-0.327,1.255-0.422,1.587-0.6c4.313-2.313,5.885-1.974,8.789,1.877
	c0.3,0.398,0.681,0.968,1.081,1.019c2.912,0.374,2.827,2.516,3.025,4.669c0.622,6.771,1.362,13.531,2.04,20.297
	c0.151,1.508,0.699,2.574,2.089,3.493c2.178,1.44,2.379,3.618,0.884,5.719C626.521,411.49,625.872,412.131,624.782,413.389z"/>
<path fill-rule="evenodd" clip-rule="evenodd" d="M585.839,270.698c-0.277,2.676-0.695,7.768-1.383,12.823
	c-0.26,1.911-0.973,3.813-1.77,5.589c-5.22,11.635-5.068,23.334-0.656,35.139c1.487,3.976,2.232,8.091,1.653,12.332
	c-0.19,1.392-0.614,2.829-1.271,4.064c-1.904,3.576-6.08,4.784-9.373,2.454c-2.092-1.48-3.994-3.431-5.479-5.527
	c-4.09-5.767-7.978-11.68-11.824-17.613c-2.729-4.21-2.469-5.091,1.047-8.769c0.823-0.861,1.424-2.207,1.571-3.398
	c1.222-9.883,2.062-19.797,1.604-29.771c-0.234-5.092,2.038-9.432,4.232-13.722c1.604-3.134,3.6-6.105,5.719-8.924
	c1.308-1.738,2.989-3.361,4.836-4.492c3.474-2.126,6.207-1.112,8.042,2.544C584.994,257.825,586.029,262.763,585.839,270.698z
	 M577.434,254.11c-1.705,1.635-3.063,2.657-4.071,3.951c-5.061,6.498-9.18,13.289-8.849,22.09c0.23,6.126-0.284,12.29-0.66,18.425
	c-0.231,3.782-1.09,7.534-1.173,11.311c-0.062,2.776-0.358,5.096-3.437,6.231c4.404,8.22,9.429,15.52,15.566,22.029
	c0.454,0.48,1.373,0.523,2.171,0.802c1.591-2.848,1.692-5.704,1.039-8.527c-0.766-3.31-1.88-6.537-2.787-9.815
	c-2.731-9.88-2.493-19.645,1.136-29.292c1.101-2.925,2.376-5.847,2.958-8.888c0.833-4.356,1.386-8.811,1.542-13.241
	C581.041,264.237,580.419,259.317,577.434,254.11z"/>
<path fill-rule="evenodd" clip-rule="evenodd" d="M896.863,337.985c0,1.311,0.281,2.699-0.052,3.918
	c-1.088,3.979,0.062,7.294,2.042,10.77c1.928,3.38,3.041,7.219,4.597,10.82c1.139,2.636,2.357,5.241,3.646,7.807
	c1.522,3.031,0.786,5.497-1.479,7.836c-1.17,1.21-2.146,2.646-3.034,4.088c-3.525,5.71-9.918,6.818-15.076,2.426
	c-1.272-1.083-2.598-2.414-3.207-3.912c-2.21-5.445-4.31-10.951-6.102-16.546c-1.652-5.163-0.222-10.429,0.35-15.606
	c0.378-3.428,0.618-6.714-0.358-10.1c-0.746-2.585-0.098-3.715,1.797-4.568c2.212-0.994,3.832-0.375,4.678,1.936
	c1.245,3.4,1.314,6.93,0.924,10.487c-0.315,2.866-0.525,5.749-0.979,8.592c-0.837,5.235,0.392,10.152,2.045,15.023
	c0.631,1.858,1.239,3.736,2.061,5.512c0.65,1.406,1.438,2.824,2.467,3.965c2.199,2.442,3.537,2.346,5.647-0.251
	c5.395-6.639,4.706-5.437,1.047-12.599c-1.067-2.086-1.899-4.291-2.858-6.431c-1.061-2.36-1.837-4.924-3.293-7.01
	c-2.017-2.89-2.715-5.744-2.102-9.223c0.653-3.717,1.107-7.484-0.381-11.248c-0.579-1.46-0.841-3.418,1.111-4.533
	c1.759-1.004,3.587-0.651,5.131,1.424c0.8,1.076,1.187,2.542,1.469,3.893c0.236,1.131,0.049,2.35,0.049,3.53
	C896.956,337.985,896.909,337.985,896.863,337.985z"/>
<path fill-rule="evenodd" clip-rule="evenodd" d="M692.661,373.032c0.82-1.761,1.084-3.588,1.971-3.969
	c1.77-0.761,3.819-0.516,5.578,0.742c2.335,1.669,4.743,3.237,7.102,4.875c2.678,1.86,5.664,1.89,8.675,1.351
	c2.444-0.438,4.847-1.122,7.259-1.734c5.227-1.325,9.787,0.067,14.046,3.171c2.855,2.082,4.307,4.793,4.715,8.247
	c1.076,9.055-3.377,17.243-11.494,21.41c-6.154,3.158-12.568,3.455-19.121,2.039c-3.479-0.752-6.877-1.255-10.474-1.051
	c-7.77,0.441-13.787-3.187-17.903-9.454c-2.774-4.224-3.109-9.121-0.634-13.865c0.969-1.86,2.082-3.659,2.877-5.59
	C686.722,375.645,688.993,373.223,692.661,373.032z M696.427,374.541c-5.04,2.573-6.917,7.026-8.681,11.545
	c-1.056,2.707-0.886,5.413,0.423,7.974c2.984,5.837,7.788,8.886,14.348,9.298c3.771,0.238,7.53,0.682,11.295,1.039
	c2.459,0.233,4.998,0.983,7.362,0.614c5.565-0.866,10.564-3.077,13.305-8.485c1.657-3.269,1.83-6.853,1.182-10.364
	c-0.962-5.208-7.232-8.894-12.373-7.585c-2.652,0.676-5.328,1.287-8.023,1.771c-5.686,1.021-10.907-0.101-15.565-3.618
	C698.664,375.948,697.543,375.283,696.427,374.541z"/>
<path fill-rule="evenodd" clip-rule="evenodd" d="M846.264,268.25c-2.985-4.552-3.198-9.421-2.357-14.178
	c0.932-5.275,3.307-10.017,6.107-14.719c2.464-4.138,3.317-9.256,4.735-13.986c0.482-1.608,0.509-3.354,0.757-5.034
	c0.978-6.665,7.475-9.584,13.324-6.146c8.49,4.988,9.548,13.641,6.377,20.404c-3.067,6.542-7.331,12.737-12.907,17.57
	c-2.697,2.337-6.097,4.009-9.415,5.431c-2.173,0.931-3.31,2.021-2.987,4.291C850.303,264.747,848.978,266.577,846.264,268.25z
	 M850.243,252.401c0.314,0.27,0.631,0.54,0.946,0.809c3.308-1.464,6.566-3.014,8.826-6.089c2.633-3.587,5.359-7.116,7.808-10.827
	c1.055-1.596,1.826-3.529,2.176-5.41c0.837-4.513-0.258-8.602-3.689-11.838c-2.18-2.053-3.704-1.625-4.401,1.206
	c-0.436,1.776-0.729,3.59-1.051,5.393c-1.352,7.598-2.453,15.236-8.094,21.273C851.461,248.313,851.059,250.551,850.243,252.401z"/>
<path fill-rule="evenodd" clip-rule="evenodd" d="M562.574,400.895c0.524-1.696,1.222-3.36,1.533-5.094
	c0.555-3.091,0.888-6.225,1.294-9.342c0.798-6.136-1.678-9.77-7.671-11.302c-1.137-0.29-2.32-0.5-3.373-0.981
	c-0.463-0.213-0.937-1.046-0.886-1.546c0.048-0.478,0.717-1.19,1.205-1.275c2.289-0.4,4.598-1.08,6.851,0.371
	c1.425,0.916,2.957,1.729,4.542,2.323c4.195,1.574,5.333,4.943,4.974,8.85c-0.48,5.21-1.284,10.398-2.153,15.562
	c-0.496,2.954-2.162,5.361-4.753,6.929c-4.3,2.603-8.613,0.716-9.35-4.211c-0.75-5.017-3.366-9.101-6.387-12.849
	c-1.481-1.839-3.972-2.916-6.107-4.164c-4.491-2.626-7.603-6.334-9.29-11.249c-0.901-2.623-0.958-5.226,0.784-7.494
	c2.146-2.794,4.196-5.764,6.802-8.079c4.802-4.265,12.684-2.498,15.756,3.168c0.873,1.609,1.912,3.133,2.695,4.782
	c0.282,0.592,0.312,1.658-0.045,2.105c-0.383,0.479-1.617,0.883-2.027,0.619c-1.258-0.81-2.436-1.845-3.383-3.004
	c-0.896-1.097-1.312-2.584-2.204-3.687c-2.149-2.658-5.428-3.194-7.988-1.028c-1.862,1.575-3.594,3.521-4.773,5.641
	c-2.146,3.861-0.034,9.712,4.27,12.687c1.397,0.966,2.841,1.99,4.418,2.546c5.277,1.86,8.072,6.052,10.302,10.723
	c1.062,2.225,1.624,4.686,2.488,7.011c0.278,0.746,0.804,1.399,1.215,2.096C561.734,400.967,562.154,400.931,562.574,400.895z"/>
<path fill-rule="evenodd" clip-rule="evenodd" d="M684.516,356.77c-5.278-0.414-9.013-2.48-10.374-6.723
	c-1.401-4.373-0.83-8.536,2.909-11.776c0.295-0.257,0.711-0.46,0.863-0.786c2.974-6.388,8.867-5.905,14.403-6
	c2.458-0.043,4.926,0.507,7.389,0.789c3.274,0.375,4.366,1.349,4.65,4.674c0.385,4.506-0.645,8.699-4.222,11.688
	c-2.775,2.321-5.798,4.427-8.963,6.173C689.193,355.901,686.75,356.146,684.516,356.77z M686.295,336.034
	c1.537,3.618,1.202,4.259-2.277,4.671c-0.519,0.062-1.042,0.098-1.563,0.129c-1.929,0.111-2.679,1.273-2.904,3.059
	c-0.362,2.863,0.579,5.279,2.825,6.91c2.035,1.477,4.623,1.483,6.705,0.265c2.447-1.431,4.674-3.313,6.773-5.243
	c3.02-2.779,3.294-5.065,1.435-9.274C693.722,336.276,690.136,334.419,686.295,336.034z"/>
<path fill-rule="evenodd" clip-rule="evenodd" d="M805.761,251.416c0-2.088-0.139-4.19,0.057-6.26
	c0.102-1.079,0.499-2.616,1.271-3.061c3.14-1.806,6.336-3.616,10.237-3.284c1.679,0.142,2.557,0.911,3.215,2.355
	c2.302,5.059,0.308,15.062-3.871,18.63c-1.994,1.703-4.465,2.165-7,1.838c-2.307-0.297-3.74-2.25-3.713-4.749
	c0.01-0.911,0.185-1.822,0.188-2.734c0.005-0.912-0.107-1.824-0.17-2.736C805.904,251.416,805.832,251.416,805.761,251.416z
	 M812.544,254.562c2.342-2.285,2.922-4.218,2.655-8.086c-0.095-1.359,0.062-2.94-2.258-3.349
	C811.128,246.822,812.205,250.465,812.544,254.562z"/>
<path fill-rule="evenodd" clip-rule="evenodd" d="M705.326,278.802c-4.728-0.097-7.882-3.157-7.575-7.257
	c0.207-2.764,1.477-5.459,2.37-8.153c0.19-0.576,0.747-1.379,1.229-1.45c2.685-0.395,3.598-2.593,5.05-4.385
	c1.825-2.257,4.596-2.278,7.216-1.937c2.582,0.336,4.186,2.144,5.02,4.453c0.312,0.86,0.072,2.108-0.319,3.004
	c-2.378,5.44-5.557,10.375-10.027,14.335C707.298,278.287,705.801,278.589,705.326,278.802z M705.462,273.417
	c3.559-2.813,5.069-6.942,7.15-10.647c0.244-0.435-0.171-1.667-0.643-1.977c-0.647-0.424-1.768-0.651-2.462-0.384
	c-2.774,1.068-4.203,3.587-5.126,6.113C703.585,268.699,702.695,271.343,705.462,273.417z"/>
<path fill-rule="evenodd" clip-rule="evenodd" d="M638.425,250.594c0.987-0.172,1.979-0.319,2.959-0.526
	c0.893-0.189,1.761-0.567,2.658-0.645c2.734-0.236,5.507-0.628,7.185,2.469c1.5,2.769,1.682,7.226-0.537,9.188
	c-3.188,2.818-6.771,5.232-10.371,7.525c-1.522,0.969-3.299,0.22-4.66-1.019c-2.102-1.914-3.419-4.259-3.796-7.089
	c-0.257-1.938-0.401-3.892-0.683-5.825c-0.242-1.666,0.253-2.824,1.935-3.313c1.711-0.499,3.43-0.975,5.146-1.459
	C638.317,250.13,638.371,250.362,638.425,250.594z M638.933,263.251c2.688-0.529,4.709-1.929,6.242-3.904
	c0.655-0.845,1.044-2.114,1.058-3.196c0.027-2.055-0.991-2.826-3.007-2.339c-2.113,0.51-4.163,1.288-6.272,1.959
	C636.877,258.691,636.839,261.236,638.933,263.251z"/>
<path fill-rule="evenodd" clip-rule="evenodd" d="M1231.94,688.653c2.467,2.012,2.111,3.027,0,4.183
	C1231.94,691.456,1231.94,690.432,1231.94,688.653z"/>
<path fill-rule="evenodd" clip-rule="evenodd" d="M1222.342,692.779c-0.202,0.091-0.404,0.182-0.604,0.273
	c-0.091-0.271-0.181-0.542-0.271-0.814c0.222-0.028,0.496-0.145,0.649-0.056C1222.259,692.266,1222.271,692.57,1222.342,692.779z"/>
<path fill-rule="evenodd" clip-rule="evenodd" d="M847.061,509.018c-1.814-4.085-4.082-7.097-8.291-7.46
	c-4.87-0.418-7.869-2.887-10.059-7.058c-1.999-3.808-2.929-3.955-6.899-2.053c-1.535,0.735-2.998,1.618-4.5,2.419
	c-5.269,2.809-9.824,2.041-13.77-2.359c-1.488-1.66-2.87-3.415-4.351-5.08c-2.367-2.66-5.312-3.312-8.558-2.019
	c-2.303,0.917-4.562,2.011-6.696,3.267c-5.24,3.084-10.739,3.819-16.662,2.554c-4.848-1.036-9.738-2.508-14.746-1.175
	c-2.629,0.701-5.181,1.761-7.687,2.847c-3.841,1.666-7.548,3.657-11.429,5.214c-5.121,2.053-10.275,1.731-15.277-0.604
	c-2.494-1.165-5.005-2.3-7.432-3.596c-3.929-2.098-7.711-2.289-11.465,0.387c-1.169,0.833-2.506,1.432-3.664,2.279
	c-6.473,4.74-13.743,6.128-21.609,5.516c-4.159-0.324-8.372-0.52-12.52-0.215c-2.085,0.152-4.318,1.213-6.067,2.452
	c-4.284,3.033-8.652,4.536-13.982,3.212c-11.778-2.923-23.745-1.696-35.636-0.988c-10.227,0.608-20.262,2.682-30.212,5.082
	c-4.816,1.162-9.599,2.465-14.398,3.695c-2.321,0.594-5.522-0.729-6.106-2.505c-0.656-1.999,1.029-3.997,4.134-4.761
	c0.858-0.211,1.872-0.414,2.666-0.157c3.177,1.025,6.236,0.205,9.318-0.344c9.792-1.745,19.523-4.017,29.385-5.153
	c13.542-1.561,27.18-2.19,40.763,0.092c4.081,0.686,7.798,0.502,11.558-2.08c4.982-3.423,10.865-4.422,16.947-3.75
	c2.736,0.303,5.478,0.552,8.218,0.82c5.196,0.51,9.809-1.088,14.162-3.797c2.668-1.66,5.365-3.317,8.198-4.661
	c4.497-2.134,9.043-2.335,13.562,0.237c2.5,1.424,5.111,2.678,7.753,3.82c4.557,1.968,9.133,2.199,13.626-0.3
	c1.948-1.083,3.984-2.022,5.869-3.204c7.198-4.513,15.061-4.943,23.163-3.85c2.072,0.28,4.11,0.83,6.157,1.278
	c3.309,0.723,6.476,0.632,9.496-1.192c2.015-1.216,4.076-2.439,6.267-3.254c2.545-0.946,5.216-1.747,7.898-2.081
	c4.328-0.537,7.954,1.107,10.77,4.5c1.422,1.713,2.881,3.401,4.423,5.003c1.911,1.985,3.027,2.18,5.602,1.002
	c2.144-0.981,4.192-2.169,6.339-3.144c5.763-2.618,9.419-1.759,12.835,3.389c2.069,3.117,4.362,5.199,8.339,5.661
	c4.711,0.548,7.584,3.981,9.431,8.068c1.497,3.318,2.738,6.787,3.674,10.301c0.285,1.07-0.634,3.492-1.321,3.624
	c-5.022,0.967-7.439,5.249-10.778,8.206c-5.864,5.193-12.365,8.909-20.104,9.973c-3.181,0.437-6.659,0.341-9.742-0.483
	c-7.13-1.908-14.035-1.631-20.852,0.903c-6.623,2.462-13.343,2.974-20.074,0.993c-8.409-2.473-16.01-0.613-23.43,3.394
	c-2.528,1.365-5.28,2.312-7.896,3.521c-6.392,2.952-12.852,2.354-18.434-1.289c-8.817-5.756-17.548-4.964-26.659-1.474
	c-3.423,1.312-6.846,2.65-10.342,3.738c-6.475,2.014-12.916,1.855-19.23-0.797c-1.087-0.457-2.226-0.795-3.31-1.258
	c-6.506-2.779-12.517-1.749-18.25,2.175c-3.673,2.515-7.35,5.062-11.226,7.236c-5.712,3.201-11.65,3.807-17.61,0.442
	c-0.57-0.321-1.214-0.518-1.766-0.865c-5.735-3.595-11.895-3.546-18.242-2.247c-3.846,0.788-7.7,1.598-11.59,2.091
	c-4.209,0.534-8.034-0.697-11.364-3.38c-2.142-1.726-4.183-3.616-6.493-5.081c-2.174-1.379-4.605-2.379-6.986-3.396
	c-2.747-1.175-5.597-2.11-8.34-3.293c-2.801-1.208-4.596-3.637-5.772-6.225c-1.45-3.188-3.419-5.836-5.879-8.243
	c-1.826-1.787-1.833-2.734-0.339-4.228c1.681-1.681,3.679-1.956,5.123-0.295c1.788,2.057,3.295,4.369,4.815,6.644
	c0.941,1.41,1.488,3.118,2.562,4.396c1.151,1.371,2.528,2.887,4.127,3.49c10.515,3.97,20.966,4.259,30.93-1.695
	c5.198-3.107,10.612-4.828,16.737-4.765c7.297,0.074,14.201-1.752,20.876-4.841c5.731-2.652,11.799-4.548,18.274-3.013
	c2.015,0.478,4.025,1.216,5.854,2.181c6.353,3.352,12.933,5.537,20.241,5.589c4.304,0.031,8.616,0.717,12.896,1.324
	c2.727,0.386,5.27-0.036,7.64-1.209c3.753-1.859,7.522-3.739,11.065-5.961c7.424-4.658,15.407-7.135,24.185-7.021
	c7.424,0.098,14.629-1.51,21.647-3.569c7.825-2.297,15.516-1.744,23.34-0.58c4.395,0.654,8.833,1.521,13.24,1.462
	c7.522-0.1,14.916,0.691,22.277,1.97c3.411,0.593,6.448-0.147,9.533-1.461c6.539-2.788,13.232-5.107,20.502-4.563
	c2.982,0.223,5.936,0.834,8.903,1.265C845.067,508.765,845.806,508.854,847.061,509.018z M848.238,516.054
	c-2.963-1.036-5.054-4.322-8.886-2.523c-0.395,0.185-1.144,0.086-1.493-0.184c-3.339-2.57-7.037-1.665-10.511-0.805
	c-4.044,1.001-8.037,2.375-11.867,4.019c-4.515,1.935-8.931,2.46-13.765,1.371c-3.812-0.858-7.793-1.406-11.687-1.339
	c-7.517,0.13-14.875-0.589-22.244-2.031c-6.587-1.288-13.172-1.476-19.833,0.524c-7.784,2.337-15.799,3.692-24.016,3.688
	c-7.773-0.005-14.948,2.125-21.492,6.521c-3.352,2.253-7.125,3.873-10.633,5.906c-3.571,2.069-7.364,2.506-11.379,2.083
	c-6.764-0.711-13.543-1.283-20.3-2.052c-1.931-0.219-3.897-0.695-5.689-1.437c-3.258-1.349-6.435-2.914-9.579-4.518
	c-4.305-2.196-8.682-2.821-13.278-1.053c-2.324,0.895-4.723,1.627-6.967,2.69c-7.019,3.328-14.496,4.508-22.137,4.674
	c-4.344,0.095-8.329,1.082-11.908,3.435c-5.163,3.394-10.77,5.321-16.916,5.766c-0.166,0.011-0.307,0.349-0.638,0.752
	c4.009,4.65,8.745,7.779,15.208,7.048c2.713-0.307,5.376-1.104,8.046-1.743c6.94-1.661,13.737-1.771,20.336,1.483
	c2.105,1.04,4.338,1.837,6.551,2.642c2.697,0.979,5.361,1.052,7.93-0.529c2.223-1.368,4.525-2.609,6.746-3.98
	c2.675-1.65,5.23-3.504,7.963-5.048c6.431-3.63,13.201-3.89,20.13-1.621c2.114,0.692,4.172,1.557,6.286,2.255
	c4.595,1.515,9.208,1.836,13.873,0.204c5.558-1.946,11.118-3.889,16.723-5.692c6.651-2.141,13.162-1.683,19.497,1.362
	c2.355,1.133,4.868,1.943,7.217,3.091c4.544,2.22,8.922,1.413,13.249-0.527c3.349-1.5,6.642-3.123,9.968-4.674
	c6.396-2.984,12.948-3.742,19.896-2.013c6.419,1.598,12.894,2.003,19.335-0.401c7.565-2.822,15.262-3.061,23.191-1.257
	C827.496,534.946,840.448,528.298,848.238,516.054z"/>
</svg>
