<?xml version="1.0" encoding="utf-8"?>
<!-- Generator: Adobe Illustrator 16.0.0, SVG Export Plug-In . SVG Version: 6.00 Build 0)  -->
<!DOCTYPE svg PUBLIC "-//W3C//DTD SVG 1.1//EN" "http://www.w3.org/Graphics/SVG/1.1/DTD/svg11.dtd">
<svg version="1.1" id="Layer_1" xmlns="http://www.w3.org/2000/svg" xmlns:xlink="http://www.w3.org/1999/xlink" x="0px" y="0px"
	 width="1400px" height="1400px" viewBox="0 0 1400 1400" enable-background="new 0 0 1400 1400" xml:space="preserve">
<g>
	<path class="path" fill-rule="evenodd" clip-rule="evenodd" stroke="#FFFFFF" stroke-width="4" d="M342.218,336.487
		c23.367,3.354,46.729,6.707,72.893,10.462c-5.973-25.188-27.342-39.707-40.365-62.168c5.54-0.396,9.487-1.666,12.862-0.771
		c32.576,8.662,65.008,17.871,97.592,26.506c10.009,2.657,13.119,7.993,13.751,18.493c2.001,33.208,5.542,66.325,8.734,99.453
		c0.265,2.732,2.395,5.282,5.432,11.609c3.247-7.95,5.649-12.423,6.925-17.202c4.845-18.16,11.418-24.707,29.997-26.33
		c14.989-1.307,30.106-1.141,45.166-1.666c4.561-0.161,9.181-0.026,13.666-0.723c13.724-2.138,16.472-7.741,7.178-17.523
		c-8.989-9.456-7.947-16.366-0.204-25.907c6.477-7.972,11.48-17.635,14.946-27.332c1.591-4.446-2.079-10.772-3.364-16.248
		c-5.301,1.275-12.705,0.798-15.498,4.152c-7.73,9.283-14.593,19.665-19.76,30.572c-4.095,8.651-8.488,8.287-14.831,4.205
		c-15.295-9.846-25.95-33.144-22.677-49.675c4.004-20.218,18.441-30.107,36.875-33.873c15.121-3.091,30.773-3.643,46.207-5.105
		c9.729-0.921,11.681-3.583,7.937-14.056c-11.333-31.72-11.22-52.741,13.855-79.429c24.686-26.271,51.493-31.114,81.684-17.619
		c5.148,2.303,10.998,3.037,18.605,5.041c-0.375-7.099-1.36-11.99-0.734-16.661c1.902-14.234,2.571-29.019,7.184-42.395
		c5.743-16.666,26.562-25.012,43.156-18.809c11.824,4.419,23.229,10.227,34.265,16.408c42.373,23.742,26.275,74.564,0.348,92.334
		c-6.021,4.125-11.973,8.41-18.278,12.063c-7.612,4.409-7.677,9.814-2.459,15.669c36.31,40.756,60.395,88.482,80.72,138.624
		c6.67,16.457,24.803,24.948,38.962,26.458c32.662,3.477,43.682,24.214,51.251,50.324c10.649,36.738,19.724,73.969,31.562,110.301
		c5.84,17.919,18.852,33.556,24.252,51.54c9.429,31.424,27.904,41.538,60.598,42.856c32.813,1.318,49.543,16.403,52.119,53.227
		c0.762,10.907,4.323,22.542,9.793,31.993c9.338,16.135,18.026,17.33,35.773,12.026c18.729-5.593,37.763-10.581,57.005-13.811
		c6.439-1.082,17.78,2.218,19.965,6.81c2.759,5.801,0.772,16.639-3.319,22.307c-7.072,9.797-16.619,18.261-26.411,25.559
		c-26.352,19.616-28.446,35.751-4.538,57.544c14.438,13.157,30.879,24.086,45.947,36.589c18.472,15.315,29.31,34.339,27.295,59.404
		c-1.838,22.875-14.608,35.827-37.611,36.225c-34.891,0.6-64.076-13.56-91.643-33.954c-49.334-36.508-77.512-88.17-106-140.349
		c-32.379-59.312-46.606-124.052-61.66-188.813c-5.441-23.426-13.343-45.422-29.398-65.195
		c-16.752-20.625-28.479-45.347-42.16-68.426c-4.168-7.034-3.429-12.68,3.562-19.012c10.617-9.616,13.033-22.81,7.918-36.326
		c-4.778-12.621-15.477-14.983-27.096-11.935c-8.657,2.276-14.186,0-20.465-6.129c-14.598-14.255-35.698-13.189-50.146,1.398
		c-11.422,11.539-11.625,34.928,2.335,46.81c10.361,8.818,23.534,15.381,36.535,19.725c10.388,3.472,14.656,8.181,13.403,18.343
		c-2.181,17.608-4.854,35.158-6.894,52.777c-1.463,12.638-2.476,25.339-3.263,38.041c-2.148,34.456-3.402,68.982-6.295,103.369
		c-2.138,25.36-4.302,51.031-10.222,75.652c-4.451,18.52-13.917,36.117-23.014,53.132c-5.4,10.091-17.608,17.778-27.61,11.521
		c-8.132-5.084-14.821-17.618-16.07-27.609c-3.707-29.667,6.032-57.572,16.07-85.214c16.479-45.374,33.605-90.598,47.538-136.77
		c4.153-13.763-1.156-30.503-2.715-45.819c-1.018-9.932-3.831-19.708-4.527-29.646c-0.964-13.768-6.723-23.646-18.23-31.547
		c-41.228-28.323-26.146-84.958,14.812-95.238c9.89-2.485,10.222-8.362,6.805-16.644c-19.613-47.522-45.605-90.984-82.269-127.354
		c-8.433-8.362-7.891-15.096-2.148-23.919c7.174-11.014,14.469-22.065,20.281-33.803c4.259-8.604,3.622-17.785-5.163-24.953
		c-22.569,9.739-21.311,34.692-31.382,49.975c-19.854-7.901-38.034-18.042-57.497-22.237c-33.926-7.318-75.243,9.241-76.986,55.633
		c-0.107,2.786,1.58,5.636,3.463,11.876c5.172-6.835,9.003-10.933,11.735-15.658c16.269-28.173,40.825-39.197,72.557-35.539
		c15.995,1.843,28.343,17.469,27.073,34.028c-2.073,27.037-21.171,42.508-40.345,57.331c-2.876,2.223-10.247-1.361-16.879-2.492
		c10.95-12.144,19.918-22.012,28.768-31.986c1.488-1.682,2.523-3.793,3.664-5.765c5.946-10.328,8.684-23.019-0.633-30.187
		c-6.251-4.811-19.258-4.355-27.941-1.816c-24.726,7.237-36.417,25.912-38.115,51.111c-1.662,24.637-5.827,28.998-30.471,29.684
		c-10.942,0.305-21.958,0.214-32.86-0.676c-19.242-1.574-32.53,8.191-41.932,22.987c-3.292,5.18-2.331,13.795-1.412,20.577
		c0.391,2.893,5.351,6.139,8.844,7.172c1.484,0.44,5.062-4.055,6.774-6.862c9.38-15.417,20.56-28.039,40.417-28.623
		c13.826-0.413,19.135,3.98,20.919,17.753c2.244,17.357-0.745,34.151-10.184,48.535c-6.166,9.401-4.735,17.26-0.444,25.43
		c20.847,39.717,11.897,98.612-20.276,129.398c-10.452,10.007-21.557,18.396-37.794,12.905c-3.011-1.018-7.411,2.068-11.169,3.263
		c1.21,3.503,1.738,7.462,3.736,10.436c22.646,33.675,45.778,67.134,52.137,108.533c0.793,5.143-1.436,10.757-2.266,16.151
		c-5.812-2.18-13.563-2.699-17.102-6.824c-16.851-19.651-33.843-39.417-48.206-60.873c-9.447-14.11-14.496-31.162-21.541-46.89
		c-3.857-8.614-6.605-16.649-19.658-9.315c-8.483,4.762-20.292,5.154-27.57-4.328c-7.136-9.295-3.777-19.04,2.153-27.98
		c0.753-1.136,1.366-2.635,2.448-3.246c19.554-11.003,15.905-26.18,11.954-44.94c-7.958-37.778-12.613-76.338-16.909-114.764
		c-1.393-12.487-5.499-19.274-17.234-22.504c-19.183-5.287-38.233-11.046-57.341-16.607c-1.098,1.195-2.202,2.389-3.3,3.584
		c11.48,19.58,22.958,39.154,34.435,58.729c-1.068,1.136-2.137,2.277-3.206,3.413c-21.479-5.486-42.955-10.977-64.435-16.468
		c-0.779,1.189-1.562,2.374-2.343,3.562c2.293,4.612,3.905,9.75,6.991,13.746c13.618,17.619,28.055,34.612,41.26,52.521
		c3.332,4.516,5.381,12,4.317,17.383c-4.763,24.161-11.1,48.01-16.36,72.079c-1.969,9.005-6.745,11.132-14.791,8.48
		c-39.423-12.991-73.825-33.514-98.907-67.386c-11.084-14.967-21.107-30.722-31.803-45.985c-1.374-1.96-3.918-3.101-8.322-6.45
		c0,5.309-0.29,8.095,0.048,10.8c1.782,14.25,6.579,28.831,4.908,42.636c-2.234,18.514,5.067,31.419,15.476,44.629
		c48.455,61.499,106.581,113.756,160.641,169.925c33.026,34.317,61.553,72.963,92.023,109.733
		c8.41,10.146,17.241,20.057,24.604,30.938c7.176,10.606,5.089,14.683-7.339,16.002c-41.755,4.43-83.586,8.175-125.328,12.733
		c-31.698,3.46-63.296,7.826-94.953,11.656c-20.325,2.465-40.639,5.276-61.038,6.755c-9.812,0.713-14.566,5.422-18.254,13.602
		c-15.589,34.58-47.428,36.059-78.065,34.821c-25.226-1.019-43.879-16.355-54.432-39.878c-5.433-12.107-2.963-16.789,9.83-19.42
		c5.783-1.189,11.759-1.746,17.667-1.928c12.97-0.407,24.354-0.755,31.436-15.899c2.909-6.22,15.776-10.72,24.16-10.8
		c14.19-0.134,17.158-4.913,17.56-18.434c1.474-49.221,4.291-98.409,7.152-147.576c2.239-38.485,1.096-76.686-7.125-114.448
		c-3.595-16.51-8.32-18.364-23.046-9.911c-28.055,16.104-64.207,12.89-89.409-7.949c-22.507-18.61-31.323-54.443-22.82-83.489
		c19.461-66.497,82.803-83.157,141.958-70.252c35.284,7.699,56.294,31.082,72.448,61.252c17.644,32.952,43.502,57.01,79.346,69.459
		c23.073,8.008,23.158,8.111,30.342-16.104c3.107-10.478,7.232-21.01,7.953-31.719c0.56-8.325-1.045-18.755-5.833-25.141
		c-18.852-25.129-39.361-49.017-59.192-73.418c-1.865-2.292-3.271-4.956-4.892-7.452
		C341.272,339.535,341.746,338.014,342.218,336.487z M215.157,488.477c0.584,1.141,3.389,4.521,4.061,8.288
		c5.357,30.021,13.486,59.993,14.611,90.212c1.522,40.922-2.378,82.053-4.044,123.089c-1.425,35.142-2.716,70.3-4.58,105.421
		c-1.055,19.896-1.521,19.868-20.818,15.102c-12.937-3.198-21.281,0.349-22.725,12.021c-1.419,11.464-8.525,12.695-17.093,13.327
		c-8.176,0.6-16.388,0.777-24.541,1.56c-7.176,0.691-8.941,5.293-4.54,10.307c11.863,13.499,26.914,23.195,45.125,21.283
		c19.912-2.089,40.649-5.957,47.769-29.736c2.319-7.758,6.086-12.006,15.016-13.013c42.128-4.74,84.175-10.211,126.239-15.524
		c50.647-6.392,101.272-12.969,151.931-19.275c11.598-1.439,11.432-6.996,5.748-14.629c-5.448-7.313-11.167-14.438-17.035-21.417
		c-35.172-41.851-69.187-84.77-106.085-125.04c-24.511-26.752-54.625-48.336-79.59-74.731c-24.35-25.74-44.493-55.429-68.182-81.86
		c-11.467-12.798-15.005-23.667-8.429-40.033c8.167-20.33-13.537-62.324-34.443-73.305c-40.395-21.22-116.566,1.237-123.182,64.477
		c-2.651,25.339,4.361,47.136,23.437,62.511c22.446,18.09,48.267,21.08,73.501,4.028C197,504.992,205.448,496.608,215.157,488.477z
		 M1054.328,638.64c0.128-0.316-0.745,0.905-0.771,2.143c-0.049,2.255,0.144,4.585,0.686,6.771
		c14.158,57.502,31.612,113.648,64.665,163.765c25.022,37.928,48.191,76.97,86.585,104.104
		c23.153,16.364,47.009,27.379,75.883,24.781c23.42-2.106,33.813-17.202,25.044-38.347c-3.558-8.571-9.074-17.04-15.728-23.452
		c-10.432-10.05-22.887-17.963-33.927-27.428c-10.302-8.845-21.026-17.604-29.513-28.065c-13.123-16.194-11.389-34.141,3.375-49.065
		c9.906-10.013,20.834-19.007,30.804-28.965c3.15-3.145,4.665-7.924,6.926-11.952c-5.035-0.782-10.444-3.129-15.03-2.03
		c-10.982,2.636-21.552,6.98-32.33,10.483c-36.038,11.722-58.644,1.248-71.174-33.732c-2.374-6.638-2.138-14.298-2.588-21.524
		c-1.408-22.725-11.844-37.865-30.963-40.885C1096.032,642.041,1075.487,640.809,1054.328,638.64z M531.286,454.487
		c0,3.187-0.021,6.369,0.002,9.557c0.163,20.035,4.312,22.917,22.779,16.022c28.63-10.676,48.572-31.178,63.824-56.79
		c5.549-9.321,1.473-16.333-9.703-15.754c-13.995,0.723-28.07,2.1-41.838,4.666C534.765,418.08,531.294,422.719,531.286,454.487z
		 M894.688,613.066c-1.076-0.248-2.148-0.494-3.225-0.74c-2.068,3.638-4.516,7.109-6.134,10.933
		c-6.337,15.022-12.695,30.042-18.524,45.262c-11.058,28.869-22.788,57.685-22.73,89.296c0.017,9.091-5.409,22.312,9.392,24.733
		c14.089,2.299,14.78-11.186,17.668-20.046c14.779-45.319,20.827-92.281,24.867-139.551
		C896.273,619.718,895.159,616.366,894.688,613.066z M836.812,168.442c18.894-8.93,26.807-41.881,14.217-53.693
		c-11.587-10.875-25.697-20.678-40.472-26.18c-22.479-8.362-39.782,5.485-40.312,29.758c-0.209,9.429,1.414,19.007,3.269,28.307
		c0.642,3.241,4.483,5.844,6.861,8.737c2.572-2.266,5.786-4.114,7.591-6.878c4.956-7.591,8.396-16.344,14.147-23.201
		c7.266-8.657,17.33-11.683,28.388-6.916c10.966,4.719,11.803,13.821,9.976,24.106C839.109,150.186,838.263,157.975,836.812,168.442
		z M626.727,444.34c-7.792,8.716-14.477,18.091-23.021,25.242c-8.979,7.511-19.845,12.734-29.659,19.296
		c-4.01,2.684-7.422,6.263-11.108,9.434c4.679,3.091,9.008,7.977,14.097,8.973c26.054,5.111,60.938-36.208,52.365-61.413
		C629.292,445.556,628.656,445.422,626.727,444.34z M600.132,625.392c-0.086-22.451-40.955-88.976-57.503-94.718
		C539.453,550.179,580.584,618.974,600.132,625.392z M1001.979,505.85c-0.787-4.612-1.076-9.385-2.453-13.811
		c-3.621-11.614-7.248-23.266-11.887-34.488c-1.484-3.578-6.14-5.85-9.344-8.716c-2.646,4.334-8.421,9.643-7.425,12.852
		C976.271,479.123,983.99,495.607,1001.979,505.85z M898.187,502.298c1.826-0.021,3.653-0.037,5.479-0.059
		c7.158-7.912,5.305-17.571,3.021-26.967c-0.385-1.596-4.66-3.712-6.354-3.166c-2.405,0.776-5.888,3.926-5.753,5.844
		C895.148,486.108,896.879,494.187,898.187,502.298z M518.416,500.284c-9.956,2.411-17.507,6.337-17.917,17.287
		c-0.051,1.356,6.168,4.854,8.038,4.04C516.991,517.935,522.471,511.908,518.416,500.284z"/>
</g>
</svg>
