<?xml version="1.0" encoding="utf-8"?>
<!-- Generator: Adobe Illustrator 16.0.4, SVG Export Plug-In . SVG Version: 6.00 Build 0)  -->
<!DOCTYPE svg PUBLIC "-//W3C//DTD SVG 1.1//EN" "http://www.w3.org/Graphics/SVG/1.1/DTD/svg11.dtd">
<svg version="1.1" id="Layer_1" xmlns="http://www.w3.org/2000/svg" xmlns:xlink="http://www.w3.org/1999/xlink" x="0px" y="0px"
	 width="612px" height="792px" viewBox="0 0 612 792" enable-background="new 0 0 612 792" xml:space="preserve">
<path fill-rule="evenodd" clip-rule="evenodd" d="M434.459,506.312c-1.592-7.012-3.184-14.023-4.841-21.321
	c1.591,3.371,2.941,6.648,4.677,9.709c0.691,1.218,2.357,2.838,3.354,2.695c1.368-0.195,2.981-1.652,3.681-2.992
	c2.016-3.862,3.627-7.938,6.051-11.721c-2.934,7.734-6.932,15.179-4.494,23.653c3.405-4.197,6.9-8.877,10.776-13.218
	c14.965-16.761,29.813-33.755,48.505-46.524c10.95-7.481,22.778-13.665,36.057-16.279c7.471-1.471,14.784,1.843,15.262,7.399
	c0.391,4.543,0.189,9.324-0.829,13.751c-1.134,4.922-3.734,9.485-5.269,14.341c-3.917,12.393-7.393,24.927-11.438,37.276
	c-2.881,8.794-6.769,16.764-18.353,16.145c-3.876-0.207-7.816,0.766-12.372,1.271c4.632,2.838,8.91,5.414,13.142,8.064
	c6.535,4.095,10.177,9.839,11.758,17.57c2.604,12.735,1.453,25.145-6.421,35.072c-7.385,9.311-16.8,17.344-29.393,19.806
	c-3.221,0.63-6.349,1.939-9.586,2.249c-8.413,0.806-14.209-3.451-18.506-10.305c-7.397-11.801-14.85-23.566-23.085-36.626
	c0,5.517,0.019,9.702-0.008,13.888c-0.013,1.997,0.376,4.183-0.306,5.938c-0.667,1.719-2.464,2.999-3.765,4.473
	c-1.328-1.444-3.529-2.734-3.816-4.361c-0.804-4.558-0.835-9.253-1.13-13.897c-0.079-1.252-0.012-2.514-0.923-4.069
	c-5.654,9.639-11.285,19.291-16.979,28.906c-2.027,3.425-4.035,6.884-6.356,10.107c-4.473,6.212-12.022,8.754-19.387,6.708
	c-5.229-1.452-10.783-2.319-15.535-4.739c-5.352-2.726-9.771-7.223-14.952-10.359c-5.479-3.316-8.269-8.598-10.296-13.968
	c-7.835-20.751-4.017-40.509,19.254-50.799c0.684-0.303,1.364-0.613,1.946-2.182c-4.017,0-8.037,0.106-12.049-0.023
	c-7.049-0.228-13.188-2.132-15.866-9.599c-1.83-5.102-3.462-10.276-5.351-15.356c-3.775-10.154-7.158-20.501-11.672-30.322
	c-3.672-7.991-5.576-16.167-5.648-24.754c-0.032-3.91,2.734-7.236,6.642-7.712c4.659-0.567,9.74-0.825,14.173,0.431
	c19.483,5.517,36.618,15.444,51.088,29.654c12.104,11.885,23.939,24.042,35.811,36.16c1.885,1.924,3.331,4.276,4.979,6.431
	C433.479,506.691,433.969,506.501,434.459,506.312z M415.04,561.056c-4.523,8.236-9.205,16.393-13.435,24.777
	c-0.821,1.627,0.119,4.144,0.247,6.25c2.387-0.686,4.773-1.371,7.16-2.057c1.218-1.629,2.814-3.097,3.585-4.914
	c2.64-6.221,4.676-12.71,7.521-18.827c4.306-9.257,7.998-18.607,7.579-29.301c-0.805,2.526-1.609,5.053-2.414,7.579
	C421.869,550.061,418.455,555.559,415.04,561.056z M453.899,545.57c-1.689-2.818-3.379-5.637-5.79-9.657
	c0.753,4.424,0.765,7.536,1.832,10.229c4.55,11.489,9.376,22.869,14.186,34.253c1.217,2.882,2.175,6.231,4.305,8.26
	c1.803,1.715,5.128,1.829,7.78,2.652c0.146-2.368,1.255-5.274,0.28-7.015c-5.488-9.803-11.478-19.325-17.297-28.942
	C457.431,552.091,455.665,548.83,453.899,545.57z M430.89,536.688c-0.673,18.069-11.651,32.727-16.089,49.484
	c5.565-9.408,11.149-18.793,16.232-28.442C434.645,550.875,433.313,543.71,430.89,536.688z M462.093,583.511
	c-4.201-16.198-15.417-29.746-15.907-47.175c-2.963,7.809-2.921,15.947,0.231,21.35
	C451.492,566.382,456.853,574.911,462.093,583.511z M485.745,524.303c-12.773-0.601-24.463-1.149-36.151-1.698
	C461.303,523.324,472.541,531.526,485.745,524.303z M391.03,525.932c13.153,6.071,23.972-1.562,35.389-2.896
	C414.984,523.971,403.551,524.907,391.03,525.932z M369.408,457.152c-0.859,4.146,1.631,5.513,4.335,6.392
	c0.74,0.241,1.906-0.827,2.877-1.295c-1.607-1.652-3.165-3.362-4.865-4.914C371.383,456.995,370.499,457.216,369.408,457.152z
	 M503.724,454.353c-1.851,1.868-3.701,3.737-5.552,5.605c0.834,0.592,1.839,1.83,2.473,1.662
	C503.473,460.873,505.913,459.521,503.724,454.353z M525.218,456.546c0.623,4.281,3.064,4.804,6.57,3.971
	C531.873,455.176,528.567,456.141,525.218,456.546z"/>
<path fill-rule="evenodd" clip-rule="evenodd" d="M445.737,302.774c-0.691-1.148-1.383-2.298-1.917-3.185
	c-0.547,7.182-0.961,14.391-1.776,21.555c-0.138,1.205-1.957,3.004-3.098,3.081c-1.064,0.072-3.023-1.628-3.261-2.813
	c-0.843-4.208-1.006-8.548-1.645-12.805c-0.525-3.499-1.361-6.952-2.06-10.425c-0.623-0.037-1.246-0.075-1.869-0.112
	c-1.281,5.285-2.548,10.574-3.847,15.854c-3.279,13.326-6.401,26.695-9.984,39.939c-0.864,3.193-0.773,8.561-7.096,6.902
	c-0.359-0.095-1.87,2.491-2.107,3.95c-0.841,5.152-3.117,6.229-7.941,5.105c-5.157-1.201-10.736-2.259-15.86-1.514
	c-6.599,0.958-6.965,7.6-8.213,12.807c-0.689,2.876-0.347,6.022-1.195,8.827c-0.476,1.572-2.395,3.718-3.733,3.77
	c-1.805,0.069-4.291-1.214-5.311-2.714c-0.712-1.046-0.049-3.995,1.022-5.126c6.09-6.427,7.543-14.653,9.038-22.749
	c1.118-6.052-1.865-10.113-7.114-12.694c-1.379-0.678-2.973-3.513-2.577-4.758c1.711-5.397-2.003-8.679-5.192-10.341
	c-5.603-2.92-4.706-5.919-1.882-10.058c-0.72-0.924-1.395-1.822-2.104-2.693c-4.939-6.066-4.851-6.404-0.496-12.923
	c1.811-2.711,3.064-5.794,4.778-9.106c-15.026-4.215-18.118-17.519-23.554-29.294c-4.485-9.715-7.791-20.088-15.357-28.292
	c-3.397-3.683-6.141-8.317-7.986-12.992c-2.281-5.771-0.188-9.642,5.52-12.035c10.816-4.538,21.974-6.021,33.558-3.266
	c21.709,5.165,39.575,17.192,55.363,32.225c8.951,8.523,16.426,18.599,23.971,27.29c-1.571-2.606-0.786-6.166,2.218-9.208
	l-0.11,0.095c3.073,1.826,5.354,1.129,7.274-1.912c2.203-3.484,4.691-6.789,7.971-9.594c-2.813,4.215-5.628,8.431-7.554,11.315
	c0.388,4.334,0.656,7.332,0.927,10.36c0.093-0.106,0.633-0.601,1.02-1.194c18.206-27.96,42.532-48.18,74.541-58.475
	c12.5-4.021,24.891-2.854,36.876,2.391c6.091,2.665,7.998,6.255,5.654,12.368c-1.573,4.104-3.852,8.275-6.849,11.436
	c-8.515,8.976-12.104,20.418-17.009,31.26c-2.862,6.329-5.659,12.87-9.713,18.418c-2.954,4.044-7.914,6.621-12.69,10.418
	c0.925,1.814,2.138,5.066,4.071,7.811c4.307,6.11,4.354,7.754-0.825,13.246c-0.568,0.603-1.138,1.203-1.906,2.017
	c3.117,4.459,3.526,7.931-2.404,11.023c-2.839,1.48-5.997,4.879-4.107,9.59c1.065,2.656-0.279,4.223-3.031,5.108
	c-5.027,1.619-7.818,5.957-7.205,11.431c0.967,8.646,3.111,16.864,9.147,23.658c1.072,1.206,1.824,4.281,1.105,5.146
	c-1.285,1.545-3.882,2.899-5.779,2.723c-1.319-0.123-2.98-2.786-3.454-4.586c-1.342-5.093-1.633-10.511-3.396-15.421
	c-0.831-2.312-4.013-5.189-6.256-5.303c-5.262-0.267-10.679,0.613-15.882,1.729c-4.105,0.882-6.872-0.267-7.446-4.434
	c-0.381-2.761,0.395-6.323-4.696-4.31c-0.566,0.225-3.235-3.087-3.859-5.092c-2.802-8.989-5.507-18.029-7.687-27.185
	c-2.07-8.691-3.444-17.548-5.118-26.327c1.167,2.769,2.692,5.44,3.418,8.313c1.921,7.606,3.494,15.3,5.206,22.959
	c0.892-1.123,0.861-2.097,0.896-3.068c0.373-10.394-3.312-19.779-7.217-29.11c2.336,5.174,5.693,10.145,6.77,15.567
	c1.631,8.221,1.518,16.774,2.454,25.152c0.56,5.006,2.299,5.79,8.284,3.992c-2.28-9.752-4.478-19.582-6.909-29.354
	c-1.068-4.297-0.282-9.321-4.494-12.506c1.398,1.061,2.851,2.06,4.185,3.196c2.129,1.815,3.963,4.095,6.333,5.469
	c1.771,1.027,4.191,0.938,6.322,1.347c0.324-2.26,1.462-4.816,0.774-6.709c-0.95-2.618-3.275-4.736-5.013-7.069
	c5.62,2.258,11.271,4.44,16.845,6.809c2.363,1.005,4.56,2.401,6.831,3.62c-5.599-1.81-11.198-3.618-16.798-5.427
	c-0.411,0.405-0.822,0.811-1.232,1.217c1.662,2.379,3.099,4.967,5.047,7.082c2.304,2.5,5.05,4.593,7.607,6.864
	c-1.771-1.178-3.458-2.526-5.342-3.492c-2.146-1.103-4.468-1.864-6.713-2.774c0.436,2.063,0.874,4.126,1.302,6.19
	c0.032,0.156-0.014,0.329-0.023,0.495c-1.811-1.626-3.621-3.251-5.433-4.876c-0.379,0.366-0.759,0.731-1.139,1.097
	c1.961,5.606,4.208,11.132,5.802,16.841c1.582,5.663,3.582,10.554,10.055,11.287c2.679-4.775,0.583-8.706-2.311-12.652
	c-1.419-1.937-2.213-4.331-3.29-6.519c2.186,3.045,4.014,6.465,6.678,9.01c1.942,1.855,5.215,3.832,7.477,3.426
	c2.404-0.431,4.316-3.607,6.344-5.492c-5.163-4.833-9.376-8.776-13.589-12.72c2.661,1.882,5.23,3.914,8.017,5.586
	c1.65,0.99,4.431,2.515,5.327,1.874c2.349-1.681,4.671-4.183,5.521-6.832c0.408-1.274-2.201-4.093-4.031-5.376
	c-2.891-2.028-6.274-3.354-9.457-4.983c1.72,0.437,3.48,0.779,5.169,1.341c4.686,1.559,7.191-0.011,7.959-5.136
	c-5.234,2.538-10.373,1.156-13.522-2.775c-6.976-8.708-16.402-7.467-25.596-7.761c-0.215-0.007-0.462,0.951-0.693,1.459
	c-5.189-1.774-10.38-3.548-16.182-5.532c2.62,4.576,4.775,8.339,6.932,12.102c-2.752-3.288-5.503-6.576-8.255-9.864
	c-0.254,0.151-0.508,0.304-0.762,0.455c0.841,1.665,1.681,3.33,2.521,4.995C447.054,301.194,446.396,301.984,445.737,302.774z
	 M398.305,273.729c-3.114,1.312-6.284,2.511-9.332,3.964c-5.123,2.442-10.169,5.047-15.247,7.584
	c0.175,0.325,0.35,0.651,0.523,0.978c12.517-3.228,25.032-6.454,37.548-9.681c0.013-0.494,0.024-0.988,0.036-1.482
	c-4.561-0.402-9.122-0.805-13.684-1.207c0.597-0.673,1.193-1.346,1.805-2.033c-7.979-5.483-21.791-3.1-30.175,6.209
	C380.202,276.476,389.259,275.098,398.305,273.729z M410.812,298.359c-0.144-0.453-0.276-1.301-0.432-1.305
	c-8.922-0.229-18.091-1.509-24.999,6.374c-4.016,4.582-8.946,6.454-15.017,3.94c1.916,5.637,4.056,6.746,9.115,4.725
	c9.345-3.734,18.666-7.525,27.998-11.293c-1.771,2.494-4.059,4.79-5.122,7.557c-0.665,1.73,0.514,4.169,0.864,6.289
	c2.154-0.396,4.707-0.198,6.37-1.321c2.68-1.807,4.848-4.414,7.096-6.81c3.675-3.917,7.241-7.936,10.854-11.912
	c-5.729,8.041-12.274,15.386-13.311,26.151c-0.842,8.744-3.659,17.298-5.597,25.92c6.302,1.421,7.554,0.793,8.237-4.459
	c0.574-4.415,0.293-8.948,0.953-13.344c0.893-5.953,2.322-11.825,3.522-17.732c-0.999,7.494-1.998,14.988-2.996,22.482
	c0.396,0.071,0.794,0.144,1.191,0.215c0.166-0.556,0.351-1.107,0.493-1.669c2.564-10.092,5.135-20.183,7.63-30.292
	c0.072-0.29-0.666-0.78-1.027-1.178c0.267-2.008,0.533-4.016,0.761-5.996c-0.739-0.521-1.675-1.639-2.188-1.471
	C420.369,294.815,415.601,296.619,410.812,298.359z M407.78,317.095c-4.408-1.252-5.84,2.58-8.212,4.806
	c0.438-1.228,1.013-2.427,1.277-3.691c0.232-1.113,0.118-2.298,0.157-3.451c-1.166,0.163-2.439,0.086-3.474,0.546
	c-1.48,0.657-2.786,1.707-4.166,2.589c1.361-1.378,2.936-2.606,4.033-4.169c1.537-2.19,2.72-4.63,4.054-6.962
	c-3.434-0.146-5.675,0.4-7.786,1.265c-6.725,2.752-13.507,5.403-20.058,8.53c-3.837,1.832-4.479,5.638-2.137,8.684
	c3.079,4.002,5.907,4.412,9.474,1.619c2.705-2.119,5.59-4.008,8.395-5.999c-3.138,2.905-6.235,5.854-9.421,8.706
	c-5.228,4.682-5.258,4.932,0.896,8.569c3.821,2.258,6.506-0.01,8.917-2.639c1.843-2.009,3.521-4.169,5.273-6.262
	c-0.89,1.576-1.592,3.301-2.703,4.7c-2.992,3.77-4.011,7.728-1.988,11.856c7.299-0.442,8.688-6.112,10.328-11.583
	c0.521-1.74,0.969-3.52,1.688-5.179c1.745-4.031,3.629-8.002,5.457-11.996c-2.561,7.896-5.374,15.725-7.55,23.727
	c-0.812,2.982-0.132,6.371-0.132,10.146c3.054-1.268,4.751-1.973,6.565-2.727c2.646-11.641,5.414-23.823,8.499-37.395
	C411.994,313.487,409.888,315.279,407.78,317.095z M426.397,279.696c0.393-0.376,0.785-0.753,1.177-1.129
	c-2.736-3.868-4.864-8.431-8.328-11.469c-9.221-8.086-18.917-15.646-28.663-23.103c-2.133-1.631-5.264-1.956-7.935-2.883
	c-0.002,2.643-0.002,5.285-0.011,7.928c0,0.155-0.074,0.309-0.123,0.499c-2.083,0.448-4.183,0.9-7.126,1.533
	C388.867,268.507,408.562,272.428,426.397,279.696z M446.777,280.119c18.708-7.857,38.555-11.572,51.796-29.204
	c-3.094-0.564-5.218-0.951-6.154-1.122c-0.515-3.375-0.925-6.063-1.335-8.752c-2.641,1.007-5.611,1.54-7.856,3.111
	c-5.973,4.18-11.612,8.832-17.421,13.25C458.026,263.32,450.366,269.325,446.777,280.119z M474.342,350.665
	c-0.37-4.306-0.168-8.109-1.109-11.605c-1.765-6.553-3.837-13.078-6.489-19.313c-1.32-3.107-4.205-5.55-6.382-8.293
	c-0.411,0.315-0.823,0.631-1.234,0.946c2.316,9.972,4.867,19.898,6.838,29.938C466.775,346.472,467.97,349.552,474.342,350.665z
	 M503.342,277.752c0.07-0.495,0.141-0.991,0.211-1.486c-12.788-8.858-25.172-10.871-29.907-2.562
	C483.925,275.104,493.634,276.429,503.342,277.752z M500.081,286.368c-7.655-7.832-18.132-9.511-27.637-12.824
	c-2.94-1.024-7.104,1.459-11.891,2.625C474.577,279.787,487.204,283.046,500.081,286.368z M461.021,285.996
	c2.969,1.706,5.461,4.089,8.275,4.563c6.32,1.063,12.801,1.179,19.396,1.694c-7.229-7.052-25.487-10.849-35.895-7.677
	c2.293,0.961,4.702,1.97,7.145,2.993C460.405,286.895,460.887,286.193,461.021,285.996z M385.49,292.269
	c6.376-0.51,13.354,0.241,19.27-1.919c5.562-2.032,11.164-4.116,17.771-5.855C408.411,281.849,391.489,285.635,385.49,292.269z
	 M508.651,267.527c-11.689-8.508-18.436-8.587-23.991,0C492.706,267.527,500.133,267.527,508.651,267.527z M388.984,266.361
	c-7-7.833-13.262-7.558-23.13,1.146C373.794,267.294,381.441,269.965,388.984,266.361z M490.973,287.794
	c0.181-0.607,0.36-1.215,0.541-1.821c-9.184-2.271-18.412-4.37-27.534-6.865c-6.839-1.87-12.064,1.574-17.647,4.768
	C461.974,277.113,476.213,285.429,490.973,287.794z M427.248,283.964c-7.081-5.299-11.061-6.15-18.556-4.558
	c-2.762,0.588-5.543,1.097-8.285,1.767c-3.062,0.747-6.11,1.57-9.126,2.484c-2.94,0.892-5.832,1.94-8.745,2.921
	C397.567,285.624,411.704,277.031,427.248,283.964z M451.072,289.896c-0.084,0.815-0.168,1.63-0.252,2.444
	c8.121,3.533,16.711,2.494,25.175,2.681c0.051-0.488,0.103-0.976,0.153-1.464C467.79,292.338,459.431,291.117,451.072,289.896z
	 M397.98,294.102c8.636,0.608,17.361,1.87,25.421-2.708C414.629,289.278,406.511,293.83,397.98,294.102z M495.062,259.11
	c3.593-0.596,6.441-1.067,10.195-1.688C499.508,252.526,498.603,252.691,495.062,259.11z M378.771,259.108
	c-3.157-6.474-4.514-6.682-9.496-1.622C372.563,258.048,375.377,258.528,378.771,259.108z"/>
<path fill-rule="evenodd" clip-rule="evenodd" d="M176.937,546.002c0.1,8.687,0.253,17.372,0.28,26.059
	c0.017,5.633,0.008,11.275-0.329,16.893c-0.105,1.759-1.32,3.451-2.331,5.913c-4.337-4.93-3.687-9.998-3.56-14.774
	c0.286-10.745,0.89-21.48,0.298-32.491c-5.323,8.446-10.622,16.908-15.981,25.332c-2.144,3.369-4.589,6.554-6.614,9.99
	c-8.577,14.55-24.937,15.537-36.306,12.822c-13.165-3.146-24.927-9.157-30.768-22.217c-2.873-6.423-5.308-13.685-5.331-20.576
	c-0.028-8.365,6.651-14.031,13.502-17.979c7.056-4.066,14.791-6.957,22.5-10.486c-4.823,0.267-9.549,0.456-14.264,0.8
	c-20.318,1.48-25.763-2.189-30.138-22.014c-3.276-14.848-7.615-29.086-16.086-41.949c-2.181-3.313-3.081-7.729-3.675-11.769
	c-0.942-6.403,3.238-10.642,10.201-11.437c15.644-1.786,29.611,3.262,42.36,11.437c22.279,14.285,41.342,32.392,58.675,52.281
	c4.035,4.631,6.979,10.214,10.264,15.117c0.251-3.559,1.072-7.156,0.555-10.55c-0.371-2.428-2.534-4.582-4.143-7.268
	c4.236,1.954,5.756,10.306,12.561,3.741c0,4.891,0,9.168,0,13.593c0.021-0.005,0.621,0.035,0.747-0.19
	c12.932-23.062,33.363-39.03,52.885-55.833c11.057-9.517,23.409-17.089,37.643-20.521c6.948-1.675,14.447-1.729,21.656-1.453
	c5.909,0.228,9.024,4.146,8.382,10.205c-0.512,4.829-1.502,10.206-4.12,14.104c-8.851,13.175-12.921,27.871-15.802,43.123
	c-0.487,2.58-1.348,5.107-2.233,7.589c-2.702,7.572-8.19,11.596-16.173,11.738c-6.647,0.119-13.302-0.272-19.955-0.414
	c-1.036-0.022-2.075,0.082-3.013,0.123c7.713,3.986,15.515,7.521,22.785,11.932c5.816,3.528,9.439,9.211,11.19,15.889
	c0.289,1.101,0.43,2.336,0.255,3.448c-3.855,24.537-22.821,40.775-47.593,40.475c-10.099-0.123-18.941-3.261-24.625-12.454
	c-7.924-12.818-15.912-25.598-23.869-38.393c0.717,0.611,1.589,1.108,2.12,1.849c6.081,8.484,12.098,17.013,18.167,25.505
	c0.666,0.931,1.554,1.701,2.339,2.547c0.371-0.291,0.741-0.581,1.111-0.872c-3.978-6.201-7.778-12.526-11.983-18.57
	c-4.416-6.348-9.011-12.517-8.613-21.187C176.789,538.736,176.789,538.736,176.937,546.002z M248.847,457.249
	c1.319-1.462,2.639-2.924,3.959-4.386c-0.314-0.41-0.627-0.819-0.941-1.229c-3.065,2.283-6.13,4.566-9.195,6.851
	c0.245,0.304,0.489,0.607,0.734,0.91c1.864-0.766,3.727-1.532,5.59-2.299c-1.818,1.587-3.637,3.175-5.455,4.762
	c-1.032,1.544-2.064,3.088-3.096,4.633c0.357,0.432,0.713,0.863,1.07,1.296c11.562-2.987,23.125-5.975,34.687-8.961
	c-0.064-0.681-0.128-1.362-0.192-2.043c-2.452-0.115-5.019-0.758-7.332-0.247c-6.757,1.489-13.412,3.439-20.107,5.209
	c2.361-1.301,4.778-2.512,7.065-3.932c1.831-1.137,3.504-2.528,5.248-3.808c-0.356-0.569-0.711-1.139-1.067-1.708
	C256.156,453.95,252.499,455.604,248.847,457.249z M95.834,454.38c-2.567-0.457-5.134-0.914-7.701-1.371
	c-0.232,0.64-0.464,1.28-0.697,1.92c4.602,2.193,9.204,4.388,13.805,6.582c-9.608-1.723-18.646-6.964-28.94-3.263
	c11.857,2.585,23.098,7.583,35.142,9.175c0.299-0.596,0.598-1.192,0.897-1.789c-2.701-2.64-5.403-5.279-8.104-7.919
	c1.537,0.534,3.074,1.069,4.61,1.604c0.235-0.343,0.469-0.686,0.704-1.027c-2.635-1.896-5.247-3.826-7.962-5.6
	C97.437,452.592,96.438,453.787,95.834,454.38z M247.948,497.109c0.301,5.245,4.366,2.52,6.656,2.797
	c1.711,0.208,4.839-0.887,5.197-2.057c0.745-2.433,1.068-6.125-0.289-7.767c-1.493-1.805-5.069-1.888-7.568-2.667
	c-1.341,3.416-2.29,5.834-3.238,8.251c1.146-8.526-1.485-11.992-8.814-9.314c-5.738,2.096-10.392,7.161-15.527,10.907
	c0.286,0.491,0.571,0.983,0.857,1.475c5.216,0.37,10.439,1.067,15.645,0.964C243.244,499.65,245.589,498.021,247.948,497.109z
	 M101.017,498.049c7.5,4.15,14.965,0.327,22.624,0.042c-3.576-3.694-7.421-6.728-11.067-9.985
	c-3.502-3.129-7.395-2.368-11.227-1.339c-4.148,1.114-1.422,4.829-2.362,7.192c-0.29-0.562-0.504-1.181-0.884-1.673
	c-1.124-1.456-2.088-3.732-3.523-4.103c-2.773-0.713-6.153-0.232-6.558,3.447c-0.278,2.529,0.151,5.575,1.415,7.708
	C90.616,501.334,98.988,500.023,101.017,498.049z M232.172,546.232c-1.707-1.26-4.398-2.198-4.931-3.839
	c-1.483-4.563-5.126-6.062-8.871-7.053c-10.087-2.672-20.278-4.963-30.464-7.244c-1.165-0.261-2.558,0.5-4.2,0.866
	c0.676,1.095,0.831,1.642,1.191,1.888c11.497,7.85,21.923,17.254,34.963,22.87c5.191,2.235,10.123,3.84,15.66,3.049
	c1.911-4.71-1.322-7.539-3.529-10.725c4.319,1.749,8.359,5.077,13.73,2.678c-4.814-5.466-13.663-9.744-18.83-9.041
	C228.733,541.966,230.452,544.099,232.172,546.232z M189.607,517.61c0.149,0.465,0.299,0.931,0.449,1.396
	c9.848,0,19.707,0.274,29.542-0.074c10.462-0.371,20.908-1.274,31.348-2.104c1.5-0.119,3.56-0.707,4.278-1.794
	c2.398-3.629-1.93-11.479-6.342-12.014c-7.592-0.919-15.174-1.936-22.777-2.742c-1.926-0.204-4.239-0.371-5.83,0.472
	C209.968,506.212,199.812,511.957,189.607,517.61z M158.099,520.197c0.206-0.828,0.412-1.657,0.618-2.485
	c-9.905-5.587-19.764-11.258-29.76-16.676c-1.623-0.88-3.891-1.04-5.792-0.851c-8.097,0.807-16.173,1.831-24.246,2.859
	c-3.281,0.418-5.867,5.143-6.06,9.683c-0.194,4.564,3.045,4.117,5.692,4.268C118.396,518.124,138.249,519.144,158.099,520.197z
	 M161.984,516.396c0.231-0.336,0.462-0.671,0.694-1.007c-0.412-0.708-0.759-1.463-1.244-2.116
	c-10.202-13.755-23.028-24.889-36.097-35.732c-1.897-1.573-4.811-2.277-7.356-2.616c-2.789-0.371-6.431-1.293-7.702,2.563
	c-1.125,3.411,0.207,6.097,2.976,8.756c8.895,8.542,19.401,14.438,30.265,19.93C149.793,509.346,155.836,512.973,161.984,516.396z
	 M185.25,514.846c0.468,0.514,0.937,1.026,1.405,1.539c12.479-7.019,25.087-13.82,37.369-21.17
	c4.494-2.689,8.626-6.31,12.097-10.236c1.605-1.815,1.718-5.428,1.467-8.129c-0.08-0.864-3.772-2.374-5.343-1.931
	c-4.313,1.219-8.966,2.558-12.417,5.229c-6.67,5.164-12.83,11.055-18.782,17.061C195.498,502.807,190.493,508.945,185.25,514.846z
	 M111.667,557.437c22.737-1.366,36.455-16.615,52.495-28.049c-1.987-0.932-3.809-1.216-5.511-0.882
	c-7.124,1.396-14.15,3.428-21.325,4.387c-11.483,1.535-17.414,10.19-24.125,17.858C112.102,552.008,112.309,554.409,111.667,557.437
	z M211.732,571.118c-3.916-6.242-7.831-12.484-11.746-18.728c3.381,2.49,6.179,5.34,8.622,8.466c2.472,3.163,4.591,6.6,6.777,9.789
	c0.201-13.429-14.964-30.874-33.65-38.167C189.248,547.541,199.343,560.145,211.732,571.118z M165.354,532.175
	c-8.109,5.91-16.994,11.03-24.069,17.991c-5.21,5.126-8.068,12.652-8.322,19.536c5.097-6.277,10.546-12.99,15.996-19.703
	c0.262,0.213,0.524,0.426,0.787,0.639c-4.37,6.808-8.739,13.615-13.108,20.423C148.667,559.915,159.413,547.923,165.354,532.175z
	 M167.284,537.532c0.583,0.264,1.166,0.528,1.749,0.793c-1.676,4.012-2.968,8.247-5.13,11.978c-2.487,4.294-5.95,8.011-8.609,12.219
	c-2.698,4.271-4.931,8.835-7.367,13.27c0.381,0.2,0.763,0.4,1.144,0.601c7.087-10.01,14.304-19.932,21.194-30.076
	c2.614-3.849,1.737-7.822-2.001-12.007c-8.375,12.939-16.507,25.504-24.639,38.068c0.535,0.344,1.071,0.688,1.606,1.031
	C151.66,560.852,164.214,552.267,167.284,537.532z M245.46,521.685c0.03-0.648,0.06-1.298,0.09-1.946
	c-4.745,0-9.49-0.043-14.234,0.009c-12.078,0.13-24.157,0.247-36.233,0.493c-3.367,0.069-6.726,0.569-10.088,0.872
	c0.062,0.738,0.125,1.477,0.187,2.215C205.332,525.033,225.425,524.516,245.46,521.685z M163.189,523.279
	c-0.003-0.927-0.005-1.854-0.008-2.78c-20.1,0-40.199,0-60.298,0C122.879,524.677,143.002,524.977,163.189,523.279z M211.68,551.474
	c-0.5,0.508-1,1.017-1.5,1.525c3.428,4.178,6.687,8.511,10.35,12.469c1.979,2.14,5.348,2.862,6.718-0.083
	c0.742-1.596-0.694-5.468-2.343-6.662C220.867,555.796,216.133,553.827,211.68,551.474z M138.205,552.948
	c-0.462-0.518-0.925-1.034-1.387-1.552c-4.585,2.461-9.442,4.548-13.614,7.578c-1.546,1.123-1.485,4.46-2.156,6.787
	c2.386-0.074,5.711,0.823,6.982-0.405C131.852,561.665,134.872,557.145,138.205,552.948z M263.566,506.76
	c-0.355,0.246-2.92,1.092-3.139,2.346c-0.704,4.036,4.696,7.682,10.864,7.488c1.099-0.034,2.957-1.172,3.098-2.026
	C274.975,511.029,269.895,506.881,263.566,506.76z M202.966,573.439c0.572-0.354,1.143-0.71,1.715-1.065
	c-7.698-11.975-15.396-23.95-23.095-35.925C183.529,551.973,196.726,560.559,202.966,573.439z M88.86,507.423
	c-9.083-1.209-13.076,0.519-14.559,5.788c-0.268,0.952,0.625,3.172,0.743,3.154c3.353-0.484,7.024-0.533,9.876-2.075
	C86.78,513.285,87.442,510.062,88.86,507.423z M241.228,483.909c8.112,1.597,11.567,0.792,12.229-2.854
	c0.518-2.854-0.062-5.388-3.406-6.087C245.819,474.084,242.363,477.546,241.228,483.909z M107.314,484.422
	c-1.603-7.125-5.05-10.427-9.132-9.433c-3.812,0.929-4.092,4.489-2.966,6.699C97.855,486.866,102.773,483.894,107.314,484.422z
	 M120.726,539.425c-7.043,1.088-13.034,4.02-18.741,9.725C111.646,550.685,116.557,545.72,120.726,539.425z M74.521,462.283
	c2.333,9.009,5.662,9.69,14.571,3.614C84.055,464.647,79.722,463.573,74.521,462.283z M260.435,465.533
	c-0.033,0.796-0.067,1.591-0.1,2.387c3.13,0.64,6.376,2.062,9.347,1.622c1.735-0.256,3.032-3.485,4.525-5.378
	c-0.391-0.552-0.782-1.104-1.172-1.655C268.835,463.517,264.635,464.525,260.435,465.533z M259.518,472.833
	c-1.426,1.192-4.016,2.315-4.231,3.785c-0.313,2.145,0.963,4.589,1.896,6.763c0.118,0.274,2.762,0.119,3.37-0.584
	C263.106,479.839,263.212,476.665,259.518,472.833z M85.849,473.052c0.87,4.211,1.328,7.146,2.211,9.947
	c0.138,0.438,3.164,0.583,3.254,0.32c0.935-2.754,1.543-5.618,2.316-8.755C91.081,474.068,89.536,473.769,85.849,473.052z
	 M110.828,550.662c-3.09,2.277-5.243,3.635-7.068,5.342c-0.586,0.549-0.738,2.313-0.288,2.983c0.38,0.567,1.995,0.668,2.93,0.437
	C110.089,558.513,110.942,555.757,110.828,550.662z M238.05,563.018c-0.094-0.76-0.188-1.519-0.282-2.277
	c-2.898-0.327-5.796-0.654-8.695-0.98c-0.261,0.38-0.523,0.761-0.785,1.141c1.427,1.565,2.632,3.997,4.347,4.436
	C234.144,565.722,236.223,563.877,238.05,563.018z M222.036,531.987c-0.088,0.904-0.175,1.81-0.263,2.714
	c4.401,0.529,8.803,1.058,13.204,1.587c0.104-0.827,0.208-1.653,0.311-2.48C230.87,533.201,226.453,532.594,222.036,531.987z
	 M238.154,551.581c0,2.081-0.563,3.947,0.129,4.875c1.086,1.454,2.93,2.479,4.651,3.235c0.515,0.227,2.51-1.404,2.433-1.585
	c-0.615-1.431-1.348-2.959-2.477-3.979C241.737,553.084,240.093,552.583,238.154,551.581z M113.102,533.744
	c0.145,0.921,0.29,1.842,0.435,2.763c4.412-0.695,8.823-1.392,13.235-2.087c-0.124-0.828-0.247-1.656-0.371-2.484
	C121.968,532.539,117.535,533.142,113.102,533.744z M119.979,560.029c-2.387,0-4.382-0.177-6.32,0.077
	c-0.938,0.123-2.097,0.882-2.525,1.688c-0.25,0.47,0.57,1.787,1.214,2.404C115.058,566.791,117.324,565.673,119.979,560.029z
	 M75.636,482.714c0.795,0.431,1.59,0.862,2.385,1.293c0.559-1.502,1.833-3.21,1.476-4.448c-0.363-1.263-2.338-2.859-3.594-2.848
	c-1.327,0.013-2.638,1.75-3.955,2.734C73.177,480.535,74.407,481.624,75.636,482.714z M273.358,497.316
	c0.167-0.703,0.333-1.405,0.5-2.107c-1.599-2.409-3.5-4.547-6.711-2.617c-0.682,0.409-0.597,3.71-0.366,3.77
	C268.911,496.919,271.15,497.057,273.358,497.316z M73.746,496.876c3.066,0.044,5.318,0.076,7.57,0.108
	c-0.024-1.49,0.523-3.872-0.171-4.317C77.977,490.635,76.055,492.688,73.746,496.876z M272.113,483.463
	c1.798-1.777,2.96-2.926,4.122-4.073c-1.295-0.986-2.517-2.584-3.911-2.752c-0.991-0.12-2.921,1.562-3.12,2.674
	C269.032,480.277,270.703,481.571,272.113,483.463z M113.481,465.911c0.627-0.619,1.253-1.238,1.88-1.858
	c-2.514-2.09-5.028-4.181-7.542-6.271c-0.504,0.594-1.008,1.187-1.512,1.779C108.699,461.678,111.09,463.795,113.481,465.911z
	 M241.581,458.707c-0.342-0.373-0.684-0.747-1.026-1.12c-2.525,2.15-5.05,4.301-8.286,7.057
	C238.403,465.592,240.232,462.466,241.581,458.707z"/>
<path fill-rule="evenodd" clip-rule="evenodd" d="M90.085,322.778c1.89-2.026,3.414-4.98,5.741-5.896
	c5.927-2.332,6.515-3.293,2.006-9.541c5.268-3.3,10.467-6.557,16.481-10.324c-2.216,0-3.996-0.071-5.769,0.011
	c-20.65,0.955-23.202-4.525-27.303-21.767c-3.824-16.078-7.504-32.19-11.321-48.27c-1.974-8.313,0.604-11.393,9.291-12.044
	c15.103-1.131,27.318,5.098,38.62,14.162c19.418,15.573,35.165,34.331,48.124,55.479c0.924,1.508,0.556,3.808,0.946,7.036
	c0.832-6.744,3.458-12.183-1.577-17.383c-2.313-2.39-3.792-5.586-4.824-8.993c2.879,3.967,5.758,7.933,8.049,11.089
	c3.28-0.492,6.892-1.95,7.738-0.984c2.278,2.6,6.991,4.67,3.104,10.252c0.622-0.067,1.243-0.134,1.864-0.201
	c0.748-0.892,1.608-1.711,2.228-2.685c14.236-22.353,31.233-42.146,52.845-57.779c9.912-7.17,20.711-10.766,33.006-9.966
	c8.156,0.53,11.393,4.479,9.451,12.397c-4.564,18.608-9.223,37.193-13.821,55.794c-2.287,9.255-7.792,13.677-17.438,13.834
	c-4.238,0.069-8.478,0.012-13.509,0.012c5.975,3.648,11.147,6.807,16.246,9.919c-3.624,6.94-3.08,7.716,2.722,10.128
	c2.141,0.89,3.514,3.625,5.42,5.719c-8.068,3.645-8.515,6.256-2.954,11.584c2.923,2.802,2.521,4.657-1.325,6.102
	c-3.563,1.338-5.292,6.333-3.416,9.796c0.812,1.498,1.559,3.031,2.017,3.927c-2.519,0.675-5.316,0.615-6.138,1.859
	c-0.939,1.422-0.873,4.46,0.062,6.006c4.695,7.768,9.793,15.293,14.801,22.869c1.713,2.591,2.988,5.59-0.528,7.012
	c-1.271,0.514-4.587-1.881-5.747-3.719c-1.911-3.029-2.686-6.75-4.191-10.064c-3.483-7.668-6.922-8.871-14.868-5.692
	c-0.887,0.355-2.176-0.46-3.264-0.41c-4.086,0.188-6.385,4.483-5.267,9.684c-0.383,0.388-0.766,0.774-1.149,1.162
	c-0.482-1.498-0.964-2.996-1.446-4.494c-0.382,0.308-0.764,0.615-1.145,0.923c0,1.771,0,3.541,0,5.387
	c-5.92-2.045-5.783-2.625-3.404-8.354c1.086-2.615,0.185-6.056,0.185-9c-3.183,2.515-5.594,5.62-8.583,6.343
	c-1.86,0.45-5.688-2.191-6.69-4.349c-1.755-3.777-2.817-8.259-2.76-12.427c0.225-16.495-7.101-29.723-17.05-41.976
	c-1.026-1.264-2.079-2.505-4.271-5.144c-0.808,7.095-1.557,12.839-2.079,18.604c-0.254,2.812-0.265,5.674-0.062,8.49
	c0.265,3.685-2.188,4.828-4.901,4.895c-2.933,0.072-4.775-1.506-4.746-5.02c0.046-5.473-0.238-10.961-0.67-16.42
	c-0.242-3.063-1.062-6.081-1.829-10.242c-11.038,12.657-19.677,25.091-20.768,41.388c-0.289,4.311-0.76,8.612-1.286,12.901
	c-0.177,1.446-0.366,3.254-1.278,4.173c-2.069,2.083-4.857,5.437-6.864,5.125c-2.953-0.458-5.48-3.662-8.113-5.639
	c-0.99,2.739-2.733,5.907,0.577,10.277c3.071,4.055-1.942,5.019-4.957,7.033c0.217-2.453,0.384-4.335,0.644-7.264
	c-1.545,1.742-2.427,2.737-3.463,3.906c-0.204-0.46-0.554-0.856-0.499-1.184c0.927-5.467-1.65-8.685-6.943-8.607
	c-0.607,0.009-1.315,0.243-1.807,0.012c-6.846-3.22-11.659-1.484-14.76,5.519c-1.592,3.597-2.633,7.488-4.614,10.838
	c-0.998,1.688-4.08,3.847-5.271,3.378c-2.998-1.177-2.594-4.086-0.922-6.584c4.401-6.577,8.838-13.13,13.229-19.715
	c1.009-1.514,2.437-3.036,2.676-4.697c0.259-1.801-0.154-4.142-1.209-5.54c-0.771-1.023-3.057-0.904-5.248-1.435
	c1.809-4.742,6.118-11.512-5.647-13.994c1.118-2.114,2.167-4.018,3.141-5.96c1.046-2.087,2.979-4.328,2.736-6.28
	c-0.21-1.693-2.921-3.076-4.526-4.596C91.237,323.035,90.661,322.907,90.085,322.778z M119.65,330.763
	c1.096-1.129,2.633-2.076,3.19-3.427c0.946-2.297,1.276-4.847,1.864-7.291c-1.162-0.084-2.324-0.169-3.485-0.254
	c1.054-0.605,2.042-1.428,3.175-1.779c5.06-1.571,8.308-5.154,11.193-9.499c-4.709-0.046-9.037,0.88-13.409,1.196
	c-1.947,0.142-3.983-0.946-5.979-1.476c0.78,0.212,1.576,0.656,2.336,0.601c6.392-0.467,12.821-0.723,19.153-1.64
	c6.736-0.976,13.378-2.604,20.217-3.979c-2.342-4.782-5.562-6.32-10.293-6.138c-8.379,0.322-16.782-0.022-25.174,0.036
	c-5.503,0.039-5.982,0.949-4.949,6.233c0.292,1.49-0.791,3.25-1.207,4.911c0.193,4.266,0.386,8.531,0.579,12.797
	c0.837,3.27,1.673,6.539,2.51,9.809c0.871,4.858,2.725,9.188,7.014,12.374c1.816-3.715,3.705-7.579,6.126-12.533
	c-2.931,0.712-4.604,1.118-6.245,1.516C125.512,326.375,122.25,329.85,119.65,330.763z M133.859,352.108
	c0.769,0.895,1.367,2.171,2.341,2.609c2.511,1.131,5.189,1.891,6.675,2.407c0-7.056,0-15.207,0-21.746
	c-2.511,4.618-5.846,10.752-9.18,16.886c2.008-7.825,4.017-15.65,6.255-24.371c-9.855,3.304-8.581,12.947-14.569,18.238
	C130.62,346,132.396,348.86,133.859,352.108z M229.226,320.09c-1.865-0.152-3.729-0.306-5.593-0.458
	c-0.398,0.407-0.796,0.814-1.194,1.222c2.268,3.519,4.537,7.037,7.046,10.93c1.151-3.529,2.022-5.646,2.47-7.847
	c0.178-0.876-0.583-1.941-0.917-2.921c0.339-3.412,0.678-6.824,1.059-10.653c-6.699-0.726-13.559-1.469-20.418-2.212
	c2.825-0.359,5.674-1.138,8.469-0.976c3.685,0.214,7.327,1.165,10.46,1.707c0.272-2.648,0.116-4.998,0.818-7.056
	c1.042-3.054-0.669-4.319-2.88-4.54c-4.394-0.438-8.845-0.298-13.272-0.396c1.739-0.441,3.473-1.23,5.219-1.26
	c5.425-0.09,10.856,0.189,16.282,0.118c0.954-0.012,1.895-1.021,2.842-1.571c-0.686-0.783-1.371-1.567-2.057-2.351
	c0.483-0.606,1.356-1.195,1.385-1.823c0.143-3.152,0.065-6.314,0.065-9.525c-5.313-1.187-11.72-2.81-18.213-3.938
	c-1.741-0.303-4.721,0.315-5.449,1.523c-2.398,3.983,0.216,8.903,4.753,9.93c5.875,1.33,11.758,2.632,17.655,3.954
	c-5.037-0.533-10.082-0.994-15.107-1.618c-4.775-0.593-7.308,1.61-7.262,6.527c-5.02,0.109-10.057,0.52-15.056,0.239
	c-4.73-0.265-7.667,1.825-9.982,5.923c7.236,1.677,14.365,3.329,21.506,4.973c1.811,2.054,3.292,4.618,5.505,6.049
	C221.07,316.437,225.247,318.111,229.226,320.09z M226.563,338.796c0.603-2.494,1.205-4.987,2.023-8.374
	c-1.753-0.274-3.664-0.572-5.575-0.871c0.051,1.515,0.102,3.028,0.153,4.543c-1.954-1.172-3.908-2.345-5.863-3.517
	c-0.253,0.328-0.506,0.656-0.759,0.983c1.883,4.208,3.767,8.416,6.205,13.864c-6.09-5.476-4.628-15.082-14.283-17.04
	c2.203,8.075,4.169,15.283,5.67,20.788c1.399-0.714,2.969-2.041,4.695-2.291c4.065-0.59,4.889-3.005,4.257-6.266
	C224.42,339.918,225.492,339.356,226.563,338.796z M188.776,305.173c5.559,5.857,10.541,11.545,16.02,16.704
	c3.055,2.877,6.818,5.098,10.534,7.111c0.899,0.486,4.138-0.998,4.148-1.61c0.055-3.347,0.611-7.609-1.154-9.9
	C211.059,308.055,200.493,305.415,188.776,305.173z M159.6,304.97c-10.582,1.298-20.841,2.002-28.305,11.023
	c-2.649,3.202-3.54,6.304-3.038,9.988c0.394,2.888,2.242,4.884,5.188,2.9c4.615-3.108,9.18-6.401,13.262-10.162
	C151.154,314.623,155.026,309.903,159.6,304.97z M107.185,280.921c4.854,2.787,3.472,6.365,1.461,10.791
	c9.148-1.828,17.257-3.448,25.522-5.1c-0.645-2.264-1.195-3.219-1.131-4.13c0.46-6.596-0.639-7.369-7.056-5.685
	C120.223,278.309,114.347,279.371,107.185,280.921z M212.56,251.195c-1.801,1.67-3.922,3.638-6.043,5.605
	c-0.356,0.889-0.711,1.777-1.067,2.666c3.613,2.644,7.326,5.165,10.808,7.972c2.822,2.274,4.833,1.267,6.721-1.083
	c1.876-2.335,2.529-4.351-0.567-6.57C219.1,257.411,216.222,254.435,212.56,251.195z M135.557,251.567
	c-3.612,3.071-6.805,5.928-10.153,8.587c-2.623,2.083-1.713,4.454-0.025,5.955c1.383,1.229,3.932,2.013,5.716,1.677
	c1.708-0.32,3.123-2.309,4.622-3.615C142.535,258.225,142.516,257.48,135.557,251.567z M107.352,278.606
	c5.438-1.528,10.811-2.942,16.103-4.613c0.997-0.315,1.67-1.654,2.494-2.521c-1.075-0.604-2.132-1.695-3.226-1.732
	c-5.389-0.181-10.786-0.082-16.234-0.082C106.81,272.996,107.023,275.204,107.352,278.606z M230.693,257.525
	c3.828-4.443,4.337-8.901,1.345-12.547c-3.177-3.87-5.233-3.806-11.312,0.191C223.977,249.199,227.248,253.255,230.693,257.525z
	 M204.186,332.177c4.28,8.578,0.498,17.245-0.026,24.908c3.846-0.868,7.513-1.696,10.903-2.462
	C211.758,347.802,207.972,339.989,204.186,332.177z M242.285,269.832c-7.127,1.723-13.984-2.907-20.138,1.564
	c-0.074,0.624-0.148,1.249-0.222,1.874c6.377,1.763,12.754,3.525,19.767,5.464c-0.367-2.116-0.749-3.189-0.681-4.232
	C241.083,273.391,241.581,272.307,242.285,269.832z M127.571,245.216c-5.778-4.031-8.204-4.066-11.322-0.099
	c-3.378,4.298-2.759,7.989,1.718,12.227C121.153,253.319,124.368,249.26,127.571,245.216z M107.33,292.896
	c5.054,3.798,10.848,4.018,27.395,1.607c-2.814-1.798-4.813-4.169-6.694-4.078C121.492,290.738,114.994,291.905,107.33,292.896z
	 M228.142,263.481c-0.004,0.896-0.008,1.791-0.012,2.687c5.468,0.934,10.935,1.866,15.998,2.73c0-2.662,0-4.791,0-7.516
	C238.847,262.076,233.494,262.778,228.142,263.481z M120.023,266.074c-0.014-0.529-0.027-1.06-0.041-1.589
	c-4.631-3.752-10.368-1.748-15.268-2.826c-0.277,2.715-0.495,4.854-0.75,7.35C109.242,268.045,114.633,267.06,120.023,266.074z
	 M232.964,258.793c4.968,0.344,9.607,0.664,14.273,0.987c-0.147-2.729-0.273-5.059-0.411-7.602
	C242.185,254.123,235.442,251.088,232.964,258.793z M115.219,258.728c-2.517-7.967-9.267-4.545-13.475-6.352
	c-0.153,2.735-0.278,4.993-0.416,7.446C105.926,259.46,110.318,259.114,115.219,258.728z M245.592,366.546
	c-2.784-5.261-6.262-7.624-10.329-6.436c-1.187,0.348-2.603,2.441-2.552,3.679c0.04,0.964,2.109,2.459,3.419,2.632
	C239.132,366.815,242.22,366.546,245.592,366.546z M103.064,366.346c3.144,0,6.13-0.46,8.896,0.126
	c2.879,0.611,3.989-0.723,3.719-2.828c-0.174-1.353-1.882-3.364-3.146-3.568C107.596,359.277,104.771,362.137,103.064,366.346z
	 M240.836,356.081c2.331-2.458,4.62-4.871,7.055-7.438c-1.58-3.066-4.222-4.041-7.443-1.574
	C235.781,350.643,239.388,353.596,240.836,356.081z M107.503,355.699c3.166-3.79,3.461-6.708,0.164-8.796
	c-3.269-2.069-5.888-1.379-7.308,1.981C102.858,351.269,105.196,353.498,107.503,355.699z M240.661,226.262
	c-2.482,2.81-4.243,4.803-6.004,6.796c1.009,0.872,2.643,2.662,2.927,2.469c2.23-1.519,4.245-3.375,6.146-5.305
	C243.838,230.11,242.365,228.442,240.661,226.262z M251.339,235.178c-4,1.083-7.894,2.136-11.787,3.189
	c0.08,0.689,0.161,1.38,0.241,2.069c4.018,0.24,8.036,0.481,12.276,0.735C251.81,239.038,251.621,237.485,251.339,235.178z
	 M105.104,228.356c-0.115,4.546,2.287,7.82,5.509,7.222c1.181-0.22,3.133-2.339,2.918-3.025
	C112.334,228.722,109.465,227.253,105.104,228.356z M108.693,240.459c0.064-0.706,0.129-1.412,0.193-2.118
	c-3.769-0.985-7.538-1.972-11.387-2.978c-0.545,2.37-0.87,3.783-1.339,5.824C100.555,240.933,104.624,240.696,108.693,240.459z
	 M99.268,250.264c2.924-0.757,5.775-1.494,8.625-2.232c0.049-0.602,0.098-1.202,0.147-1.804c-3.08-0.918-6.16-1.836-9.645-2.874
	C98.739,246.073,98.969,247.893,99.268,250.264z M223.56,373.565c0.374,0.42,0.749,0.841,1.123,1.262
	c2.698-2.313,5.396-4.627,8.45-7.246C227.995,365.447,225.216,367.499,223.56,373.565z M124.164,375.344
	c0.47-6.378-3.528-9.865-8.89-7.658C118.321,370.311,120.961,372.585,124.164,375.344z M248.995,250.226
	c0.385-2.331,0.685-4.151,1.165-7.056c-3.638,1.237-6.784,2.308-9.93,3.377c0.097,0.5,0.194,1,0.292,1.5
	C243.338,248.771,246.155,249.495,248.995,250.226z M96.413,333.393c-0.034,0.584-0.067,1.169-0.101,1.753
	c1.895,2.588,3.79,5.176,5.843,7.979c2.929-3.781,1.162-6.609-1.274-8.903C99.954,333.349,97.935,333.635,96.413,333.393z
	 M253.53,333.299c-2.783,0.395-5.049,0.035-6.093,0.999c-2.462,2.272-3.402,5.277-1.144,8.808
	C248.535,340.067,250.545,337.344,253.53,333.299z M262.419,260.516c0.364-0.214,0.729-0.429,1.094-0.643c0-2.551,0-5.101,0-7.651
	c-2.015,0.913-3.941,2.339-3.951,3.776C259.552,257.498,261.389,259.01,262.419,260.516z M259.57,284.889
	c-0.668-0.314-1.337-0.63-2.005-0.944c-4.758,1.362-1.34,5.764-2.831,8.341c0.538,0.215,1.077,0.43,1.615,0.645
	C257.423,290.249,258.497,287.568,259.57,284.889z M92.228,292.9c0.394-0.188,0.788-0.375,1.182-0.562
	c-1.25-7.799-1.25-7.799-5.175-7.841C89.706,287.594,90.967,290.247,92.228,292.9z M130.133,361.171
	c0.203,0.394,0.406,0.787,0.608,1.181c2.125-0.421,4.409-1.526,6.33-1.077c2.079,0.486,3.819,2.423,5.707,3.727
	c0.288-0.337,0.575-0.675,0.863-1.013c-2.075-1.622-3.959-4.1-6.28-4.616C135.192,358.889,132.561,360.488,130.133,361.171z
	 M84.648,260.181c0.314,0.191,0.629,0.382,0.944,0.573c1.036-1.431,2.774-2.798,2.909-4.309c0.131-1.472-1.378-3.09-2.167-4.645
	c-0.347,0.164-0.695,0.327-1.042,0.49C85.078,254.921,84.863,257.551,84.648,260.181z M106.745,312.609
	c4.32-1.988,1.928-5.593,1.327-9.341c-1.444,0.688-2.536,1.207-2.986,1.422C105.687,307.558,106.185,309.937,106.745,312.609z
	 M87.494,273.205c0.43,3.562,0.71,5.883,0.991,8.204c0.482,0.109,0.965,0.218,1.448,0.326c0.551-1.983,1.396-3.955,1.481-5.96
	C91.441,275.145,89.433,274.427,87.494,273.205z M205.509,365.204c3.24-4.165,7.163-5.577,12.237-2.976
	C212.012,357.205,208.009,358.202,205.509,365.204z M262.282,262.679c-5.144,2.191-5.439,3.972-1.651,8.379
	C261.17,268.32,261.646,265.907,262.282,262.679z M243.415,303.245c-1.8,1.149-3.546,1.632-3.855,2.58
	c-0.929,2.857-1.207,5.856,1.972,6.722C242.048,309.997,242.541,307.563,243.415,303.245z"/>
<path fill-rule="evenodd" clip-rule="evenodd" d="M434.029,264.977c-7.922-8.394-15.793-16.838-23.807-25.144
	c-1.79-1.856-4.084-3.227-6.146-4.819c0.438-0.53,0.878-1.061,1.316-1.591c0.974,0.569,2.13,0.96,2.892,1.737
	c6.865,6.999,13.81,13.931,20.396,21.187c2.236,2.463,3.52,5.792,5.238,8.725C433.919,265.072,434.029,264.978,434.029,264.977z"/>
<path fill-rule="evenodd" clip-rule="evenodd" d="M199.156,241.925c-3.953,9.091-7.906,18.181-11.859,27.271
	c-0.462-0.202-0.925-0.404-1.387-0.605c1.512-3.12,3.247-6.155,4.477-9.384c1.398-3.671,2.162-7.582,3.549-11.259
	c0.929-2.462,2.461-4.696,3.723-7.033C198.158,241.251,198.657,241.588,199.156,241.925z"/>
<path fill-rule="evenodd" clip-rule="evenodd" d="M148.979,240.851c7.329,3.496,4.402,10.658,6.537,15.659
	C153.422,251.495,151.329,246.48,148.979,240.851z"/>
<path fill-rule="evenodd" clip-rule="evenodd" d="M459.195,555.351c0.032,1.139,0.064,2.278,0.097,3.418
	c-1.296-0.437-3.355-0.519-3.752-1.372c-1.604-3.449-2.716-7.131-3.873-10.77c-0.033-0.105,1.454-0.693,2.232-1.057
	C455.665,548.83,457.431,552.091,459.195,555.351z"/>
<path fill-rule="evenodd" clip-rule="evenodd" d="M471.908,578.101c1.258,2.987,2.347,5.574,3.527,8.377c-2.232,0-4.312,0-6.854,0
	c-0.993-2.217-2.169-4.843-3.6-8.037C467.66,578.309,469.593,578.214,471.908,578.101z"/>
<path fill-rule="evenodd" clip-rule="evenodd" d="M466.377,567.15c-2.745,3.52-4.679,3.805-5.98,0.743
	c-0.711-1.673-0.604-3.694-0.865-5.558C461.785,563.921,464.038,565.506,466.377,567.15z"/>
<path fill-rule="evenodd" clip-rule="evenodd" d="M414.941,560.951c0.868-0.343,1.737-0.685,2.605-1.027
	c0.565,9.317-2.724,17.41-7.78,24.998c-0.771,1.154-0.889,2.744-1.308,4.132c-1.827,0.606-3.654,1.213-5.481,1.819
	c-0.374-0.41-0.748-0.82-1.121-1.23c1.572-3.707,2.983-7.494,4.756-11.104c2.669-5.437,5.604-10.743,8.375-16.13
	C415.183,562.031,414.967,561.442,414.941,560.951z"/>
</svg>
