<?xml version="1.0" encoding="utf-8"?>
<!-- Generator: Adobe Illustrator 16.0.0, SVG Export Plug-In . SVG Version: 6.00 Build 0)  -->
<!DOCTYPE svg PUBLIC "-//W3C//DTD SVG 1.1//EN" "http://www.w3.org/Graphics/SVG/1.1/DTD/svg11.dtd">
<svg version="1.1" id="Layer_1" xmlns="http://www.w3.org/2000/svg" xmlns:xlink="http://www.w3.org/1999/xlink" x="0px" y="0px"
	 width="1400px" height="1400px" viewBox="0 0 1400 1400" enable-background="new 0 0 1400 1400" xml:space="preserve">
<path fill-rule="evenodd" clip-rule="evenodd" stroke="#FFFFFF" stroke-width="4" stroke-miterlimit="10" d="M424.761,615.729
	c0.004-14.614,0.417-29.203-0.272-43.861c-2.641-1.355-5.121-1.784-7.723-1.648c-2.577,0.135-5.15,0.403-7.729,0.458
	c-5.155,0.108-5.156,0.065-8.892,4.814c2.936,5.649,2.26,11.987,2.288,18.238c0.038,8.488,0.01,16.977,0.01,25.633
	c-0.579,0.505-1.235,0.233-1.492-0.582c-0.271-0.861-0.39-1.816-0.359-2.722c0.259-7.578-0.377-15.159,0.493-22.75
	c0.347-3.029-0.085-6.432-1.181-9.272c-1.548-4.011-2.877-7.936-2.507-12.153c-3.784-1.467-6.169-1.539-16.078-0.574
	c-0.933,1.443-1.882,2.913-2.84,4.395c-0.884-0.279-1.551-0.286-1.872-0.623c-2.214-2.328-5.09-3.001-8.08-3.118
	c-3.697-0.145-7.405-0.003-11.108,0.007c-2.234,0.007-3.902,0.844-4.871,2.987c-0.368,0.814-1.032,1.517-1.647,2.19
	c-0.641,0.701-1.928,0.643-2.455-0.111c-0.525-0.751-1.011-1.552-1.372-2.393c-0.849-1.976-2.434-2.692-4.432-2.72
	c-1.108-0.016-2.221,0.038-3.326,0.126c-2.422,0.193-4.771,0.325-6.826-1.46c-0.631-0.549-1.701-0.634-2.592-0.828
	c-0.718-0.156-1.613,0.084-2.186-0.259c-3.661-2.189-7.514-1.163-11.346-0.892c-3.873,0.274-7.754,0.502-11.634,0.559
	c-1.832,0.027-3.668-0.411-5.506-0.613c-3.668-0.402-7.335-0.82-11.009-1.164c-2.208-0.206-4.426-0.31-6.643-0.407
	c-0.908-0.039-1.886-0.138-2.721,0.133c-5.984,1.939-12.081,1.183-18.16,0.878c-0.735-0.037-1.459-0.263-2.194-0.335
	c-5.731-0.571-5.731-0.565-10.745-5.169c-0.141-6.394-0.375-13.039-0.399-19.687c-0.014-3.878,0.354-7.758,0.462-11.639
	c0.082-2.94,0.242-5.874,0.185-8.83c-0.053-2.709,0.423-5.441-0.081-8.201c-0.193-1.058,0.071-2.2,0.136-3.304
	c0.087-1.477,0.542-3.039,0.21-4.412c-1.104-4.565-0.328-9.165-0.414-13.73c-0.038-2.038-1.55-3.696-0.79-5.91
	c0.821-2.386,1.058-4.973,1.615-7.805c-1.822-4.84-1.822-4.84,0.036-10.894c-1.85-1.293-3.915-1.862-6.199-1.741
	c-11.296,0.598-22.567-0.39-33.851-0.578c-4.07-0.069-8.098-0.062-12.179,0.268c-4.953,0.4-9.98-0.077-14.973-0.246
	c-2.404-0.082-4.801-0.359-7.203-0.491c-2.075-0.114-3.991-0.629-5.848-1.919c-0.474-2.193-0.152-4.389,0.138-6.565
	c0.66-4.941,1.449-9.829,0.424-14.868c-0.468-2.299-0.143-4.792,0.03-7.183c0.307-4.242,0.782-8.472,1.162-12.709
	c0.066-0.735,0.036-1.48,0.013-2.22c-0.293-9.604-0.557-19.209-0.918-28.811c-0.083-2.207-0.654-4.393-0.753-6.6
	c-0.309-6.839-0.579-13.682-0.697-20.525c-0.047-2.759,0.458-5.522,0.505-8.288c0.13-7.761,0.087-15.526,0.248-23.286
	c0.072-3.482,0.513-6.955,0.681-10.437c0.042-0.873-0.083-1.926-0.546-2.62c-1.848-2.768-0.767-5.76-0.803-8.642
	c-0.021-1.644,1.146-2.834,2.753-3.048c6.011-0.802,11.912-2.897,18.112-1.638c0.539,0.109,1.105,0.142,1.656,0.127
	c2.279-0.06,3.724-2.076,2.891-4.273c-0.585-1.544-1.493-2.97-2.293-4.428c-1.239-2.256-1.806-4.457,0.107-6.682
	c1.417-1.649,1.536-3.694,1.606-5.76c0.144-4.251,0.536-8.502,0.479-12.748c-0.037-2.741-0.616-5.488-1.104-8.205
	c-0.202-1.122-1.722-1.722-2.69-1.159c-1.263,0.734-2.441,1.613-3.754,2.496c-2.837-0.877-5.536-1.874-8.449-3.652
	c2.324-1.874,4.682-2.43,6.83-3.272c0.862-0.338,2.107,0.257,3.167,0.476c2.404,0.496,3.341-0.005,4.303-2.258
	c1.205-2.822,1.464-5.823,0.923-8.733c-0.89-4.781-0.704-9.587-0.938-14.388c-0.216-4.43-0.708-8.846-0.879-13.276
	c-0.106-2.758,0.144-5.531,0.258-8.296c0.063-1.536-0.029-2.971-1.695-3.646c-0.238,0.059-0.491,0.042-0.583,0.155
	c-0.778,0.967-1.331,2.344-2.33,2.851c-1.46,0.741-2.805-0.483-4.033-1.278c-2.036-1.318-4.112-2.427-6.569-2.844
	c-0.949-0.162-1.781-1.016-2.578-1.501c0.361-1.593,1.415-1.55,2.282-1.556c2.633-0.016,5.052-0.482,7.438-1.802
	c1.706-0.943,3.838-1.115,5.946-1.675c2.583-4.398,1.214-9.262,1.751-14.274c-2.634-0.172-4.967-0.324-7.488-0.488
	c-0.49-0.794-1.13-1.498-1.391-2.321c-0.583-1.841-1.801-2.703-3.642-2.893c-0.549-0.057-1.11-0.159-1.625-0.352
	c-2.955-1.105-3.974-4.026-2.35-6.72c0.761-1.262,1.769-2.419,2.297-3.768c0.526-1.346,0.592-2.872,0.917-4.631
	c3.213-1.355,4.157-4.591,5.075-7.732c2.396-0.11,2.81,1.952,4.051,2.891c1.593,1.206,3.479,0.634,3.703-1.396
	c0.243-2.192,0.151-4.423,0.153-6.637c0.001-0.544-0.154-1.104-0.319-1.631c-1.402-4.491-1.277-8.75,2.166-12.611
	c-1.01-1.961-2.077-3.731-1.436-6.182c0.723-2.763-0.662-3.926-3.737-3.741c-2.915,0.175-5.812-0.139-8.757,0.676
	c-3.124,0.865-6.31-2.051-6.303-5.348c0.002-0.83,0.456-1.826,1.023-2.455c1.723-1.912,3.892-2.808,6.496-2.084
	c1.056,0.293,2.08,0.707,3.216,1.099c1.178-0.582,2.34-1.132,3.479-1.725c1.751-0.911,2.923-2.229,3.005-4.322
	c0.115-2.927,1.606-5.704,0.827-8.758c-0.207-0.809,0.058-1.903,0.468-2.674c1.96-3.685,1.64-7.579,0.954-11.401
	c-0.827-4.606-1.127-9.155-0.411-13.799c0.27-1.753,0.044-3.583,0.044-5.766c2.753,0.853,3.047,2.985,3.58,4.781
	c0.507,1.709,0.658,3.523,0.949,5.192c1.667,0.144,1.88-0.825,2.006-1.703c0.189-1.311,0.432-2.521,1.514-3.455
	c1.415-1.221,3.407-0.905,4.184,0.766c0.231,0.497,0.453,1.04,0.496,1.576c0.171,2.093,1.326,3.304,3.197,4.116
	c0.485,0.211,0.667,1.123,1.171,2.045c-2.09,0.519-4.022,0.582-5.435,1.47c-1.293,0.813-2.027,2.519-3.162,4.038
	c-1.098,0.34-2.468,0.765-4.088,1.267c0,1.61,0.099,3.059-0.031,4.488c-0.109,1.204-0.484,2.383-0.846,4.058
	c1.223-0.263,1.893-0.383,2.55-0.553c1.054-0.273,2.124-0.889,3.144-0.811c3.083,0.239,6.117,1.408,9.241,0.013
	c0.543-0.243,1.482,0.105,2.121,0.42c4.031,1.99,7.853,0.191,11.861-0.233c-0.318-3.458-3.482-3.264-5.433-5.076
	c-1.293-4.906,0.022-9.888,1.47-14.846c0.719-2.465,1.753-4.856,2.252-7.359c0.215-1.077-0.566-2.352-0.984-3.856
	c2.222-0.607,4.304-1.83,6.722-0.313c1.33,0.834,2.82,0.633,4.316,0.365c2.168-0.389,4.362-0.642,6.37-0.928
	c2.563,1.982,2.495,4.313,1.797,6.736c-0.305,1.057-0.959,2.011-1.278,3.065c-0.627,2.071-0.329,4.045,1.042,5.77
	c0.92,1.157,2.017,2.188,2.846,3.403c1.481,2.17,1.349,4.11-0.656,5.927c-1.559,1.413-2.879,2.907-3.447,4.912
	c-0.16,0.564,0.103,1.602,0.527,1.881c0.452,0.296,1.364,0.064,2.002-0.153c0.486-0.165,0.856-0.667,1.583-1.274
	c0.589,0.625,1.093,1.33,1.752,1.829c2.266,1.715,4.628,2.702,7.693,2.184c2.687-0.454,5.508-0.12,8.27-0.113
	c0.552,0.001,1.11,0.166,1.657,0.13c5.707-0.378,11.413-0.78,17.119-1.179c1.108-0.078,2.216-0.253,3.323-0.243
	c11.088,0.099,22.177,0.233,33.266,0.346c10.542,0.107,21.084,0.211,31.626,0.301c7.59,0.064,15.181,0.095,22.771,0.164
	c0.919,0.009,1.845,0.125,2.755,0.268c1.678,0.263,2.563,1.38,2.911,2.951c0.158,0.718,0.277,1.473,0.238,2.201
	c-0.484,9.061,0.632,18.058,0.993,27.084c0.183,4.592-0.201,9.205-0.102,13.804c0.059,2.748,0.567,5.486,0.854,8.23
	c0.153,1.466,0.593,2.998,0.328,4.39c-0.534,2.812,0.079,5.097,2.096,7.077c0.242,0.237,0.301,0.66,0.493,1.11
	c-0.672,1.57-1.619,3.165-2.013,4.886c-0.364,1.59-0.152,3.315-0.164,4.981c-0.045,6.662-0.082,13.324-0.108,19.985
	c-0.004,0.925,0.07,1.85,0.106,2.774c0.089,2.274,1.23,3.815,3.288,4.719c0.17,0.075,0.341,0.148,0.501,0.239
	c1.543,0.869,3.846,0.673,4.424,2.894c0.483,1.856-1.05,3.053-1.775,4.507c-0.666,1.333,0.053,2.481,0.376,3.726
	c0.56,2.15-0.025,3.156-2.023,3.82c-0.696,0.231-1.46,0.255-2.169,0.459c-0.516,0.148-0.991,0.437-1.826,0.819
	c1.227,3.236,1.991,6.637,4.077,9.411c2.056,2.732,2.484,5.538,1.943,8.87c-0.71,4.373-0.98,8.822-1.31,13.248
	c-0.109,1.454,0.002,2.981,0.336,4.399c0.711,3.014,3.385,5.164,6.518,4.937c1.28-0.093,2.482-1.26,3.985-2.084
	c1.154,0.833,2.466,1.779,3.678,2.652c-0.204,2.221-2.111,1.436-3.033,2.208c-0.83,0.695-1.859,1.153-2.918,1.786
	c-1.244-0.445-2.417-1.016-3.655-1.256c-0.838-0.163-1.847-0.056-2.637,0.273c-1.499,0.626-1.86,2.693-0.689,3.698
	c0.975,0.836,2.238,1.363,3.115,2.275c0.666,0.694,0.925,1.778,1.493,2.952c-2.23,0.412-4.073,0.543-5.76,1.125
	c-1.551,0.534-2.91,1.604-4.399,2.346c-1.674,0.834-2.465,2.163-2.519,3.986c-0.066,2.221-0.201,4.442-0.173,6.662
	c0.044,3.5,0.254,6.999,0.273,10.499c0.006,1.074-0.496,2.143-0.556,3.226c-0.059,1.069-0.026,2.206,0.28,3.217
	c0.419,1.386,1.758,2.237,3.052,1.698c3.834-1.596,7.657-0.806,11.5-0.312c0.911,0.118,1.932,0.159,2.686,0.602
	c5.217,3.072,10.84,2.826,16.571,2.399c2.748-0.205,5.559,0.035,8.303,0.375c1.172,0.146,2.386,0.89,3.347,1.655
	c3.755,2.992,4.884,7.068,4.835,11.731c-0.062,5.9,0.148,11.804,0.244,17.706c0.015,0.925,0.137,1.86,0.052,2.776
	c-0.696,7.571-0.13,15.136,0.062,22.703c0.028,1.105,0.03,2.256,0.332,3.303c1.294,4.486,1.703,9.075,1.702,13.708
	c0,1.633-0.071,3.323-0.483,4.89c-1.09,4.146-1.171,4.125,2.147,7.143c-0.602,0.826-1.291,1.637-1.826,2.538
	c-0.65,1.095-0.106,2.307,1.123,2.565c3.234,0.68,6.296,0.655,8.517-2.355c1.201-1.627,2.379-3.269,3.602-4.879
	c0.417-0.55,0.939-1.021,1.478-1.598c1.882,1.097,2.226,2.698,2.115,4.375c-0.109,1.654-1.304,2.657-2.751,3.186
	c-1.962,0.716-3.479,1.625-4.583,3.649c-1.961,3.595-2.003,6.61,1.192,9.281c2.822,0,5.569,0.045,8.314-0.016
	c1.795-0.04,2.603-0.905,2.665-2.85c0.134-4.251,0.2-8.504,0.286-12.756c0.052-2.544,0.089-5.088,0.648-7.617
	c0,6.09-0.018,12.181,0.011,18.271c0.008,1.662,0.046,3.338,0.275,4.979c0.165,1.179,1.029,1.999,2.263,2.097
	c1.287,0.103,2.588-0.003,3.882,0.021c4.805,0.09,9.609,0.196,14.164,0.291c2.222,1.759,2.608,3.986,2.66,6.194
	c0.172,7.21,0.343,14.426,0.239,21.635c-0.096,6.657-0.44,13.31,0.11,19.958c0.103,1.249,0.347,2.571,0.892,3.678
	c0.891,1.809,2.231,2.557,4.108,1.701c4.123-1.878,7.514,0.695,11.186,1.408c1.7,0.331,2.801,1.917,3.338,3.498
	c1.121,3.302,2.544,6.505,2.464,10.167c-0.128,5.917,0.003,11.843,0.118,17.763c0.075,3.878,0.056,7.764,1.077,11.578
	c0.318,1.188,0.05,2.533,0.05,3.611c-2.513,2.427-5.32,2.938-8.388,2.811c-3.514-0.146-7.035-0.218-10.551-0.188
	c-1.415,0.012-2.825,0.383-4.433,0.62c0,3.474,0.059,6.583-0.022,9.689c-0.049,1.837-0.306,3.671-0.5,5.502
	c-0.079,0.733-0.355,1.459-0.346,2.187c0.099,8.474,0.187,16.95,0.391,25.422c0.063,2.644,1.373,4.09,3.961,4.599
	c5.833,1.146,11.712,1.146,17.244,0.84c1.634-1.701,0.795-3.195,0.687-4.599c-0.167-2.171-1.079-4.316,0.208-6.495
	c0.292-0.495-0.129-1.395-0.183-2.111c-0.067-0.886-0.406-1.918-0.079-2.636c1.129-2.473,1.19-5.089,1.023-7.639
	c-0.479-7.357,0.707-14.71-0.074-22.06c-0.015-0.141,0.183-0.305,0.284-0.462c0.943-0.39,1.503,0.263,1.526,0.944
	c0.163,4.763,1.531,9.46,0.48,14.305c-0.504,2.323-0.438,4.785-0.492,7.187c-0.129,5.718-0.233,11.439-0.228,17.16
	c0.002,2.182,0.331,4.364,0.474,6.095c1.922,1.891,3.94,1.836,5.67,1.655c6.38-0.667,12.906,0.848,19.402-1.166
	c0.397-1.763,0.776-3.444,1.155-5.125c0.105,0.028,0.21,0.056,0.315,0.084c0,2.549,0,5.098,0,8.012
	c-3.28-1.111-6.351-0.715-9.438-0.453c-1.636,0.141-3.314,0.065-4.95-0.118c-4.079-0.456-8.095,0.122-12.353,0.145
	c-0.289,1.373-0.683,2.403-0.695,3.437c-0.08,6.661-0.039,13.323-0.114,19.984c-0.04,3.512-0.251,7.022-0.354,10.534
	c-0.039,1.293-0.008,2.588,0.026,3.881c0.171,6.474,0.42,12.946,0.519,19.421c0.217,14.251,0.538,28.506,0.439,42.756
	c-0.037,5.345,0.781,10.668,0.062,16.05c-0.436,3.265-0.258,6.667,0.065,9.965c0.707,7.21-0.419,14.395-0.023,21.592
	c0.092,1.674,0.083,3.342,1.386,4.896c3.069,1.022,6.428,0.539,9.715,0.756c2.942,0.195,5.895,0.238,8.839,0.407
	c2.091,0.119,3.104-0.37,3.597-2.579c0.642-2.874,1.271-5.82,1.325-8.745c0.212-11.479,0.201-22.961,0.261-34.442
	c0.007-1.294,0.038-2.603-0.125-3.881c-0.133-1.057-0.537-2.079-0.787-2.991c0.401-0.431,0.682-0.954,0.892-0.926
	c9.258,1.195,18.687,0.38,27.997,2.008c0.846,2.659,0.449,5.007,0.232,7.354c-0.588,0.36-1.032,0.667-1.507,0.916
	c-3.067,1.602-3.063,1.596-2.287,4.542c0.234,0.884,0.575,1.774,0.608,2.671c0.11,3.045,0.879,5.837,3.078,8.266
	c-2.252,4.611-2.062,9.331-1.126,14.125c0.202,1.031-0.047,2.155-0.129,3.233c-0.054,0.724-0.438,1.528-0.231,2.149
	c1.52,4.572,0.345,9.164,0.24,13.744c-0.017,0.738-0.086,1.477-0.065,2.212c0.229,8.326,0.53,16.649,0.688,24.976
	c0.107,5.684,0.021,5.685-2.434,10.964c2.302,2.446,2.509,5.615,2.452,9.018c-0.189,11.281-0.246,22.567-0.127,33.849
	c0.045,4.391,0.693,8.774,1.094,13.487c5.128,0.16,9.894,0.31,14.66,0.458c1.663,0.052,3.338-0.003,4.987,0.182
	c1.749,0.196,2.444,1.242,2.305,3.122c-0.733,9.979-0.875,19.952-0.027,29.938c0.201,2.365-0.073,4.774-0.182,7.16
	c-0.21,4.601-0.465,9.2,0.777,13.6c1.912,1.062,3.792,0.811,5.616,0.801c3.887-0.021,7.774-0.202,11.66-0.181
	c5.545,0.03,11.089,0.209,16.634,0.278c6.086,0.074,12.171,0.097,18.257,0.142c0.185,0.002,0.371,0.01,0.556,0.015
	c8.308,0.21,16.616,0.423,24.923,0.625c2.213,0.055,4.427,0.119,6.64,0.104c9.611-0.064,19.222-0.218,28.832-0.212
	c3.875,0.002,7.753,0.278,11.622,0.545c0.849,0.06,1.667,0.605,2.615,0.973c-0.153,3.114-0.375,6.053-0.423,8.993
	c-0.049,2.96,0.127,5.923,0.108,8.883c-0.049,7.941-0.151,15.882-0.227,23.822c-0.007,0.741,0.027,1.482,0.045,2.223
	c0.118,4.981,0.553,6.038,5.619,5.949c0.736-0.013,1.485,0.053,2.211,0.181c2.434,0.43,4.016,1.81,4.486,4.288
	c0.199,1.051,0.277,2.124,0.434,3.367c3.784,0.158,4.492-2.95,5.859-4.978c1.367,0.124,1.135,1.045,1.199,1.703
	c1.152,11.809,1.435,23.641,0.961,35.496c-0.095,2.384,0.122,4.781,0.183,6.769c1.485,1.709,3.05,1.473,4.48,1.33
	c4.63-0.46,9.239-0.268,13.861,0.105c1.276,0.103,2.578-0.132,3.869-0.167c2.032-0.055,4.122-0.387,6.088-0.042
	c5.154,0.902,10.333,0.765,15.513,0.797c3.125,0.02,6.205,0.362,9.087,0.589c0.285,0.794,0.601,1.219,0.495,1.454
	c-1.091,2.427-1.207,4.766-0.506,7.434c1.652,6.29,1.911,12.759,1.792,19.263c-0.126,6.836,0.056,13.678,0.036,20.517
	c-0.047,16.838,0.125,33.682-0.279,50.512c-0.359,14.994,0.064,29.976,0.233,44.956c0.099,8.689-0.317,17.363-0.163,26.048
	c0.151,8.512-0.022,17.03-0.078,25.546c-0.012,1.825-0.132,3.649-0.194,5.27c-3.746,2.019-7.429,1.624-11.064,1.609
	c-3.477-0.014-6.956-0.098-10.426,0.035c-1.816,0.07-3.614,0.54-5.337,0.817c-1.371,2.511-1.089,4.896-1.042,7.283
	c0.17,8.504,0.262,17.008,0.396,25.513c0.023,1.466,0.106,2.932,0.16,4.398c0.141,3.881,0.321,7.762,0.391,11.644
	c0.015,0.874-0.357,1.756-0.583,2.778c-0.894,0-1.606,0.016-2.318-0.003c-4.062-0.105-8.068-0.078-12.14,0.641
	c-3.786,0.667-7.752,0.368-11.639,0.386c-7.585,0.035-15.172,0.067-22.757-0.04c-6.101-0.086-12.197-0.425-18.298-0.563
	c-3.318-0.074-6.64,0.063-9.96,0.059c-7.944-0.01-15.888-0.048-23.833-0.073c-2.217-0.007-4.434-0.005-6.65-0.016
	c-5.731-0.027-11.464-0.013-17.194-0.117c-1.932-0.036-2.778-1.048-2.555-2.829c0.808-6.439,0.533-12.913,0.621-19.371
	c0.101-7.587-0.007-15.177-0.061-22.765c-0.013-1.644-0.177-3.288-0.286-5.181c-1.373-0.392-2.561-0.976-3.771-1.024
	c-2.396-0.099-4.804,0.159-7.208,0.158c-4.807-0.006-9.616-0.021-14.419-0.169c-1.946-0.06-2.66-0.855-2.824-2.731
	c-0.128-1.471-0.113-2.959-0.095-4.438c0.09-6.836,0.074-13.676,0.345-20.504c0.273-6.901-0.724-13.614-2.273-20.481
	c-3.235-1.414-6.638-1.979-10.167-1.985c-2.405-0.003-4.81-0.029-7.214-0.05c-0.74-0.006-1.493,0.058-2.217-0.056
	c-2.311-0.361-4.032-2.409-6.785-1.867c-2.099,0.413-4.388-0.229-6.593-0.259c-3.288-0.044-6.205-0.762-8.31-3.578
	c-0.398-0.533-1.237-0.735-2.173-1.259c0.16-2.709,0.376-5.445,0.47-8.187c0.113-3.326,0.194-6.657,0.162-9.984
	c-0.052-5.353,0.614-10.701-0.306-16.065c-0.334-1.945,0.292-4.043,0.403-6.076c0.374-6.801-1.621-9.071-8.427-9.41
	c-1.642-0.082-3.315,0.202-4.958,0.427c-4.805,0.657-5.123,0.597-9.75-2.496c-1.165-1.867,0.886-4.526-1.619-6.208
	c-2.615,2.498-0.82,6.482-3.032,9.173c-4.354,0.722-8.7,1.518-13.173,1.046c-1.094-0.115-2.229-0.093-3.319,0.057
	c-7.36,1.01-14.762,0.824-22.154,0.777c-7.17-0.046-7.838-0.292-10.252-7.545c-1.281-3.847-2.311-7.853-0.615-11.947
	c0.267-0.643,0.443-1.628,0.14-2.153c-1.603-2.78-0.707-5.785-1.023-8.673c-0.246-2.248-0.37-4.402,0.853-6.464
	c0.353-0.596,0.406-1.421,0.44-2.148c0.391-8.308,0.752-16.617,1.121-24.927c-1.209-4.495,0.434-9.202-1.014-13.68
	c0.722-3.979-0.925-8.075,0.631-12.04c0.314-0.8,0.133-1.82,0.087-2.735c-0.205-4.05-0.668-8.102-0.628-12.148
	c0.126-12.733,0.456-25.466,0.657-38.199c0.038-2.401-0.247-4.807-0.208-7.207c0.028-1.766,1.084-2.64,2.907-2.596
	c1.104,0.025,2.208,0.214,3.305,0.372c4.295,0.623,8.494-0.159,12.682-0.912c1.817-0.327,2.933-1.492,3.088-3.422
	c0.03-0.368,0.095-0.738,0.087-1.105c-0.176-8.142-0.329-16.283-0.556-24.423c-0.103-3.694-0.404-7.383-0.51-11.077
	c-0.038-1.279,0.028-2.635,0.413-3.84c1.435-4.497,2.105-4.724,6.219-4.725c4.062-0.001,8.124-0.509,12.188-0.537
	c4.059-0.028,8.119,0.311,12.181,0.4c6.107,0.133,12.215,0.209,18.323,0.26c1.287,0.012,2.599-0.075,3.856-0.327
	c1.167-0.233,1.924-1.096,2.077-2.314c0.114-0.915,0.095-1.847,0.134-2.771c0.461-10.729,0.323-21.46,0.045-32.189
	c-0.029-1.102-0.032-2.246-0.337-3.286c-0.535-1.828-0.532-3.545-0.175-5.44c0.706-3.749-1.171-6.026-5.003-6.34
	c-2.209-0.182-4.441-0.128-6.663-0.128c-5.729-0.001-11.458,0.033-17.186,0.043c-4.629,0.008-9.258,0.064-13.885-0.021
	c-4.431-0.082-8.857,0.067-13.28-0.781c-2.3-0.441-4.863-0.271-7.165,0.25c-2.842,0.645-5.526,0.082-8.257-0.214
	c-1.976-0.214-2.57-2.081-1.255-3.685c0.545-0.667,1.271-1.187,1.905-1.764c-1.269-2.068-3.452-0.182-4.899-1.938
	c-0.56-1.793-0.441-4.027-0.164-6.204c0.707-5.531,0.872-11.061,0.608-16.629c-0.184-3.881-0.165-7.75,1.998-11.296
	c0.987-1.618,1.023-3.497,0.172-5.343c-0.537-1.164-0.849-2.433-1.287-3.732c-1.007-0.695-2.064-1.425-3.267-2.256
	c-0.839-4.84-1.751-9.701,0.509-14.463c1.401,0.108,1.125,0.948,1.092,1.644c-0.142,2.954-0.365,5.904-0.409,8.858
	c-0.023,1.583,0.898,2.699,2.194,2.752c6.087,0.243,12.183,0.874,18.254-0.19c0.327-0.058,0.604-0.402,1.194-0.819
	c0.122-2.883,0.227-5.988,0.39-9.09c0.272-5.172,0.601-10.342,0.871-15.514c0.319-6.107,0.307-12.196-1.048-18.29
	c-2.594-1.876-5.626-1.748-8.529-1.851c-5.55-0.195-11.108-0.239-16.662-0.233c-7.398,0.008-14.798,0.059-22.194,0.214
	c-6.106,0.13-12.209,0.417-18.311,0.7c-0.864,0.04-1.71,0.459-2.943,0.811c1.481,3.993,0.5,7.714-0.185,11.489
	c-0.356,1.964-0.313,4.039-0.177,6.046c0.314,4.624,0.671,9.232-0.152,13.843c-0.129,0.721-0.118,1.479-0.079,2.216
	c0.155,2.923,0.346,5.844,0.552,9.225c0.702,0.239,1.678,0.837,2.671,0.864c4.256,0.118,8.517,0.126,12.775,0.065
	c4.532-0.065,4.531-0.119,7.314-4.198c0.455,0.966,0.771,1.747,1.18,2.476c0.44,0.787,0.969,1.523,1.729,2.698
	c-1.307,0.285-2.343,0.78-3.318,0.681c-6.283-0.637-12.545-0.869-18.821,0.096c-1.451,0.223-3.011,0.354-4.429,0.068
	c-5.88-1.187-11.807-0.714-17.721-0.761c-0.675-0.005-1.349-0.105-2.008-0.836c1.262-0.046,2.523-0.12,3.786-0.131
	c2.963-0.025,5.928-0.07,8.89-0.015c4.318,0.081,5.555-1.648,5.003-6.534c-0.229-2.013-0.371-3.941-0.301-5.957
	c0.127-3.698,0.115-7.405,0.028-11.105c-0.077-3.288-1.227-6.627,0.621-9.788c-0.314-2.933-0.51-5.884-0.996-8.787
	c-0.231-1.382-1.517-2.095-2.889-2.232c-1.654-0.165-3.328-0.121-4.989-0.237c-1.422-0.1-2.837-0.297-4.954-0.526
	c0.893-0.788,1.199-1.292,1.575-1.351c2.738-0.432,5.497-0.731,8.236-1.153c3.182-0.49,4.199-1.467,4.279-4.71
	c0.096-3.883-0.125-7.774-0.187-11.662c-0.151-9.43-0.295-18.861-0.428-28.292c-0.026-1.85,0.125-3.709-0.017-5.548
	c-0.167-2.168-1.5-3.335-3.735-3.202c-6.067,0.361-12.128,0.838-18.425,1.286c-1.419-1.154-0.972-2.629-0.425-4.32
	c3.009,2.198,3.011,2.243,5.595,2.176c4.441-0.116,8.889-0.18,13.319-0.479c3.208-0.217,4.193-1.437,4.205-4.63
	c0.035-10.358,0.061-20.717,0.052-31.076c-0.003-3.14-0.098-6.282-0.207-9.42c-0.099-2.842-1.594-4.525-4.406-4.701
	c-1.641-0.103-3.349,0.003-4.952,0.358c-2.634,0.583-5.13,0.386-7.917-0.691c1.905-1.247,3.888-0.542,5.67-0.892
	c1.799-0.355,3.72-0.839,5.465-0.543C420.694,618.436,422.548,617.762,424.761,615.729z M321.451,410.127
	c-0.585,0.68-1.243,1.315-1.71,2.069c-0.136,0.219,0.272,0.775,0.432,1.178c0.269-0.206,0.705-0.367,0.775-0.626
	c0.233-0.858,0.334-1.751,0.485-2.631c-0.848-4.909-1.846-9.72-5.692-13.402c-0.672-0.644-1.209-2.184-0.902-2.943
	c0.678-1.675,2.173-0.595,3.362-0.375c0.361,0.067,0.728,0.164,1.09,0.156c1.078-0.023,1.696-0.667,1.893-1.66
	c0.105-0.527,0.172-1.181-0.045-1.633c-1.118-2.327-0.79-4.574-0.151-6.973c0.297-1.112,0.101-2.814-0.594-3.645
	c-2.061-2.462-1.721-4.66-0.069-7.042c0.413-0.595,0.704-1.306,0.914-2.004c0.613-2.037-0.22-3.623-2.285-4.337
	c-3.463-1.199-6.84-1.438-9.88,1.016c-0.106,0.432-0.286,0.791-0.261,1.134c0.078,1.081,0.5,2.21,0.294,3.219
	c-0.294,1.439-1.743,1.63-2.973,2.108c-2.438,0.948-3.11,4.114-1.533,6.444c0.459,0.677,2.001,0.632,2.404-0.148
	c0.413-0.802,0.753-1.668,0.959-2.546c0.339-1.443,1.229-2.243,2.618-2.509c1.103-0.211,2.101,0.613,2.531,2.429
	c0.68,2.868,1.392,5.696,3.265,7.867c-0.734,2.22-2.079,2.994-3.946,2.306c-1.545-0.569-2.957-1.495-4.436-2.247
	c-1.311-0.666-2.574-1.504-3.962-1.921c-2.521-0.758-4.495,0.794-4.386,3.406c0.075,1.808,0.446,3.603,0.658,5.199
	c1.848,1.254,3.431,0.971,5.032,0.334c0.845-0.336,1.679-0.774,2.559-0.92c0.41-0.068,1.107,0.341,1.327,0.73
	c0.215,0.382,0.189,1.168-0.076,1.507c-1.451,1.856-3.679,2.971-4.501,5.482c-1.049,3.206-3.667,4.907-6.78,6.05
	c-1.712-1.489-3.42-1.995-5.678-1.773c-2.886,0.284-5.941,0.109-8.766-0.546c-3.704-0.859-6.832,0.577-10.12,1.58
	c-0.165,0.05-0.166,0.631-0.332,1.343c1.091,0.073,2.12,0.171,3.151,0.206c4.216,0.146,8.493,0.012,11.97,3.078
	c0.397,0.35,1.002,0.459,1.505,0.692c2.906,1.345,5.618,1.801,7.932-1.202c0.66-0.857,1.788-1.324,2.923-0.366
	c-0.19,0.964-0.384,1.938-0.662,3.339C307.34,411.787,314.508,412.866,321.451,410.127z M347.601,368.311
	c0.297-0.236,0.771-0.419,0.825-0.687c0.686-3.451,1.107-6.92,0.602-10.449c-0.183-1.277-0.353-2.576-0.323-3.861
	c0.189-8.131,0.486-16.259,0.645-24.39c0.105-5.366,0.156-10.739,0.022-16.104c-0.208-8.321-0.903-16.641-0.805-24.954
	c0.074-6.292-0.201-12.565-0.228-18.848c-0.068-16.108-0.172-32.218-0.183-48.327c-0.01-14.253,0.015-28.507,0.167-42.76
	c0.07-6.635-0.89-13.251-0.216-19.894c0.146-1.435-0.937-2.399-2.529-2.219c-6.102,0.693-12.195,0.365-18.295,0.067
	c-3.333-0.163-5.104,2.319-3.934,5.458c0.32,0.858,0.845,1.643,1.296,2.449c0.99,1.768,1.291,3.458-0.396,5.03
	c-0.901,0.84-1.024,1.797-0.62,3.021c0.259,0.784,0.081,1.776-0.102,2.632c-0.691,3.242-0.033,6.191,1.696,8.968
	c0.559,0.898,1.016,1.86,1.563,2.872c-1.141,1.276-2.167,2.322-3.068,3.466c-0.681,0.865,0.043,2.497,1.155,2.611
	c0.901,0.093,1.833-0.125,2.735-0.041c1.025,0.095,2.033,0.374,3.021,0.567c0.252,3.075,0.613,5.814,0.654,8.558
	c0.026,1.773,0.417,3.233,1.599,4.564c0.565,0.637,0.862,1.512,1.3,2.315c-1.787,1.671-3.336,3.12-4.958,4.637
	c-0.528-0.735-0.841-1.184-1.168-1.621c-0.22-0.294-0.412-0.74-0.702-0.826c-0.847-0.249-1.766-0.568-2.601-0.455
	c-1.068,0.146-1.324,1.147-1.311,2.136c0.088,6.653,0.351,13.308,0.23,19.957c-0.147,8.137,0.727,16.259,0.184,24.394
	c-0.049,0.735-0.002,1.484,0.075,2.218c0.265,2.49,1.152,3.416,3.524,3.288c2.398-0.129,4.797-0.421,7.165-0.824
	c1.005-0.171,1.932-0.807,2.935-1.249c-0.074-1.559-0.194-2.838-0.176-4.115c0.014-0.966,0.324-1.822,1.646-1.767
	c1.396,1.619,2.824,3.27,4.248,4.925c2.236,2.598,2.375,4.5,0.386,7.505c-0.707,1.068-1.746,1.915-2.464,2.976
	c-0.681,1.007-1.141,2.162-1.721,3.296c-3.048-1.373-1.472-4.592-3.3-6.546c-0.714,0.079-1.628,0.355-2.481,0.228
	c-1.073-0.161-2.089-0.676-3.144-0.994c-0.886-0.267-1.781-0.515-2.688-0.688c-2.467-0.472-3.576,0.345-3.631,2.773
	c-0.114,4.985-0.208,9.972-0.224,14.958c-0.042,13.327-0.103,26.655-0.029,39.981c0.044,7.956,0.516,15.913,0.424,23.865
	c-0.046,4.025,0.623,8.082-0.48,12.13c-0.5,1.836-0.675,4.039,1.152,6.02c5.192-0.763,10.316-2.209,15.06-3.835
	c2.222,1.643,4.112,3.04,6.516,4.816C347.057,365.977,345.767,367.822,347.601,368.311z M375.13,519.41
	c-3.077-0.245-5.821-0.479-8.569-0.675c-1.104-0.079-2.266-0.298-3.313-0.062c-3.121,0.704-6.219,0.663-9.377,0.352
	c-2.029-0.2-3.126,0.798-3.356,2.857c-0.204,1.833-0.191,3.694-0.222,5.543c-0.094,5.737,0.242,11.517-0.353,17.2
	c-0.64,6.125-0.026,12.179-0.008,18.261c0.006,2.079,1.034,3.085,2.942,3.399c0.907,0.148,1.843,0.162,2.766,0.169
	c6.848,0.046,13.697,0.078,20.545,0.11c1.103,0.005,2.214-0.094,3.309,0c3.491,0.299,6.972,0.721,10.464,0.999
	c5.127,0.409,10.26,0.723,15.408,0.756c6.245,0.042,12.498,0.476,18.775-0.493c1.463-1.629,1.663-3.557,1.459-5.674
	c-0.246-2.573-0.355-5.163-0.416-7.748c-0.117-4.982,0.114-9.958-0.2-14.954c-0.242-3.845,0.279-7.75,0.608-11.616
	c0.245-2.876-0.182-5.486-2.208-8.012c-4.696-0.177-9.446-0.784-14.274-0.602c-3.869,0.146-7.753-0.099-11.63-0.172
	c-4.441-0.083-8.883-0.255-13.322-0.217c-2.562,0.022-4.065,1.143-4.432,3.359c-0.694,4.182-1.386,8.388-1.638,12.611
	c-0.23,3.866,0.171,7.765,0.195,11.651c0.012,2.022-0.155,4.05-0.332,6.067c-0.032,0.36-0.51,0.683-1.391,1.781
	c0.184-2.936,0.691-4.985,0.363-6.892c-1.083-6.296-0.785-12.506,0.163-18.781C377.557,525.526,377.376,522.324,375.13,519.41z
	 M401.761,456.631c1.209-0.245,1.641,0.431,1.759,1.151c0.208,1.269,0.157,2.579,0.33,3.856c0.367,2.693,1.478,3.703,4.237,4.305
	c4.958,1.083,9.961,0.015,14.938,0.38c1.928,0.141,2.956-1.151,3.105-3.167c0.068-0.919-0.02-1.849-0.013-2.774
	c0.037-4.625,0.061-9.25,0.153-13.874c0.012-0.62-0.12-1.598,1.047-1.539c0.222,0.299,0.567,0.561,0.619,0.871
	c0.185,1.087,0.357,2.19,0.375,3.29c0.058,3.515,0.039,7.031,0.061,10.546c0.007,1.106-0.062,2.23,0.103,3.315
	c0.278,1.823,1.595,2.958,3.415,3.056c0.731,0.04,1.494,0.021,2.203-0.143c4.232-0.979,8.433-0.737,12.667,0.055
	c1.17,0.218,2.446-0.125,3.901-0.228c-0.118-2.306-0.054-4.301-0.404-6.221c-0.128-0.707-1.234-1.235-2.104-2.04
	c2.216-2.443,2.418-5.393,2.569-8.36c0.197-3.864,0.446-7.727,0.6-11.593c0.22-5.554,0.093-11.092-0.806-16.601
	c-0.4-2.453-1.938-3.899-4.55-3.735c-3.483,0.219-6.995,0.092-10.49-0.013c-6.857-0.208-7.415,0.279-7.106,6.89
	c0.18,3.863,0.496,7.72,0.621,11.584c0.045,1.388-0.096,2.893-1.644,3.574c-0.324-0.238-0.583-0.333-0.591-0.447
	c-0.365-4.959-1.169-9.945-0.894-14.871c0.187-3.325,0.162-6.632,0.162-9.94c0-5.243-0.961-6.5-5.865-7.936
	c-1.581-0.463-3.256-0.722-4.902-0.81c-1.65-0.088-3.319,0.139-4.978,0.254c-1.799,0.125-3.597,0.281-5.496,0.432
	c-0.105,1.014-0.187,1.732-0.252,2.452c-0.05,0.552-0.129,1.108-0.109,1.659c0.066,1.796,1.156,2.819,2.869,2.467
	c1.615-0.332,3.14-1.122,4.836-0.281c1.157,0.573,2.343,1.17,3.585,1.47c1.336,0.323,2.754,0.312,4.614,0.493
	c-2.93,1.829-5.72,1.979-8.442,2.048c-5.515,0.139-11.012,0.753-16.555,0.34c-4.051-0.302-8.137-0.175-12.207-0.165
	c-1.424,0.003-3.021-0.252-3.915,1.344c0,4.267-0.044,8.5,0.012,12.731c0.068,5.159-0.605,10.312-0.053,15.478
	c0.177,1.648,0.398,3.387,0.07,4.975c-0.73,3.544,0.319,6.992,0.224,10.496c-0.065,2.4,1.038,3.487,3.337,3.543
	c4.99,0.122,9.985,0.082,14.977-0.003c1.058-0.018,2.107-0.516,2.931-0.732C402.646,461.722,400.797,458.93,401.761,456.631z
	 M269.406,166.565c1.31,1.263,2.18,1.898,2.776,2.73c0.748,1.043,1.184,2.306,1.909,3.37c1.372,2.012,3.434,2.382,5.229,0.841
	c1.229-1.056,2.222-2.389,3.279-3.552c-0.747-1.126-1.324-1.997-1.903-2.872c1.208-0.824,2.212-1.509,3.626-2.474
	c-1.236-0.942-1.98-1.764-2.905-2.152c-1.176-0.492-2.498-0.64-3.759-0.925c-1.736-0.392-3.051-1.218-3.568-3.073
	c-0.185-0.664-0.671-1.243-1.165-2.117c-1.521,0-2.985,0.028-4.448-0.005c-4.608-0.104-9.218-0.205-13.825-0.353
	c-9.058-0.291-18.115-0.616-27.174-0.913c-0.923-0.03-1.854-0.021-2.772,0.063c-1.594,0.147-2.408,0.914-2.554,2.389
	c-0.073,0.732-0.034,1.476-0.019,2.214c0.142,6.831,0.4,13.662,0.418,20.493c0.062,24.057,0.04,48.114,0.062,72.172
	c0.001,1.849-0.025,3.715,0.209,5.541c0.128,0.996,0.779,1.926,1.27,3.062c1.512-0.424,2.747-0.723,3.95-1.119
	c2.425-0.798,3.696-2.388,3.224-5.042c-0.272-1.532,0.071-2.888,0.802-4.256c1.463-2.736,1.494-5.664,0.829-8.628
	c-0.162-0.722-0.371-1.434-0.58-2.144c-0.527-1.784-0.125-3.247,1.352-4.451c1.143-0.931,2.328-1.868,3.232-3.01
	c0.493-0.621,0.772-1.775,0.552-2.51c-0.309-1.032-1.413-0.927-2.356-0.644c-0.826,0.248-1.608,1.064-2.533,0.232
	c0.143-2.002,0.343-3.991,0.411-5.985c0.066-1.926,1.082-2.936,2.761-3.732c1.809-0.858,3.642-1.852,5.123-3.17
	c2.484-2.211,1.875-4.698-1.221-5.791c-2.433-0.858-4.905-1.604-7.321-2.503c-0.399-0.148-0.842-0.832-0.826-1.252
	c0.015-0.416,0.51-1.02,0.928-1.167c0.667-0.237,1.452-0.271,2.17-0.204c1.649,0.155,2.839-0.492,3.817-1.774
	c0.671-0.879,1.482-1.649,2.205-2.49c1.601-1.862,1.813-3.542,0.438-5.478c-0.617-0.869-1.652-1.433-2.447-2.187
	c-0.235-0.222-0.299-0.623-0.441-0.942c0.453-0.729,0.901-1.451,1.327-2.136c-0.711-0.645-1.234-1.118-1.787-1.62
	c1.605-2.159,3.134-4.204,4.649-6.258c1.529-2.071,3.367-3.407,6.132-2.803c3.021,0.659,5.475-0.329,7.357-2.733
	c1.91-2.439,4.308-3.353,7.352-2.598c0.5,0.124,1.084-0.095,1.623-0.155C267.23,172.715,267.93,169.938,269.406,166.565z
	 M426.51,506.476c-0.169-2.073-0.3-2.965-0.305-3.859c-0.021-3.882,0-7.765-0.006-11.647c-0.009-5.731-0.01-11.463-0.048-17.194
	c-0.03-4.499-0.329-4.668-4.909-5.737c-5.588-1.303-10.971,0.785-16.478,0.767c-1.259-0.004-1.676,1.333-1.623,2.517
	c0.106,2.396,0.382,4.787,0.428,7.184c0.114,5.91,0.349,11.83,0.139,17.732c-0.217,6.069,1.144,12.187-0.596,18.22
	c-0.374,1.296,0.689,2.612,2.173,2.649c5.907,0.146,11.817,0.2,17.726,0.168c1.946-0.011,2.858-1.354,3.268-3.188
	c0.213-0.958-0.394-2.311,1.247-2.857c0.398,1.948,0.787,3.856,1.162,5.689c2.568,0.561,4.85,0.616,6.724-0.763
	c2.565-1.888,5.423-2.188,8.407-2.194c0.314-0.001,0.628,0.3,0.942,0.461c0.199,0.852,0.399,1.703,0.585,2.5
	c4.607,0.071,4.771-0.051,5.117-3.878c0.117-1.289,0.208-2.582,0.246-3.874c0.027-0.917,0.173-1.928-0.147-2.732
	c-0.38-0.953-1.204-1.729-1.863-2.619c2.409-3.139,2.23-6.664,2.206-10.161c-0.046-6.649-0.115-13.299-0.107-19.948
	c0.002-1.806,0.882-3.974-1.208-4.992c-1.979-0.963-4.255-1.237-6.424-0.229c-0.667,0.309-1.337,0.665-1.901,1.127
	c-1.771,1.451-3.846,2.074-6.191,2.497c-0.438-1.012-0.858-1.982-1.265-2.921c-4.404-0.71-5.238-0.173-5.486,3.631
	c-0.096,1.473-0.028,2.957-0.035,4.436c-0.031,7.581-0.028,15.162-0.117,22.742C428.149,501.778,428.519,503.68,426.51,506.476z
	 M428.081,520.244c-0.282,4.35-0.812,8.388-0.753,12.418c0.144,9.786,0.659,19.566,0.825,29.352
	c0.072,4.237,2.982,6.093,6.344,6.147c3.143,0.05,6.289,0.029,9.431-0.071c1.283-0.041,2.575-0.295,3.831-0.59
	c1.506-0.351,2.344-1.342,2.04-2.809c-0.656-3.165-0.293-6.218,0.27-9.346c0.284-1.581-0.075-3.303-0.284-4.942
	c-0.617-4.827,0.024-9.571,0.855-14.305c0.048-0.274,0.491-0.48,1.038-0.981c0.313,0.702,0.801,1.289,0.802,1.876
	c0.008,4.252-0.151,8.505-0.122,12.757c0.03,4.426,0.2,8.852,0.34,13.277c0.017,0.545,0.192,1.092,0.346,1.625
	c0.733,2.552,1.62,3.325,4.282,3.471c2.77,0.151,5.546,0.243,8.319,0.239c2.029-0.003,4.082-0.057,6.072-0.397
	c0.676-0.116,1.774-1.267,1.689-1.782c-0.61-3.7,0.283-7.376,0.079-10.991c-0.269-4.779,0.557-9.577-0.444-14.351
	c-0.326-1.554-0.102-3.405,0.436-4.92c1.373-3.866,0.358-7.72,0.115-11.521c-0.229-3.585-1.823-4.715-5.537-4.807
	c-4.252-0.106-8.51-0.001-12.765,0.093c-0.668,0.015-1.329,0.455-2.131,0.75c-0.22,3.496,1.138,7.125-1.379,10.248
	c-1.735-0.368-1.983-1.632-1.499-2.916c1.003-2.655,0.5-5.03-0.665-7.308C445.696,519.618,432.785,519.462,428.081,520.244z
	 M240.079,321.21c-0.863,0.208-1.57,0.355-2.264,0.549c-3.371,0.944-4.813,0.416-6.244-2.562c-0.634-1.322-0.838-2.852-1.479-4.169
	c-0.549-1.126-1.273-2.289-2.22-3.074c-2.107-1.749-4.644-0.673-4.681,2.061c-0.079,5.914-0.308,11.872,0.268,17.739
	c0.795,8.108,1.506,16.193,1.593,24.348c0.106,9.976-0.119,19.961,0.623,29.926c0.095,1.278-0.204,2.579-0.218,3.871
	c-0.068,6.104-0.218,12.209-0.106,18.31c0.072,3.951,1.054,4.784,5.068,4.858c4.417,0.083,8.836,0.019,12.817,0.019
	c1.61-1.069,0.896-3.402,2.984-3.444c3.014,3.555,3.014,3.537,7.855,3.32c1.848-0.083,3.707,0.024,5.551-0.1
	c3.734-0.252,8.007-3.969,9.053-7.821c0.081-0.298-0.186-0.691-0.354-1.251c-0.535-0.229-1.176-0.635-1.87-0.772
	c-1.808-0.358-3.631-0.756-5.461-0.84c-1.947-0.09-3.651-0.479-4.96-2.016c-0.238-0.279-0.521-0.53-0.818-0.746
	c-1.299-0.945-2.751-1.02-4.24-0.629c-1.511,0.396-1.762,1.63-2.056,2.964c-0.181,0.821-0.728,1.776-1.405,2.211
	c-0.651,0.418-1.763,0.487-2.516,0.238c-0.44-0.145-0.819-1.22-0.801-1.864c0.048-1.655,0.629-3.334,0.458-4.947
	c-0.275-2.602-0.377-5.098,0.303-7.674c0.235-0.889-0.331-2.104-0.805-3.03c-0.399-0.779-1.196-1.355-1.727-1.925
	c0.208-1.815,0.391-3.4,0.587-5.103c-1.515-0.655-2.787-1.204-4.097-1.77c1.72-2.752,2.217-5.308,0.457-8.102
	c-0.737-0.125-1.444-0.274-2.159-0.359c-0.911-0.108-1.839-0.1-2.737-0.263c-0.837-0.152-1.646-1.481-1.244-2.167
	c1.654-2.823,2.979-5.857,7.011-6.295c3.808-0.415,4.332-1.283,4.546-4.929c0.021-0.369,0.013-0.741,0.017-1.11
	c0.089-7.955,0.223-15.909,0.219-23.864c0-1.226-0.42-2.567-1.018-3.65C242.956,325.243,241.616,323.496,240.079,321.21z
	 M352.22,411.373c3.267,0.71,6.101,1.377,8.959,1.917c0.883,0.167,1.832,0.002,2.749-0.041c1.66-0.08,3.318-0.269,4.977-0.259
	c5.394,0.031,5.159-1.2,5.879-4.79c0.064-0.321-0.143-0.697-0.229-1.073c-1.414-1.116-2.841-2.243-4.262-3.364
	c-1.611,0.681-3.099,1.309-4.762,2.011c-1.499-1.223-2.901-2.367-4.083-3.332c-0.198-2.219-0.421-4.044-0.498-5.875
	c-0.036-0.852,0.21-1.715,0.312-2.444c2.283-0.602,4.23-1.115,6.272-1.653c1.639,0.611,3.334,1.244,4.938,1.843
	c4.391-2.655,2.998-7.564,4.755-11.248c1.661,2.558,3.089,4.896,4.657,7.135c1.946,2.779,3.125,3.157,5.972,1.339
	c2.148-1.373,4.332-1.898,6.794-1.913c1.619-0.01,3.368,0.259,4.76-1.197c0.408-1.507,0.697-3.154,1.304-4.675
	c0.854-2.14,1.134-4.353,0.735-6.532c-0.875-4.782-0.659-9.536-0.129-14.309c0.172-1.549-0.015-3.014-1.37-3.968
	c-0.472-0.333-1.227-0.264-2.343-0.468c0.541,2.291,0.98,4.045,1.364,5.811c0.255,1.171-0.124,2.175-0.976,3.012
	c-1.367,1.344-2.95,2.271-4.909,2.24c-1.842-0.029-3.7-0.078-5.517-0.347c-2.616-0.386-5.139-0.209-7.65,0.586
	c-1.025,0.324-2.091,0.517-2.923,0.717c-2.221-1.133-3.664-2.887-6.1-3.148c-6.613-0.711-10.768-0.646-19.62,0.855
	c-1.123,3.857-1.103,4.391-0.115,7.461c0.386,1.2,1.006,2.508,0.836,3.667c-0.343,2.336,0.062,4.35,1.201,6.372
	c1.261,2.236,1.611,4.52-0.303,6.69c-0.341,0.386-0.417,1.006-0.457,1.107c0.61,3.472,1.163,6.542,1.688,9.616
	C354.869,407.461,354.861,407.463,352.22,411.373z M693.538,1135.514c0.563-0.062,1.089-0.133,1.617-0.178
	c2.354-0.197,3.109-0.75,3.293-2.742c0.118-1.275-0.004-2.575-0.041-3.864c-0.08-2.768-0.35-5.543-0.235-8.303
	c0.472-11.43-0.677-22.86,0.055-34.288c0.024-0.367,0.015-0.739-0.014-1.107c-0.158-2.074-1.028-2.947-3.164-3.034
	c-5.344-0.22-10.689-0.399-16.035-0.595c-0.185-0.008-0.37-0.032-0.553-0.024c-1.324,0.064-2.434,1.103-2.533,2.467
	c-0.053,0.729,0.084,1.47,0.085,2.205c0.009,9.231,0.012,18.462,0.008,27.693c-0.002,3.879,0.153,7.768-0.082,11.632
	c-0.249,4.094,0.497,8.04,1.167,12.015c0.058,0.341,0.334,0.646,0.51,0.969c1.145,0.887,2.291,1.775,3.282,2.543
	c0.063,0.646,0.184,1.026,0.114,1.367c-0.11,0.537-0.4,1.035-0.523,1.571c-0.826,3.566,0.87,5.799,4.451,5.861
	c2.917,0.051,5.37-1.225,7.659-2.839c1.652-1.165,2.012-2.2,1.258-4.32C693.033,1140.225,692.421,1137.982,693.538,1135.514z
	 M351.146,465.261c2.495,1.329,4.843,1.027,7.229,0.581c3.286-0.616,6.581-0.798,9.917-0.244c1.247,0.208,2.584,0.173,3.839-0.021
	c3.465-0.538,4.839-2.003,4.945-5.538c0.11-3.69,0.02-7.391-0.107-11.083c-0.069-2.018-0.071-4.131-0.683-6.013
	c-0.843-2.594-0.963-5.032-0.112-7.583c0.231-0.694,0.504-1.463,0.425-2.159c-0.546-4.763-1.155-9.52-1.803-14.27
	c-0.205-1.5-1.299-2.189-2.718-2.293c-1.1-0.081-2.211,0.001-3.317-0.004c-2.758-0.016-5.518-0.015-8.275-0.071
	c-1.661-0.034-3.321-0.245-4.98-0.228c-3.775,0.038-5.21,1.367-4.838,5.023c0.561,5.51-0.846,11.065,0.536,16.55
	c0.21,0.833-0.261,1.815-0.275,2.731c-0.129,7.743-0.229,15.487-0.312,23.231C350.611,464.211,350.867,464.556,351.146,465.261z
	 M350.499,468.559c-0.249,0.96-0.422,1.316-0.421,1.671c0.026,12.028,0.059,24.056,0.118,36.084c0.014,2.774,0.034,5.554,0.219,8.32
	c0.117,1.75,1.155,2.648,2.842,2.86c0.548,0.068,1.112,0.116,1.66,0.072c5.523-0.444,11.044-0.907,16.565-1.372
	c0.368-0.031,0.734-0.109,1.092-0.201c2.206-0.568,3.137-1.605,3.374-3.824c0.079-0.733,0.053-1.479,0.06-2.219
	c0.092-9.996,0.211-19.991,0.25-29.987c0.011-2.774-0.133-5.555-0.363-8.32c-0.182-2.188-0.994-2.943-3.161-3.131
	c-2.392-0.208-4.793-0.377-7.193-0.397c-4.054-0.035-8.109,0.044-12.164,0.115C352.484,468.246,351.595,468.429,350.499,468.559z
	 M615.761,1054.048c1.36-0.699,2.249-1.396,3.246-1.625c3.814-0.875,5.62-3.093,5.485-7.073c-0.101-2.943,0.292-5.905,0.174-8.846
	c-0.081-2.014-1.331-2.896-3.331-2.922c-2.21-0.028-4.421-0.052-6.631-0.061c-0.921-0.004-1.939-0.198-2.737,0.127
	c-0.735,0.3-1.83,1.271-1.749,1.786c0.877,5.547-0.229,11.039-0.251,16.552c-0.001,0.365,0.108,0.73,0.172,1.096
	c0.277,1.573-0.091,2.97-1.288,4.041c-1.753,1.567-2.437,3.593-2.976,5.81c-0.284,1.168-1.002,2.604-1.964,3.166
	c-2.924,1.711-3.274,4.316-3,7.181c0.206,2.155,0.694,4.283,1.097,6.66c2.86,0.229,5.42,0.575,7.983,0.609
	c6.661,0.09,13.324,0.058,19.986,0.038c1.847-0.005,3.696-0.096,5.542-0.21c4.056-0.247,8.11-0.523,12.162-0.833
	c0.252-0.02,0.475-0.426,0.716-0.656c-0.499-0.95-0.997-1.899-1.567-2.982c0.74-0.774,1.414-1.391,1.983-2.093
	c1.332-1.642,1.594-3.309,0.181-4.414c-2.535-1.98-4.605-4.802-8.302-4.986c-1.455-0.073-2.87-0.76-4.33-0.935
	c-1.824-0.218-3.697-0.404-5.512-0.229c-2.842,0.273-4.332,1.938-4.579,4.686c-0.166,1.83,0.129,3.818-0.501,5.462
	c-0.745,1.943,1.154,3.39,0.68,5.205c-0.801,0-1.663,0.198-1.797-0.031c-1.295-2.203-2.52-4.315-1.391-7.187
	c0.709-1.805,0.603-3.998,0.545-6.008c-0.029-1.011-0.579-2.146-1.217-2.976C620.486,1059.665,618.231,1057.043,615.761,1054.048z
	 M345.768,489.447c0.597-0.911,1.079-1.677,1.592-2.422c0.804-1.166,1.012-2.516,0.424-3.702c-1.944-3.933-2.305-8.049-1.479-12.529
	c-2.711-1.534-5.111-3.279-8.24-3.284c-3.689-0.006-7.38,0.032-11.068,0.131c-1.647,0.044-2.659,1.162-2.771,2.878
	c-0.048,0.735,0.026,1.479,0.036,2.219c0.076,6.08,0.233,12.16,0.2,18.239c-0.03,5.528-1.278,11.047-0.08,16.588
	c0.113,0.523,0.017,1.111-0.071,1.655c-1.132,7.035,0.866,7.325,6.759,7.139c0.371-0.011,0.742-0.068,1.109-0.047
	c3.055,0.167,5.403-0.851,6.662-3.833c0.091-0.216,0.635-0.241,1.185-0.43c0.838,1.096,1.624,2.343,2.631,3.375
	c0.954,0.976,3.053,1.024,4.153,0.226c1.077-0.78,1.005-1.931,0.603-3.012c-0.676-1.818-0.401-3.494,0.006-5.382
	C348.68,501.408,348.965,495.531,345.768,489.447z M327.136,426.519c-0.752,1.894-1.896,3.54-1.996,5.246
	c-0.354,6.087-0.374,12.195-0.479,18.296c-0.069,4.058-0.091,8.118-0.079,12.177c0.003,1.029,0.216,2.057,0.318,2.956
	c2.949,0,5.528-0.024,8.105,0.007c2.385,0.029,4.347-0.671,5.628-2.847c0.358-0.608,0.949-1.08,1.65-1.853
	c1.001,0.617,1.871,1.256,2.826,1.717c1.675,0.808,3.039,0.112,3.187-1.691c0.313-3.837,0.509-7.623,1.598-11.419
	c0.975-3.397,0.499-7.024-2.548-9.689c-1.333-1.166-1.618-2.687-1.771-4.459c-0.328-3.807-0.336-7.362,2.564-10.366
	c0.491-0.509,0.334-1.642,0.456-2.362c-2.352-0.931-4.372-1.746-6.406-2.524c-0.509-0.195-1.105-0.471-1.588-0.368
	c-3.295,0.697-6.17-0.291-9.025-1.845c-1.654-0.901-3.448-0.015-3.953,1.74C324.828,422.004,324.76,424.668,327.136,426.519z
	 M324.197,519.639c-0.132,1.302-0.289,2.026-0.263,2.744c0.104,2.956,0.658,5.954,0.331,8.854
	c-0.958,8.493,0.015,16.994-0.45,25.478c-0.122,2.214-0.229,4.433-0.224,6.649c0.005,2.154,1.136,3.453,3.251,3.759
	c0.894,0.13,1.866,0.12,2.741-0.085c3.806-0.896,7.597-0.421,11.413-0.139c1.432,0.105,2.94-0.125,4.343-0.481
	c2.105-0.536,2.734-1.42,2.515-3.637c-0.492-4.972-0.288-9.919,0.117-14.881c0.086-1.06-0.095-2.284-0.572-3.22
	c-1.655-3.247-1.447-6.353,0.03-9.592c0.515-1.128,0.683-2.521,0.638-3.78c-0.111-3.127-0.404-6.25-0.687-9.368
	c-0.163-1.803-1.663-3.264-3.353-2.963c-2.349,0.417-4.663,1.102-6.941,1.83c-1.357,0.435-1.936,1.64-2.068,3.025
	c-0.211,2.205-0.28,4.434-0.642,6.613c-0.391,2.355,0.238,3.956,2.557,4.824c1.942,0.727,2.912,2.111,2.645,4.331
	c-2.451,0.951-4.805,1.863-7.056,2.736c-3.933-4.023-4.06-4.637-1.705-9.181c0.61-1.175,1.374-2.37,0.784-3.647
	c-1.018-2.205-0.384-4.337-0.127-6.525c0.347-2.954-0.8-4.395-3.672-3.901C326.73,519.266,325.653,519.415,324.197,519.639z
	 M611.211,982.979c0.108,3.707,0.275,6.992,0.271,10.278c-0.001,1.829-0.165,3.68-0.48,5.481c-0.38,2.167-1.183,4.252-0.117,6.475
	c1.119,2.332-1.464,4.094-1.139,6.336c0.106,0.729,0.232,1.456,0.387,2.175c0.232,1.082,0.464,2.166,0.759,3.232
	c0.521,1.886,0.343,3.624-0.793,5.272c-0.509,0.738-0.848,1.593-1.182,2.235c0.539,2.354,1.486,4.407,3.755,4.542
	c2.462,0.145,4.565,0.78,6.784,1.804c2.73,1.258,4.991-0.524,5.189-3.632c0.035-0.552,0.017-1.106,0.018-1.659
	c0.024-12.54,0.051-25.081,0.062-37.621c0.001-0.918-0.033-1.849-0.177-2.753c-0.264-1.671-1.2-2.756-2.9-2.847
	C618.376,982.122,615.056,981.683,611.211,982.979z M652.389,1182.317c3.477,1.096,6.808,0.589,10.067,0.503
	c3.562-0.093,4.875-1.353,5.299-5.007c0.192-1.64,0.653-2.799,2.089-3.591c2.213-1.222,2.708-3.207,2.769-5.609
	c0.108-4.148-0.41-8.059-2.61-11.691c-1.346-2.221-2.119-4.68-2.058-7.345c0.006-0.252-0.451-0.514-0.679-0.757
	c-1.608-0.666-2.989,1.595-4.492,0.504c0-2.379,0.05-4.577-0.015-6.771c-0.056-1.895-0.897-3.127-1.832-2.86
	c-1.367,0.392-1.371,1.607-1.467,2.684c-0.424,4.771-0.771,9.55-1.235,14.318c-0.063,0.643-0.485,1.478-1.005,1.801
	c-0.911,0.568-1.731-0.082-2.394-0.767c-0.837-0.866-1.171-1.87-0.71-3.036c0.634-1.604,0.904-3.245,0.074-4.829
	c-1.256-2.398-1.265-4.967-1.289-7.562c-0.011-1.205-0.191-2.408-0.295-3.612C651.654,1142.48,651.747,1177.556,652.389,1182.317z
	 M223.354,307.512c3.125,0.366,5.664,0.652,8.199,0.963c1.809,0.222,3.026,1.168,3.701,2.905c0.462,1.19,1.083,2.326,1.718,3.438
	c0.13,0.229,0.764,0.438,0.937,0.321c0.396-0.269,0.953-0.786,0.907-1.132c-0.167-1.27-0.637-2.498-0.834-3.766
	c-0.252-1.625-0.646-3.311-0.442-4.901c0.268-2.082,0.255-3.966-0.607-5.934c-0.403-0.919-0.454-2.272-0.086-3.199
	c1.293-3.262-0.113-5.762-1.963-8.172c-0.783-1.021-1.689-1.972-2.654-2.824c-1.816-1.602-2.249-3.557-2.352-5.928
	c-0.104-2.404,0.192-4.362,2.074-5.967c0.376-0.321,0.511-0.925,0.642-1.177c-0.994-2.206-1.824-4.227-2.806-6.171
	c-0.716-1.419-2.478-2.032-4.345-1.686c-1.473,0.272-2.211,1.262-2.382,2.679c-0.155,1.282-0.314,2.574-0.312,3.862
	c0.013,11.248,0.848,22.489,0.186,33.743C222.882,305.444,223.178,306.343,223.354,307.512z M404.454,366.017
	c-1.138,3.299-0.545,5.813-0.011,8.326c0.458,2.16,0.585,4.232,0.255,6.517c-0.424,2.938-0.976,6.192,1.152,9.123
	c2.572-0.189,5.076-1.257,7.593-0.25c0.141,0.056,0.403-0.007,0.524-0.112c2.104-1.831,4.022-0.779,6.104,0.165
	c0.863,0.39,2.436,0.374,3.099-0.172c2.168-1.783,3.937-4.152,3.421-7.095c-0.697-3.984-0.833-7.923-0.572-11.934
	c0.208-3.186-0.905-4.264-4.32-4.158c-2.936,0.091-5.87,0.389-8.791,0.716C410.169,367.448,407.446,367.934,404.454,366.017z
	 M319.568,183.083c0-2.396,0.061-4.554-0.035-6.705c-0.032-0.696-0.333-1.479-0.753-2.04c-1.764-2.355-3.358-4.917-6.487-5.786
	c-0.593-0.165-1.09-0.678-1.925-1.221c0.905-0.497,1.338-0.814,1.822-0.98c0.697-0.239,1.457-0.298,2.145-0.556
	c5.225-1.954,6.251-4.263,4.265-10.197c-6.277-0.365-12.687-0.684-19.089,0.429c-0.198,0.035-0.312,0.558-0.463,0.853
	c2.413,2.067,2.492,2.052,3.005,4.788c0.325,1.733,1.038,3.117,2.438,4.19c0.702,0.538,1.314,1.194,1.838,1.677
	c-0.14,3.209-1.458,5.233-4.143,6.331c-1.243,0.509-2.282,1.207-2.584,2.651c-0.643,3.074,0.78,5.532,3.767,6.388
	c4.698,1.346,9.494,1.414,14.31,0.94C318.357,183.778,318.998,183.322,319.568,183.083z M681.455,1181.717
	c5.685,0.318,10.265,0.601,14.85,0.813c1.487,0.069,2.507-1.189,2.058-2.554c-0.98-2.979-1.845-6.031-4.954-7.693
	c-1.784-0.952-2.462-2.49-2.398-4.604c0.067-2.195-0.32-4.408-0.567-6.607c-0.219-1.959-1.266-3.501-2.849-4.569
	c-2.113-1.427-4.337-2.689-6.419-3.965c-3.969,2.895-4.515,3.68-5.024,7.049c-0.605,4.013-0.465,8.034-0.375,12.346
	c1.1,0.123,1.976,0.226,2.854,0.316c1.099,0.113,2.234,0.079,3.292,0.352c3.296,0.849,4.234,3.612,2.168,6.249
	C683.529,1179.563,682.862,1180.193,681.455,1181.717z M634.855,1057.076c0.535-3.545,1.255-6.909,3.699-9.908
	c2.422,1.988,2.947,4.453,3.31,6.984c0.155,1.083-0.038,2.308,0.416,3.226c0.31,0.627,1.448,1.066,2.254,1.135
	c0.435,0.036,1.354-0.873,1.366-1.372c0.071-2.94,0.014-5.892-0.147-8.831c-0.142-2.572-0.495-5.133-0.717-7.701
	c-0.095-1.104-0.012-2.226-0.154-3.32c-0.305-2.356-1.629-3.641-4.043-3.712c-3.321-0.1-6.647-0.092-9.968-0.006
	c-2.778,0.072-4.614,1.817-4.443,4.586c0.351,5.666,0.971,11.317,1.502,17.225C630.043,1056.088,632.149,1057.184,634.855,1057.076z
	 M719.962,1112.469c-1.25,3.725-4.278,6.081-6.413,8.984c-0.309,0.419-0.885,0.873-1.352,0.888
	c-0.844,0.025-1.838-0.061-2.497-0.503c-0.429-0.29-0.66-1.381-0.482-1.959c0.373-1.222,1.118-2.322,1.632-3.507
	c0.91-2.097,1.305-4.211-0.071-6.567c-1.104,0.14-2.22,0.107-3.213,0.441c-2.812,0.944-3.585,2.021-3.56,4.883
	c0.013,1.284,0.216,2.58,0.465,3.846c0.825,4.198,0.003,8.072-2.119,11.733c-0.349,0.603-0.57,1.278-1.033,2.337
	c1.089,0.062,1.817,0.278,2.426,0.098c1.054-0.313,2.001-0.975,3.05-1.315c3.246-1.056,6.461-1.86,9.174,1.29
	c0.785,0.912,1.983,1.006,3.062,0.445c1.141-0.594,1.247-1.74,1.236-2.883c-0.023-2.581-0.039-5.163-0.084-7.744
	C720.121,1119.446,720.037,1115.958,719.962,1112.469z M275.476,386.033c-0.862,0.424-1.066,0.468-1.186,0.592
	c-2.748,2.828-2.591,4.3,0.664,5.674c1.352,0.57,3.07,0.633,4.105,1.525c4.142,3.573,8.585,2.188,13.007,1.098
	c1.201-0.296,2.395-0.987,3.346-1.788c0.595-0.501,1.103-1.616,0.969-2.329c-0.134-0.72-1.03-1.717-1.726-1.842
	c-3.606-0.646-7.256-1.436-10.888-1.422C280.812,387.553,277.968,387.851,275.476,386.033z M630.488,966.095
	c-2.261,2.921-2.061,5.871-1.664,8.81c0.197,1.455,1.315,2.29,2.692,2.412c3.858,0.342,7.728,0.555,11.596,0.784
	c0.34,0.021,0.696-0.205,1.042-0.324c0.641-0.223,0.934-1.395,0.428-1.881c-0.522-0.504-1.056-1.047-1.688-1.374
	c-1.682-0.873-3.474-1.115-5.386-0.915c-0.536,0.057-1.441-0.518-1.67-1.03c-0.446-0.995,0.271-1.774,1.157-2.183
	c0.831-0.382,1.829-0.442,2.601-0.901c0.525-0.31,1.18-1.163,1.069-1.591c-0.139-0.539-0.968-1.21-1.555-1.27
	C636.362,966.355,633.595,966.269,630.488,966.095z M629.148,957.545c0.55,0.304,0.868,0.63,1.19,0.634
	c3.873,0.048,7.75,0.139,11.62,0.017c1.636-0.051,2.523-1.38,3.133-2.809c0.538-1.262-0.195-2.103-1.984-2.267
	c-0.361-0.032-0.722-0.044-1.192-0.071c-1.114-1.284-1.287-3.59-3.419-3.963c-2.9-0.508-6.2-1.383-8.486,0.803
	C627.889,951.916,628.523,954.971,629.148,957.545z M319.57,206.511c-0.68-4.725-0.682-4.711-4.462-5.295
	c-1.029-0.159-2.3-0.075-2.31-1.994c1.955-0.21,3.943-0.372,5.91-0.676c0.433-0.067,1.138-0.673,1.106-0.968
	c-0.067-0.633-0.427-1.665-0.848-1.763c-3.93-0.918-7.88-1.236-12.201,0.199c1.027,2.26,1.712,4.244,0.026,6.288
	c-0.742,0.9,0.004,2.06,0.969,2.832C311.319,207.985,315.205,207.684,319.57,206.511z M719.715,1036.699
	c-2.04,0.26-1.067,2.757-3.018,3.304c-2.29-0.046-4.705,0.487-6.147,2.995c1.679,2.839,4.875,1.492,6.982,2.778
	c2.581,4.378,2.077,8.466-0.816,12.462c0.482,1.043,0.877,2.078,1.421,3.026c0.965,1.683,1.326,3.488,1.006,5.354
	c-0.654,3.812-1.444,7.603-2.139,11.407c-0.058,0.317,0.18,0.688,0.28,1.035c0.318,0.172,0.635,0.482,0.954,0.485
	c0.507,0.007,1.017-0.191,1.851-0.377c0.1-13.727,0.206-27.401,0.271-41.077C720.362,1037.63,719.939,1037.164,719.715,1036.699z
	 M608.077,988.107c-0.176-1.623-0.267-3.264-0.61-4.852c-0.059-0.274-1.414-0.661-1.772-0.415c-1.637,1.117-2.093,2.883-2.215,4.796
	c-0.351,5.492-0.844,10.978-1.083,16.474c-0.06,1.391,0.588,2.823,0.998,4.21c0.062,0.212,0.708,0.484,0.897,0.382
	c0.432-0.233,0.769-0.663,1.098-1.052c0.09-0.106,0.081-0.385,0.009-0.531c-1.222-2.492-0.497-4.754,0.135-7.343
	C606.467,995.959,609.441,992.451,608.077,988.107z M667.569,1014.94c0.24-3.146,0.526-6.382,0.709-9.623
	c0.05-0.893-0.103-1.835-0.352-2.698c-0.629-2.175-3.065-2.827-4.806-1.354c-1.024,0.866-1.698,1.896-1.641,3.3
	c0.096,2.372,0.062,4.757,0.307,7.113C662.089,1014.604,663.576,1015.435,667.569,1014.94z M658.425,1046.224
	c1.622,1.708,2.992,3.188,4.423,4.607c0.187,0.187,0.895,0.198,1.006,0.042c0.287-0.406,0.659-1.103,0.492-1.42
	c-1.342-2.568-3.403-4.754-3.472-7.95c-0.06-2.781-2.051-4.175-4.427-5.108c-1.635-0.644-2.994,0.056-3.334,1.743
	c-0.532,2.648,0.11,5.138,1.067,7.572c0.123,0.31,0.481,0.527,0.856,0.919C656.022,1046.511,657.093,1046.383,658.425,1046.224z
	 M259.47,201.852c1.215-0.084,2.145-0.074,3.047-0.225c2.392-0.4,3.79-1.894,4.248-4.428c0.256-1.415-0.69-2.658-2.116-2.561
	c-2.567,0.173-5.133,0.411-7.684,0.746c-1.37,0.18-2.391,0.979-2.605,2.459c-0.207,1.427,0.739,3.044,2.151,3.481
	C257.55,201.646,258.667,201.716,259.47,201.852z M655.583,1100.679c-0.642-2.027-1.086-3.433-1.532-4.837
	c-0.423-1.332-0.848-2.664-1.272-3.996c-0.768,0.75-0.89,1.404-0.898,2.061c-0.097,7.214-0.16,14.427-0.266,21.639
	c-0.07,4.804-0.233,9.607-0.269,14.411c-0.008,1.171-0.221,2.606,1.534,3.261c0.218-0.645,0.534-1.13,0.523-1.609
	c-0.158-7.571-0.325-15.145-0.565-22.715C652.742,1105.856,652.869,1102.943,655.583,1100.679z M261.075,386.612
	c-3.182-0.531-6.086-0.516-8.974-0.191c-1.044,0.117-2.151,0.527-3.027,1.11c-2.108,1.402-2.136,3.648-0.245,5.803
	c0.197,0,0.407,0.06,0.558-0.009c2.923-1.336,5.501-3.433,9.092-3.183C259.752,390.23,261.151,389.056,261.075,386.612z
	 M281.548,194.294c-3.491,0-6.413-0.059-9.329,0.047c-0.604,0.022-1.329,0.544-1.722,1.049c-0.227,0.291-0.08,1.157,0.209,1.51
	c0.681,0.832,1.566,2.161,2.335,2.139c3.115-0.093,5.523,1.837,8.352,2.443c0.29,0.062,0.659-0.247,1.296-0.51
	c-0.463-0.928-1.13-1.796-1.311-2.755C281.184,197.184,281.446,196.065,281.548,194.294z M666.389,1018.391
	c-2.144,1.617-3.894,2.905-5.609,4.239c-2.301,1.788-2.892,4.031-1.913,6.681c1.733,0.281,1.697-1.435,2.616-1.842
	c1.147-0.508,2.376-0.862,3.598-1.167c1.738-0.431,3.008-1.371,3.521-3.103C669.223,1021.111,668.122,1019.738,666.389,1018.391z
	 M379.633,410.648c2.288,1.689,3.58,3.291,5.624,2.788c3.558-0.876,7.062-1.979,10.563-3.064c0.322-0.1,0.471-0.756,0.905-1.509
	c-4.75-0.698-9.127-0.044-13.487,0.147C382.279,409.052,381.352,409.839,379.633,410.648z M632.584,940.63
	c3.565-1.052,7.437,1.159,10.167-2.297c-1.863-1.104-3.703-1.023-5.523-1.113c-1.992-0.098-3.979-0.293-5.975-0.447
	c-1.607,3.023-1.964,5.062-1.064,7.178c0.161,0.378,0.883,0.744,1.319,0.713c0.425-0.031,1.1-0.527,1.161-0.902
	C632.809,942.896,632.645,941.982,632.584,940.63z M672.189,1026.891c0.326-0.101,0.902-0.158,0.924-0.302
	c0.891-5.704,0.67-16.233-0.49-19.771c-1.561,2.764-1.196,5.608-1.346,8.19C671.049,1018.958,670.202,1023.067,672.189,1026.891z
	 M428.439,410.708c0.041,0.338,0.048,0.901,0.182,1.433c0.428,1.708,2.051,2.816,3.734,2.597c1.602-0.207,2.655-1.797,2.437-3.757
	c-0.06-0.542-0.196-1.095-0.41-1.595c-0.609-1.422-2.084-2.283-3.542-2.137C429.458,407.387,428.486,408.704,428.439,410.708z
	 M282.954,156.907c0.036,2.782,1.513,3.432,3.265,3.603c2.09,0.204,4.029-0.452,5.764-1.584c0.358-0.233,0.651-0.979,0.55-1.385
	c-0.102-0.409-0.696-0.927-1.13-0.985C288.666,156.186,285.928,156.152,282.954,156.907z M246.011,205.513
	c1.283,0.198,2.123,0.441,2.96,0.437c3.825-0.019,7.651-0.093,11.476-0.202c0.221-0.006,0.428-0.488,0.893-1.056
	c-1.296-0.371-2.456-0.974-3.622-0.986c-3.442-0.038-6.889,0.128-10.329,0.31C247.041,204.034,246.727,204.709,246.011,205.513z
	 M559.329,1074.534c0.745,0.982,0.903,1.358,1.185,1.536c1.942,1.209,4.71,0.608,6.221,3.01c0.284,0.451,2.05,0.125,3.078-0.092
	c0.91-0.194,1.162-1.709,0.446-2.267C567.195,1074.331,563.785,1073.635,559.329,1074.534z M682.579,1037.416
	c0.761,2.471,2.32,3.039,3.959,3.057c1.756,0.021,3.672,0.151,5.056-1.346c0.208-0.225,0.347-0.732,0.236-0.986
	c-0.196-0.449-0.557-1.079-0.941-1.152C688.243,1036.488,685.588,1036.355,682.579,1037.416z M652.461,1080.268
	c2.142-0.459,4.135,0.496,6.004-0.95c0.041-2.2-1.163-3.474-2.833-4.405c-1.637-0.915-3.453-0.044-3.661,1.867
	C651.864,1077.775,652.239,1078.824,652.461,1080.268z M412.298,354.901c-3.582-1.596-4.84-1.619-5.686-0.066
	c-0.811,1.487-1.225,3.078-0.542,4.706c0.23,0.547,0.862,0.924,1.38,1.45C409.221,358.768,410.755,356.839,412.298,354.901z
	 M186.141,173.031c0.593,0.053,0.786,0.123,0.946,0.077c2.132-0.607,3.996-4.05,3.351-6.164c-0.258-0.844-1.754-1.36-2.237-0.674
	c-1.032,1.467-2.051,2.985-2.756,4.619C185.204,171.446,185.92,172.415,186.141,173.031z M378.791,241.367
	c0.826-0.119,1.064-0.079,1.163-0.177c2.301-2.308,1.968-4.924,0.812-7.595c-0.116-0.269-0.679-0.603-0.881-0.522
	c-0.458,0.182-1.092,0.547-1.175,0.939C378.213,236.367,378.209,238.737,378.791,241.367z M665.318,936.658
	c2.152,2.069,3.405,3.507,5.209,4.192c1.387-1.474,1.056-2.94,0.824-4.337c-0.164-0.996-0.939-1.699-1.924-1.49
	C668.284,935.266,667.218,935.878,665.318,936.658z M553.69,1034.25c1.782,3.031,2.938,3.652,5.188,2.716
	c0.516-0.215,1.058-1.101,1.038-1.659c-0.02-0.558-0.623-1.395-1.154-1.579C557.206,1033.191,555.567,1033.039,553.69,1034.25z
	 M323.579,201.989c2.329-0.185,3.056-1.768,3.859-3.106c0.285-0.475,0.165-1.492-0.176-1.979c-0.646-0.926-1.73-1.474-2.836-0.85
	c-0.531,0.299-1.062,1.088-1.096,1.684C323.251,199.123,323.474,200.527,323.579,201.989z M641.6,930.597
	c-2.71-0.188-4.152-0.326-5.597-0.379c-1.223-0.044-2.319,0.763-1.919,1.322c0.385,0.536,1.019,1.16,1.604,1.229
	c1.234,0.145,2.535,0.082,3.756-0.162C639.988,932.5,640.407,931.749,641.6,930.597z M719.425,1102.457
	c1.11-4.176,1.105-4.384-0.134-7.413C717.954,1098.994,717.959,1099.313,719.425,1102.457z M704.896,1044.381
	c0.595-0.943,1.299-1.734,1.603-2.659c0.178-0.54-0.092-1.491-0.51-1.89c-0.412-0.392-1.471-0.639-1.88-0.377
	c-0.642,0.41-1.193,1.25-1.369,2.004c-0.137,0.589,0.251,1.388,0.607,1.97C703.578,1043.805,704.173,1043.957,704.896,1044.381z
	 M707.52,940.841c-0.093-2.004-1.121-3.414-2.658-4.468c-0.247-0.169-1.225,0.155-1.329,0.443
	C702.652,939.27,704.12,940.801,707.52,940.841z M655.872,953.146c1.888,0.146,3.298-0.617,3.539-1.631
	c0.254-1.072-1.038-2.352-2.386-2.363c-1.36-0.013-2.741,1.157-2.422,2.261C654.814,952.151,655.556,952.737,655.872,953.146z
	 M492.383,804.337c-2.028-1.119-3.228-1.09-4.145,0.093c-0.936,1.207-1.219,2.532,0.127,4.133
	C489.708,807.15,490.815,805.985,492.383,804.337z M278.897,481.255c-3.5,1.806-3.947,2.439-3.574,4.697
	c0.072,0.438,0.663,1.163,0.916,1.124c0.59-0.093,1.45-0.454,1.61-0.913C278.3,484.863,278.456,483.46,278.897,481.255z
	 M290.711,194.897c-0.045-1.63-1.005-2.555-2.172-2.479c-1.047,0.068-1.673,0.688-1.831,1.71c-0.167,1.079,0.827,2.059,2.15,1.859
	C289.587,195.877,290.23,195.196,290.711,194.897z M285.471,179.078c-0.108-1.619-1.209-2.588-2.654-2.411
	c-0.562,0.069-1.363,0.667-1.507,1.178c-0.355,1.261,1.242,2.555,2.85,2.276C284.707,180.025,285.152,179.345,285.471,179.078z
	 M559.695,1069.148c-0.737-1.159-1.072-2.016-1.682-2.566c-0.991-0.897-2.127-0.505-2.971,0.294c-0.451,0.429-0.576,1.2-0.849,1.815
	c0.807,0.338,1.592,0.863,2.428,0.959C557.44,1069.743,558.311,1069.398,559.695,1069.148z M670.94,956.745
	c-0.362,0.331-1.197,0.78-1.52,1.471c-0.361,0.772,0.829,1.651,2.274,1.777c0.816,0.071,1.443-0.243,1.591-1.117
	C673.483,957.704,672.645,956.783,670.94,956.745z M541.697,947.368c-0.234,0.369-0.738,0.796-0.714,1.19
	c0.121,2.022,1.337,3.551,2.638,3.486c0.159-0.008,0.35-0.1,0.46-0.215c0.87-0.907,0.339-2.793-1.228-4.189
	C542.629,947.44,542.195,947.476,541.697,947.368z M537.207,1056.814c-0.11-0.364-0.22-0.73-0.33-1.095
	c-0.844,0.042-1.733-0.072-2.52,0.161c-1.03,0.306-2.037,0.845-1.982,2.206c0.033,0.83,1.222,0.915,2.692,0.124
	C535.815,1057.808,536.496,1057.284,537.207,1056.814z M399.344,325.367c-1.059,5.144-1.059,5.144,1.485,6.127
	C401.46,329.57,400.588,328.077,399.344,325.367z M254.121,382.384c0.171-1.691-0.896-2.99-2.147-2.866
	c-0.398,0.04-0.973,0.58-1.067,0.984c-0.345,1.472,0.501,2.786,1.756,2.701C253.234,383.165,253.77,382.593,254.121,382.384z
	 M397.701,320.903c1.337-0.143,2.15-1.348,1.819-2.582c-0.138-0.514-0.935-1.176-1.455-1.196c-1.098-0.043-1.85,1.217-1.463,2.409
	C396.791,320.117,397.412,320.561,397.701,320.903z M686.837,1049.973c0.834-0.787,1.516-1.152,1.734-1.702
	c0.352-0.885-0.593-2.108-1.378-1.84c-0.561,0.192-1.208,0.855-1.322,1.411C685.771,1048.336,686.35,1048.97,686.837,1049.973z
	 M281.821,204.74c-2.066-0.728-3.326-1.07-4.822,0.391C278.513,206.329,279.731,206.257,281.821,204.74z M671.094,988.251
	c0.608-0.308,1.15-0.448,1.5-0.787c0.734-0.71,0.896-1.604,0.284-2.481c-0.183-0.263-0.625-0.543-0.905-0.504
	c-1.19,0.166-1.3,1.166-1.321,2.084C670.64,987.062,670.905,987.569,671.094,988.251z M654.521,1022.319
	c-0.123,0.446-0.368,0.94-0.369,1.437c-0.001,0.682,0.181,1.363,0.28,2.022c1.606,0.008,2.198-0.832,2.077-2.043
	C656.415,1022.792,655.822,1022.074,654.521,1022.319z M524.839,1025.779c-0.126,0.49-0.378,0.986-0.354,1.471
	c0.059,1.2,0.244,2.396,0.5,4.676C526.408,1029.216,526.221,1027.547,524.839,1025.779z M297.156,506.494
	c-0.608-0.601-0.995-1.149-1.522-1.409c-0.167-0.082-0.924,0.548-1.04,0.957c-0.222,0.785,0.217,1.478,1.061,1.504
	C296.039,507.558,296.441,507.019,297.156,506.494z M684.76,1058.737c-0.496,0.708-1.083,1.361-1.001,1.462
	c0.413,0.504,0.964,0.954,1.558,1.209c0.151,0.063,0.985-0.839,0.91-0.982C685.929,1059.862,685.395,1059.425,684.76,1058.737z
	 M548.734,882.317c-0.518-0.442-0.847-0.936-1.271-1.04c-0.758-0.187-1.531,0.09-1.513,1.016c0.016,0.848,0.705,1.283,1.5,1.096
	C547.876,883.288,548.207,882.777,548.734,882.317z M413.766,342.654c-0.72-0.489-1.394-1.071-1.487-0.989
	c-0.501,0.438-0.953,1.002-1.198,1.613c-0.064,0.159,0.874,0.989,1.007,0.912C412.652,343.866,413.085,343.316,413.766,342.654z
	 M672.233,1049.805c-0.279-0.648-0.505-1.249-0.538-1.238c-0.625,0.196-1.227,0.466-1.833,0.719
	c0.191,0.416,0.449,1.203,0.562,1.184C671.043,1050.357,671.627,1050.049,672.233,1049.805z M302.604,194.654
	c-0.625,0.813-1.102,1.25-1.293,1.788c-0.063,0.177,0.648,0.902,0.944,0.867c0.39-0.046,0.901-0.542,1.02-0.946
	C303.374,196.029,302.98,195.55,302.604,194.654z M677.623,1049.511c0.425-0.599,0.773-0.926,0.885-1.318
	c0.052-0.183-0.398-0.731-0.546-0.705c-0.406,0.073-0.773,0.363-1.155,0.568C677.026,1048.446,677.246,1048.838,677.623,1049.511z
	 M178.696,123.427c-0.379-0.314-0.669-0.702-0.83-0.655c-0.277,0.083-0.59,0.404-0.666,0.686c-0.059,0.217,0.222,0.526,0.351,0.794
	C177.919,123.987,178.288,123.722,178.696,123.427z M664.409,1039.232c0.254,0.195,0.5,0.404,0.774,0.566
	c0.029,0.018,0.344-0.279,0.318-0.372c-0.084-0.3-0.265-0.571-0.409-0.854C664.864,1038.792,664.637,1039.01,664.409,1039.232z
	 M649.287,1042.754c0.207-0.248,0.561-0.486,0.58-0.749c0.021-0.28-0.274-0.585-0.431-0.88c-0.285,0.334-0.607,0.649-0.82,1.024
	C648.584,1042.207,649.049,1042.547,649.287,1042.754z M544.407,684.724c0.245,0.188,0.482,0.39,0.747,0.544
	c0.029,0.017,0.333-0.268,0.308-0.355c-0.082-0.286-0.256-0.547-0.396-0.817C544.846,684.305,544.626,684.514,544.407,684.724z
	 M289.436,200.485c-0.318-0.094-0.633-0.217-0.958-0.259c-0.067-0.009-0.282,0.371-0.244,0.417c0.198,0.238,0.457,0.426,0.694,0.631
	C289.098,201.012,289.268,200.75,289.436,200.485z M286.838,183.976c-0.282,0.155-0.745,0.263-0.801,0.478
	c-0.07,0.264,0.198,0.618,0.32,0.932c0.386-0.214,0.772-0.428,1.158-0.642C287.29,184.488,287.065,184.232,286.838,183.976z
	 M242.371,228.704c-0.112-0.317-0.15-0.714-0.368-0.918c-0.106-0.1-0.549,0.159-0.839,0.255c0.163,0.43,0.326,0.859,0.488,1.29
	C241.892,229.122,242.131,228.913,242.371,228.704z M663.625,990.975c-0.387-0.337-0.743-0.647-1.099-0.958
	c-0.145,0.298-0.432,0.617-0.394,0.89c0.04,0.284,0.35,0.64,0.625,0.743C662.905,991.705,663.228,991.298,663.625,990.975z
	 M719.913,977.121c-0.259-0.196-0.51-0.406-0.787-0.569c-0.03-0.018-0.339,0.276-0.312,0.357c0.099,0.294,0.284,0.559,0.438,0.835
	C719.471,977.537,719.692,977.33,719.913,977.121z M501.782,882.16c-0.093-0.287-0.152-0.585-0.295-0.835
	c-0.044-0.077-0.453-0.062-0.465-0.021c-0.081,0.275-0.1,0.568-0.14,0.856C501.181,882.16,501.479,882.16,501.782,882.16z
	 M697.231,1080.016c0.045-0.163,0.09-0.327,0.135-0.491c-0.299-0.077-0.596-0.154-0.895-0.232c-0.043,0.163-0.136,0.461-0.119,0.467
	C696.637,1079.868,696.935,1079.939,697.231,1080.016z M547.534,965.651c0.309-0.137,0.727-0.197,0.893-0.434
	c0.136-0.193-0.026-0.599-0.058-0.908c-0.309,0.135-0.727,0.194-0.893,0.432C547.339,964.936,547.502,965.34,547.534,965.651z
	 M528.007,961.781c-0.101,0.289-0.226,0.574-0.283,0.872c-0.01,0.053,0.329,0.261,0.372,0.227c0.228-0.179,0.412-0.412,0.611-0.627
	C528.474,962.096,528.242,961.938,528.007,961.781z M253.789,559.945c-0.177-0.317-0.26-0.464-0.341-0.611
	c-0.365,0.303-0.738,0.598-1.079,0.926c-0.03,0.027,0.151,0.274,0.234,0.418C253,560.433,253.398,560.187,253.789,559.945z
	 M279.584,409.143c0.242-0.136,0.495-0.256,0.711-0.424c0.034-0.026-0.095-0.394-0.168-0.401c-0.283-0.028-0.574,0.026-0.862,0.049
	C279.37,408.625,279.476,408.883,279.584,409.143z M557.875,1059.05c0.198,0.202,0.395,0.403,0.593,0.604
	c0.09-0.116,0.281-0.31,0.258-0.34c-0.171-0.219-0.383-0.407-0.583-0.604C558.052,1058.825,557.96,1058.941,557.875,1059.05z
	 M706.418,1048.77c-0.048-0.132-0.063-0.331-0.154-0.376c-0.087-0.043-0.253,0.075-0.385,0.122c0.048,0.133,0.063,0.332,0.154,0.375
	C706.121,1048.933,706.286,1048.816,706.418,1048.77z M524.716,1037.66c0.121,0.057,0.242,0.113,0.362,0.17
	c0.057-0.119,0.181-0.265,0.149-0.354c-0.031-0.088-0.246-0.189-0.333-0.157C524.806,1037.352,524.773,1037.54,524.716,1037.66z
	 M677.836,1068.194c-0.135,0.053-0.27,0.105-0.404,0.158c0.129,0.238,0.246,0.486,0.401,0.704c0.019,0.026,0.252-0.102,0.387-0.158
	C678.093,1068.664,677.965,1068.429,677.836,1068.194z M242.548,249.885c0.127-0.046,0.319-0.062,0.361-0.15
	c0.041-0.086-0.072-0.245-0.118-0.372c-0.126,0.046-0.32,0.062-0.36,0.149C242.392,249.601,242.503,249.758,242.548,249.885z
	 M665.822,931.313c-0.065-0.146-0.124-0.414-0.194-0.417c-0.286-0.011-0.577,0.06-0.865,0.099c0.062,0.147,0.12,0.417,0.188,0.419
	C665.239,931.424,665.531,931.355,665.822,931.313z M544.166,886.279c-0.123-0.058-0.268-0.183-0.362-0.152
	c-0.087,0.028-0.123,0.223-0.18,0.345c0.121,0.057,0.268,0.183,0.359,0.151C544.073,886.592,544.107,886.4,544.166,886.279z
	 M547.52,889.585c-0.139-0.064-0.304-0.208-0.41-0.173c-0.101,0.034-0.138,0.255-0.202,0.394c0.138,0.064,0.305,0.209,0.407,0.172
	S547.455,889.724,547.52,889.585z M525.359,1041.421l0.297,0.209l0.005-0.409L525.359,1041.421z M275.025,509.772
	c-0.135-0.073-0.269-0.146-0.404-0.219c-0.062,0.134-0.206,0.303-0.167,0.393c0.047,0.108,0.249,0.151,0.383,0.222
	C274.899,510.036,274.962,509.904,275.025,509.772z M414.246,330.656l-0.269-0.342l-0.157,0.371L414.246,330.656z M172.939,453.036
	l0.07-0.428l-0.399,0.118L172.939,453.036z M347.174,435.112l-0.235-0.33l-0.183,0.37L347.174,435.112z M532.804,701.957
	l0.348-0.249l-0.387-0.192L532.804,701.957z M648.251,930.762c0.125,0.067,0.249,0.133,0.374,0.199
	c0.058-0.123,0.192-0.279,0.157-0.359c-0.046-0.101-0.23-0.137-0.354-0.202C648.369,930.521,648.311,930.642,648.251,930.762z
	 M497.879,983.4l-0.216,0.36l0.338,0.054L497.879,983.4z M497.851,1004.536l-0.203,0.346l0.314,0.056L497.851,1004.536z"/>
<path fill-rule="evenodd" clip-rule="evenodd" d="M123.804,151.938c-1.57-0.583-3.12-1.194-4.232-2.954
	c0.244-1.405,0.796-3.028,0.739-4.629c-0.078-2.165,0.158-3.983,1.961-5.451c1.227-0.999,1.515-2.548,1.479-4.052
	c-0.072-2.966,0.919-5.004,4.102-5.624c0.55-0.107,1.333-0.961,1.346-1.487c0.028-1.162-1.117-1.473-2.003-1.378
	c-1.62,0.173-3.237,0.525-4.803,0.984c-0.852,0.25-1.594,0.873-2.707,1.512c-0.663-0.968-1.637-1.763-1.74-2.66
	c-0.292-2.549-0.497-5.167-0.224-7.704c0.22-2.037,0.603-3.982,0.032-6.02c-0.493-1.76-0.135-3.447,1.554-4.348
	c2.756-1.47,3.287-3.709,2.854-6.539c-0.39-2.553-0.416-5.169-0.914-7.695c-1.026-5.201,1.1-9.498,3.892-13.459
	c2.108-2.989,5.333-2.684,7.973,0.021c3.163,3.24,4.65,7.236,4.803,11.533c0.102,2.858,0.594,5.452,1.913,8.001
	c-0.703,1.166-1.35,2.239-2.051,3.402c0.522,1.056,0.997,2.044,1.498,3.02c0.792,1.54,1.089,3.161,0.669,4.845
	c-0.551,2.207-0.487,4.375-0.014,6.595c0.709,3.321,0.564,6.639-0.581,9.86c-0.768,2.163-0.732,4.3-0.376,6.555
	c0.517,3.281,0.766,6.606,1.075,9.918c0.467,4.999,1.692,6.512,6.524,7.533c1.423,0.301,2.93,0.197,4.396,0.312
	c0.728,0.057,1.505,0.062,2.155,0.338c0.403,0.171,0.71,0.775,0.859,1.249c0.07,0.225-0.264,0.765-0.532,0.873
	c-0.844,0.339-1.753,0.517-2.621,0.803c-1.968,0.65-2.522,1.902-1.093,3.171c2.358,2.093,2.966,4.519,2.519,7.484
	c-0.077,0.511,0.608,1.138,1.198,2.152c2.207-2.607,4.005-4.823,5.002-7.677c0.338-0.966,1.116-1.951,1.963-2.531
	c2.096-1.435,4.325-0.692,4.667,1.732c0.697,4.937,1.345,9.917,1.441,14.891c0.113,5.906-0.368,11.825-0.613,17.737
	c-0.061,1.478,0.002,3.007-0.378,4.408c-0.263,0.971-1.045,1.935-1.849,2.595c-1.354,1.112-2.938,0.89-3.779-0.65
	c-1.112-2.038-2.518-3.646-4.647-4.552c-0.459-0.196-1.04-0.104-1.487-0.139c-1.275,1.297-0.377,2.527-0.161,3.742
	c0.549,3.087,0.044,3.707-2.941,3.596c-0.917-0.034-1.846-0.164-2.747-0.056c-0.44,0.054-0.827,0.551-1.279,0.877
	c0.969,1.605,2.532,1.736,3.92,1.784c2.764,0.096,5.537-0.102,8.307-0.144c1.279-0.019,2.597-0.145,3.832,0.104
	c3.329,0.672,3.72,1.372,3.751,4.857c0.031,3.319-0.083,6.688,0.446,9.941c0.753,4.623,0.646,9.164,0.221,13.789
	c-0.32,3.491-0.185,7.033-0.104,10.549c0.095,4.088-0.035,8.109-1.106,12.115c-0.452,1.69-0.075,3.602-0.075,5.571
	c-0.793,0.3-1.45,0.754-2.116,0.769c-4.255,0.091-8.512,0.08-12.769,0.115c-2.414,0.02-3.735-1.357-4.425-3.483
	c-0.225-0.694-0.317-1.448-0.363-2.182c-0.8-12.741-1.365-25.491-1.083-38.26c0.04-1.806,0.561-3.623,1.019-5.394
	c1.006-3.885,0.023-5.604-3.831-6.336c-0.891-0.169-1.813-0.171-2.905-0.266c-0.264-1.937-0.467-3.734-0.763-5.516
	c-0.365-2.205-0.737-4.37-3.052-5.606c-1.087-0.581-1.15-1.793-0.79-2.962c0.288-0.935,0.354-2.024-0.681-2.362
	c-0.772-0.251-1.846-0.094-2.611,0.258c-1.718,0.789-2.968,2.151-3.886,3.834c-0.432,0.792-0.969,1.574-1.631,2.167
	c-0.29,0.26-1.043,0.138-1.527-0.008c-0.253-0.076-0.466-0.559-0.538-0.893c-0.073-0.339-0.045-0.764,0.101-1.075
	c1.058-2.252,0.741-4.292-0.783-6.228c-1.203-1.526-1.518-3.332-1.488-5.235c0.026-1.739,0.428-3.359,1.767-4.519
	c4.544-3.934,4.601-8.906,3.424-14.199c-0.038-0.171,0.029-0.367,0.074-0.82c0.753-0.986,1.711-2.112,2.52-3.336
	c0.787-1.189,0.4-2.616-0.867-3.33c-0.799-0.45-1.841-0.555-2.512-1.124c-0.946-0.801-1.649-1.889-2.456-2.855
	c0.318-0.135,0.649-0.246,0.947-0.414c0.13-0.073,0.195-0.264,0.289-0.402c-0.236,0-0.592-0.096-0.685,0.019
	C124.009,151.256,123.933,151.619,123.804,151.938z M154.125,178.15c-0.215-0.443-0.353-0.724-0.489-1.006
	c-0.399,0.239-0.832,0.44-1.167,0.748c-0.065,0.06,0.305,0.787,0.373,0.771C153.282,178.561,153.694,178.337,154.125,178.15z"/>
<path fill-rule="evenodd" clip-rule="evenodd" d="M778.33,1284.905c8.952-0.753,17.694,0.694,26.826,0.993
	c0.302,3.533,0.791,6.939,0.843,10.354c0.14,9.067,0.102,18.139,0.104,27.208c0,1.104-0.122,2.219-0.289,3.312
	c-0.222,1.467-1.164,2.372-2.614,2.423c-6.824,0.237-13.651,0.534-20.477,0.532c-3.667-0.002-4.241-0.899-4.41-4.834
	c-0.135-3.142-0.328-6.281-0.424-9.423c-0.235-7.771-0.45-15.543-0.627-23.314C777.212,1289.953,777.053,1287.714,778.33,1284.905z
	 M781.395,1287.745c-0.073-0.258-0.122-0.528-0.24-0.764c-0.027-0.054-0.41-0.028-0.438,0.039c-0.102,0.253-0.124,0.538-0.177,0.811
	C780.824,1287.804,781.108,1287.775,781.395,1287.745z"/>
<path fill-rule="evenodd" clip-rule="evenodd" d="M179.2,236.101c-5.888-5.022-8.913-10.495-9.104-16.692
	c0.722,0.14,1.499,0.077,1.984,0.423c1.401,1.003,2.886,1.313,4.588,1.575c1.914,0.294,3.758,1.392,5.479,2.402
	c0.673,0.396,1.161,1.462,1.318,2.3c0.27,1.438,0.274,2.938,0.282,4.412c0.016,2.78,0.002,5.548,1.151,8.172
	c0.54,1.231,0.709,2.57-0.021,3.738c-0.452,0.725-1.226,1.615-1.944,1.704c-0.692,0.084-1.741-0.598-2.196-1.249
	c-0.608-0.869-0.912-2.008-1.132-3.075C179.346,238.56,179.317,237.261,179.2,236.101z"/>
<path fill-rule="evenodd" clip-rule="evenodd" d="M170.91,281.28c-0.274-3.502,1.162-5.69,4.22-7.058
	c2.883-1.29,5.566-0.538,7.85,1.044c1.997,1.384,2.165,3.698,1.113,6.319c-3.07,0.41-6.13,2.103-9.357-0.139
	c-0.491-0.341-1.406-0.065-2.125-0.086C172.103,281.346,171.594,281.314,170.91,281.28z"/>
<path fill-rule="evenodd" clip-rule="evenodd" d="M180.396,90.029c-0.554-1.641-1.107-3.281-1.778-5.267
	c-0.87,0.201-1.776,0.216-2.47,0.608c-1.719,0.973-3.341,2.118-5.423,3.467c-0.171-1.093-0.417-1.749-0.347-2.369
	c0.452-3.939,2.483-7.263,4.4-10.589c1.067-1.853,3.517-1.854,4.501,0.054c0.987,1.912,1.771,4.049,2.068,6.168
	c0.35,2.5,0.082,5.087,0.082,7.637C181.084,89.835,180.74,89.933,180.396,90.029z M177.255,78.08
	c-0.242,0.121-0.421,0.211-0.6,0.301c0.125,0.052,0.285,0.177,0.368,0.138C177.122,78.472,177.155,78.285,177.255,78.08z"/>
<path fill-rule="evenodd" clip-rule="evenodd" d="M325.83,612.242c0.14-7.129,0.246-13.346,0.398-19.561
	c0.026-1.092,0.089-2.235,0.441-3.247c0.19-0.544,0.988-1.129,1.586-1.224c1.065-0.168,1.691,0.659,1.8,1.641
	c0.1,0.894,0.143,1.883-0.137,2.716c-1.426,4.248-1.785,8.546-1.277,13.002C328.91,607.906,328.442,610.226,325.83,612.242z"/>
<path fill-rule="evenodd" clip-rule="evenodd" d="M175.77,156.325c-2.067-1.083-4.023-2.042-5.908-3.125
	c-0.978-0.561-0.928-2.212,0.043-2.797c0.77-0.463,1.598-0.885,2.456-1.134c2.226-0.649,4.042-0.239,4.915,1.209
	c0.446,0.739,0.717,1.696,0.727,2.559C178.017,154.338,177.57,155.544,175.77,156.325z"/>
<path fill-rule="evenodd" clip-rule="evenodd" d="M395.495,182.519c-2.728-0.919-4.447-1.493-6.162-2.079
	c-1.575-0.537-2.299-1.804-2.552-3.306c-0.108-0.642,0.006-1.592,0.417-1.973c0.398-0.371,1.43-0.462,1.971-0.214
	C392.078,176.282,394.321,178.279,395.495,182.519z"/>
<path fill-rule="evenodd" clip-rule="evenodd" d="M132.78,200.662c-3.492,1.342-6.527,2.591-9.63,3.634
	c-0.67,0.226-1.589-0.287-3.04-0.599c2.538-2.948,5.035-4.616,8.246-4.997C129.938,198.512,131.697,198.368,132.78,200.662z"/>
<path fill-rule="evenodd" clip-rule="evenodd" d="M377.232,611.732c-1.453-4.442-2.203-8.658-1.064-13.523
	c0.84,0.488,1.514,0.706,1.915,1.165c0.319,0.363,0.39,1.014,0.427,1.546c0.202,2.918,0.393,5.838,0.512,8.759
	C379.061,610.606,378.823,611.512,377.232,611.732z"/>
<path fill-rule="evenodd" clip-rule="evenodd" d="M400.313,215.459c-0.151,1.336-0.201,2.256-0.388,3.148
	c-0.059,0.284-0.51,0.716-0.732,0.688c-0.478-0.06-1.181-0.259-1.338-0.606c-1.064-2.359-1.807-4.834-1.505-7.454
	c0.069-0.604,0.623-1.452,1.149-1.64c1.077-0.385,1.7,0.533,1.934,1.424C399.846,212.602,400.079,214.233,400.313,215.459z"/>
<path fill-rule="evenodd" clip-rule="evenodd" d="M907.812,571.242c0.519-1.08,0.99-2.188,1.562-3.238
	c3.062-5.616,3.071-5.611,1.803-11.039c1.132-0.304,1.895,0.379,2.033,1.265c0.548,3.474,0.697,6.909-1.982,9.779
	c-1.041,1.116-1.923,2.38-2.877,3.576C908.172,571.47,907.991,571.356,907.812,571.242z"/>
<path fill-rule="evenodd" clip-rule="evenodd" d="M341.941,612.53c2.248-0.518,4.495-1.035,6.792-1.564
	c1.872,2.053,1.947,3.933,0.337,5.995C345.691,614.102,345.691,614.102,341.941,612.53z"/>
<path fill-rule="evenodd" clip-rule="evenodd" d="M349.235,606.885c-1.342-1.143-2.054-1.47-2.05-1.79
	c0.031-3.059,0.154-6.119,0.354-9.172c0.018-0.267,0.759-0.573,1.208-0.677c0.16-0.037,0.646,0.469,0.646,0.725
	C349.383,599.21,349.312,602.45,349.235,606.885z"/>
<path fill-rule="evenodd" clip-rule="evenodd" d="M322.778,606.02c1.412,3.984,1.412,6.804,0.002,10.729
	C321.685,613.52,321.684,610.081,322.778,606.02z"/>
<path fill-rule="evenodd" clip-rule="evenodd" d="M400.725,758.223c0-5.879,0-11.758,0-17.914
	C402,744.709,402.103,748.473,400.725,758.223z"/>
<path fill-rule="evenodd" clip-rule="evenodd" d="M526.738,577.186c0,5.847,0,11.696,0,17.538c-0.141,0.033-0.317,0.106-0.339,0.074
	c-0.099-0.145-0.216-0.319-0.217-0.484c-0.01-5.695-0.009-11.391-0.009-17.085C526.362,577.213,526.55,577.199,526.738,577.186z"/>
<path fill-rule="evenodd" clip-rule="evenodd" d="M449.281,750.527c1.958,2.77,1.958,2.77,0.449,6.541
	c-0.994,0.134-1.177-0.601-1.234-1.287c-0.09-1.07-0.115-2.155-0.04-3.223C448.49,752.069,448.828,751.604,449.281,750.527z"/>
<path fill-rule="evenodd" clip-rule="evenodd" d="M474.307,746.737c-1.566-4.585-1.566-4.585,0-9.562
	C474.307,740.689,474.307,743.713,474.307,746.737z"/>
<path fill-rule="evenodd" clip-rule="evenodd" d="M181.56,1157.287c-1.031,1.758-2.485,0.602-3.706,0.657
	c-0.315,0.014-0.79-0.642-0.961-1.078c-0.207-0.527,0.946-1.219,1.647-0.943C179.564,1156.326,180.55,1156.824,181.56,1157.287z"/>
<path fill-rule="evenodd" clip-rule="evenodd" d="M462.573,772.818c-2.064,1.164-3.477,0.864-5.727,0.294
	C459.003,771.843,460.429,772.002,462.573,772.818z"/>
<path fill-rule="evenodd" clip-rule="evenodd" d="M970.843,552.212c-0.242,1.173-0.483,2.346-0.724,3.518
	c-2.419-0.413-2.429-0.419-1.471-1.828c0.476-0.7,0.997-1.37,1.497-2.053C970.378,551.97,970.609,552.091,970.843,552.212z"/>
<path fill-rule="evenodd" clip-rule="evenodd" d="M526.282,613.991c-0.21-1.859-0.42-3.718-0.699-6.193
	C526.767,610.111,526.767,610.111,526.282,613.991z"/>
<path fill-rule="evenodd" clip-rule="evenodd" d="M439.087,759.117c-1.165,0-2.33,0-3.902,0
	C436.847,757.778,436.847,757.778,439.087,759.117z"/>
<path fill-rule="evenodd" clip-rule="evenodd" d="M511.82,621.724c0.204-2.14,1.14-2.623,2.254-2.706
	c0.433-0.034,0.903,0.427,1.356,0.663c-0.222,0.399-0.35,0.996-0.686,1.157C513.982,621.202,513.117,621.352,511.82,621.724z"/>
<path fill-rule="evenodd" clip-rule="evenodd" d="M184.346,252.797c-0.729-1.214-1.137-1.615-1.202-2.065
	c-0.12-0.827,0.789-1.525,1.366-1.083c0.361,0.275,0.648,0.885,0.642,1.34C185.145,251.469,184.75,251.943,184.346,252.797z"/>
<path fill-rule="evenodd" clip-rule="evenodd" d="M200.788,94.001c1.587-1.388,2.705-2.366,4.17-3.647
	C204.147,93.533,204.147,93.533,200.788,94.001z"/>
<path fill-rule="evenodd" clip-rule="evenodd" d="M378.759,616.357c-0.735,0.468-1.241,0.79-1.746,1.11
	c-0.203-0.452-0.619-0.94-0.549-1.346c0.068-0.395,0.604-0.924,0.991-0.976C377.742,615.107,378.12,615.733,378.759,616.357z"/>
<path fill-rule="evenodd" clip-rule="evenodd" d="M358.838,575.839c-0.938,0.563-1.418,1.011-1.959,1.105
	c-0.259,0.045-0.636-0.577-0.96-0.897c0.373-0.316,0.708-0.804,1.131-0.897C357.41,575.069,357.871,575.441,358.838,575.839z"/>
<path fill-rule="evenodd" clip-rule="evenodd" d="M400.978,722.997c0.799,1.255,1.193,1.663,1.321,2.142
	c0.101,0.377-0.128,0.841-0.21,1.267c-0.37-0.309-0.898-0.551-1.068-0.944C400.834,725.026,400.978,724.451,400.978,722.997z"/>
<path fill-rule="evenodd" clip-rule="evenodd" d="M450.009,761.506c0.328,0.339,0.772,0.666,0.725,0.772
	c-0.189,0.428-0.533,0.787-0.82,1.172c-0.322-0.314-0.644-0.63-0.965-0.944C449.297,762.177,449.646,761.848,450.009,761.506z"/>
<path fill-rule="evenodd" clip-rule="evenodd" d="M526.216,603.51c-0.171-0.631-0.388-1.255-0.479-1.897
	c-0.021-0.148,0.387-0.357,0.598-0.539c0.103,0.132,0.288,0.259,0.294,0.394c0.031,0.657,0.014,1.317,0.014,1.975
	C526.501,603.466,526.358,603.489,526.216,603.51z"/>
<path fill-rule="evenodd" clip-rule="evenodd" d="M188.744,1343.865c0-0.878,0-1.755,0-2.633c0.031,0,0.061,0,0.092,0
	c0,0.877,0,1.754,0,2.633C188.805,1343.865,188.775,1343.865,188.744,1343.865z"/>
<path fill-rule="evenodd" clip-rule="evenodd" d="M955.631,555.469c0.508-0.998,1.017-1.996,1.686-3.309
	c0.275,1.877-0.334,2.812-1.682,3.294L955.631,555.469z"/>
<path fill-rule="evenodd" clip-rule="evenodd" d="M526.409,550.857c0-0.784,0-1.568,0-2.351c0.08,0,0.159,0,0.239,0
	c0,0.783,0,1.567,0,2.351C526.568,550.857,526.489,550.857,526.409,550.857z"/>
<path fill-rule="evenodd" clip-rule="evenodd" d="M182.191,901.353c-0.551-1.155-0.317-1.945,1.013-2.248
	C183.766,900.265,183.448,901.018,182.191,901.353z"/>
<path fill-rule="evenodd" clip-rule="evenodd" d="M468.256,772.945c-0.2,0.214-0.369,0.549-0.606,0.606
	c-0.265,0.064-0.591-0.123-0.891-0.201c0.21-0.219,0.387-0.556,0.638-0.624C467.644,772.658,467.966,772.859,468.256,772.945z"/>
<path fill-rule="evenodd" clip-rule="evenodd" d="M983.676,554.749c-0.141-0.293-0.394-0.576-0.365-0.829
	c0.031-0.297,0.307-0.569,0.477-0.852c0.162,0.255,0.479,0.529,0.45,0.76C984.197,554.139,983.893,554.417,983.676,554.749z"/>
<path fill-rule="evenodd" clip-rule="evenodd" d="M955.635,555.455c0,1.604,0,3.207,0,5.067c-1.23-0.888-0.291-1.646-0.264-2.337
	c0.036-0.905,0.167-1.806,0.258-2.712C955.631,555.469,955.635,555.455,955.635,555.455z"/>
<path fill-rule="evenodd" clip-rule="evenodd" d="M402.089,644.045c-0.054-0.43-0.148-0.859-0.145-1.289
	c0.002-0.255,0.159-0.509,0.356-1.085c0,1.006,0,1.681,0,2.355C402.23,644.033,402.16,644.039,402.089,644.045z"/>
<path fill-rule="evenodd" clip-rule="evenodd" d="M526.724,620.45c-0.238,0.188-0.475,0.375-0.712,0.562
	c-0.186-0.375-0.372-0.751-0.558-1.128c0.293-0.094,0.655-0.337,0.862-0.242C526.53,619.74,526.594,620.166,526.724,620.45z"/>
<path fill-rule="evenodd" clip-rule="evenodd" d="M409.901,586.612c-0.322,0.395-0.486,0.785-0.761,0.893
	c-0.563,0.221-1.027-0.756-0.695-1.607c0.093-0.237,0.494-0.353,0.754-0.525C409.443,585.804,409.688,586.233,409.901,586.612z"/>
<path fill-rule="evenodd" clip-rule="evenodd" d="M179.959,1344.171c-0.38,0.298-0.763,0.597-1.146,0.896
	c-0.053-0.328-0.225-0.698-0.127-0.972c0.103-0.287,0.465-0.48,0.714-0.715C179.562,1343.609,179.725,1343.839,179.959,1344.171z"/>
<path fill-rule="evenodd" clip-rule="evenodd" d="M154.181,148.139c0.141,0.243,0.281,0.486,0.421,0.729
	c-0.146,0.069-0.397,0.222-0.418,0.194c-0.171-0.218-0.298-0.47-0.439-0.711C153.889,148.28,154.035,148.209,154.181,148.139z"/>
<path fill-rule="evenodd" clip-rule="evenodd" d="M330.821,576.718c-0.226,0.136-0.453,0.271-0.68,0.406
	c-0.064-0.139-0.21-0.376-0.18-0.403c0.201-0.166,0.439-0.286,0.665-0.421C330.69,576.438,330.755,576.578,330.821,576.718z"/>
<path fill-rule="evenodd" clip-rule="evenodd" d="M1015.333,549.313c0.435-0.048,0.871-0.095,1.309-0.143
	c0.001,0.143,0.04,0.398-0.002,0.412c-0.411,0.137-0.835,0.236-1.256,0.345C1015.371,549.775,1015.358,549.622,1015.333,549.313z"/>
<path fill-rule="evenodd" clip-rule="evenodd" d="M526.667,540.707c-0.033,0.445-0.066,0.891-0.1,1.336
	c-0.054-0.004-0.109-0.008-0.164-0.013c0.037-0.445,0.074-0.891,0.11-1.335C526.564,540.699,526.616,540.703,526.667,540.707z"/>
<path fill-rule="evenodd" clip-rule="evenodd" d="M413.106,594.025c0.202,0.207,0.552,0.403,0.567,0.621
	c0.019,0.268-0.243,0.556-0.384,0.835c-0.289-0.273-0.577-0.545-0.866-0.818C412.648,594.454,412.873,594.243,413.106,594.025z"/>
<path fill-rule="evenodd" clip-rule="evenodd" d="M323.542,599.669c-0.164,0.223-0.328,0.444-0.491,0.666
	c-0.162-0.257-0.441-0.511-0.451-0.773c-0.008-0.213,0.309-0.438,0.482-0.658C323.235,599.159,323.389,599.414,323.542,599.669z"/>
<path fill-rule="evenodd" clip-rule="evenodd" d="M184.338,194.876c0.167,0,0.331,0,0.495,0c-0.034,0.272-0.044,0.551-0.124,0.809
	c-0.015,0.049-0.307,0.012-0.471,0.015C184.271,195.427,184.304,195.153,184.338,194.876z"/>
<path fill-rule="evenodd" clip-rule="evenodd" d="M422.674,637.146c0.126,0.061,0.328,0.097,0.358,0.189
	c0.032,0.099-0.099,0.25-0.158,0.378c-0.127-0.061-0.331-0.097-0.36-0.189C422.482,637.426,422.613,637.274,422.674,637.146z"/>
<path fill-rule="evenodd" clip-rule="evenodd" d="M504.464,621.344c-0.299,0.097-0.594,0.225-0.9,0.267
	c-0.088,0.013-0.211-0.228-0.318-0.352c0.3-0.096,0.594-0.226,0.901-0.269C504.235,620.978,504.357,621.218,504.464,621.344z"/>
<path fill-rule="evenodd" clip-rule="evenodd" d="M1002.478,551.333c-0.312,0.065-0.623,0.162-0.938,0.178
	c-0.11,0.006-0.232-0.187-0.35-0.288c0.311-0.065,0.619-0.164,0.931-0.179C1002.235,551.038,1002.358,551.23,1002.478,551.333z"/>
<path fill-rule="evenodd" clip-rule="evenodd" d="M965.762,560.796c-0.071,0.151-0.142,0.302-0.214,0.454
	c-0.085-0.136-0.271-0.311-0.235-0.399c0.084-0.211,0.272-0.381,0.417-0.568C965.74,560.453,965.751,560.625,965.762,560.796z"/>
<path fill-rule="evenodd" clip-rule="evenodd" d="M178.693,136.346c-0.097,0.112-0.193,0.224-0.291,0.337
	c-0.125-0.215-0.251-0.43-0.377-0.645c0.151-0.037,0.334-0.142,0.443-0.091C178.581,136.001,178.622,136.207,178.693,136.346z"/>
<polygon fill-rule="evenodd" clip-rule="evenodd" points="160.209,149.636 160.48,149.334 160.607,149.703 "/>
<path fill-rule="evenodd" clip-rule="evenodd" d="M175.543,899.526c-0.25,0.108-0.501,0.215-0.752,0.322
	c-0.053-0.146-0.173-0.407-0.15-0.421c0.236-0.136,0.496-0.23,0.748-0.336C175.44,899.236,175.491,899.381,175.543,899.526z"/>
<polygon fill-rule="evenodd" clip-rule="evenodd" points="177.944,1210.561 178.187,1210.764 177.873,1210.9 "/>
<polygon fill-rule="evenodd" clip-rule="evenodd" points="994.577,552.23 994.666,552.696 994.376,552.624 "/>
<polygon fill-rule="evenodd" clip-rule="evenodd" points="121.938,158.377 121.588,158.396 121.718,158.095 "/>
<path fill-rule="evenodd" clip-rule="evenodd" d="M401.377,767.999c-0.181,0.234-0.27,0.351-0.359,0.466
	c-0.088-0.117-0.177-0.234-0.265-0.352C400.924,768.082,401.096,768.051,401.377,767.999z"/>
<polygon fill-rule="evenodd" clip-rule="evenodd" points="187.448,842.766 187.557,842.414 187.919,842.651 "/>
<polygon fill-rule="evenodd" clip-rule="evenodd" points="182.055,837.396 181.709,837.399 181.826,837.113 "/>
<polygon fill-rule="evenodd" clip-rule="evenodd" points="377.449,586.341 377.448,586.687 377.161,586.542 "/>
<path fill-rule="evenodd" clip-rule="evenodd" d="M474.496,781.621c-0.076-0.104-0.212-0.209-0.212-0.312s0.139-0.204,0.216-0.307
	c0.078,0.103,0.218,0.207,0.218,0.31C474.718,781.416,474.576,781.519,474.496,781.621z"/>
<path fill-rule="evenodd" clip-rule="evenodd" d="M177.115,584.721c0.136-0.046,0.307-0.167,0.44-0.135
	c0.115,0.029,0.188,0.232,0.278,0.358c-0.24,0.082-0.479,0.164-0.719,0.246C177.115,585.036,177.115,584.882,177.115,584.721z"/>
<polygon fill-rule="evenodd" clip-rule="evenodd" points="450.919,735.376 450.657,735.653 450.56,735.315 "/>
<path fill-rule="evenodd" clip-rule="evenodd" d="M995.616,556.22c0.068,0.135,0.216,0.371,0.194,0.389
	c-0.163,0.125-0.36,0.208-0.547,0.305c0.004-0.155-0.035-0.33,0.023-0.459C995.337,556.348,995.502,556.296,995.616,556.22z"/>
<polygon fill-rule="evenodd" clip-rule="evenodd" points="180.047,1105.42 179.751,1105.415 179.903,1105.111 "/>
<path fill-rule="evenodd" clip-rule="evenodd" d="M568.921,83.693c-0.219-0.037-0.439-0.074-0.659-0.111
	c0.07,0.112,0.13,0.307,0.21,0.315c0.12,0.013,0.254-0.105,0.383-0.168L568.921,83.693z"/>
<path fill-rule="evenodd" clip-rule="evenodd" d="M568.855,83.73c-0.043-0.294-0.086-0.588-0.128-0.883
	c0.061,0.281,0.122,0.563,0.188,0.845C568.921,83.693,568.855,83.73,568.855,83.73z"/>
<path fill-rule="evenodd" clip-rule="evenodd" d="M342.811,234.54c-3.159,2.663-3.325,2.823-2.477,5.361
	c0.509,1.524,1.403,2.931,2.212,4.34c1.228,2.139,0.945,3.131-1.385,4.298c-0.653,0.328-1.329,0.629-2.024,0.846
	c-0.309,0.097-0.693-0.045-1.042-0.079c-1.197-5.805-1.183-12.245,0.142-16.341C339.562,233.42,340.881,233.875,342.811,234.54z"/>
<path fill-rule="evenodd" clip-rule="evenodd" d="M339.456,299.987c-1.108,1.411-1.865,2.374-2.739,3.487
	c-0.877-2.235-1.67-4.057-2.295-5.934c-0.296-0.889-0.166-1.835,1.364-2.294C336.88,296.661,338.057,298.181,339.456,299.987z"/>
<path fill-rule="evenodd" clip-rule="evenodd" d="M334.689,284.034c-0.477-0.294-1.071-0.463-1.299-0.849
	c-0.354-0.6-0.526-1.334-0.654-2.034c-0.186-1.012-0.727-2.126,0.378-2.958c0.877-0.661,2.589,0.491,3.074,2.272
	c0.212,0.782,0.02,1.742-0.225,2.549C335.842,283.416,335.188,283.656,334.689,284.034z"/>
<path fill-rule="evenodd" clip-rule="evenodd" d="M342.942,209.553c2.118,1.276,2.118,1.276,1.039,5.159
	C342.582,212.709,342.582,212.709,342.942,209.553z"/>
<path fill-rule="evenodd" clip-rule="evenodd" d="M340.728,309.256c-0.73,0.701-1.148,1.445-1.664,1.521
	c-0.841,0.122-1.313-0.688-1.095-1.434c0.173-0.594,0.793-1.058,1.215-1.579C339.62,308.185,340.057,308.607,340.728,309.256z"/>
<path fill-rule="evenodd" clip-rule="evenodd" d="M336.745,215.037c-0.524-0.661-0.821-1.035-1.118-1.409
	c0.516-0.362,0.996-0.848,1.57-1.021c0.209-0.064,0.982,0.806,0.917,0.918C337.819,214.042,337.319,214.442,336.745,215.037z"/>
<path fill-rule="evenodd" clip-rule="evenodd" d="M341.244,348.836c0.226,0.14,0.463,0.267,0.665,0.437
	c0.027,0.022-0.125,0.258-0.193,0.394c-0.226-0.139-0.463-0.265-0.665-0.433C341.023,349.211,341.174,348.975,341.244,348.836z"/>
<path fill-rule="evenodd" clip-rule="evenodd" d="M402.492,524.833c1.023,3.961,1.024,3.961,0.425,6.445
	C401.455,529.656,401.463,529.654,402.492,524.833z"/>
<path fill-rule="evenodd" clip-rule="evenodd" d="M379.05,561.023c-0.404,0.245-0.651,0.395-0.897,0.545
	c-0.157-0.287-0.428-0.571-0.436-0.862c-0.006-0.24,0.299-0.488,0.466-0.733C378.466,560.315,378.749,560.658,379.05,561.023z"/>
<path fill-rule="evenodd" clip-rule="evenodd" d="M403.222,419.62c0.804,3.91,0.551,7.122,0.219,10.314
	c-0.141,1.355-2.023,1.954-2.991,1.067c-1.788-1.638-2.539-5.22-1.248-7.016C400.213,422.58,401.549,421.409,403.222,419.62z"/>
<path fill-rule="evenodd" clip-rule="evenodd" d="M402.398,435.203c0.364,0.556,0.924,1.069,1.059,1.676
	c0.573,2.593,0.766,6.022-1.224,15.116c-1.314-0.542-1.344-1.8-1.12-2.763C402.171,444.702,401.65,440.133,402.398,435.203z"/>
<polygon fill-rule="evenodd" clip-rule="evenodd" points="444.817,435.598 444.554,435.343 444.875,435.253 "/>
<path fill-rule="evenodd" clip-rule="evenodd" d="M244.907,173.056c-0.262,0.108-0.524,0.214-0.786,0.32
	c-0.06-0.257-0.147-0.514-0.158-0.773c-0.002-0.059,0.337-0.221,0.389-0.178C244.564,172.602,244.727,172.839,244.907,173.056z"/>
<path fill-rule="evenodd" clip-rule="evenodd" d="M243.268,158.788c-0.193,0.183-0.386,0.363-0.58,0.544
	c-0.097-0.131-0.302-0.342-0.274-0.379c0.157-0.21,0.37-0.379,0.564-0.562C243.074,158.522,243.17,158.655,243.268,158.788z"/>
<path fill-rule="evenodd" clip-rule="evenodd" d="M442.718,492.527c0.138,1.581-0.745,2.59-1.979,2.713
	c-1.079,0.108-1.76-0.46-1.935-1.503c-0.256-1.527,0.748-3.159,1.809-2.813C441.509,491.216,442.208,492.116,442.718,492.527z"/>
<path fill-rule="evenodd" clip-rule="evenodd" d="M442.581,476.234c-0.05,0.151-0.062,0.386-0.161,0.432
	c-0.125,0.059-0.323-0.037-0.489-0.065c0.083-0.228,0.166-0.456,0.249-0.684C442.313,476.023,442.447,476.128,442.581,476.234z"/>
<path fill-rule="evenodd" clip-rule="evenodd" d="M237.73,406.917c-1.596,0.073-3.067-0.917-3.277-2.207
	c-0.247-1.514,1.241-3.236,2.843-3.291c1.2-0.041,2.098,1.274,2.198,3.217C239.56,405.921,238.828,406.867,237.73,406.917z"/>
<path fill-rule="evenodd" clip-rule="evenodd" d="M631.129,1077.677c-0.579-0.807-1.196-1.592-1.704-2.441
	c-0.105-0.173,0.121-0.734,0.341-0.861c0.232-0.133,0.82-0.077,0.939,0.103c0.547,0.825,0.984,1.724,1.46,2.597
	C631.82,1077.274,631.475,1077.476,631.129,1077.677z"/>
<path fill-rule="evenodd" clip-rule="evenodd" d="M615.301,1072.706c-0.197,0.226-0.395,0.45-0.592,0.675
	c-0.27-0.32-0.539-0.642-0.809-0.962c0.261-0.139,0.562-0.431,0.772-0.376C614.922,1072.107,615.095,1072.471,615.301,1072.706z"/>
<polygon fill-rule="evenodd" clip-rule="evenodd" points="608.261,1062.854 608.572,1063.13 608.194,1063.261 "/>
<path fill-rule="evenodd" clip-rule="evenodd" d="M333.127,509.939c-0.335-0.805-0.457-0.969-0.465-1.139
	c-0.086-1.846-0.23-4.113,1.777-4.709c2.326-0.691,3.952,0.969,5.27,3.227C337.626,508.801,335.686,509.897,333.127,509.939z"/>
<path fill-rule="evenodd" clip-rule="evenodd" d="M333.493,547.889c0.367,1.161,1.185,2.392,1.018,3.471
	c-0.572,3.702,1.272,7.737-1.718,11.522c-0.414-0.708-0.939-1.214-0.986-1.762c-0.125-1.456-0.139-2.936-0.025-4.395
	c0.224-2.876,0.563-5.743,0.854-8.613C332.922,548.039,333.207,547.964,333.493,547.889z"/>
<path fill-rule="evenodd" clip-rule="evenodd" d="M339.322,563.409c-1.221-2.423-1.381-3.931,0.259-5.65
	C340.66,559.601,340.66,561.058,339.322,563.409z"/>
<polygon fill-rule="evenodd" clip-rule="evenodd" points="325.831,557.32 326.239,557.296 326.068,557.648 "/>
<path fill-rule="evenodd" clip-rule="evenodd" d="M315.285,370.476c-0.227,0.137-0.445,0.292-0.687,0.388
	c-0.042,0.017-0.288-0.257-0.261-0.33c0.09-0.242,0.263-0.454,0.403-0.676C314.923,370.063,315.104,370.269,315.285,370.476z"/>
<path fill-rule="evenodd" clip-rule="evenodd" d="M614.041,1007.792c0.651-0.608,1.069-1.118,1.604-1.414
	c0.126-0.07,0.99,0.721,0.928,0.867c-0.241,0.569-0.673,1.095-1.15,1.5C615.333,1008.819,614.708,1008.262,614.041,1007.792z"/>
<polygon fill-rule="evenodd" clip-rule="evenodd" points="658.053,1170.148 658.022,1169.796 658.331,1169.953 "/>
<path fill-rule="evenodd" clip-rule="evenodd" d="M306.325,176.628c0.297,0.334,0.903,0.762,1.101,1.332
	c0.12,0.346-0.327,0.957-0.634,1.361c-0.196,0.258-0.584,0.417-0.917,0.513c-0.975,0.28-1.856,0.068-2.178-0.961
	c-0.316-1.016,0.289-1.7,1.216-2.059C305.234,176.69,305.614,176.716,306.325,176.628z"/>
<path fill-rule="evenodd" clip-rule="evenodd" d="M636.832,1043.622c0.224-2.609-0.184-4.487,2.129-5.218
	c0.204-0.064,0.755,0.305,0.81,0.549C640.199,1040.83,639.111,1041.963,636.832,1043.622z"/>
</svg>
